<?xml version="1.0" encoding="UTF-8"?>
<svg xmlns="http://www.w3.org/2000/svg" xmlns:xlink="http://www.w3.org/1999/xlink" viewBox="142.481 14.676 377.880 363.500" width="377.880" height="363.500" version="1.2">
<g id="surface1">
<path style=" stroke:none;fill-rule:nonzero;fill:rgb(92.941284%,12.156677%,50.196838%);fill-opacity:1;" d="M 338.855469 74.96875 C 333.269531 76.316406 327.824219 74.132812 326.355469 69.957031 L 311.828125 28.582031 C 310.191406 23.921875 314.117188 18.652344 320.347656 17.144531 L 328.90625 15.074219 C 335.140625 13.570312 341.039062 16.464844 341.710938 21.359375 L 347.683594 64.800781 C 348.285156 69.1875 344.4375 73.617188 338.855469 74.96875 "></path>
<path style=" stroke:none;fill-rule:nonzero;fill:rgb(49.411011%,32.156372%,63.137817%);fill-opacity:1;" d="M 454.238281 117.492188 C 450.273438 112.023438 450.355469 105.027344 454.429688 101.429688 L 494.738281 65.8125 C 499.28125 61.796875 506.941406 63.582031 511.367188 69.683594 L 517.441406 78.058594 C 521.863281 84.160156 521.179688 91.996094 515.949219 95.066406 L 469.566406 122.308594 C 464.878906 125.058594 458.203125 122.960938 454.238281 117.492188 "></path>
<path style=" stroke:none;fill-rule:nonzero;fill:rgb(95.294189%,44.313049%,21.176147%);fill-opacity:1;" d="M 387.480469 65.457031 C 384.996094 72.601562 377.1875 76.382812 370.039062 73.898438 C 362.894531 71.410156 359.117188 63.601562 361.601562 56.457031 C 364.085938 49.308594 371.894531 45.53125 379.042969 48.015625 C 386.1875 50.503906 389.96875 58.3125 387.480469 65.457031 "></path>
<path style=" stroke:none;fill-rule:nonzero;fill:rgb(100%,100%,100%);fill-opacity:1;" d="M 439.976562 322.472656 L 205.210938 376.007812 C 191.011719 379.242188 176.875 370.355469 173.636719 356.152344 L 144.988281 230.511719 C 142.113281 217.898438 145.402344 204.667969 153.847656 194.871094 L 259.46875 72.363281 L 407.746094 136.972656 C 419.601562 142.140625 428.300781 152.636719 431.179688 165.25 L 459.832031 290.902344 C 463.070312 305.09375 454.179688 319.238281 439.976562 322.472656 "></path>
<path style=" stroke:none;fill-rule:nonzero;fill:rgb(0%,0%,0%);fill-opacity:1;" d="M 199.300781 378.175781 C 194.105469 378.175781 189.011719 376.714844 184.519531 373.890625 C 178.214844 369.925781 173.832031 363.753906 172.179688 356.492188 L 143.527344 230.84375 C 140.558594 217.820312 143.992188 204.007812 152.714844 193.890625 L 258.328125 71.386719 C 258.757812 70.886719 259.457031 70.726562 260.054688 70.992188 L 408.347656 135.601562 C 420.589844 140.9375 429.667969 151.894531 432.636719 164.917969 L 461.292969 290.5625 C 464.707031 305.542969 455.296875 320.515625 440.316406 323.929688 L 205.542969 377.464844 C 203.476562 377.933594 201.378906 378.175781 199.300781 378.175781 M 259.875 74.179688 L 154.984375 195.847656 C 146.878906 205.246094 143.691406 218.078125 146.449219 230.179688 L 175.097656 355.820312 C 176.578125 362.304688 180.488281 367.816406 186.117188 371.351562 C 191.738281 374.890625 198.402344 376.027344 204.882812 374.539062 L 439.648438 321.015625 L 439.976562 322.472656 L 439.648438 321.015625 C 446.128906 319.535156 451.644531 315.621094 455.179688 309.996094 C 458.714844 304.375 459.84375 297.703125 458.363281 291.230469 L 429.71875 165.585938 C 426.964844 153.488281 418.523438 143.304688 407.148438 138.347656 Z M 259.875 74.179688 "></path>
<path style=" stroke:none;fill-rule:nonzero;fill:rgb(100%,100%,100%);fill-opacity:1;" d="M 160.679688 206.480469 L 308.316406 286.636719 L 406.617188 150.398438 Z M 160.679688 206.480469 "></path>
<path style=" stroke:none;fill-rule:nonzero;fill:rgb(0%,0%,0%);fill-opacity:1;" d="M 308.316406 288.132812 C 308.078125 288.132812 307.828125 288.074219 307.609375 287.953125 L 159.960938 207.796875 C 159.234375 207.402344 158.964844 206.492188 159.359375 205.765625 C 159.753906 205.039062 160.664062 204.769531 161.394531 205.164062 L 307.878906 284.6875 L 405.410156 149.519531 C 405.890625 148.851562 406.828125 148.699219 407.496094 149.183594 C 408.164062 149.667969 408.324219 150.605469 407.835938 151.273438 L 309.535156 287.515625 C 309.246094 287.914062 308.785156 288.132812 308.316406 288.132812 "></path>
<path style=" stroke:none;fill-rule:nonzero;fill:rgb(100%,100%,100%);fill-opacity:1;" d="M 303.054688 263.535156 L 201.9375 376.535156 C 203.027344 376.425781 204.113281 376.257812 205.210938 376.007812 L 439.976562 322.472656 C 441.074219 322.222656 442.132812 321.902344 443.164062 321.523438 Z M 303.054688 263.535156 "></path>
<path style=" stroke:none;fill-rule:nonzero;fill:rgb(0%,0%,0%);fill-opacity:1;" d="M 201.9375 378.035156 C 201.378906 378.035156 200.859375 377.714844 200.597656 377.214844 C 200.320312 376.65625 200.410156 375.996094 200.816406 375.539062 L 301.933594 262.535156 C 302.363281 262.054688 303.035156 261.90625 303.625 262.144531 L 443.734375 320.144531 C 444.3125 320.375 444.671875 320.945312 444.660156 321.554688 C 444.652344 322.171875 444.253906 322.722656 443.671875 322.933594 C 442.542969 323.339844 441.414062 323.679688 440.316406 323.929688 L 205.550781 377.464844 C 204.445312 377.714844 203.273438 377.90625 202.085938 378.023438 Z M 303.464844 265.320312 L 205.941406 374.300781 L 438.589844 321.253906 Z M 303.464844 265.320312 "></path>
<path style=" stroke:none;fill-rule:nonzero;fill:rgb(100%,100%,100%);fill-opacity:1;" d="M 457.976562 290.5 L 429.660156 166.332031 C 427.003906 154.664062 424.277344 147.839844 413.6875 142.441406 C 411.273438 146.289062 407.796875 151.65625 405.210938 155.363281 C 399.445312 164.199219 412.699219 174.460938 412.699219 174.460938 C 412.71875 174.554688 441.804688 302.105469 441.804688 302.105469 L 192.898438 358.867188 C 192.898438 358.867188 164.285156 224.902344 164.269531 224.808594 C 164.269531 224.808594 157.53125 205.734375 151.042969 202.085938 C 146.15625 210.726562 144.574219 220.964844 146.824219 230.828125 L 175.140625 355.003906 C 178.339844 369.035156 192.308594 377.816406 206.339844 374.621094 L 438.359375 321.714844 C 452.390625 318.507812 461.171875 304.542969 457.976562 290.5 "></path>
<path style=" stroke:none;fill-rule:nonzero;fill:rgb(92.549133%,52.941895%,31.764221%);fill-opacity:1;" d="M 242.46875 366.378906 L 261.183594 362.113281 L 268.226562 341.6875 L 249.507812 345.953125 Z M 242.46875 366.378906 "></path>
<path style=" stroke:none;fill-rule:nonzero;fill:rgb(92.549133%,52.941895%,31.764221%);fill-opacity:1;" d="M 209.675781 373.859375 L 228.382812 369.59375 L 235.4375 349.171875 L 216.71875 353.433594 Z M 209.675781 373.859375 "></path>
<path style=" stroke:none;fill-rule:nonzero;fill:rgb(92.549133%,52.941895%,31.764221%);fill-opacity:1;" d="M 300.066406 334.429688 L 281.351562 338.691406 L 274.308594 359.117188 L 293.027344 354.851562 Z M 300.066406 334.429688 "></path>
<path style=" stroke:none;fill-rule:nonzero;fill:rgb(92.549133%,52.941895%,31.764221%);fill-opacity:1;" d="M 330.671875 327.445312 L 311.964844 331.722656 L 304.921875 352.136719 L 323.628906 347.871094 Z M 330.671875 327.445312 "></path>
<path style=" stroke:none;fill-rule:nonzero;fill:rgb(92.549133%,52.941895%,31.764221%);fill-opacity:1;" d="M 363.421875 319.984375 L 344.714844 324.25 L 337.660156 344.675781 L 356.378906 340.402344 Z M 363.421875 319.984375 "></path>
<path style=" stroke:none;fill-rule:nonzero;fill:rgb(92.549133%,52.941895%,31.764221%);fill-opacity:1;" d="M 396.5 312.445312 L 377.78125 316.710938 L 370.742188 337.132812 L 389.449219 332.859375 Z M 396.5 312.445312 "></path>
<path style=" stroke:none;fill-rule:nonzero;fill:rgb(92.549133%,52.941895%,31.764221%);fill-opacity:1;" d="M 430.878906 304.605469 L 412.160156 308.867188 L 405.121094 329.292969 L 423.835938 325.019531 Z M 430.878906 304.605469 "></path>
<path style=" stroke:none;fill-rule:nonzero;fill:rgb(92.549133%,52.941895%,31.764221%);fill-opacity:1;" d="M 192.230469 347.433594 L 187.964844 328.714844 L 167.539062 321.671875 L 171.804688 340.390625 Z M 192.230469 347.433594 "></path>
<path style=" stroke:none;fill-rule:nonzero;fill:rgb(92.549133%,52.941895%,31.764221%);fill-opacity:1;" d="M 160.28125 289.832031 L 164.546875 308.550781 L 184.96875 315.589844 L 180.703125 296.875 Z M 160.28125 289.832031 "></path>
<path style=" stroke:none;fill-rule:nonzero;fill:rgb(92.549133%,52.941895%,31.764221%);fill-opacity:1;" d="M 153.300781 259.21875 L 157.566406 277.9375 L 177.988281 284.976562 L 173.722656 266.269531 Z M 153.300781 259.21875 "></path>
<path style=" stroke:none;fill-rule:nonzero;fill:rgb(92.549133%,52.941895%,31.764221%);fill-opacity:1;" d="M 145.832031 226.476562 L 150.097656 245.1875 L 170.523438 252.226562 L 166.253906 233.519531 Z M 145.832031 226.476562 "></path>
<path style=" stroke:none;fill-rule:nonzero;fill:rgb(92.549133%,52.941895%,31.764221%);fill-opacity:1;" d="M 438.667969 288.375 L 434.402344 269.65625 L 449.753906 254.457031 L 454.019531 273.171875 Z M 438.667969 288.375 "></path>
<path style=" stroke:none;fill-rule:nonzero;fill:rgb(92.549133%,52.941895%,31.764221%);fill-opacity:1;" d="M 442.496094 222.617188 L 446.757812 241.332031 L 431.40625 256.53125 L 427.144531 237.816406 Z M 442.496094 222.617188 "></path>
<path style=" stroke:none;fill-rule:nonzero;fill:rgb(92.549133%,52.941895%,31.764221%);fill-opacity:1;" d="M 435.511719 192.007812 L 439.789062 210.71875 L 424.4375 225.921875 L 420.160156 207.207031 Z M 435.511719 192.007812 "></path>
<path style=" stroke:none;fill-rule:nonzero;fill:rgb(92.549133%,52.941895%,31.764221%);fill-opacity:1;" d="M 428.050781 159.261719 L 432.316406 177.972656 L 416.964844 193.171875 L 412.699219 174.460938 Z M 428.050781 159.261719 "></path>
<path style=" stroke:none;fill-rule:nonzero;fill:rgb(92.549133%,52.941895%,31.764221%);fill-opacity:1;" d="M 458.933594 286.984375 L 459.824219 290.871094 C 462.929688 304.496094 459.023438 317 445.402344 320.105469 L 434.953125 322.492188 L 441.804688 302.105469 Z M 458.933594 286.984375 "></path>
<path style=" stroke:none;fill-rule:nonzero;fill:rgb(92.549133%,52.941895%,31.764221%);fill-opacity:1;" d="M 204.164062 356.300781 L 192.898438 358.867188 L 172.667969 351.886719 L 175.179688 362.902344 L 179.535156 369.117188 L 197.144531 376.714844 Z M 204.164062 356.300781 "></path>
<path style=" stroke:none;fill-rule:nonzero;fill:rgb(100%,100%,100%);fill-opacity:1;" d="M 393.5625 93.140625 L 147.621094 149.222656 L 160.679688 206.480469 L 406.617188 150.398438 Z M 393.5625 93.140625 "></path>
<path style=" stroke:none;fill-rule:nonzero;fill:rgb(0%,0%,0%);fill-opacity:1;" d="M 160.675781 207.980469 C 159.992188 207.980469 159.375 207.507812 159.214844 206.8125 L 146.160156 149.554688 C 145.976562 148.746094 146.480469 147.945312 147.289062 147.761719 L 393.234375 91.679688 C 393.625 91.589844 394.023438 91.660156 394.363281 91.871094 C 394.703125 92.082031 394.941406 92.417969 395.023438 92.804688 L 408.085938 150.0625 C 408.265625 150.871094 407.765625 151.675781 406.957031 151.859375 C 406.148438 152.042969 405.347656 151.535156 405.160156 150.730469 L 392.433594 94.933594 L 149.414062 150.347656 L 162.136719 206.148438 C 162.320312 206.953125 161.816406 207.757812 161.011719 207.941406 C 160.898438 207.964844 160.785156 207.980469 160.675781 207.980469 "></path>
<path style=" stroke:none;fill-rule:nonzero;fill:rgb(0%,0%,0%);fill-opacity:1;" d="M 242.238281 252.039062 L 241.570312 249.113281 L 350.835938 224.199219 L 351.496094 227.121094 Z M 242.238281 252.039062 "></path>
<path style=" stroke:none;fill-rule:nonzero;fill:rgb(0%,0%,0%);fill-opacity:1;" d="M 199.300781 378.175781 C 194.105469 378.175781 189.011719 376.714844 184.519531 373.890625 C 178.214844 369.925781 173.832031 363.753906 172.179688 356.492188 L 143.527344 230.84375 C 140.558594 217.820312 143.992188 204.007812 152.714844 193.890625 C 153.253906 193.265625 154.199219 193.195312 154.824219 193.734375 C 155.453125 194.273438 155.523438 195.222656 154.984375 195.847656 C 146.878906 205.246094 143.691406 218.078125 146.449219 230.179688 L 175.097656 355.820312 C 176.578125 362.304688 180.488281 367.816406 186.117188 371.351562 C 191.738281 374.890625 198.402344 376.027344 204.882812 374.539062 L 439.648438 321.015625 C 446.128906 319.535156 451.644531 315.621094 455.179688 309.996094 C 458.714844 304.375 459.84375 297.703125 458.363281 291.230469 L 429.71875 165.585938 C 426.964844 153.488281 418.523438 143.304688 407.148438 138.347656 C 406.386719 138.015625 406.039062 137.132812 406.367188 136.375 C 406.699219 135.617188 407.585938 135.269531 408.347656 135.601562 C 420.589844 140.9375 429.667969 151.894531 432.636719 164.917969 L 461.292969 290.5625 C 462.949219 297.824219 461.671875 305.292969 457.714844 311.597656 C 453.75 317.898438 447.566406 322.273438 440.316406 323.929688 L 205.542969 377.464844 C 203.476562 377.933594 201.378906 378.175781 199.300781 378.175781 "></path>
</g>
</svg>