<?xml version="1.0" encoding="UTF-8"?>

<svg version="1.1" xmlns="http://www.w3.org/2000/svg" width="1875" height="672">
<path d="M0 0 C3.041 1.52 3.368 3.842 4.645 6.949 C4.896 7.558 5.148 8.167 5.407 8.795 C5.942 10.094 6.474 11.395 7.003 12.697 C7.792 14.637 8.591 16.574 9.393 18.51 C11.942 24.707 14.36 30.921 16.578 37.246 C18.752 43.43 21.255 49.398 23.938 55.375 C27.115 62.563 30.132 69.752 32.81 77.14 C34.723 82.377 36.869 87.499 39.062 92.625 C41.331 97.934 43.497 103.225 45.375 108.688 C47.96 116.156 51.053 123.394 54.125 130.673 C57.362 138.377 60.378 146.145 63.307 153.97 C65.258 159.15 67.395 164.169 69.777 169.168 C71.773 173.791 73.356 178.565 74.946 183.341 C76.793 188.793 76.793 188.793 79 191 C81.731 184.759 84.213 178.513 86.293 172.023 C88.884 164.095 91.957 156.4 95.125 148.688 C98.134 141.358 101.089 134.094 103.252 126.461 C104.76 121.499 106.733 116.701 108.625 111.875 C109.519 109.573 110.412 107.271 111.305 104.969 C111.754 103.81 112.204 102.651 112.667 101.457 C115.848 93.207 118.924 84.917 122.016 76.633 C122.913 74.233 123.814 71.835 124.719 69.438 C126.974 63.457 129.197 57.47 131.312 51.438 C133.892 44.141 136.762 36.967 139.619 29.776 C142.378 22.765 144.869 15.705 147.06 8.495 C148.199 4.865 149.189 2.547 152 0 C154.888 5.507 157.12 10.916 159.062 16.812 C161.919 25.24 165.163 33.466 168.562 41.688 C171.855 49.652 175.02 57.603 177.787 65.764 C180.174 72.714 183.001 79.479 185.842 86.253 C187.506 90.24 189.107 94.201 190.426 98.316 C192.813 105.702 195.983 112.807 198.973 119.963 C201.358 125.738 203.489 131.43 205.195 137.437 C206.873 142.778 209.153 147.902 211.312 153.062 C214.691 161.233 217.948 169.389 220.786 177.762 C223.174 184.712 226.001 191.478 228.842 198.253 C230.839 203.038 232.633 207.816 234.229 212.748 C235.655 216.914 237.417 220.944 239.125 225 C242.988 234.29 246.492 243.676 249.817 253.172 C251.954 259.241 254.289 265.182 256.795 271.108 C258.585 275.405 260.211 279.755 261.812 284.125 C262.124 284.96 262.435 285.796 262.756 286.656 C262.902 287.055 262.902 287.055 263.645 289.07 C263.906 289.779 264.167 290.489 264.437 291.219 C265 293 265 293 265 295 C250.81 295 236.62 295 222 295 C218.718 288.436 215.947 282.486 213.688 275.625 C211.003 267.717 208.054 259.96 204.911 252.223 C202.855 247.157 200.884 242.07 199 236.938 C196.825 231.022 194.423 225.228 191.938 219.438 C189.597 213.973 187.434 208.544 185.625 202.875 C182.417 192.876 178.34 183.22 174.404 173.49 C171.946 167.381 169.534 161.253 167.125 155.125 C166.673 153.979 166.221 152.834 165.755 151.654 C163.38 145.609 161.08 139.545 158.88 133.434 C157.73 130.252 156.528 127.094 155.312 123.938 C155.104 123.395 155.104 123.395 154.051 120.652 C153 118 153 118 152 116 C148.43 123.171 145.717 130.475 143.32 138.101 C141.62 143.426 139.553 148.527 137.374 153.673 C135.072 159.246 132.991 164.902 130.894 170.555 C129.582 174.086 128.264 177.616 126.945 181.145 C126.689 181.832 126.432 182.519 126.167 183.227 C123.911 189.259 121.598 195.269 119.231 201.258 C117.815 204.852 116.466 208.463 115.16 212.098 C112.279 220.066 109.11 227.921 105.979 235.793 C103.773 241.368 101.642 246.926 99.799 252.63 C97.968 258.062 95.858 263.397 93.812 268.75 C93.325 270.03 92.838 271.31 92.35 272.591 C91.371 275.162 90.391 277.733 89.41 280.304 C88.105 283.724 86.802 287.145 85.5 290.566 C83.668 295.378 81.835 300.189 80 305 C79.34 305 78.68 305 78 305 C77.611 303.979 77.221 302.958 76.82 301.906 C72.902 291.698 68.788 281.583 64.553 271.502 C61.043 263.144 57.658 254.746 54.414 246.281 C52.225 240.577 50.033 234.909 47.438 229.375 C45.502 225.241 43.871 221.037 42.312 216.75 C39.807 209.878 36.952 203.191 34 196.5 C30.88 189.419 27.902 182.34 25.258 175.069 C22.109 166.457 18.532 158.014 15.04 149.537 C13.629 146.096 12.25 142.643 10.875 139.188 C7.653 131.096 4.329 123.048 1 115 C0.732 115.839 0.464 116.678 0.188 117.543 C-2.294 125.159 -4.98 132.656 -7.875 140.125 C-10.635 147.255 -13.193 154.418 -15.562 161.688 C-17.635 168.04 -19.83 174.296 -22.312 180.5 C-25.725 189.032 -28.688 197.707 -31.648 206.404 C-34.491 214.75 -37.428 223.03 -40.756 231.195 C-42.14 234.622 -43.328 238.029 -44.348 241.582 C-46.521 249.018 -49.44 256.188 -52.239 263.405 C-56.929 275.523 -56.929 275.523 -58.594 281.344 C-60 286 -60 286 -64 295 C-78.85 295 -93.7 295 -109 295 C-105.517 281.067 -99.995 267.564 -94.723 254.227 C-94.524 253.722 -94.524 253.722 -93.517 251.17 C-92.735 249.193 -91.949 247.218 -91.159 245.244 C-89.457 240.947 -87.864 236.691 -86.605 232.242 C-85.205 227.389 -83.349 222.772 -81.441 218.098 C-79.426 213.132 -77.553 208.127 -75.746 203.082 C-75.474 202.324 -75.203 201.565 -74.923 200.784 C-73.812 197.678 -72.707 194.57 -71.602 191.462 C-68.639 183.14 -65.599 174.911 -62.13 166.783 C-60.586 162.98 -59.347 159.099 -58.081 155.197 C-56.211 149.668 -54.048 144.251 -51.914 138.82 C-48.207 129.384 -44.53 119.945 -41.223 110.36 C-35.726 94.472 -29.695 78.764 -23.684 63.066 C-21.536 57.445 -19.481 51.798 -17.477 46.125 C-15.365 40.191 -13.179 34.284 -11 28.375 C-10.792 27.809 -10.792 27.809 -9.741 24.943 C-7.314 18.377 -4.754 11.89 -2.016 5.448 C-1.274 3.659 -0.612 1.837 0 0 Z " fill="#0B0B0B" transform="translate(189,22)"></path>
<path d="M0 0 C3.257 2.648 4.476 6.066 5.938 9.875 C6.07 10.213 6.07 10.213 6.741 11.922 C8.262 15.864 9.585 19.811 10.75 23.875 C13.058 31.762 16.254 39.301 19.384 46.892 C21.675 52.492 23.701 58.046 25.367 63.862 C26.152 66.514 27.15 69.026 28.25 71.562 C28.675 72.562 29.101 73.561 29.539 74.59 C29.78 75.153 29.78 75.153 31 78 C32.218 80.871 33.424 83.747 34.625 86.625 C34.914 87.305 35.203 87.985 35.501 88.686 C37.052 92.406 38.369 96.113 39.496 99.984 C40.861 104.67 42.567 109.121 44.438 113.625 C48.166 122.773 51.669 131.997 55.125 141.25 C55.372 141.913 55.62 142.575 55.875 143.258 C57.092 146.517 58.307 149.777 59.522 153.037 C62.004 159.696 64.503 166.347 67 173 C67.633 174.687 68.266 176.375 68.898 178.062 C69.15 178.733 69.401 179.403 69.66 180.094 C70.773 183.062 71.887 186.031 73 189 C78.083 181.375 80.752 172.132 83.681 163.492 C85.449 158.34 87.507 153.343 89.622 148.324 C92.171 142.176 94.544 135.96 96.938 129.75 C97.476 128.357 98.014 126.964 98.552 125.572 C101.114 118.937 103.654 112.295 106.125 105.625 C109.072 97.695 112.239 89.855 115.39 82.004 C119.145 72.647 122.865 63.298 126.171 53.771 C128.692 46.507 131.45 39.473 134.551 32.434 C136.558 27.679 138.247 22.841 139.922 17.961 C141 15 141 15 143 11 C157.52 11 172.04 11 187 11 C179.136 34.591 179.136 34.591 174.938 44.125 C172.835 48.9 171.036 53.666 169.438 58.625 C167.289 65.254 164.751 71.603 162 78 C158.179 87.002 154.582 96.021 151.41 105.272 C149.323 111.274 146.939 117.133 144.5 123 C141.526 130.157 138.752 137.328 136.24 144.659 C133.418 152.825 130.122 160.799 126.881 168.805 C125.764 171.587 124.69 174.385 123.625 177.188 C122.037 181.362 120.396 185.509 118.719 189.648 C114.343 200.46 110.109 211.269 106.335 222.306 C104.501 227.646 102.469 232.85 100.238 238.039 C98.776 241.535 97.443 245.073 96.125 248.625 C91.926 259.932 87.559 271.174 83.035 282.355 C82.165 284.58 81.324 286.81 80.496 289.051 C80.362 289.412 80.362 289.412 79.686 291.24 C79.155 292.678 78.628 294.117 78.105 295.557 C76.963 298.654 75.841 301.239 74 304 C73.34 304 72.68 304 72 304 C68.907 296.507 65.944 289.024 63.438 281.312 C61.665 275.865 59.642 270.631 57.377 265.372 C55.871 261.684 54.547 257.948 53.246 254.184 C50.166 245.368 46.861 236.649 43.5 227.938 C42.405 225.093 41.312 222.248 40.219 219.402 C40.085 219.054 40.085 219.054 39.408 217.293 C37.273 211.734 35.178 206.16 33.093 200.582 C31.382 196.008 29.641 191.447 27.883 186.892 C25.312 180.22 22.803 173.563 20.625 166.75 C18.071 158.874 14.929 151.256 11.815 143.587 C7.878 133.834 4.362 123.964 1 114 C-1.206 116.728 -2.594 119.15 -3.727 122.465 C-4.031 123.336 -4.336 124.207 -4.65 125.104 C-4.811 125.572 -4.811 125.572 -5.625 127.938 C-8.296 135.497 -11.15 142.91 -14.375 150.25 C-18.353 159.32 -21.959 168.505 -25.462 177.769 C-27.765 183.847 -30.172 189.866 -32.691 195.858 C-34.887 201.129 -36.99 206.439 -39.102 211.745 C-42.017 219.065 -44.945 226.381 -47.868 233.698 C-48.667 235.696 -49.464 237.694 -50.262 239.693 C-54.123 249.366 -57.987 259.033 -62.022 268.635 C-63.395 271.956 -64.641 275.311 -65.875 278.688 C-69.024 287.219 -72.491 295.611 -76 304 C-76.99 304 -77.98 304 -79 304 C-80.438 300.125 -81.876 296.25 -83.312 292.375 C-83.76 291.17 -84.207 289.964 -84.667 288.722 C-87.073 282.231 -89.466 275.736 -91.832 269.23 C-96.207 257.212 -100.583 245.205 -105.452 233.375 C-107.214 229.077 -108.77 224.762 -110.209 220.346 C-111.655 216.057 -113.309 211.847 -114.938 207.625 C-115.652 205.762 -116.365 203.899 -117.078 202.035 C-117.246 201.596 -117.246 201.596 -118.096 199.375 C-120.157 193.961 -122.123 188.513 -124.031 183.043 C-126.666 175.539 -129.507 168.143 -132.438 160.75 C-135.459 153.119 -138.245 145.47 -140.755 137.657 C-142.933 130.976 -145.522 124.482 -148.198 117.986 C-150.058 113.453 -151.74 108.912 -153.256 104.253 C-154.54 100.365 -155.958 96.528 -157.375 92.688 C-157.68 91.859 -157.984 91.031 -158.298 90.178 C-160.331 84.693 -162.489 79.283 -164.859 73.934 C-165.848 71.391 -166.636 68.898 -167.395 66.281 C-168.926 61.065 -170.868 56.086 -172.938 51.062 C-173.654 49.297 -174.368 47.532 -175.082 45.766 C-175.418 44.935 -175.754 44.104 -176.1 43.248 C-177.852 38.873 -179.437 34.445 -181 30 C-181.523 28.544 -182.046 27.088 -182.57 25.633 C-183.13 24.068 -183.69 22.503 -184.25 20.938 C-184.521 20.186 -184.792 19.434 -185.071 18.659 C-187 13.228 -187 13.228 -187 11 C-172.15 11 -157.3 11 -142 11 C-139.422 16.8 -137.142 22.26 -135.25 28.25 C-133.075 34.96 -130.684 41.552 -128.125 48.125 C-125.181 55.702 -122.517 63.334 -120 71.062 C-117.578 78.491 -114.979 85.777 -112 93 C-108.61 101.219 -105.755 109.55 -103.002 118.001 C-100.538 125.521 -97.802 132.898 -94.932 140.271 C-92.251 147.209 -89.891 154.226 -87.587 161.297 C-85.117 168.809 -82.309 176.163 -79.383 183.508 C-78.534 185.651 -77.729 187.813 -77 190 C-68.387 169.196 -68.387 169.196 -65.188 160.375 C-61.872 151.35 -57.997 142.56 -54.137 133.757 C-53.633 132.599 -53.129 131.44 -52.609 130.246 C-52.155 129.212 -51.701 128.177 -51.233 127.111 C-49.916 123.787 -48.951 120.444 -48 117 C-47.313 115.336 -46.585 113.689 -45.812 112.062 C-45.374 111.118 -44.936 110.173 -44.484 109.199 C-44.239 108.671 -44.239 108.671 -43 106 C-39.013 97.295 -35.421 88.577 -32.344 79.509 C-30.197 73.298 -27.557 67.367 -24.827 61.395 C-22.499 56.256 -20.61 51.1 -18.918 45.715 C-17.654 41.978 -16.018 38.464 -14.348 34.895 C-9.821 25.172 -5.897 15.262 -2.199 5.203 C-1 2 -1 2 0 0 Z " fill="#0B0B0B" transform="translate(267,346)"></path>
<path d="M0 0 C0.66 0 1.32 0 2 0 C7.078 12.588 12.1 25.192 16.938 37.875 C20.848 48.117 24.931 58.281 29.092 68.424 C32.045 75.629 34.919 82.858 37.717 90.124 C39.644 95.116 41.668 100.06 43.742 104.992 C45.247 108.59 46.725 112.197 48.188 115.812 C48.676 117.015 49.165 118.218 49.668 119.457 C50.982 122.952 52.027 126.399 53 130 C53.66 130 54.32 130 55 130 C55.139 129.269 55.278 128.538 55.422 127.785 C56.955 120.397 59.53 113.516 62.48 106.59 C67.387 94.998 71.987 83.363 75.855 71.383 C77.292 67.137 79 63.045 80.762 58.926 C83.315 52.892 85.581 46.743 87.903 40.618 C88.914 37.953 89.926 35.289 90.938 32.625 C91.109 32.174 91.109 32.174 91.974 29.892 C94.484 23.299 97.089 16.751 99.773 10.227 C101.06 6.843 102.054 3.491 103 0 C106.129 1.564 106.7 4.673 107.934 7.781 C108.212 8.469 108.491 9.156 108.778 9.865 C109.369 11.326 109.956 12.789 110.54 14.253 C111.424 16.466 112.317 18.675 113.213 20.883 C115.728 27.112 118.188 33.33 120.232 39.732 C122.045 45.086 124.225 50.312 126.312 55.562 C132.358 70.835 132.358 70.835 135.188 78.5 C137.371 84.401 139.698 90.232 142.062 96.062 C144.354 101.723 146.516 107.367 148.375 113.188 C150.907 121.049 154.022 128.648 157.125 136.298 C160.371 144.334 163.386 152.432 166.307 160.591 C168.307 166.154 170.447 171.622 172.773 177.059 C174.343 180.823 175.806 184.623 177.25 188.438 C177.509 189.113 177.767 189.788 178.034 190.484 C179.363 194.025 180.252 197.261 181 201 C170.77 201 160.54 201 150 201 C146.814 193.353 143.765 185.789 141 178 C138.532 171.118 135.947 164.335 133.066 157.613 C131.983 154.958 131.069 152.292 130.188 149.562 C128.31 143.76 126.176 138.071 124 132.375 C123.668 131.504 123.335 130.634 122.993 129.737 C121.337 125.421 119.653 121.118 117.93 116.828 C116.271 112.697 114.68 108.547 113.125 104.375 C112.615 103.008 112.104 101.641 111.594 100.273 C111.335 99.578 111.076 98.883 110.809 98.167 C109.419 94.443 108.022 90.722 106.625 87 C106.117 85.646 105.609 84.292 105.102 82.938 C104.738 81.968 104.375 80.999 104 80 C103.697 80.799 103.394 81.598 103.082 82.422 C101.025 87.815 98.945 93.187 96.688 98.5 C94.116 104.612 91.784 110.804 89.445 117.007 C87.326 122.598 85.15 128.163 82.922 133.711 C82.655 134.375 82.389 135.039 82.114 135.723 C80.789 139.02 79.459 142.314 78.125 145.607 C73.998 155.841 73.998 155.841 72.488 160.551 C70.142 167.859 66.984 174.886 64.027 181.963 C61.579 187.89 59.323 193.746 57.628 199.935 C56.755 202.805 55.447 205.381 54 208 C51.948 205.948 51.343 204.715 50.301 202.062 C49.982 201.259 49.664 200.455 49.335 199.627 C48.998 198.76 48.66 197.893 48.312 197 C47.96 196.108 47.608 195.216 47.245 194.297 C45.508 189.892 43.796 185.477 42.094 181.059 C41.5 179.518 40.906 177.978 40.312 176.438 C40.024 175.687 39.735 174.937 39.437 174.165 C37.887 170.173 36.253 166.255 34.438 162.375 C32.235 157.665 30.439 152.856 28.659 147.972 C25.682 139.938 22.267 132.088 18.871 124.224 C16.618 118.976 14.541 113.774 12.807 108.334 C10.701 102.241 7.968 96.357 5.408 90.443 C4.971 89.414 4.533 88.385 4.082 87.324 C3.682 86.397 3.282 85.47 2.87 84.514 C2 82 2 82 2 78 C1.34 78 0.68 78 0 78 C-0.061 79.03 -0.121 80.06 -0.184 81.121 C-0.935 87.08 -3.193 92.526 -5.319 98.11 C-6.591 101.45 -7.834 104.8 -9.082 108.148 C-9.333 108.818 -9.583 109.488 -9.842 110.179 C-12.071 116.15 -14.181 122.159 -16.25 128.188 C-18.591 134.988 -20.99 141.76 -23.5 148.5 C-27.152 158.315 -30.576 168.204 -33.996 178.102 C-35.653 182.884 -37.326 187.661 -39 192.438 C-39.99 195.263 -40.98 198.089 -42 201 C-52.23 201 -62.46 201 -73 201 C-70.751 189.756 -70.751 189.756 -68.723 184.652 C-68.507 184.102 -68.507 184.102 -67.416 181.318 C-66.969 180.203 -66.523 179.087 -66.062 177.938 C-63.465 171.37 -60.882 164.833 -58.705 158.113 C-57.432 154.298 -55.953 150.562 -54.5 146.812 C-50.873 137.377 -47.386 127.893 -43.927 118.396 C-40.166 108.079 -36.28 97.817 -32.26 87.599 C-30.141 82.169 -28.269 76.752 -26.648 71.153 C-25.854 68.517 -24.855 66.021 -23.75 63.5 C-21.542 58.322 -19.43 53.115 -17.375 47.875 C-17.086 47.147 -16.797 46.42 -16.499 45.67 C-15.031 41.911 -13.726 38.163 -12.609 34.285 C-10.743 27.901 -8.298 21.752 -5.875 15.562 C-4.976 13.251 -4.078 10.94 -3.18 8.629 C-2.785 7.619 -2.39 6.609 -1.984 5.569 C-1.279 3.728 -0.623 1.869 0 0 Z " fill="#0B0B0B" transform="translate(782,161)"></path>
<path d="M0 0 C7.861 6.738 7.861 6.738 10.465 9.402 C11.033 9.978 11.6 10.555 12.185 11.148 C12.764 11.739 13.342 12.329 13.938 12.938 C21.239 20.323 21.239 20.323 24.938 23.438 C29.026 26.89 32.737 30.701 36.5 34.5 C44.351 42.427 44.351 42.427 48 45.5 C52.795 49.538 57.105 54.081 61.512 58.531 C64.592 61.63 67.655 64.683 71 67.5 C75.795 71.538 80.105 76.081 84.512 80.531 C87.592 83.63 90.655 86.683 94 89.5 C98.747 93.497 103.03 97.981 107.371 102.408 C111.092 106.181 114.926 109.736 118.938 113.196 C122.611 116.409 126.142 119.773 129.688 123.125 C130.42 123.815 131.153 124.504 131.908 125.215 C135.666 128.759 139.345 132.345 143 136 C143.165 115.045 143.165 115.045 144 9 C153.57 9 163.14 9 173 9 C173 75 173 141 173 209 C164.008 202.256 164.008 202.256 159.906 198.066 C159.463 197.618 159.463 197.618 157.223 195.35 C156.324 194.43 155.426 193.51 154.5 192.562 C149.117 187.076 143.754 181.685 137.912 176.687 C133.732 172.999 129.901 168.939 126 164.961 C122.125 161.04 118.145 157.343 113.969 153.746 C110.003 150.229 106.351 146.39 102.645 142.605 C99.534 139.456 96.386 136.421 93.031 133.531 C88.088 129.269 83.568 124.618 79 119.961 C75.76 116.683 72.493 113.509 69 110.5 C64.065 106.25 59.557 101.607 55 96.961 C51.821 93.745 48.624 90.627 45.188 87.688 C39.902 83.033 34.98 77.98 30 73 C30 115.24 30 157.48 30 201 C19.77 201 9.54 201 -1 201 C-0.67 134.67 -0.34 68.34 0 0 Z " fill="#0B0B0B" transform="translate(1464,160)"></path>
<path d="M0 0 C4.706 4.033 9.128 8.028 13.438 12.438 C16.825 15.867 20.185 19.266 23.875 22.375 C27.982 25.852 31.717 29.68 35.5 33.5 C43.35 41.427 43.35 41.427 47 44.5 C51.795 48.538 56.105 53.081 60.512 57.531 C63.592 60.63 66.655 63.683 70 66.5 C74.795 70.538 79.105 75.081 83.512 79.531 C86.592 82.63 89.655 85.683 93 88.5 C97.79 92.534 102.096 97.072 106.499 101.518 C110.268 105.311 114.092 108.947 118.18 112.398 C121.191 115.048 123.953 117.944 126.766 120.801 C129.421 123.415 132.208 125.826 135.078 128.199 C137.615 130.576 139.775 133.329 142 136 C142.165 115.045 142.165 115.045 143 9 C152.9 9 162.8 9 173 9 C173 75 173 141 173 209 C169.24 207.12 168.09 205.92 165.609 202.766 C163.633 200.597 161.45 198.914 159.125 197.125 C155.141 194.031 151.933 190.816 148.723 186.945 C146.301 184.21 143.552 181.939 140.77 179.582 C138.553 177.6 136.856 175.32 135 173 C133.912 172.023 132.805 171.068 131.688 170.125 C126.722 165.896 122.194 161.248 117.632 156.594 C114.526 153.447 111.382 150.417 108.031 147.531 C103.088 143.269 98.568 138.618 94 133.961 C90.125 130.04 86.145 126.343 81.969 122.746 C78.003 119.229 74.351 115.39 70.645 111.605 C66.245 107.15 61.742 103.149 57 99 C48.09 90.09 39.18 81.18 30 72 C29.67 114.57 29.34 157.14 29 201 C19.43 201 9.86 201 0 201 C0 134.67 0 68.34 0 0 Z " fill="#0B0B0B" transform="translate(1659,160)"></path>
<path d="M0 0 C0.66 0 1.32 0 2 0 C2.939 2.02 3.876 4.041 4.812 6.062 C5.335 7.188 5.857 8.313 6.395 9.473 C7.685 12.308 8.925 15.158 10.145 18.024 C11.974 22.251 13.902 26.434 15.812 30.625 C16.258 31.603 16.703 32.582 17.161 33.59 C19.504 38.736 21.864 43.874 24.25 49 C26.795 54.486 29.171 60.036 31.508 65.613 C32.597 68.085 33.723 70.477 34.941 72.883 C37.049 77.047 38.942 81.288 40.812 85.562 C43.333 91.281 45.897 96.973 48.562 102.625 C50.931 107.656 53.218 112.714 55.438 117.812 C55.728 118.48 56.019 119.148 56.318 119.835 C56.914 121.204 57.509 122.573 58.104 123.942 C62.997 135.181 68.068 146.329 73.25 157.438 C77.846 167.3 82.375 177.19 86.812 187.125 C87.334 188.287 87.856 189.449 88.394 190.646 C88.868 191.714 89.343 192.782 89.832 193.883 C90.252 194.825 90.672 195.768 91.105 196.739 C92 199 92 199 92 201 C80.78 201 69.56 201 58 201 C50.894 185.043 43.881 169.056 37 153 C12.58 153 -11.84 153 -37 153 C-39.64 158.94 -42.28 164.88 -45 171 C-45.866 172.877 -46.733 174.754 -47.625 176.688 C-49.914 181.668 -51.92 186.75 -53.858 191.876 C-56.44 198.541 -56.44 198.541 -59 201 C-61.716 201.356 -64.021 201.467 -66.73 201.391 C-67.481 201.385 -68.231 201.379 -69.004 201.373 C-71.399 201.351 -73.793 201.301 -76.188 201.25 C-77.812 201.23 -79.436 201.212 -81.061 201.195 C-85.041 201.151 -89.02 201.082 -93 201 C-91.586 197.832 -90.168 194.666 -88.75 191.5 C-88.354 190.613 -87.959 189.726 -87.551 188.812 C-85.462 184.155 -83.299 179.559 -80.992 175.006 C-79.111 171.202 -77.412 167.314 -75.688 163.438 C-71.024 153.021 -66.251 142.665 -61.297 132.383 C-52.811 114.762 -52.811 114.762 -50.5 109 C-47.835 102.375 -44.683 95.991 -41.583 89.562 C-37.697 81.488 -33.893 73.379 -30.125 65.25 C-29.59 64.097 -29.055 62.944 -28.504 61.756 C-26.202 56.786 -23.912 51.813 -21.66 46.82 C-17.605 37.877 -13.35 29.025 -9.139 20.154 C-8.004 17.762 -6.871 15.369 -5.738 12.977 C-5.392 12.249 -5.047 11.522 -4.69 10.773 C-3.009 7.221 -1.406 3.673 0 0 Z " fill="#0B0B0B" transform="translate(1355,160)"></path>
<path d="M0 0 C1.231 0.34 2.462 0.681 3.73 1.031 C12.963 3.739 20.907 7.835 29 13 C29.712 13.436 30.423 13.872 31.156 14.322 C33 16 33 16 33.47 18.186 C33.455 19.022 33.441 19.857 33.426 20.719 C33.418 21.647 33.41 22.575 33.402 23.531 C33.373 24.511 33.343 25.49 33.312 26.5 C33.297 27.491 33.282 28.483 33.266 29.504 C33.137 36.026 32.867 42.529 32 49 C27.862 46.751 24.052 44.344 20.25 41.562 C10.606 34.775 0.347 31.673 -11 29 C-11.766 28.804 -12.531 28.608 -13.32 28.406 C-32.5 25.498 -54.047 28.928 -69.953 40.422 C-70.291 40.682 -70.291 40.682 -72 42 C-72.675 42.5 -73.351 43 -74.047 43.516 C-87.077 53.92 -93.654 70.858 -96 87 C-97.108 100.139 -96.196 112.494 -92 125 C-91.825 125.532 -91.825 125.532 -90.938 128.227 C-85.615 142.53 -75.283 153.722 -62 161 C-59.031 162.267 -56.014 163.279 -52.938 164.25 C-52.174 164.505 -51.41 164.76 -50.623 165.023 C-30.853 171.45 -8.482 168.011 10 159 C15.522 155.964 20.777 152.518 26 149 C28 147.666 30 146.333 32 145 C32.248 149.998 32.429 154.993 32.549 159.996 C32.599 161.695 32.668 163.394 32.754 165.091 C33.458 179.195 33.458 179.195 29.868 183.64 C27.303 185.452 24.882 186.767 22 188 C20.687 188.707 19.374 189.415 18.062 190.125 C-10.081 201.62 -43.573 202.37 -71.816 190.852 C-80.911 186.689 -89.513 181.669 -97 175 C-97.718 174.423 -98.436 173.845 -99.176 173.25 C-117.207 158.302 -128.756 134.147 -131 111 C-133.05 80.766 -126.672 52.507 -106.511 29.285 C-98.97 20.884 -90.785 14.571 -81 9 C-80.049 8.437 -79.097 7.873 -78.117 7.293 C-55.794 -4.988 -24.142 -7.17 0 0 Z " fill="#0B0B0B" transform="translate(1220,166)"></path>
<path d="M0 0 C11.225 7.619 22.239 18.2 25.647 31.833 C27.904 49.356 25.97 62.738 15.045 76.926 C7.332 86.186 -3.933 95.005 -16.299 96.142 C-26.635 96.63 -36.624 96.919 -45.955 91.926 C-46.787 91.514 -47.62 91.101 -48.478 90.676 C-59.002 84.977 -66.457 76.431 -71.955 65.926 C-72.553 64.833 -73.151 63.74 -73.767 62.614 C-77.907 53.246 -77.65 38.455 -74.392 28.864 C-68.784 16.31 -61.055 7.166 -49.392 0.051 C-48.767 -0.33 -48.142 -0.712 -47.498 -1.105 C-33.52 -9.265 -13.499 -8.763 0 0 Z " fill="#0B0B0B" transform="translate(1596.95458984375,421.07373046875)"></path>
<path d="M0 0 C12.511 8.814 20.593 20.099 23.695 35.16 C25.885 49.353 23.624 61.302 15.142 73.113 C7.117 83.688 -3.462 91.777 -16.555 94.723 C-20.039 95.018 -23.497 95.048 -26.992 95.035 C-27.444 95.043 -27.444 95.043 -29.729 95.084 C-35.634 95.088 -40.205 94.203 -45.555 91.723 C-46.467 91.332 -47.38 90.941 -48.32 90.539 C-61.39 83.943 -70.68 73 -76.555 59.723 C-77.528 56.62 -77.607 53.962 -77.555 50.723 C-77.609 49.334 -77.668 47.946 -77.73 46.559 C-78.321 29.799 -73.44 18.985 -62.055 6.598 C-45.277 -9.741 -19.785 -12.621 0 0 Z " fill="#0B0B0B" transform="translate(932.5546875,422.27734375)"></path>
<path d="M0 0 C13.143 -0.443 24.007 2.783 35.957 8.215 C35.957 18.775 35.957 29.335 35.957 40.215 C31.528 38 27.987 35.231 24.102 32.188 C16.806 27.611 9.82 26.73 1.332 26.84 C0.43 26.828 -0.473 26.817 -1.402 26.805 C-11.604 26.849 -18.337 30.981 -25.742 37.773 C-33.815 46.253 -35.436 58.235 -35.32 69.5 C-34.584 79.36 -32.623 90.292 -25.043 97.215 C-15.513 105.037 -5.272 107.443 6.957 107.215 C18.158 105.603 26.012 101.494 34.172 93.824 C35.957 92.215 35.957 92.215 36.957 92.215 C36.957 103.435 36.957 114.655 36.957 126.215 C25.677 131.855 25.677 131.855 20.77 132.965 C19.827 133.187 18.885 133.408 17.914 133.637 C-1.524 137.437 -22.649 135.219 -39.703 124.551 C-41.936 122.873 -43.991 121.109 -46.043 119.215 C-46.716 118.644 -47.389 118.073 -48.082 117.484 C-59.408 107.23 -66.193 91.183 -67.184 76.064 C-67.896 58.553 -67.048 39.273 -54.668 25.59 C-53.802 24.806 -52.935 24.022 -52.043 23.215 C-50.81 21.739 -49.582 20.259 -48.355 18.777 C-36.255 5.217 -17.353 1.225 0 0 Z " fill="#0B0B0B" transform="translate(1033.04296875,230.78515625)"></path>
<path d="M0 0 C53.672 0 53.672 0 66.875 12.25 C76.848 23.345 78.355 34.455 78.312 48.938 C78.329 50.04 78.345 51.143 78.361 52.279 C78.369 65.823 74.857 75.686 65.812 85.75 C61.537 89.818 56.495 92.002 51 94 C50.327 94.263 49.655 94.527 48.961 94.798 C41.88 97.292 34.977 97.395 27.55 97.281 C25.503 97.25 23.457 97.24 21.41 97.234 C14.178 97.185 7.234 96.723 0 96 C0 64.32 0 32.64 0 0 Z " fill="#0B0B0B" transform="translate(1186,416)"></path>
<path d="M0 0 C0.66 0 1.32 0 2 0 C2.375 1.027 2.75 2.055 3.137 3.113 C7.769 15.69 7.769 15.69 10.562 21.562 C12.837 26.395 14.493 31.361 16.121 36.436 C17.992 42.181 20.407 47.555 23 53 C24.022 55.325 25.012 57.66 26 60 C26.112 59.613 26.112 59.613 26.679 57.655 C29.203 49.177 32.249 41.01 35.562 32.812 C41.313 18.563 41.313 18.563 43.242 11.288 C44.196 8.408 45.643 5.713 47 3 C52.61 3 58.22 3 64 3 C63.185 7.889 62.039 12.036 60.305 16.609 C60.036 17.33 59.768 18.05 59.491 18.792 C58.624 21.113 57.75 23.432 56.875 25.75 C56.278 27.343 55.682 28.936 55.086 30.529 C51.823 39.24 48.54 47.944 45.093 56.585 C43.864 59.682 42.73 62.787 41.707 65.957 C39.363 73.095 36.542 80.065 33.812 87.062 C33.248 88.515 32.683 89.967 32.119 91.42 C30.748 94.947 29.375 98.474 28 102 C25.208 98.463 23.681 94.905 22.188 90.688 C21.66 89.238 21.132 87.789 20.602 86.34 C20.335 85.61 20.069 84.88 19.794 84.128 C18.617 80.975 17.338 77.865 16.062 74.75 C13.649 68.791 11.515 62.771 9.438 56.688 C7.098 49.85 4.596 43.298 1 37 C0.743 37.911 0.487 38.823 0.223 39.762 C-2.364 48.629 -5.606 57.025 -9.334 65.473 C-13.108 74.081 -16.446 82.839 -19.725 91.646 C-20.124 92.705 -20.523 93.764 -20.934 94.855 C-21.285 95.801 -21.636 96.746 -21.998 97.719 C-23 100 -23 100 -25 102 C-27.713 96.823 -29.852 91.781 -31.562 86.188 C-34.559 76.765 -38.303 67.679 -42.129 58.567 C-44.453 52.991 -46.518 47.498 -48.166 41.689 C-50.2 35.129 -52.876 28.759 -55.39 22.369 C-56.133 20.474 -56.868 18.575 -57.602 16.676 C-58.038 15.561 -58.475 14.447 -58.924 13.298 C-60 10 -60 10 -61 3 C-55.72 3 -50.44 3 -45 3 C-41.111 11.201 -37.961 19.465 -35.062 28.062 C-34.627 29.343 -34.191 30.623 -33.754 31.904 C-32.496 35.6 -31.248 39.3 -30 43 C-29.34 44.94 -28.68 46.88 -28.02 48.82 C-27.471 50.442 -26.922 52.065 -26.375 53.688 C-26.128 54.417 -25.88 55.146 -25.625 55.897 C-24 60.765 -24 60.765 -24 63 C-23.34 63 -22.68 63 -22 63 C-21.894 62.209 -21.789 61.417 -21.68 60.602 C-20.824 56.069 -19.521 51.767 -18.125 47.375 C-17.827 46.436 -17.529 45.497 -17.222 44.529 C-12.305 29.423 -6.356 14.555 0 0 Z " fill="#0B0B0B" transform="translate(770,415)"></path>
<path d="M0 0 C1.706 1.691 3.211 3.441 4.742 5.289 C6.392 6.939 8.042 8.589 9.742 10.289 C6.112 13.259 2.482 16.229 -1.258 19.289 C-5.636 17.1 -9.605 14.52 -13.699 11.848 C-20.393 7.77 -29.64 8.344 -37.258 9.289 C-41.463 10.691 -44.725 12.64 -48.258 15.289 C-48.944 15.757 -49.629 16.225 -50.336 16.707 C-57.057 21.748 -59.097 28.529 -60.633 36.539 C-61.98 46.93 -60.572 56.753 -54.258 65.289 C-49.25 71.433 -43.147 75.795 -35.258 77.289 C-24.623 78.052 -15.458 77.528 -6.758 70.789 C-1.976 66.007 -1.791 62.189 -0.258 55.289 C-7.518 55.289 -14.778 55.289 -22.258 55.289 C-23.258 51.289 -23.258 51.289 -23.258 40.289 C-10.388 40.289 2.482 40.289 15.742 40.289 C15.742 69.652 15.742 69.652 4.148 82.176 C-7.68 92.564 -22.643 93.238 -37.557 92.532 C-49.387 91.469 -60.136 86 -68.133 77.289 C-70.735 74.119 -72.661 71.091 -74.258 67.289 C-74.427 66.89 -74.427 66.89 -75.285 64.871 C-81.188 50.649 -81.038 35.568 -75.258 21.289 C-75.004 20.567 -74.75 19.845 -74.488 19.102 C-69.856 7.784 -59.5 1.147 -48.738 -3.371 C-33.48 -9.245 -13.795 -10.454 0 0 Z " fill="#0B0B0B" transform="translate(1378.2578125,422.7109375)"></path>
<path d="M0 0 C38.6 0 38.6 0 46.812 4.562 C53.446 11.954 55.321 20.255 55.215 29.891 C54.813 35.705 53.391 40.159 49.875 44.812 C45.488 48.151 40.609 51 35 51 C35.762 52.016 36.524 53.032 37.309 54.078 C37.556 54.408 37.556 54.408 38.809 56.079 C39.905 57.54 41.001 59.001 42.097 60.462 C44.55 63.732 47.003 67.002 49.449 70.277 C50.167 71.238 50.885 72.198 51.625 73.188 C52.328 74.127 53.03 75.067 53.754 76.035 C55.412 78.224 57.085 80.396 58.777 82.559 C59.241 83.153 59.705 83.748 60.183 84.361 C61.085 85.515 61.992 86.666 62.903 87.813 C66 91.778 66 91.778 66 94 C51.155 95.911 51.155 95.911 46.213 92.917 C42.959 89.982 40.543 86.438 38.167 82.778 C36.421 80.118 34.449 77.639 32.5 75.125 C27.329 68.087 22.165 61.043 17 54 C16.67 67.2 16.34 80.4 16 94 C10.72 94 5.44 94 0 94 C0 62.98 0 31.96 0 0 Z " fill="#0B0B0B" transform="translate(995,419)"></path>
<path d="M0 0 C37.371 0 37.371 0 45.375 5.188 C52.581 12.908 53.388 21.132 53.215 31.355 C52.873 37.15 51.503 40.154 47.812 44.688 C43.622 48.133 39.13 50.29 34 52 C34.692 52.923 35.384 53.846 36.098 54.797 C44.398 65.865 52.699 76.932 61 88 C61.56 88.705 62.12 89.411 62.697 90.138 C64 92 64 92 64 94 C48.186 95.521 48.186 95.521 43.305 92.125 C41.292 89.518 39.648 86.85 38 84 C36.715 82.353 35.402 80.728 34.062 79.125 C30.292 74.417 26.673 69.604 23.078 64.762 C17.96 57.96 17.96 57.96 16 56 C15.67 68.54 15.34 81.08 15 94 C10.05 94 5.1 94 0 94 C0 62.98 0 31.96 0 0 Z " fill="#0B0B0B" transform="translate(1434,419)"></path>
<path d="M0 0 C0.913 -0.029 1.825 -0.058 2.766 -0.088 C11.522 -0.169 18.689 2.445 25.176 8.418 C32.642 16.742 36.437 25.406 36.195 36.594 C34.94 47.252 30.288 55.826 22.164 62.703 C14.402 68.16 5.21 70.187 -4.125 69.312 C-14.207 67.308 -21.005 63.937 -27.094 55.625 C-33.919 45.331 -35.142 36.846 -33.836 24.602 C-32.054 16.382 -25.275 8.73 -18.311 4.108 C-11.972 0.406 -7.141 0.074 0 0 Z " fill="#FFFFFF" transform="translate(904.125,430.6875)"></path>
<path d="M0 0 C7.867 5.638 14.86 15.763 16.676 25.34 C16.76 26.014 16.843 26.688 16.93 27.383 C17.024 28.129 17.118 28.876 17.215 29.645 C17.79 38.797 14.417 47.832 8.617 54.883 C1.414 62.257 -7.551 66.318 -17.883 66.82 C-26.73 66.486 -35.868 63.989 -42.219 57.598 C-51.889 46.03 -53.987 36.951 -52.824 22.277 C-51.063 12.816 -43.909 6.476 -36.863 0.516 C-27.591 -5.398 -9.654 -4.913 0 0 Z " fill="#FFFFFF" transform="translate(1589.0703125,433.6171875)"></path>
<path d="M0 0 C4.95 0 9.9 0 15 0 C15.015 1.826 15.029 3.652 15.044 5.533 C15.096 11.6 15.161 17.666 15.236 23.733 C15.28 27.408 15.32 31.082 15.346 34.756 C15.373 38.31 15.413 41.863 15.463 45.416 C15.488 47.415 15.498 49.415 15.508 51.414 C15.67 61.613 16.604 70.773 23.922 78.367 C28.978 82.34 34.751 83.304 41.062 83 C47.178 82.086 52.657 79.868 56.637 74.996 C59.954 69.835 61.123 65.768 61.205 59.601 C61.215 58.957 61.225 58.312 61.235 57.649 C61.267 55.522 61.292 53.396 61.316 51.27 C61.337 49.794 61.358 48.319 61.379 46.843 C61.435 42.962 61.484 39.08 61.532 35.199 C61.582 31.237 61.638 27.276 61.693 23.314 C61.801 15.543 61.902 7.772 62 0 C64.646 -0.027 67.292 -0.047 69.938 -0.062 C70.692 -0.071 71.447 -0.079 72.225 -0.088 C74.15 -0.097 76.075 -0.052 78 0 C79.752 1.752 79.146 4.203 79.161 6.583 C79.171 7.779 79.18 8.975 79.19 10.207 C79.194 11.514 79.199 12.821 79.203 14.168 C79.209 15.523 79.215 16.878 79.22 18.233 C79.231 21.087 79.237 23.941 79.24 26.796 C79.246 30.414 79.27 34.032 79.298 37.651 C79.317 40.459 79.322 43.267 79.324 46.075 C79.328 48.046 79.347 50.016 79.366 51.987 C79.333 65.545 77.643 78.345 68.406 88.805 C58.888 97.829 46.273 98.469 33.887 98.277 C23.093 97.857 13.916 94.32 6.512 86.41 C-0.89 77.131 -0.411 65.735 -0.293 54.492 C-0.287 52.915 -0.283 51.337 -0.28 49.76 C-0.269 45.64 -0.239 41.52 -0.206 37.4 C-0.175 33.184 -0.162 28.967 -0.146 24.75 C-0.114 16.5 -0.062 8.25 0 0 Z " fill="#0B0B0B" transform="translate(1659,418)"></path>
<path d="M0 0 C42.078 0 42.078 0 51 7 C56.555 12.702 57.346 18.822 57.312 26.438 C57.329 27.163 57.345 27.888 57.361 28.635 C57.368 36.154 54.856 41.825 49.809 47.426 C43.024 53.331 34.506 54.172 25.875 54.125 C25.517 54.127 25.517 54.127 23.707 54.137 C20.539 54.131 18.027 54.009 15 53 C15 67.19 15 81.38 15 96 C10.05 96 5.1 96 0 96 C0 64.32 0 32.64 0 0 Z " fill="#0B0B0B" transform="translate(1777,418)"></path>
<path d="M0 0 C29.871 0 29.871 0 41 10 C47.598 16.866 48.349 25.312 48.312 34.438 C48.329 35.232 48.345 36.027 48.361 36.846 C48.368 45.123 46.49 52.252 40.73 58.367 C28.347 70.052 18.415 68 0 68 C0 45.56 0 23.12 0 0 Z " fill="#FFFFFF" transform="translate(1199,432)"></path>
<path d="M0 0 C5.28 0 10.56 0 16 0 C16 26.73 16 53.46 16 81 C27.22 81 38.44 81 50 81 C50 85.95 50 90.9 50 96 C33.5 96 17 96 0 96 C0 64.32 0 32.64 0 0 Z " fill="#0B0B0B" transform="translate(1096,418)"></path>
<path d="M0 0 C0.66 0 1.32 0 2 0 C5.9 8.126 9.537 16.226 12.684 24.68 C14.162 28.408 15.834 32.008 17.562 35.625 C21.028 42.893 24.044 50.178 26 58 C9.5 58 -7 58 -24 58 C-23.233 54.163 -22.445 51.352 -20.961 47.824 C-20.549 46.839 -20.136 45.854 -19.711 44.838 C-19.27 43.799 -18.829 42.759 -18.375 41.688 C-17.925 40.617 -17.475 39.546 -17.011 38.443 C-14.157 31.671 -11.249 24.923 -8.274 18.203 C-6.337 13.818 -4.528 9.398 -2.824 4.918 C-2 3 -2 3 0 0 Z " fill="#FFFFFF" transform="translate(1354,227)"></path>
<path d="M0 0 C15.889 0 15.889 0 22 5 C24.64 9.275 24.531 14.129 24 19 C22.98 22.129 22.093 23.419 19.184 24.965 C12.729 27.47 8.335 27 1 27 C0.67 18.09 0.34 9.18 0 0 Z " fill="#FFFFFF" transform="translate(1794,432)"></path>
<path d="M0 0 C14.989 1.153 14.989 1.153 20 4 C21.461 6.922 21.248 9.559 21.312 12.812 C21.35 14.036 21.387 15.259 21.426 16.52 C20.928 20.586 19.87 22.141 17 25 C11.231 27.955 7 27 0 27 C0 18.09 0 9.18 0 0 Z " fill="#FFFFFF" transform="translate(1011,432)"></path>
<path d="M0 0 C13.985 1.165 13.985 1.165 19 4 C21.282 7.423 21.297 8.841 21.312 12.875 C21.329 13.904 21.346 14.932 21.363 15.992 C20.946 19.446 20.132 21.264 18 24 C16.055 25.145 16.055 25.145 13.875 25.812 C13.171 26.046 12.467 26.279 11.742 26.52 C7.884 27.196 3.917 27 0 27 C0 18.09 0 9.18 0 0 Z " fill="#FFFFFF" transform="translate(1449,432)"></path>
</svg>