<?xml version="1.0" encoding="UTF-8"?>

<svg version="1.1" xmlns="http://www.w3.org/2000/svg" width="2500" height="544">
<path d="M0 0 C36.06 -0.069 72.12 -0.122 108.181 -0.153 C112.448 -0.157 116.716 -0.161 120.984 -0.165 C121.833 -0.166 122.683 -0.166 123.558 -0.167 C137.272 -0.18 150.985 -0.204 164.699 -0.231 C178.795 -0.26 192.891 -0.276 206.987 -0.282 C215.668 -0.286 224.35 -0.299 233.031 -0.324 C239.003 -0.34 244.975 -0.344 250.948 -0.341 C254.381 -0.339 257.814 -0.343 261.248 -0.358 C306.265 -0.54 344.571 9.447 378 41 C378.338 41.311 378.338 41.311 380.047 42.887 C390.124 52.5 397.495 63.792 404 76 C404.534 76.963 405.067 77.926 405.617 78.918 C415.373 97.241 419.873 118.013 420.597 138.652 C420.636 139.705 420.675 140.757 420.715 141.842 C421.249 158.261 421.146 174.695 421.134 191.12 C421.132 196.017 421.134 200.914 421.136 205.81 C421.138 214.017 421.135 222.223 421.13 230.429 C421.125 239.871 421.127 249.312 421.132 258.754 C421.137 266.923 421.137 275.091 421.135 283.26 C421.133 288.112 421.133 292.965 421.136 297.817 C421.139 302.374 421.137 306.931 421.131 311.489 C421.13 313.146 421.13 314.803 421.133 316.46 C421.168 345.272 421.168 345.272 418.438 359.188 C418.269 360.051 418.1 360.915 417.927 361.805 C412.093 389.524 398.473 412.8 379 433 C378.704 433.322 378.704 433.322 377.207 434.949 C356.387 457.003 325.712 470.151 296 474 C295.375 474.088 294.75 474.175 294.105 474.266 C284.903 475.376 275.636 475.164 266.383 475.177 C264.396 475.183 262.409 475.19 260.421 475.197 C253.918 475.218 247.414 475.228 240.91 475.238 C238.658 475.242 236.405 475.246 234.153 475.251 C223.557 475.27 212.961 475.284 202.365 475.292 C190.204 475.302 178.043 475.328 165.882 475.369 C156.44 475.399 146.997 475.414 137.554 475.417 C131.936 475.419 126.318 475.428 120.699 475.453 C68.618 475.677 23.769 469.362 -14.746 431.285 C-41.668 402.683 -54.853 365.743 -54.277 326.625 C-53.469 303.85 -46.817 282.862 -36 263 C-35.423 261.918 -34.845 260.837 -34.25 259.723 C-30.222 252.478 -25.456 246.224 -20 240 C-19.143 239.009 -18.286 238.017 -17.402 236.996 C6.832 209.431 41.473 192.853 78 190 C86.15 189.646 94.313 189.746 102.469 189.773 C104.914 189.774 107.36 189.773 109.805 189.772 C115.042 189.772 120.278 189.777 125.515 189.789 C133.085 189.805 140.656 189.81 148.227 189.813 C160.514 189.817 172.801 189.83 185.089 189.849 C197.015 189.868 208.941 189.882 220.867 189.89 C221.235 189.89 221.235 189.89 223.1 189.892 C226.797 189.894 230.494 189.897 234.191 189.899 C264.794 189.92 295.397 189.955 326 190 C325.933 182.671 325.843 175.343 325.738 168.015 C325.704 165.527 325.676 163.038 325.654 160.549 C325.62 156.954 325.567 153.36 325.512 149.766 C325.509 149.217 325.509 149.217 325.492 146.44 C325.314 136.898 323.924 127.431 319.062 119.062 C318.821 118.635 318.821 118.635 317.598 116.473 C311.004 106.267 301.083 99.544 289.337 96.457 C280.283 94.686 270.722 95.306 261.543 95.341 C258.98 95.332 256.416 95.321 253.853 95.309 C248.358 95.287 242.864 95.279 237.369 95.286 C229.425 95.296 221.481 95.278 213.537 95.254 C200.644 95.215 187.752 95.198 174.86 95.196 C162.345 95.193 149.83 95.18 137.315 95.153 C136.542 95.151 135.769 95.149 134.973 95.148 C131.095 95.139 127.217 95.13 123.338 95.122 C91.226 95.049 59.113 95.013 27 95 C25.901 91.401 24.803 87.802 23.705 84.203 C23.399 83.2 23.092 82.197 22.777 81.164 C19.575 70.662 16.529 60.116 13.5 49.562 C12.372 45.639 11.243 41.716 10.113 37.793 C9.842 36.851 9.571 35.909 9.292 34.938 C7.747 29.574 6.187 24.216 4.605 18.863 C4.273 17.737 3.94 16.61 3.598 15.449 C3.011 13.468 2.422 11.489 1.828 9.51 C1.579 8.669 1.331 7.828 1.074 6.961 C0.864 6.258 0.653 5.554 0.436 4.83 C0 3 0 3 0 0 Z " fill="#999999" transform="translate(267,18)"></path>
<path d="M0 0 C0 83.16 0 166.32 0 252 C-13.86 252 -27.72 252 -42 252 C-42.33 245.4 -42.66 238.8 -43 232 C-43.691 232.743 -43.691 232.743 -47.188 236.5 C-55.276 244.577 -65.054 250.603 -76 254 C-76.953 254.298 -77.905 254.596 -78.887 254.902 C-102.763 261.152 -128.632 256.929 -150 245 C-154.252 242.318 -158.15 239.226 -162 236 C-162.932 235.294 -163.864 234.587 -164.824 233.859 C-165.183 233.553 -165.183 233.553 -167 232 C-167 231.34 -167 230.68 -167 230 C-167.66 230 -168.32 230 -169 230 C-183.82 213.583 -193.551 194.101 -196 172 C-196.11 171.114 -196.219 170.229 -196.332 169.316 C-199.3 142.055 -192.873 113.839 -175.562 92.125 C-174.063 90.398 -172.543 88.689 -171 87 C-170.303 86.221 -169.605 85.443 -168.887 84.641 C-152.788 67.571 -129.941 57.757 -106.574 56.762 C-84.224 56.249 -66.517 61.332 -49.27 75.824 C-47 78 -47 78 -43 83 C-42.67 60.56 -42.34 38.12 -42 15 C-38.37 13.68 -34.74 12.36 -31 11 C-28.394 10.025 -25.79 9.046 -23.188 8.062 C-1.768 0 -1.768 0 0 0 Z " fill="#373737" transform="translate(1759,99)"></path>
<path d="M0 0 C1.135 0.925 2.261 1.861 3.375 2.812 C3.936 3.255 4.496 3.697 5.074 4.152 C7.982 6.469 10.213 8.807 12.375 11.812 C12.388 11.512 12.388 11.512 12.451 9.992 C12.567 7.286 12.689 4.581 12.812 1.875 C12.852 0.929 12.891 -0.016 12.932 -0.99 C12.974 -1.889 13.015 -2.788 13.059 -3.715 C13.077 -4.131 13.077 -4.131 13.17 -6.238 C13.375 -8.187 13.375 -8.187 14.375 -9.188 C27.905 -9.188 41.435 -9.188 55.375 -9.188 C55.375 53.512 55.375 116.212 55.375 180.812 C41.515 180.812 27.655 180.812 13.375 180.812 C13.045 174.212 12.715 167.613 12.375 160.812 C11.684 161.555 11.684 161.555 8.188 165.312 C-6.634 180.113 -25.455 186.059 -46 186.188 C-66.354 186.011 -85.065 180.946 -101.625 168.812 C-102.536 168.146 -103.448 167.48 -104.387 166.793 C-126.113 149.976 -136.86 125.863 -141.027 99.242 C-144.214 72.785 -138.085 45.447 -122.438 23.688 C-106.047 2.895 -85.381 -9.261 -59.207 -13.777 C-37.791 -16.23 -17.602 -12.917 0 0 Z " fill="#383838" transform="translate(1114.625,170.1875)"></path>
<path d="M0 0 C21.213 18.395 31.961 43.373 34.367 71.012 C35.833 96.925 27.474 122.483 10.555 142.199 C-6.173 160.667 -30.088 174.647 -55.445 176.199 C-83.993 177.609 -113.389 173.566 -135.591 153.866 C-138.28 151.379 -140.873 148.806 -143.445 146.199 C-144.281 145.374 -145.116 144.549 -145.977 143.699 C-152.185 137.236 -156.318 130.1 -160.445 122.199 C-160.783 121.576 -161.121 120.952 -161.469 120.31 C-164.071 115.374 -165.72 110.461 -167.133 105.074 C-167.345 104.302 -167.557 103.53 -167.775 102.734 C-174.999 75.98 -171.06 48.356 -157.422 24.324 C-141.373 -1.049 -118.511 -15.846 -89.453 -22.484 C-57.589 -28.485 -24.908 -20.703 0 0 Z " fill="#383838" transform="translate(1967.4453125,179.80078125)"></path>
<path d="M0 0 C0.606 0.572 1.212 1.145 1.836 1.734 C1.836 2.394 1.836 3.054 1.836 3.734 C2.496 3.734 3.156 3.734 3.836 3.734 C5.562 5.703 5.562 5.703 7.461 8.234 C8.093 9.07 8.724 9.905 9.375 10.766 C9.616 11.09 9.616 11.09 10.836 12.734 C11.352 11.909 11.867 11.084 12.398 10.234 C22.447 -4.63 37.798 -14.252 55.211 -18.141 C57.415 -18.541 59.623 -18.919 61.836 -19.266 C62.576 -19.396 63.316 -19.526 64.078 -19.66 C84.733 -22.674 107.575 -19.769 125.148 -7.953 C126.73 -6.749 128.293 -5.519 129.836 -4.266 C130.666 -3.621 131.496 -2.977 132.352 -2.312 C146.671 9.547 153.868 26.713 156.836 44.734 C157.198 49.251 157.218 53.728 157.177 58.257 C157.177 59.527 157.177 60.797 157.178 62.106 C157.179 65.539 157.161 68.972 157.14 72.405 C157.121 76.011 157.12 79.617 157.116 83.223 C157.107 90.029 157.082 96.836 157.052 103.642 C157.018 111.401 157.002 119.159 156.987 126.917 C156.956 142.856 156.901 158.795 156.836 174.734 C143.306 174.734 129.776 174.734 115.836 174.734 C115.816 171.541 115.796 168.348 115.776 165.058 C115.709 154.461 115.631 143.864 115.548 133.267 C115.499 126.848 115.452 120.428 115.414 114.009 C115.377 107.803 115.331 101.598 115.278 95.393 C115.259 93.036 115.244 90.679 115.233 88.321 C115.015 46.053 115.015 46.053 102.848 31.668 C94.083 23.244 83.256 20.203 71.398 20.359 C70.521 20.348 69.644 20.336 68.74 20.324 C56.77 20.377 45.036 24.552 36.148 32.672 C25.629 43.845 22.548 57.357 22.517 72.221 C22.507 73.334 22.497 74.447 22.487 75.594 C22.456 79.246 22.439 82.899 22.422 86.551 C22.403 89.094 22.384 91.637 22.363 94.18 C22.317 100.172 22.28 106.164 22.247 112.156 C22.208 118.983 22.159 125.811 22.109 132.638 C22.005 146.67 21.918 160.702 21.836 174.734 C7.976 174.734 -5.884 174.734 -20.164 174.734 C-20.171 172.994 -20.171 172.994 -20.208 164.185 C-20.259 152.653 -20.325 141.122 -20.4 129.591 C-20.445 122.603 -20.484 115.616 -20.51 108.627 C-20.536 101.878 -20.577 95.128 -20.627 88.378 C-20.644 85.809 -20.655 83.24 -20.662 80.671 C-20.671 77.059 -20.699 73.448 -20.732 69.837 C-20.73 68.786 -20.729 67.735 -20.727 66.652 C-20.889 53.754 -24.119 41.664 -32.727 31.797 C-33.531 31.116 -34.335 30.436 -35.164 29.734 C-35.525 29.394 -35.525 29.394 -37.352 27.672 C-49.17 19.53 -64.23 19.048 -77.984 21.383 C-90.675 24.961 -99.439 31.582 -106.371 42.664 C-111.476 51.879 -112.611 62.209 -112.596 72.562 C-112.607 73.675 -112.617 74.789 -112.627 75.936 C-112.657 79.572 -112.667 83.208 -112.676 86.844 C-112.693 89.383 -112.711 91.921 -112.73 94.46 C-112.773 100.431 -112.802 106.401 -112.826 112.372 C-112.853 119.178 -112.897 125.983 -112.942 132.789 C-113.034 146.77 -113.104 160.752 -113.164 174.734 C-127.024 174.734 -140.884 174.734 -155.164 174.734 C-155.164 112.034 -155.164 49.334 -155.164 -15.266 C-141.634 -15.266 -128.104 -15.266 -114.164 -15.266 C-114.164 -8.006 -114.164 -0.746 -114.164 6.734 C-113.504 6.734 -112.844 6.734 -112.164 6.734 C-112.02 6.435 -112.02 6.435 -111.289 4.922 C-110.164 2.734 -110.164 2.734 -108.164 -0.266 C-107.504 -0.266 -106.844 -0.266 -106.164 -0.266 C-105.999 -0.761 -105.999 -0.761 -105.164 -3.266 C-103.255 -4.846 -101.393 -6.253 -99.352 -7.641 C-98.766 -8.039 -98.179 -8.438 -97.576 -8.848 C-66.711 -29.245 -27.542 -21.864 0 0 Z " fill="#373737" transform="translate(1370.1640625,176.265625)"></path>
<path d="M0 0 C1.018 -0.003 2.036 -0.007 3.085 -0.01 C6.465 -0.017 9.843 0.005 13.223 0.027 C15.658 0.028 18.093 0.027 20.528 0.025 C25.754 0.024 30.98 0.036 36.207 0.058 C43.763 0.091 51.318 0.101 58.875 0.106 C71.136 0.115 83.398 0.141 95.66 0.179 C107.565 0.216 119.47 0.244 131.375 0.261 C131.742 0.262 131.742 0.262 133.602 0.264 C137.289 0.27 140.976 0.275 144.663 0.28 C175.209 0.321 205.754 0.392 236.3 0.481 C236.402 7.915 236.472 15.349 236.52 22.783 C236.54 25.307 236.567 27.83 236.602 30.354 C237.052 63.835 237.052 63.835 226.3 77.481 C225.599 78.492 224.898 79.502 224.175 80.544 C216.7 89.09 205.352 94.51 194.141 95.713 C188.17 96.085 182.192 96.026 176.212 95.999 C174.212 96.004 172.211 96.011 170.211 96.02 C164.812 96.038 159.413 96.031 154.015 96.018 C148.345 96.008 142.675 96.018 137.005 96.024 C127.486 96.031 117.967 96.022 108.448 96.003 C97.468 95.981 86.489 95.988 75.509 96.01 C66.055 96.028 56.601 96.031 47.146 96.02 C41.512 96.014 35.877 96.013 30.242 96.026 C24.943 96.038 19.644 96.03 14.345 96.007 C12.409 96.001 10.473 96.003 8.537 96.012 C-8.239 96.081 -22.267 94.003 -35.208 82.192 C-44.978 72.034 -49.123 60.005 -49.066 46.041 C-48.779 33.862 -43.739 22.644 -35.45 13.731 C-25.614 4.564 -13.342 -0.167 0 0 Z " fill="#FFFFFF" transform="translate(356.6998748779297,302.51898193359375)"></path>
<path d="M0 0 C-5.423 11.346 -11.609 22.176 -18 33 C-18.306 32.824 -18.306 32.824 -19.852 31.934 C-37.329 22.506 -56.33 17.937 -76.062 17.688 C-77.068 17.67 -78.074 17.652 -79.111 17.633 C-89.695 17.646 -99.991 19.623 -108 27 C-111.517 31.676 -112.76 36.138 -112 42 C-110.244 46.714 -108.261 49.337 -104 52 C-96.619 55.187 -89.368 56.84 -81.438 57.938 C-79.234 58.272 -77.031 58.609 -74.828 58.949 C-73.703 59.121 -72.579 59.293 -71.42 59.47 C-47.003 63.253 -21.16 67.472 -4.531 87.688 C4.203 100.878 6.264 115.75 3.618 131.237 C1.033 141.672 -5.074 150.847 -13 158 C-13.503 158.518 -14.005 159.036 -14.523 159.57 C-32.855 177.422 -62.142 180.552 -86.458 180.351 C-114.661 179.668 -139.037 171.683 -163 157 C-162.518 151.648 -159.607 147.68 -156.812 143.25 C-156.316 142.45 -155.819 141.651 -155.307 140.827 C-151.975 135.483 -148.588 130.177 -145 125 C-141.251 126.378 -138.065 128.129 -134.688 130.25 C-111.932 143.506 -83.139 146.625 -57.664 140.152 C-50.496 137.966 -45.794 135.662 -41.188 129.625 C-39.14 125.098 -38.812 121.34 -39.5 116.438 C-42.351 109.903 -47.081 107.164 -53.551 104.512 C-62.255 101.252 -71.202 100.163 -80.375 98.938 C-95.084 96.932 -109.726 94.886 -123.375 88.688 C-124.041 88.389 -124.708 88.091 -125.395 87.783 C-130.905 85.222 -135.519 82.122 -140 78 C-140.695 77.419 -141.39 76.837 -142.105 76.238 C-151.676 67.673 -155.201 55.812 -156.215 43.363 C-156.748 28.754 -152.302 14.886 -142.812 3.75 C-129.54 -10.03 -113.604 -16.428 -95 -19 C-94.206 -19.13 -93.412 -19.26 -92.594 -19.395 C-60.598 -24.009 -27.691 -15.596 0 0 Z " fill="#383838" transform="translate(2391,176)"></path>
<path d="M0 0 C4.8 3.981 9.391 7.881 13 13 C12.143 13.846 11.286 14.691 10.402 15.562 C4.923 20.991 -0.503 26.394 -5.5 32.277 C-7.865 34.993 -10.423 37.486 -13 40 C-17.212 38.571 -20.119 36.475 -23.562 33.688 C-36.072 24.016 -51.297 20.572 -67 22 C-81.39 24.286 -94.197 30.951 -103.035 42.707 C-104.82 45.417 -106.445 48.153 -108 51 C-108.4 51.728 -108.799 52.457 -109.211 53.207 C-117.536 70.075 -116.31 89.197 -111.191 106.777 C-106.439 120.148 -96.087 131.354 -83.375 137.438 C-69.573 143.539 -53.222 144.355 -39 139 C-29.798 135.07 -21.843 130.162 -14 124 C-9.744 125.605 -7.141 128.821 -4.188 132.125 C-3.923 132.417 -3.923 132.417 -2.582 133.894 C-1.048 135.59 0.478 137.293 2 139 C2.369 139.412 2.369 139.412 4.234 141.496 C6.962 144.579 9.556 147.685 12 151 C6.175 163.936 -9.906 171.729 -22.49 176.743 C-48.49 186.432 -79.109 184.207 -104.325 173.278 C-111.512 169.967 -117.786 165.896 -124 161 C-124.755 160.415 -125.511 159.83 -126.289 159.227 C-134.687 152.32 -140.79 143.455 -146 134 C-146.504 133.121 -147.008 132.242 -147.527 131.336 C-160.228 107.875 -162.337 78.299 -155.398 52.787 C-150.825 37.484 -143.805 23.834 -133 12 C-132.671 11.636 -132.671 11.636 -131.004 9.793 C-98.661 -24.242 -36.932 -28.421 0 0 Z " fill="#383838" transform="translate(2189,174)"></path>
<path d="M0 0 C6.036 5.117 10.215 10.954 14.004 17.863 C14.204 18.21 14.204 18.21 15.215 19.965 C23.35 35.806 22.07 55.215 17.16 71.695 C11.39 87.488 -0.346 97.58 -14.996 104.863 C-27.488 110.121 -44.384 111.292 -57.328 106.957 C-73.049 100.512 -86.175 91.638 -93.461 75.648 C-100.68 57.047 -100.69 38.182 -92.996 19.863 C-85.259 3.93 -73.06 -5.18 -56.73 -10.973 C-36.931 -17.145 -16.517 -11.78 0 0 Z " fill="#FFFFFF" transform="translate(1937.99609375,208.13671875)"></path>
<path d="M0 0 C12.82 11.001 20.366 25.011 22.086 41.809 C23.29 60.068 20.086 77.857 7.773 92.121 C-3.924 104.287 -17.198 110.591 -34.114 111.092 C-50.015 111.298 -63.963 106.468 -75.598 95.281 C-87.297 82.793 -91.653 69.493 -92.914 52.809 C-92.998 51.852 -93.082 50.896 -93.168 49.91 C-93.902 34.131 -87.257 17.566 -77.039 5.809 C-56.89 -14.825 -23.175 -17.428 0 0 Z " fill="#FFFFFF" transform="translate(1697.9140625,206.19140625)"></path>
<path d="M0 0 C12.622 10.062 19.661 24.403 21.859 40.191 C22.366 44.821 22.643 49.155 22.254 53.797 C22.161 54.947 22.068 56.097 21.973 57.281 C20.175 74.225 13.556 88.822 0.254 99.797 C-14.306 110.161 -30.544 112.872 -47.98 110.324 C-62.842 106.738 -75.63 97.772 -83.746 84.797 C-92.693 69.51 -95.352 50.964 -91.184 33.734 C-87.886 21.291 -82.156 10.711 -72.746 1.797 C-72.156 1.225 -71.565 0.652 -70.957 0.062 C-51.32 -16.72 -20.111 -14.13 0 0 Z " fill="#FFFFFF" transform="translate(1108.74609375,206.203125)"></path>
<path d="M0 0 C28.38 0 56.76 0 86 0 C89.375 7.875 89.375 7.875 90.252 10.984 C90.453 11.69 90.655 12.396 90.863 13.124 C91.072 13.873 91.281 14.623 91.496 15.395 C91.726 16.204 91.956 17.013 92.193 17.847 C92.945 20.501 93.692 23.157 94.438 25.812 C94.961 27.667 95.486 29.521 96.011 31.375 C96.83 34.269 97.648 37.162 98.465 40.055 C100.437 47.035 102.44 54.006 104.457 60.973 C105.287 63.845 106.116 66.717 106.945 69.59 C107.48 71.442 108.017 73.293 108.556 75.144 C109.308 77.727 110.053 80.313 110.797 82.898 C110.909 83.281 110.909 83.281 111.477 85.216 C112.459 88.652 113 91.394 113 95 C75.71 95 38.42 95 0 95 C0 63.65 0 32.3 0 0 Z " fill="#999999" transform="translate(737,208)"></path>
</svg>