<?xml version="1.0" encoding="UTF-8"?>

<svg version="1.1" xmlns="http://www.w3.org/2000/svg" width="2171" height="478">
<path d="M0 0 C0.315 0.178 0.315 0.178 1.907 1.079 C5.621 3.324 7.375 5.088 8.5 9.312 C8.076 9.728 7.652 10.143 7.215 10.57 C-4.162 22.522 -8.334 37.315 -8.812 53.5 C-8.742 55.106 -8.635 56.711 -8.5 58.312 C-8.43 59.353 -8.361 60.393 -8.289 61.465 C-6.754 76.625 -0.13 88.782 9.5 100.312 C8.046 103.441 6.298 106.102 4.25 108.875 C3.533 109.848 2.817 110.821 2.078 111.824 C1.671 112.374 1.265 112.923 0.846 113.49 C-0.635 115.495 -2.107 117.507 -3.578 119.52 C-11.211 129.943 -18.988 140.249 -26.836 150.512 C-30.592 155.424 -34.304 160.368 -37.996 165.328 C-39.5 167.312 -39.5 167.312 -40.5 168.312 C-44.233 167.932 -47.771 167.261 -51.375 166.25 C-63.19 163.234 -75.199 166.229 -85.5 172.312 C-85.83 172.643 -86.16 172.972 -86.5 173.312 C-88.812 173.625 -88.812 173.625 -91.5 173.312 C-92.858 172.004 -94.187 170.665 -95.5 169.312 C-97.457 167.743 -99.439 166.204 -101.438 164.688 C-102.595 163.806 -103.753 162.925 -104.91 162.043 C-105.502 161.594 -106.094 161.144 -106.704 160.681 C-108.474 159.333 -110.236 157.975 -111.996 156.613 C-112.278 156.396 -112.278 156.396 -113.702 155.294 C-114.808 154.439 -115.913 153.583 -117.018 152.728 C-119.877 150.525 -122.769 148.407 -125.75 146.375 C-128.5 144.312 -128.5 144.312 -129.5 141.312 C-127.612 137.465 -125.644 134.392 -122.75 131.25 C-120.5 128.312 -120.5 128.312 -119.688 125.312 C-120.766 121.33 -122.476 120.4 -125.82 118.145 C-129.174 115.852 -132.323 113.342 -135.5 110.812 C-139.812 107.408 -144.145 104.047 -148.566 100.785 C-151.824 98.304 -154.96 95.669 -158.105 93.047 C-160.545 91.28 -162.613 90.163 -165.5 89.312 C-169.319 90.586 -169.723 91.902 -171.75 95.312 C-174.417 99.783 -177.401 103.824 -180.618 107.904 C-183.75 111.912 -186.744 116.022 -189.75 120.125 C-190.963 121.777 -192.177 123.43 -193.391 125.082 C-193.654 125.441 -193.654 125.441 -194.985 127.257 C-196.021 128.663 -197.078 130.052 -198.154 131.428 C-199.5 133.312 -199.5 133.312 -200.152 135.695 C-199.072 140.028 -195.611 141.735 -192.062 144.188 C-190.576 145.256 -189.091 146.325 -187.605 147.395 C-186.889 147.902 -186.173 148.409 -185.435 148.932 C-183.203 150.524 -181.03 152.18 -178.875 153.875 C-178.21 154.397 -177.545 154.919 -176.859 155.457 C-176.47 155.763 -176.47 155.763 -174.5 157.312 C-173.318 158.233 -172.136 159.154 -170.953 160.074 C-169.677 161.07 -168.401 162.066 -167.125 163.062 C-166.517 163.535 -165.909 164.008 -165.283 164.494 C-160.706 168.077 -160.706 168.077 -158.898 170.141 C-157.5 171.312 -157.5 171.312 -155.105 171.867 C-151.279 171.053 -149.881 168.518 -147.812 165.438 C-143.546 159.358 -143.546 159.358 -141.5 157.312 C-136.751 157.487 -133.724 160.121 -130.188 163 C-129.024 163.922 -127.86 164.844 -126.695 165.766 C-126.14 166.21 -125.585 166.654 -125.013 167.111 C-123.225 168.531 -121.401 169.897 -119.562 171.25 C-118.967 171.704 -118.371 172.158 -117.758 172.625 C-116.446 173.605 -115.126 174.576 -113.788 175.52 C-111.821 176.908 -109.88 178.327 -107.938 179.75 C-107.292 180.193 -106.647 180.635 -105.983 181.092 C-104.184 182.434 -104.184 182.434 -101.5 185.312 C-101.562 188.926 -101.562 188.926 -102.5 192.312 C-104.678 206.836 -104.037 223.437 -96.258 236.379 C-89.716 244.64 -79.352 250.79 -69.125 253.062 C-67.929 253.145 -66.732 253.228 -65.5 253.312 C-65.106 253.35 -65.106 253.35 -63.113 253.539 C-52.252 254.142 -41.675 250.358 -33.457 243.238 C-24.384 234.31 -18.553 222.224 -18.188 209.312 C-18.283 200.374 -21.233 192.283 -26.547 185.129 C-27.838 182.669 -27.761 181.071 -27.5 178.312 C-26.215 176.187 -26.215 176.187 -24.438 174.09 C-23.797 173.311 -23.156 172.532 -22.496 171.73 C-21.837 170.932 -21.179 170.134 -20.5 169.312 C-19.322 167.76 -18.155 166.199 -17 164.629 C-16.427 163.852 -15.854 163.075 -15.263 162.275 C-14.681 161.483 -14.099 160.691 -13.5 159.875 C-12.883 159.037 -12.267 158.2 -11.631 157.337 C-8.665 153.298 -5.723 149.249 -2.875 145.125 C0.611 140.077 4.311 135.195 8.004 130.298 C11.752 125.324 15.435 120.309 19.074 115.254 C20.5 113.313 20.5 113.313 21.5 112.312 C25.389 111.855 27.946 112.875 31.461 114.445 C44.933 120.175 60.318 120.362 73.934 115.09 C76.693 114.254 77.891 114.126 80.5 115.312 C91.496 131.806 86.575 165.603 83.5 184.312 C83.376 185.065 83.253 185.818 83.125 186.593 C79.916 205.24 73.672 222.777 64.5 239.312 C64.147 239.95 63.794 240.588 63.43 241.245 C43.37 276.981 8.353 309.888 -31.5 322 C-32.266 322.2 -33.031 322.4 -33.82 322.605 C-35.958 323.169 -38.074 323.815 -40.18 324.488 C-48.992 327.296 -57.63 329.162 -66.812 330.324 C-67.611 330.427 -68.411 330.53 -69.234 330.637 C-69.586 330.678 -69.586 330.678 -71.366 330.889 C-73.5 331.312 -73.5 331.312 -75.914 332.336 C-80.673 334.133 -85.719 333.64 -90.75 333.625 C-91.297 333.633 -91.297 333.633 -94.066 333.674 C-100.024 333.677 -104.848 333.158 -110.408 331.028 C-113.908 329.831 -117.457 329.653 -121.125 329.375 C-145.651 327.044 -168.348 316.104 -188.5 302.312 C-189.56 301.611 -190.619 300.91 -191.711 300.188 C-219.832 281.184 -244.59 251.4 -254.691 218.648 C-255.5 216.312 -255.5 216.312 -256.961 213.043 C-258.628 209.201 -259.64 205.327 -260.562 201.25 C-260.733 200.518 -260.904 199.787 -261.08 199.033 C-262.441 193.014 -263.325 187.01 -264.008 180.875 C-264.17 180.029 -264.333 179.184 -264.5 178.312 C-265.16 177.982 -265.82 177.653 -266.5 177.312 C-266.5 161.142 -266.5 144.972 -266.5 128.312 C-265.84 127.982 -265.18 127.653 -264.5 127.312 C-264.033 125.529 -264.033 125.529 -263.711 123.176 C-263.645 122.738 -263.645 122.738 -263.31 120.52 C-263.166 119.565 -263.023 118.609 -262.875 117.625 C-258.111 89.054 -243.876 59.888 -224.5 38.312 C-224.27 38.053 -224.27 38.053 -223.105 36.74 C-206.98 18.599 -186.05 0.373 -162.766 -7.848 C-160.149 -8.818 -157.619 -9.942 -155.062 -11.062 C-147.37 -14.265 -139.552 -16.587 -131.5 -18.688 C-130.779 -18.888 -130.058 -19.088 -129.315 -19.295 C-86.945 -30.759 -37.47 -21.699 0 0 Z " fill="#999999" transform="translate(367.5,122.6875)"></path>
<path d="M0 0 C0.797 0.335 1.593 0.67 2.414 1.016 C18.297 8.755 30.244 25.087 36.191 41.234 C43.069 62.451 41.872 82.552 33 103 C24.201 119.098 9.846 133.002 -7.904 138.601 C-12.562 139.937 -17.265 140.979 -22 142 C-22.946 142.25 -23.892 142.5 -24.867 142.758 C-40.633 146.543 -61.043 141.222 -74.82 133.398 C-77.608 131.674 -80.315 129.879 -83 128 C-83.626 127.562 -84.253 127.123 -84.898 126.672 C-99.122 115.587 -108.754 96.593 -111 79 C-112.894 58.641 -109.784 38.728 -96.694 22.368 C-84.426 7.654 -68.297 -3.791 -48.945 -6.414 C-31.735 -7.701 -16.042 -6.869 0 0 Z " fill="#202020" transform="translate(1644,248)"></path>
<path d="M0 0 C15.476 -0.32 27.728 3.676 39.957 13.125 C40.647 13.637 41.336 14.149 42.047 14.676 C54.44 24.566 62.637 40.428 64.398 56.035 C66.035 75.831 61.494 92.395 48.707 107.875 C42.053 115.654 34.272 120.953 24.957 125.125 C24.269 125.486 23.58 125.847 22.871 126.219 C10.594 132.085 -7.199 131.576 -19.952 127.518 C-26.778 125.071 -32.758 122.139 -38.043 117.125 C-38.889 116.63 -39.734 116.135 -40.605 115.625 C-49.819 109.955 -55.694 99.718 -60.043 90.125 C-60.198 89.81 -60.198 89.81 -60.98 88.219 C-64.471 80.835 -64.225 72.751 -64.23 64.75 C-64.243 63.868 -64.255 62.987 -64.268 62.078 C-64.288 52.578 -62.734 44.422 -58.293 36 C-58.115 35.655 -58.115 35.655 -57.213 33.906 C-49.063 18.428 -36.899 7.889 -20.168 2.375 C-13.524 0.538 -6.853 0.282 0 0 Z " fill="#202020" transform="translate(487.04296875,24.875)"></path>
<path d="M0 0 C8.442 -0.094 16.884 -0.164 25.326 -0.207 C29.248 -0.228 33.17 -0.256 37.092 -0.302 C83.571 -0.831 83.571 -0.831 100.449 15.254 C109.109 24.577 112.631 37.618 113.125 50.18 C112.938 52.863 112.554 55.369 112 58 C111.811 58.995 111.621 59.99 111.426 61.016 C108.618 73.934 102.097 83.835 91.109 91.281 C73.158 102.185 50.294 101.375 30 102 C28.369 105.263 28.901 108.855 28.938 112.438 C28.941 113.273 28.945 114.109 28.949 114.97 C28.961 117.647 28.98 120.323 29 123 C29.027 126.521 29.047 130.042 29.062 133.562 C29.071 134.377 29.079 135.192 29.088 136.031 C29.113 141.774 29.113 141.774 28 144 C24.031 144.025 20.061 144.043 16.092 144.055 C14.741 144.06 13.39 144.067 12.038 144.075 C10.1 144.088 8.161 144.093 6.223 144.098 C5.055 144.103 3.887 144.108 2.684 144.114 C0 144 0 144 -1 143 C-1.099 141.182 -1.126 139.361 -1.127 137.54 C-1.13 136.355 -1.133 135.171 -1.136 133.95 C-1.134 132.638 -1.131 131.326 -1.129 129.975 C-1.131 128.589 -1.133 127.203 -1.135 125.817 C-1.139 122.042 -1.137 118.267 -1.134 114.492 C-1.132 110.55 -1.134 106.607 -1.136 102.664 C-1.138 96.04 -1.135 89.416 -1.13 82.793 C-1.125 75.127 -1.127 67.461 -1.132 59.796 C-1.137 53.224 -1.137 46.653 -1.135 40.081 C-1.133 36.152 -1.133 32.223 -1.136 28.294 C-1.139 24.599 -1.137 20.905 -1.131 17.211 C-1.129 15.202 -1.132 13.194 -1.136 11.186 C-1.133 9.998 -1.13 8.81 -1.127 7.587 C-1.127 6.55 -1.126 5.513 -1.126 4.445 C-1 2 -1 2 0 0 Z " fill="#202020" transform="translate(1397,244)"></path>
<path d="M0 0 C5.662 0.159 10.068 0.326 14.408 4.217 C17.305 7.518 19.624 11.142 21.83 14.932 C23.512 17.765 25.426 20.382 27.381 23.031 C28.624 24.72 29.827 26.431 31.021 28.155 C32.975 30.906 35.027 33.516 37.143 36.143 C39.097 38.714 41.025 41.304 42.955 43.893 C46.22 48.266 49.493 52.623 52.893 56.893 C55.461 60.156 57.749 63.54 60.018 67.018 C63.429 72.218 67.162 77.01 71.162 81.768 C73.143 84.143 73.143 84.143 74.654 86.456 C75.145 87.012 75.637 87.569 76.143 88.143 C77.463 88.143 78.783 88.143 80.143 88.143 C80.473 59.433 80.803 30.723 81.143 1.143 C90.053 1.143 98.963 1.143 108.143 1.143 C109.459 3.776 109.271 5.735 109.276 8.685 C109.278 9.274 109.278 9.274 109.289 12.254 C109.289 12.904 109.289 12.904 109.288 16.19 C109.291 17.566 109.294 18.943 109.298 20.319 C109.307 24.063 109.309 27.806 109.31 31.55 C109.311 34.672 109.314 37.793 109.318 40.915 C109.326 48.276 109.329 55.637 109.328 62.999 C109.327 70.602 109.338 78.206 109.354 85.81 C109.367 92.33 109.372 98.851 109.371 105.372 C109.371 109.27 109.374 113.167 109.385 117.065 C109.394 120.729 109.394 124.393 109.387 128.057 C109.386 130.049 109.394 132.04 109.403 134.032 C109.398 135.21 109.394 136.388 109.39 137.601 C109.39 138.629 109.391 139.657 109.391 140.716 C109.143 143.143 109.143 143.143 107.143 145.143 C103.417 145.705 99.656 145.653 95.893 145.706 C95.374 145.73 95.374 145.73 92.748 145.856 C85.292 145.956 85.292 145.956 82.281 143.826 C80.705 142.018 79.43 140.165 78.143 138.143 C77.146 136.82 76.142 135.502 75.131 134.19 C74.133 132.842 73.137 131.493 72.143 130.143 C71.179 128.856 70.214 127.569 69.248 126.284 C67.751 124.287 66.254 122.291 64.757 120.295 C62.389 117.137 60.021 113.98 57.646 110.827 C52.085 103.434 46.621 95.976 41.217 88.467 C37.218 82.93 33.129 77.471 28.94 72.076 C26.792 69.306 24.674 66.52 22.611 63.686 C22.206 63.133 21.802 62.58 21.385 62.01 C20.269 60.48 19.16 58.945 18.053 57.409 C16.143 55.143 16.143 55.143 13.143 54.143 C11.531 57.366 11.971 60.89 11.953 64.432 C11.945 65.289 11.937 66.146 11.928 67.029 C11.911 68.893 11.895 70.757 11.882 72.621 C11.861 75.566 11.834 78.511 11.806 81.456 C11.736 88.77 11.676 96.084 11.617 103.398 C11.566 109.576 11.511 115.755 11.451 121.934 C11.424 124.844 11.403 127.754 11.383 130.664 C11.366 132.437 11.349 134.21 11.332 135.983 C11.328 136.799 11.324 137.615 11.319 138.456 C11.256 144.029 11.256 144.029 10.143 145.143 C8.228 145.243 6.31 145.274 4.393 145.276 C3.227 145.277 2.062 145.278 0.861 145.28 C-0.366 145.276 -1.593 145.272 -2.857 145.268 C-4.085 145.272 -5.312 145.276 -6.576 145.28 C-7.741 145.278 -8.907 145.277 -10.107 145.276 C-11.185 145.275 -12.263 145.274 -13.373 145.272 C-15.857 145.143 -15.857 145.143 -16.857 144.143 C-16.956 142.31 -16.984 140.474 -16.984 138.639 C-16.987 137.444 -16.99 136.249 -16.993 135.018 C-16.991 133.682 -16.989 132.346 -16.987 131.01 C-16.988 129.613 -16.99 128.215 -16.992 126.818 C-16.997 123.012 -16.995 119.206 -16.992 115.401 C-16.989 111.427 -16.992 107.453 -16.993 103.479 C-16.995 96.804 -16.993 90.129 -16.988 83.454 C-16.982 75.725 -16.984 67.997 -16.99 60.269 C-16.994 53.646 -16.995 47.023 -16.992 40.399 C-16.991 36.438 -16.99 32.477 -16.994 28.516 C-16.997 24.793 -16.995 21.07 -16.989 17.347 C-16.987 15.977 -16.988 14.606 -16.99 13.236 C-16.993 11.373 -16.989 9.51 -16.984 7.647 C-16.984 6.603 -16.984 5.558 -16.983 4.481 C-16.646 -1.78 -4.737 0.106 0 0 Z " fill="#202020" transform="translate(1808.857421875,242.85693359375)"></path>
<path d="M0 0 C0.871 0.004 1.742 0.009 2.639 0.013 C3.591 0.033 4.543 0.053 5.525 0.074 C6.53 0.083 7.535 0.093 8.57 0.102 C11.898 0.137 15.225 0.193 18.553 0.249 C20.858 0.277 23.163 0.303 25.468 0.329 C31.54 0.399 37.611 0.488 43.682 0.58 C49.875 0.671 56.069 0.745 62.262 0.821 C74.418 0.971 86.574 1.141 98.729 1.323 C99.93 5.887 99.913 10.182 99.916 14.885 C99.929 15.748 99.941 16.611 99.954 17.501 C99.956 18.33 99.957 19.16 99.959 20.014 C99.964 20.769 99.968 21.524 99.972 22.302 C99.729 24.323 99.729 24.323 97.729 27.323 C95.278 27.639 93.073 27.76 90.617 27.755 C89.885 27.765 89.154 27.776 88.4 27.786 C85.975 27.816 83.552 27.825 81.127 27.835 C79.449 27.851 77.77 27.87 76.091 27.889 C71.669 27.937 67.247 27.966 62.824 27.992 C58.313 28.022 53.802 28.069 49.291 28.114 C40.437 28.2 31.583 28.267 22.729 28.323 C18.254 37.272 21.729 48.317 21.729 58.323 C32.784 58.488 32.784 58.488 88.729 59.323 C89.388 64.592 89.888 69.329 89.916 74.573 C89.931 75.754 89.945 76.934 89.959 78.151 C89.729 81.323 89.729 81.323 87.729 85.323 C66.279 85.653 44.829 85.983 22.729 86.323 C21.352 89.076 21.599 91.311 21.596 94.389 C21.595 95.596 21.594 96.804 21.592 98.047 C21.594 98.681 21.594 98.681 21.604 101.885 C21.6 103.156 21.596 104.426 21.592 105.735 C21.593 106.338 21.593 106.338 21.596 109.389 C21.597 110.502 21.598 111.616 21.6 112.762 C21.729 115.323 21.729 115.323 22.729 116.323 C25.121 116.432 27.486 116.477 29.879 116.481 C30.627 116.486 31.375 116.491 32.146 116.496 C33.775 116.507 35.404 116.515 37.034 116.522 C39.609 116.534 42.185 116.553 44.76 116.575 C52.085 116.637 59.41 116.691 66.735 116.724 C71.21 116.745 75.685 116.78 80.16 116.825 C81.869 116.839 83.579 116.848 85.288 116.851 C87.675 116.856 90.062 116.879 92.449 116.906 C92.805 116.905 92.805 116.905 94.605 116.897 C96.572 116.931 96.572 116.931 99.729 117.323 C101.993 120.718 101.933 121.668 101.741 125.612 C101.694 126.635 101.647 127.659 101.598 128.713 C101.538 129.781 101.478 130.848 101.416 131.948 C101.368 133.023 101.32 134.098 101.27 135.206 C100.872 143.179 100.872 143.179 99.729 144.323 C98.383 144.425 97.031 144.458 95.681 144.463 C94.809 144.469 93.936 144.475 93.038 144.481 C92.074 144.482 91.11 144.483 90.116 144.484 C89.106 144.489 88.097 144.494 87.056 144.499 C83.7 144.514 80.343 144.52 76.987 144.526 C74.664 144.532 72.341 144.537 70.018 144.543 C65.14 144.554 60.262 144.56 55.385 144.563 C49.124 144.569 42.864 144.593 36.603 144.621 C31.803 144.64 27.002 144.645 22.202 144.646 C19.893 144.649 17.584 144.657 15.276 144.671 C12.051 144.688 8.826 144.686 5.601 144.679 C5.12 144.684 5.12 144.684 2.691 144.707 C1.813 144.702 0.936 144.696 0.031 144.69 C-0.732 144.692 -1.495 144.693 -2.28 144.695 C-4.914 144.203 -5.755 143.528 -7.271 141.323 C-7.649 138.807 -7.649 138.807 -7.652 135.743 C-7.66 134.582 -7.669 133.421 -7.678 132.225 C-7.672 130.95 -7.665 129.675 -7.659 128.362 C-7.663 127.007 -7.669 125.652 -7.675 124.296 C-7.689 120.615 -7.684 116.933 -7.674 113.251 C-7.666 109.401 -7.673 105.551 -7.678 101.7 C-7.684 95.234 -7.676 88.768 -7.662 82.301 C-7.646 74.822 -7.651 67.343 -7.668 59.863 C-7.681 53.445 -7.683 47.028 -7.675 40.61 C-7.671 36.775 -7.67 32.94 -7.68 29.105 C-7.689 25.5 -7.683 21.896 -7.665 18.291 C-7.659 16.334 -7.668 14.377 -7.678 12.42 C-7.673 11.84 -7.673 11.84 -7.652 8.902 C-7.651 7.891 -7.65 6.88 -7.649 5.839 C-7.271 3.323 -7.271 3.323 -6.014 1.494 C-3.836 0.03 -2.614 -0.035 0 0 Z " fill="#202020" transform="translate(894.2710418701172,242.6772003173828)"></path>
<path d="M0 0 C0.023 18.497 0.041 36.994 0.052 55.492 C0.057 64.08 0.064 72.668 0.075 81.256 C0.085 88.738 0.092 96.221 0.094 103.703 C0.095 107.668 0.098 111.632 0.106 115.596 C0.112 119.324 0.115 123.051 0.113 126.778 C0.113 128.15 0.115 129.522 0.119 130.893 C0.124 132.759 0.122 134.624 0.12 136.489 C0.121 137.535 0.122 138.581 0.123 139.659 C0 142 0 142 -1 143 C-3 143.088 -5.002 143.107 -7.004 143.098 C-8.219 143.094 -9.434 143.091 -10.686 143.088 C-11.965 143.08 -13.244 143.071 -14.562 143.062 C-15.846 143.058 -17.129 143.053 -18.451 143.049 C-21.634 143.037 -24.817 143.021 -28 143 C-28.956 139.796 -29.103 136.954 -29.062 133.617 C-29.058 133.08 -29.058 133.08 -29.037 130.365 C-29.025 129.213 -29.013 128.061 -29 126.875 C-28.918 113.228 -29.361 99.631 -30 86 C-33.583 84.373 -36.367 83.751 -40.293 83.757 C-41.324 83.754 -42.355 83.751 -43.418 83.748 C-43.969 83.751 -43.969 83.751 -46.758 83.77 C-47.328 83.77 -47.328 83.77 -50.212 83.771 C-52.618 83.774 -55.024 83.782 -57.429 83.794 C-61.118 83.812 -64.807 83.815 -68.496 83.814 C-70.833 83.819 -73.171 83.825 -75.508 83.832 C-76.614 83.833 -77.72 83.834 -78.86 83.835 C-79.885 83.842 -80.91 83.848 -81.965 83.855 C-82.867 83.859 -83.769 83.862 -84.699 83.866 C-87 84 -87 84 -90 85 C-91.274 87.548 -91.107 89.301 -91.082 92.152 C-91.075 93.227 -91.069 94.301 -91.062 95.408 C-91.051 96.573 -91.039 97.738 -91.027 98.938 C-91.015 101.383 -91.002 103.828 -90.99 106.273 C-90.965 110.145 -90.937 114.016 -90.904 117.888 C-90.874 121.613 -90.856 125.337 -90.84 129.062 C-90.826 130.227 -90.813 131.392 -90.799 132.592 C-90.796 133.666 -90.792 134.741 -90.789 135.848 C-90.785 136.322 -90.785 136.322 -90.766 138.723 C-91 141 -91 141 -93 143 C-95.522 143.227 -95.522 143.227 -98.664 143.195 C-99.786 143.189 -100.907 143.182 -102.062 143.176 C-103.238 143.159 -104.414 143.142 -105.625 143.125 C-106.808 143.116 -107.992 143.107 -109.211 143.098 C-112.141 143.074 -115.07 143.041 -118 143 C-119.964 139.705 -120.249 137.239 -120.247 133.428 C-120.251 132.293 -120.256 131.159 -120.26 129.991 C-120.254 128.75 -120.249 127.51 -120.243 126.233 C-120.245 124.923 -120.247 123.614 -120.249 122.265 C-120.254 118.676 -120.246 115.088 -120.236 111.499 C-120.227 107.741 -120.229 103.984 -120.229 100.227 C-120.228 93.916 -120.219 87.605 -120.206 81.295 C-120.19 74.002 -120.185 66.71 -120.186 59.417 C-120.186 51.65 -120.179 43.883 -120.17 36.116 C-120.168 33.88 -120.167 31.644 -120.167 29.408 C-120.166 25.237 -120.156 21.067 -120.145 16.897 C-120.146 15.659 -120.146 14.421 -120.147 13.145 C-120.142 12.008 -120.138 10.871 -120.134 9.699 C-120.132 8.714 -120.13 7.728 -120.129 6.712 C-120.002 4.045 -119.596 1.599 -119 -1 C-114.688 -1.029 -110.375 -1.047 -106.062 -1.062 C-104.831 -1.071 -103.599 -1.079 -102.33 -1.088 C-101.16 -1.091 -99.99 -1.094 -98.785 -1.098 C-98.243 -1.1 -98.243 -1.1 -95.5 -1.114 C-93 -1 -93 -1 -92 0 C-91.877 1.748 -91.822 3.502 -91.795 5.254 C-91.775 6.375 -91.755 7.496 -91.734 8.651 C-91.718 9.871 -91.701 11.091 -91.684 12.348 C-91.663 13.589 -91.642 14.831 -91.621 16.11 C-91.566 19.416 -91.516 22.722 -91.468 26.028 C-91.418 29.4 -91.362 32.771 -91.307 36.143 C-91.199 42.762 -91.098 49.381 -91 56 C-83.212 56.069 -75.423 56.123 -67.635 56.155 C-64.018 56.171 -60.402 56.192 -56.786 56.226 C-53.297 56.259 -49.809 56.277 -46.321 56.285 C-44.339 56.293 -42.357 56.316 -40.375 56.34 C-39.173 56.34 -37.972 56.34 -36.735 56.341 C-35.673 56.347 -34.612 56.354 -33.518 56.361 C-32.687 56.242 -31.856 56.123 -31 56 C-28.847 52.77 -28.756 51.954 -28.789 48.241 C-28.792 47.276 -28.796 46.311 -28.799 45.318 C-28.806 44.797 -28.806 44.797 -28.84 42.164 C-28.845 41.093 -28.85 40.021 -28.856 38.917 C-28.873 35.486 -28.905 32.056 -28.938 28.625 C-28.965 25.201 -28.99 21.778 -29.009 18.354 C-29.021 16.223 -29.038 14.092 -29.062 11.96 C-29.065 11.475 -29.065 11.475 -29.082 9.018 C-29.09 8.168 -29.098 7.317 -29.107 6.441 C-28.994 3.872 -28.567 1.505 -28 -1 C-24.084 -1.226 -20.167 -1.428 -16.25 -1.625 C-15.694 -1.657 -15.694 -1.657 -12.883 -1.82 C-11.813 -1.872 -10.743 -1.923 -9.641 -1.977 C-8.656 -2.029 -7.672 -2.081 -6.657 -2.135 C-3.853 -1.993 -2.43 -1.314 0 0 Z " fill="#202020" transform="translate(845,245)"></path>
<path d="M0 0 C-1.426 3.281 -3.167 5.355 -5.75 7.812 C-8.458 10.436 -10.978 13.09 -13.375 16 C-14.241 16.99 -15.108 17.98 -16 19 C-16.66 19 -17.32 19 -18 19 C-18.112 19.276 -18.112 19.276 -18.676 20.672 C-20.416 23.731 -22.658 25.807 -25.188 28.25 C-28.393 31.353 -31.434 34.463 -34.336 37.852 C-36.831 40.741 -39.421 43.436 -42.184 46.07 C-42.883 46.739 -43.582 47.408 -44.303 48.098 C-45.744 49.467 -47.195 50.826 -48.654 52.176 C-53.806 57.149 -53.806 57.149 -54.723 61.168 C-53.821 64.703 -52.431 66.473 -50 69.188 C-45.332 74.586 -41.144 80.194 -37 86 C-31.9 93.097 -26.672 100.067 -21.297 106.957 C-19.073 109.903 -17.031 112.919 -15 116 C-13.823 117.654 -12.636 119.299 -11.438 120.938 C-10.756 121.871 -10.074 122.804 -9.371 123.766 C-8.581 124.844 -7.79 125.922 -7 127 C-6.524 127.649 -6.049 128.298 -5.559 128.967 C-2.375 133.313 0.812 137.657 4 142 C3.67 142.66 3.34 143.32 3 144 C-1.466 144.099 -5.931 144.172 -10.397 144.22 C-11.915 144.24 -13.433 144.267 -14.951 144.302 C-17.138 144.351 -19.324 144.373 -21.512 144.391 C-22.826 144.412 -24.141 144.433 -25.495 144.454 C-30.321 143.829 -32.637 141.761 -35.555 137.992 C-35.99 137.294 -36.426 136.595 -36.875 135.875 C-37.384 135.081 -37.893 134.287 -38.418 133.469 C-38.94 132.654 -39.462 131.839 -40 131 C-43.175 126.33 -46.444 121.733 -49.82 117.207 C-50.314 116.543 -50.807 115.88 -51.316 115.196 C-52.295 113.882 -53.279 112.572 -54.268 111.265 C-56.734 107.956 -58.693 104.967 -60 101 C-60.66 101 -61.32 101 -62 101 C-62.912 99.703 -63.812 98.397 -64.668 97.062 C-66.383 94.407 -68.139 91.788 -69.938 89.188 C-70.586 88.232 -71.234 87.277 -71.902 86.293 C-74 84 -74 84 -76.402 82.816 C-79.786 83.056 -81.023 84.55 -83.203 87.031 C-83.672 87.598 -84.142 88.166 -84.625 88.75 C-85.575 89.849 -86.526 90.948 -87.477 92.047 C-87.893 92.534 -87.893 92.534 -90 95 C-90.293 95.229 -90.293 95.229 -91.773 96.391 C-95.15 100.822 -94.123 109.18 -94.062 114.586 C-94.059 115.369 -94.055 116.152 -94.051 116.959 C-94.039 119.431 -94.02 121.903 -94 124.375 C-93.973 127.654 -93.953 130.932 -93.938 134.211 C-93.929 134.963 -93.921 135.715 -93.912 136.49 C-93.887 141.774 -93.887 141.774 -95 144 C-99.292 144.058 -103.583 144.094 -107.875 144.125 C-109.098 144.142 -110.322 144.159 -111.582 144.176 C-112.165 144.179 -112.165 144.179 -115.117 144.195 C-116.196 144.206 -117.275 144.216 -118.386 144.227 C-121 144 -121 144 -123 142 C-123.249 139.573 -123.249 139.573 -123.247 136.458 C-123.251 135.28 -123.256 134.102 -123.26 132.889 C-123.254 131.59 -123.249 130.291 -123.243 128.953 C-123.244 127.577 -123.246 126.2 -123.249 124.824 C-123.254 121.08 -123.246 117.337 -123.236 113.593 C-123.227 109.681 -123.229 105.769 -123.229 101.856 C-123.228 95.286 -123.219 88.715 -123.206 82.145 C-123.19 74.541 -123.185 66.937 -123.186 59.333 C-123.186 52.028 -123.181 44.723 -123.173 37.417 C-123.169 34.304 -123.167 31.191 -123.167 28.078 C-123.166 24.414 -123.16 20.75 -123.15 17.086 C-123.145 15.094 -123.146 13.103 -123.147 11.111 C-123.142 9.933 -123.138 8.756 -123.134 7.542 C-123.132 6.514 -123.13 5.486 -123.129 4.427 C-123 2 -123 2 -122 0 C-113.09 0 -104.18 0 -95 0 C-94.83 5.917 -94.663 11.833 -94.5 17.75 C-94.488 18.184 -94.488 18.184 -94.427 20.382 C-94.134 31.107 -93.869 41.822 -94.037 52.552 C-94.075 55.671 -93.996 58.011 -93 61 C-88.479 60.626 -86.241 57.381 -83.438 54.188 C-82.366 52.996 -81.294 51.805 -80.223 50.613 C-79.684 50.008 -79.145 49.403 -78.59 48.78 C-76.213 46.119 -73.793 43.499 -71.375 40.875 C-69.582 38.918 -67.791 36.959 -66 35 C-65.121 34.038 -64.242 33.077 -63.336 32.086 C-59.67 28.065 -56.013 24.039 -52.438 19.938 C-51.896 19.317 -51.355 18.697 -50.797 18.059 C-49.41 16.469 -48.025 14.878 -46.641 13.285 C-45.831 12.366 -45.022 11.447 -44.188 10.5 C-43.439 9.644 -42.69 8.788 -41.918 7.906 C-40 6 -40 6 -38 6 C-37.67 5.01 -37.34 4.02 -37 3 C-33.722 -0.284 -30.936 -0.421 -26.406 -0.547 C-25.768 -0.567 -25.768 -0.567 -22.535 -0.668 C-21.873 -0.681 -21.21 -0.695 -20.528 -0.708 C-18.506 -0.75 -16.486 -0.813 -14.465 -0.879 C-3.714 -1.172 -3.714 -1.172 0 0 Z " fill="#202020" transform="translate(1303,244)"></path>
<path d="M0 0 C16.357 -0.613 35.497 -0.744 48.308 10.596 C49.847 12.077 51.37 13.576 52.871 15.096 C53.645 15.746 54.42 16.396 55.218 17.065 C56.871 19.096 56.871 19.096 56.812 21.616 C55.802 24.277 54.762 25.731 52.808 27.784 C48.584 32.367 44.73 37.204 40.871 42.096 C36.652 41.456 34.613 40.22 31.41 37.362 C29.118 35.477 26.547 34.349 23.871 33.096 C23.122 32.608 22.373 32.119 21.601 31.616 C12.814 26.725 0.302 25.359 -9.383 27.975 C-21.567 32.253 -30.9 39.606 -36.879 51.096 C-42.963 64.043 -43.573 78.017 -39.141 91.616 C-34.524 102.937 -27.199 111.757 -16.129 117.096 C-6.304 120.256 2.726 120.281 12.871 119.096 C13.692 119.078 14.513 119.06 15.359 119.042 C22.816 118.803 29.263 114.652 34.503 109.487 C34.913 109.028 35.323 108.569 35.746 108.096 C37.871 106.096 37.871 106.096 40.05 106.045 C44.346 107.646 46.97 110.657 50.121 113.909 C50.757 114.538 51.394 115.168 52.05 115.817 C57.444 121.285 57.444 121.285 57.871 125.096 C55.222 129.339 51.605 131.946 47.496 134.659 C46.944 135.032 46.392 135.405 45.824 135.79 C44.178 136.9 42.524 137.998 40.871 139.096 C39.921 139.792 38.971 140.488 37.992 141.206 C34.202 143.501 30.567 144.655 26.308 145.784 C25.911 145.891 25.911 145.891 23.903 146.433 C17.23 148.155 10.766 148.962 3.871 149.096 C2.89 149.146 1.909 149.197 0.898 149.249 C-17.642 149.859 -34.454 142.778 -48.555 131.084 C-62.544 117.693 -71.577 98.462 -72.129 79.096 C-72.15 78.408 -72.17 77.72 -72.191 77.011 C-72.542 63.441 -71.344 53.351 -65.129 41.096 C-64.846 40.531 -64.846 40.531 -63.411 37.67 C-54.125 19.922 -38.151 8.088 -19.129 2.096 C-12.826 0.607 -6.448 0.291 0 0 Z " fill="#202020" transform="translate(637.12939453125,240.90380859375)"></path>
<path d="M0 0 C2.595 2.488 4.794 5.226 7 8.062 C7.99 8.723 8.98 9.382 10 10.062 C9.134 14.509 6.617 17.184 3.688 20.5 C2.712 21.623 1.736 22.747 0.762 23.871 C0.289 24.408 -0.183 24.946 -0.67 25.5 C-1.878 26.919 -2.998 28.412 -4.105 29.91 C-6 32.062 -6 32.062 -7.945 33.074 C-11.004 33.057 -12.462 31.698 -14.875 29.875 C-15.317 29.551 -15.317 29.551 -17.551 27.91 C-17.955 27.605 -17.955 27.605 -20 26.062 C-27.011 20.912 -34.38 18.632 -43 18.062 C-43.674 17.998 -44.348 17.934 -45.043 17.867 C-56.284 17.253 -66.602 21.844 -75 29.062 C-76.937 30.985 -78.383 32.828 -80 35.062 C-80.681 35.97 -81.361 36.877 -82.062 37.812 C-89.177 49.747 -90.858 63.134 -88.316 76.715 C-84.72 89.267 -77.959 100.463 -66.312 106.938 C-55.906 111.64 -45.126 111.424 -34 110.062 C-33.08 109.961 -32.159 109.859 -31.211 109.754 C-23.431 108.586 -18.157 104.658 -12.188 99.75 C-8.598 96.981 -8.598 96.981 -6 97.062 C-4.139 98.672 -2.625 100.236 -1 102.062 C0.16 103.236 1.327 104.402 2.5 105.562 C5.333 108.396 8.167 111.229 11 114.062 C7.805 121.636 0.012 126.358 -7 130.062 C-7.879 130.703 -8.758 131.344 -9.664 132.004 C-13.586 134.424 -17.26 135.589 -21.688 136.75 C-22.487 136.964 -23.286 137.178 -24.11 137.399 C-30.08 138.943 -35.823 139.924 -42 140.062 C-42.999 140.113 -43.998 140.163 -45.027 140.215 C-63.319 140.769 -78.791 135.353 -93 124.062 C-93.847 123.419 -94.694 122.776 -95.566 122.113 C-109.01 110.785 -116.997 93.233 -118.583 75.983 C-118.755 73.676 -118.888 71.372 -119 69.062 C-119.039 68.278 -119.077 67.494 -119.117 66.687 C-119.94 46.699 -113.602 28.133 -100 13.062 C-99.34 13.062 -98.68 13.062 -98 13.062 C-97.767 12.481 -97.533 11.9 -97.293 11.301 C-92.003 2.144 -77.029 -3.814 -67.207 -6.781 C-64.802 -7.301 -62.445 -7.664 -60 -7.938 C-59.583 -7.992 -59.583 -7.992 -57.473 -8.266 C-40.48 -10.162 -14.096 -11.544 0 0 Z " fill="#202020" transform="translate(1140,249.9375)"></path>
<path d="M0 0 C2.625 2.375 2.625 2.375 5 5 C5.482 5.49 5.964 5.98 6.461 6.484 C15.108 15.702 17.179 26.189 17.188 38.375 C17.2 39.295 17.212 40.216 17.225 41.164 C17.25 52.965 13.141 63.508 4.98 72.121 C-4.651 81.258 -15.969 84.818 -29.125 85.5 C-43.174 84.665 -52.424 79.998 -62 70 C-70.043 60.339 -73.173 50.109 -73.25 37.75 C-73.271 36.942 -73.291 36.134 -73.312 35.301 C-73.351 29.343 -72.21 24.515 -70 19 C-69.647 18.104 -69.294 17.208 -68.93 16.285 C-63.507 4.857 -55.853 -2.526 -44 -7 C-28.553 -12.481 -13.267 -9.445 0 0 Z " fill="#FAFAFA" transform="translate(1637,278)"></path>
<path d="M0 0 C0.946 0.006 1.893 0.011 2.868 0.017 C3.899 0.028 4.931 0.04 5.993 0.051 C6.539 0.055 6.539 0.055 9.3 0.076 C12.91 0.104 16.52 0.139 20.129 0.175 C22.632 0.197 25.135 0.218 27.638 0.239 C32.883 0.285 38.127 0.334 43.372 0.386 C49.442 0.446 55.512 0.499 61.582 0.548 C67.418 0.595 73.254 0.648 79.09 0.703 C81.576 0.726 84.062 0.747 86.548 0.768 C90.013 0.796 93.478 0.831 96.942 0.868 C97.98 0.875 99.017 0.882 100.086 0.89 C100.555 0.896 100.555 0.896 102.928 0.924 C103.338 0.928 103.338 0.928 105.413 0.948 C107.274 1.089 107.274 1.089 108.274 2.089 C108.526 6.062 108.459 10.047 108.461 14.027 C108.474 15.15 108.486 16.273 108.498 17.431 C108.5 18.503 108.502 19.575 108.504 20.679 C108.508 21.667 108.512 22.656 108.517 23.675 C108.274 26.089 108.274 26.089 106.274 28.089 C103.367 28.252 100.557 28.296 97.653 28.249 C96.797 28.244 95.941 28.239 95.06 28.233 C92.318 28.216 89.577 28.184 86.836 28.152 C84.099 28.124 81.361 28.099 78.624 28.08 C76.919 28.068 75.213 28.05 73.509 28.027 C70.165 27.999 67.47 28.024 64.274 29.089 C64.27 29.681 64.265 30.273 64.261 30.882 C64.158 45.261 64.049 59.641 63.934 74.02 C63.879 80.973 63.826 87.927 63.776 94.88 C63.729 101.585 63.677 108.289 63.621 114.993 C63.6 117.557 63.582 120.122 63.565 122.686 C63.541 126.264 63.511 129.841 63.479 133.419 C63.473 134.491 63.468 135.562 63.462 136.667 C63.452 137.636 63.442 138.605 63.432 139.603 C63.426 140.45 63.419 141.297 63.412 142.17 C63.274 144.089 63.274 144.089 62.274 145.089 C60.359 145.189 58.441 145.22 56.524 145.222 C55.358 145.223 54.193 145.224 52.993 145.226 C51.765 145.222 50.538 145.218 49.274 145.214 C48.047 145.218 46.819 145.222 45.555 145.226 C44.972 145.225 44.972 145.225 42.024 145.222 C40.946 145.221 39.868 145.22 38.758 145.218 C36.274 145.089 36.274 145.089 35.274 144.089 C35.173 142.628 35.14 141.163 35.136 139.699 C35.13 138.751 35.125 137.803 35.119 136.827 C35.118 135.778 35.117 134.73 35.116 133.65 C35.111 132.553 35.106 131.455 35.101 130.324 C35.09 127.932 35.081 125.54 35.075 123.148 C35.063 119.366 35.043 115.585 35.021 111.803 C34.96 101.049 34.905 90.294 34.872 79.539 C34.852 72.97 34.816 66.401 34.772 59.831 C34.757 57.322 34.749 54.812 34.746 52.303 C34.741 48.797 34.718 45.292 34.69 41.787 C34.693 40.742 34.696 39.698 34.699 38.622 C34.688 37.669 34.677 36.715 34.666 35.733 C34.662 34.904 34.659 34.074 34.656 33.22 C34.178 30.553 33.458 29.664 31.274 28.089 C28.448 27.851 25.847 27.788 23.028 27.866 C22.22 27.875 21.413 27.884 20.581 27.894 C17.999 27.924 15.418 27.973 12.836 28.027 C10.258 28.074 7.681 28.118 5.103 28.149 C3.499 28.168 1.895 28.198 0.291 28.239 C-3.544 28.29 -6.48 28.275 -9.726 26.089 C-9.755 22.297 -9.773 18.506 -9.789 14.714 C-9.797 13.634 -9.805 12.554 -9.814 11.441 C-9.817 10.409 -9.821 9.378 -9.824 8.316 C-9.829 7.362 -9.834 6.409 -9.84 5.427 C-9.726 3.089 -9.726 3.089 -8.726 1.089 C-5.801 0.063 -3.08 -0.026 0 0 Z " fill="#202020" transform="translate(1958.7262420654297,242.91098022460938)"></path>
<path d="M0 0 C4.312 -0.029 8.625 -0.047 12.938 -0.062 C13.553 -0.067 13.553 -0.067 16.67 -0.088 C17.84 -0.091 19.01 -0.094 20.215 -0.098 C20.757 -0.1 20.757 -0.1 23.5 -0.114 C26 0 26 0 27 1 C27.099 2.833 27.126 4.669 27.127 6.504 C27.13 7.699 27.133 8.894 27.136 10.125 C27.134 11.461 27.132 12.797 27.129 14.133 C27.131 15.53 27.133 16.928 27.135 18.325 C27.139 22.131 27.137 25.937 27.134 29.742 C27.132 33.716 27.134 37.69 27.136 41.665 C27.138 48.34 27.135 55.014 27.13 61.689 C27.125 69.418 27.127 77.146 27.132 84.874 C27.137 91.497 27.137 98.121 27.135 104.744 C27.133 108.705 27.133 112.666 27.136 116.627 C27.139 120.35 27.137 124.073 27.131 127.796 C27.13 129.166 27.13 130.537 27.133 131.907 C27.135 133.77 27.131 135.633 27.127 137.496 C27.127 138.541 27.126 139.585 27.126 140.662 C27 143 27 143 26 144 C24.17 144.1 22.336 144.131 20.504 144.133 C19.388 144.134 18.273 144.135 17.123 144.137 C16.536 144.135 16.536 144.135 13.562 144.125 C12.391 144.129 11.22 144.133 10.014 144.137 C8.897 144.135 7.78 144.134 6.629 144.133 C5.598 144.132 4.568 144.131 3.506 144.129 C1 144 1 144 -1 143 C-1.7 109.157 -2.124 75.319 -2.182 41.469 C-2.188 38.872 -2.197 36.275 -2.208 33.679 C-2.225 29.572 -2.231 25.464 -2.229 21.357 C-2.23 19.836 -2.234 18.316 -2.242 16.795 C-2.252 14.71 -2.249 12.624 -2.243 10.539 C-2.244 9.367 -2.246 8.195 -2.247 6.987 C-2.008 4.098 -1.51 2.439 0 0 Z " fill="#202020" transform="translate(1721,244)"></path>
<path d="M0 0 C0.666 -0.002 1.333 -0.004 2.019 -0.006 C3.433 -0.007 4.847 -0.003 6.261 0.005 C8.401 0.015 10.54 0.005 12.68 -0.008 C30.651 -0.027 30.651 -0.027 38.305 6.266 C43.476 12.024 45.587 17.856 45.305 25.641 C44.456 32.912 40.756 38.2 35.492 43.141 C27.434 48.513 19.435 48.72 9.918 48.602 C7.847 48.578 5.777 48.581 3.705 48.588 C-6.428 48.533 -6.428 48.533 -8.695 46.266 C-8.949 44.368 -8.949 44.368 -8.954 42.031 C-8.96 41.157 -8.967 40.283 -8.973 39.382 C-8.969 38.436 -8.965 37.49 -8.961 36.516 C-8.963 35.547 -8.965 34.578 -8.967 33.579 C-8.968 31.528 -8.964 29.477 -8.956 27.426 C-8.945 24.278 -8.956 21.132 -8.969 17.984 C-8.967 15.995 -8.965 14.005 -8.961 12.016 C-8.965 11.07 -8.969 10.124 -8.973 9.149 C-8.967 8.275 -8.961 7.401 -8.954 6.5 C-8.953 5.729 -8.951 4.958 -8.949 4.163 C-8.276 -0.867 -4.052 0.007 0 0 Z " fill="#FEFEFE" transform="translate(1435.6953125,269.734375)"></path>
<path d="M0 0 C1.055 -0.004 2.11 -0.008 3.197 -0.012 C4.299 -0 5.4 0.011 6.535 0.023 C7.633 0.012 8.73 0 9.861 -0.012 C10.918 -0.008 11.974 -0.004 13.062 0 C13.545 0.002 13.545 0.002 15.988 0.01 C19.115 0.475 20.332 1.211 22.598 3.398 C23.117 5.809 23.117 5.809 23.144 8.696 C23.163 9.777 23.183 10.858 23.203 11.971 C23.205 13.137 23.206 14.303 23.207 15.504 C23.215 16.101 23.215 16.101 23.257 19.123 C23.306 22.944 23.327 26.765 23.348 30.586 C23.376 33.174 23.406 35.762 23.438 38.35 C23.512 44.699 23.563 51.049 23.598 57.398 C26.547 58.382 28.481 58.53 31.556 58.544 C32.564 58.55 33.572 58.556 34.611 58.563 C35.698 58.564 36.786 58.565 37.906 58.566 C39.025 58.57 40.143 58.573 41.295 58.576 C43.661 58.582 46.028 58.584 48.394 58.584 C52.017 58.586 55.64 58.604 59.264 58.623 C61.561 58.626 63.859 58.628 66.156 58.629 C67.242 58.636 68.327 58.643 69.446 58.651 C70.457 58.648 71.468 58.645 72.51 58.641 C72.954 58.642 72.954 58.642 75.201 58.646 C77.598 58.398 77.598 58.398 81.598 56.398 C81.928 38.578 82.258 20.758 82.598 2.398 C86.57 0.412 88.111 0.142 92.387 0.133 C92.94 0.132 92.94 0.132 95.738 0.125 C96.888 0.133 98.038 0.14 99.223 0.148 C100.38 0.141 101.538 0.133 102.73 0.125 C103.282 0.126 103.282 0.126 106.074 0.133 C107.086 0.135 108.097 0.137 109.139 0.14 C111.598 0.398 111.598 0.398 113.598 2.398 C113.847 4.891 113.847 4.891 113.845 8.099 C113.849 9.312 113.853 10.525 113.858 11.775 C113.852 13.126 113.846 14.477 113.841 15.828 C113.842 17.246 113.844 18.663 113.846 20.08 C113.851 23.936 113.844 27.791 113.833 31.646 C113.825 35.674 113.826 39.701 113.827 43.728 C113.826 50.492 113.817 57.255 113.803 64.018 C113.788 71.848 113.782 79.677 113.783 87.507 C113.784 95.027 113.779 102.547 113.77 110.067 C113.767 113.273 113.765 116.479 113.765 119.686 C113.764 123.457 113.757 127.229 113.747 131 C113.744 132.388 113.743 133.776 113.744 135.164 C113.744 137.051 113.738 138.938 113.731 140.825 C113.73 141.883 113.728 142.942 113.726 144.032 C113.598 146.398 113.598 146.398 112.598 147.398 C107.958 147.653 103.306 147.584 98.66 147.586 C97.346 147.598 96.032 147.61 94.678 147.623 C93.425 147.625 92.173 147.627 90.883 147.629 C90.305 147.631 90.305 147.631 87.379 147.641 C84.598 147.398 84.598 147.398 82.598 145.398 C82.319 143.032 82.319 143.032 82.279 140.031 C82.259 138.894 82.239 137.757 82.218 136.586 C82.207 135.387 82.195 134.188 82.184 132.953 C82.166 131.854 82.148 130.755 82.13 129.623 C82.067 125.507 82.021 121.39 81.973 117.273 C81.849 108.075 81.725 98.876 81.598 89.398 C62.128 89.398 42.658 89.398 22.598 89.398 C22.723 117.273 22.723 117.273 22.778 126.078 C22.784 128.369 22.789 130.661 22.793 132.953 C22.803 134.152 22.813 135.351 22.824 136.586 C22.824 137.723 22.824 138.86 22.825 140.031 C22.829 141.021 22.834 142.012 22.838 143.032 C22.598 145.398 22.598 145.398 20.598 147.398 C17.924 147.657 17.924 147.657 14.566 147.664 C13.364 147.667 12.161 147.669 10.922 147.672 C10.291 147.668 10.291 147.668 7.098 147.648 C5.836 147.656 4.574 147.664 3.273 147.672 C2.071 147.669 0.868 147.667 -0.371 147.664 C-1.479 147.662 -2.587 147.66 -3.729 147.657 C-6.402 147.398 -6.402 147.398 -8.402 145.398 C-8.657 142.943 -8.657 142.943 -8.663 139.787 C-8.67 138.594 -8.677 137.401 -8.685 136.171 C-8.682 134.856 -8.68 133.54 -8.677 132.184 C-8.681 130.789 -8.687 129.395 -8.692 128.001 C-8.706 124.207 -8.706 120.414 -8.704 116.621 C-8.703 113.457 -8.708 110.293 -8.713 107.13 C-8.724 99.668 -8.724 92.205 -8.718 84.743 C-8.712 77.038 -8.724 69.334 -8.746 61.629 C-8.763 55.02 -8.769 48.411 -8.766 41.802 C-8.764 37.852 -8.767 33.902 -8.781 29.952 C-8.793 26.238 -8.791 22.524 -8.778 18.81 C-8.775 16.794 -8.786 14.777 -8.798 12.761 C-8.791 11.565 -8.784 10.369 -8.777 9.137 C-8.777 8.095 -8.777 7.053 -8.777 5.98 C-8.402 3.398 -8.402 3.398 -7.034 1.564 C-4.679 -0.118 -2.872 0.01 0 0 Z M102.957 1.422 C102.422 1.448 102.422 1.448 99.715 1.578 C99.159 1.61 99.159 1.61 96.348 1.773 C95.784 1.802 95.784 1.802 92.934 1.945 C90.154 2.087 87.376 2.238 84.598 2.398 C83.826 5.807 83.482 8.925 83.516 12.417 C83.519 12.902 83.519 12.902 83.536 15.359 C83.547 16.395 83.559 17.432 83.57 18.5 C83.583 20.703 83.595 22.906 83.607 25.109 C83.632 28.577 83.66 32.044 83.694 35.512 C83.724 38.862 83.742 42.212 83.758 45.562 C83.765 46.083 83.765 46.083 83.799 48.716 C83.802 49.681 83.805 50.645 83.809 51.639 C83.816 52.488 83.824 53.337 83.831 54.211 C83.598 56.398 83.598 56.398 81.598 59.398 C79.079 59.759 79.079 59.759 75.863 59.739 C74.662 59.739 73.461 59.739 72.223 59.738 C70.921 59.723 69.619 59.707 68.277 59.691 C66.935 59.686 65.593 59.682 64.25 59.679 C60.716 59.667 57.181 59.638 53.647 59.604 C50.04 59.574 46.434 59.56 42.828 59.545 C35.751 59.513 28.674 59.462 21.598 59.398 C21.587 58.699 21.577 58 21.566 57.279 C21.469 50.701 21.366 44.124 21.258 37.546 C21.203 34.164 21.15 30.782 21.1 27.4 C21.044 23.515 20.979 19.631 20.914 15.746 C20.897 14.526 20.881 13.307 20.863 12.05 C20.843 10.929 20.824 9.808 20.803 8.653 C20.787 7.66 20.772 6.667 20.756 5.645 C20.598 3.398 20.598 3.398 19.598 2.398 C17.671 2.311 15.741 2.291 13.812 2.301 C12.643 2.304 11.473 2.307 10.268 2.311 C9.652 2.315 9.652 2.315 6.535 2.336 C5.3 2.34 4.064 2.345 2.791 2.35 C-0.273 2.361 -3.338 2.378 -6.402 2.398 C-7.243 6.057 -7.53 9.437 -7.536 13.187 C-7.54 14.344 -7.545 15.501 -7.549 16.693 C-7.549 17.952 -7.548 19.212 -7.548 20.51 C-7.551 21.858 -7.554 23.205 -7.558 24.552 C-7.567 28.203 -7.569 31.853 -7.57 35.504 C-7.571 38.551 -7.574 41.598 -7.578 44.645 C-7.586 51.83 -7.588 59.014 -7.588 66.198 C-7.587 73.617 -7.598 81.035 -7.613 88.453 C-7.626 94.82 -7.632 101.188 -7.631 107.556 C-7.631 111.36 -7.634 115.164 -7.644 118.968 C-7.654 122.541 -7.654 126.114 -7.647 129.687 C-7.645 131.628 -7.654 133.57 -7.662 135.511 C-7.658 136.659 -7.654 137.807 -7.65 138.991 C-7.65 139.992 -7.651 140.994 -7.651 142.027 C-7.402 144.398 -7.402 144.398 -5.402 146.398 C-1.254 146.856 2.927 146.722 7.098 146.711 C8.264 146.727 9.431 146.743 10.633 146.76 C11.745 146.76 12.858 146.761 14.004 146.762 C14.516 146.763 14.516 146.763 17.107 146.771 C17.518 146.709 17.518 146.709 19.598 146.398 C21.813 143.075 21.84 142.088 21.809 138.224 C21.805 137.17 21.802 136.116 21.799 135.029 C21.785 133.892 21.772 132.754 21.758 131.582 C21.753 130.415 21.747 129.247 21.742 128.044 C21.724 124.308 21.693 120.572 21.66 116.836 C21.633 113.096 21.608 109.357 21.589 105.617 C21.577 103.287 21.559 100.958 21.536 98.629 C21.529 97.578 21.523 96.526 21.516 95.443 C21.508 94.515 21.499 93.587 21.491 92.631 C21.598 90.398 21.598 90.398 22.598 88.398 C25.568 87.408 27.533 87.266 30.632 87.253 C31.657 87.247 32.682 87.24 33.738 87.234 C34.844 87.233 35.95 87.232 37.09 87.23 C38.228 87.227 39.366 87.224 40.539 87.22 C42.948 87.215 45.357 87.213 47.766 87.213 C51.451 87.211 55.136 87.193 58.82 87.174 C61.16 87.171 63.5 87.169 65.84 87.168 C66.391 87.164 66.391 87.164 69.18 87.146 C70.211 87.149 71.242 87.152 72.304 87.156 C72.756 87.155 72.756 87.155 75.042 87.151 C77.865 87.424 80.026 88.231 82.598 89.398 C82.77 94.627 82.936 99.857 83.098 105.086 C83.122 105.858 83.146 106.63 83.17 107.425 C83.488 117.779 83.71 128.119 83.561 138.479 C83.498 144.199 83.498 144.199 84.598 146.398 C89.077 146.427 93.556 146.445 98.035 146.461 C99.315 146.469 100.594 146.478 101.912 146.486 C103.127 146.49 104.342 146.493 105.594 146.496 C106.72 146.501 107.846 146.507 109.006 146.512 C111.598 146.398 111.598 146.398 112.598 145.398 C112.694 143.563 112.72 141.725 112.718 139.887 C112.719 138.691 112.721 137.495 112.722 136.263 C112.719 134.925 112.715 133.587 112.711 132.25 C112.711 130.851 112.711 129.451 112.712 128.052 C112.712 124.243 112.706 120.433 112.699 116.623 C112.693 112.646 112.692 108.669 112.691 104.692 C112.688 97.155 112.68 89.619 112.67 82.082 C112.659 73.504 112.653 64.926 112.648 56.349 C112.638 38.698 112.62 21.048 112.598 3.398 C109.111 1.513 106.944 1.21 102.957 1.422 Z " fill="#999999" transform="translate(732.40234375,241.6015625)"></path>
<path d="M0 0 C0.476 -0.003 0.476 -0.003 2.885 -0.017 C3.922 -0.013 4.96 -0.009 6.029 -0.005 C6.578 -0.007 6.578 -0.007 9.356 -0.015 C12.988 -0.024 16.621 -0.018 20.253 -0.012 C22.774 -0.013 25.294 -0.015 27.815 -0.017 C33.098 -0.02 38.382 -0.016 43.665 -0.007 C49.774 0.004 55.882 0.001 61.991 -0.01 C67.869 -0.021 73.746 -0.02 79.624 -0.014 C82.125 -0.012 84.626 -0.014 87.127 -0.019 C90.618 -0.024 94.108 -0.016 97.599 -0.005 C98.119 -0.007 98.119 -0.007 100.749 -0.017 C101.698 -0.011 102.648 -0.006 103.625 0 C104.038 0 104.038 0 106.127 0.002 C108.249 0.254 108.249 0.254 111.249 2.254 C111.622 4.836 111.622 4.836 111.613 8.066 C111.612 8.645 111.612 8.645 111.611 11.574 C111.594 12.789 111.578 14.003 111.562 15.254 C111.565 16.468 111.568 17.683 111.572 18.934 C111.516 27.987 111.516 27.987 109.249 30.254 C106.18 30.488 103.193 30.604 100.12 30.633 C99.668 30.641 99.668 30.641 97.378 30.684 C94.481 30.738 91.584 30.778 88.687 30.816 C85.786 30.86 82.885 30.907 79.984 30.959 C78.177 30.991 76.37 31.018 74.562 31.04 C68.361 31.142 68.361 31.142 67.249 32.254 C67.144 33.732 67.107 35.214 67.098 36.695 C67.089 37.655 67.081 38.614 67.072 39.602 C67.068 40.663 67.064 41.724 67.06 42.816 C67.052 43.927 67.043 45.037 67.035 46.181 C67.017 48.601 67.002 51.021 66.989 53.441 C66.968 57.264 66.941 61.087 66.912 64.91 C66.852 73.025 66.8 81.139 66.749 89.254 C66.69 98.652 66.628 108.051 66.557 117.449 C66.531 121.228 66.51 125.007 66.489 128.785 C66.473 131.087 66.456 133.389 66.439 135.691 C66.435 136.752 66.43 137.813 66.426 138.906 C66.418 139.865 66.409 140.824 66.401 141.813 C66.396 142.651 66.39 143.489 66.385 144.353 C66.249 146.254 66.249 146.254 65.249 147.254 C60.609 147.508 55.958 147.439 51.312 147.441 C49.998 147.454 48.683 147.466 47.329 147.479 C46.703 147.48 46.703 147.48 43.534 147.484 C42.956 147.486 42.956 147.486 40.031 147.497 C37.249 147.254 37.249 147.254 35.249 145.254 C34.99 143.246 34.99 143.246 34.978 140.73 C34.973 140.254 34.973 140.254 34.948 137.845 C34.947 136.797 34.947 135.749 34.946 134.67 C34.938 133.569 34.929 132.468 34.921 131.334 C34.895 127.681 34.883 124.028 34.87 120.375 C34.854 117.847 34.837 115.319 34.819 112.79 C34.778 106.806 34.745 100.822 34.716 94.838 C34.662 83.481 34.594 72.124 34.518 60.768 C34.496 57.027 34.479 53.286 34.464 49.545 C34.45 47.266 34.437 44.987 34.423 42.709 C34.42 41.659 34.418 40.609 34.415 39.527 C34.408 38.578 34.401 37.629 34.394 36.651 C34.39 35.821 34.386 34.991 34.382 34.136 C34.249 32.254 34.249 32.254 33.249 31.254 C30.402 31.118 27.575 31.043 24.726 31.008 C22.965 30.975 21.205 30.942 19.445 30.908 C16.657 30.861 13.87 30.816 11.083 30.777 C8.401 30.737 5.72 30.686 3.038 30.633 C2.204 30.624 1.369 30.616 0.51 30.607 C-3.399 30.524 -5.428 30.469 -8.751 28.254 C-9.091 25.64 -9.091 25.64 -9.044 22.371 C-9.039 21.788 -9.039 21.788 -9.014 18.836 C-8.989 17.613 -8.964 16.389 -8.938 15.129 C-8.925 13.898 -8.911 12.667 -8.897 11.398 C-8.862 8.35 -8.812 5.302 -8.751 2.254 C-5.702 0.492 -3.507 0.003 0 0 Z M-6.751 2.254 C-8.029 4.811 -7.864 6.621 -7.848 9.481 C-7.845 10.512 -7.842 11.543 -7.839 12.606 C-7.83 13.686 -7.822 14.766 -7.813 15.879 C-7.809 16.967 -7.804 18.055 -7.8 19.176 C-7.788 21.869 -7.771 24.561 -7.751 27.254 C-2.952 29.169 1.29 29.482 6.386 29.344 C7.948 29.323 9.51 29.303 11.072 29.283 C13.514 29.24 15.957 29.191 18.399 29.138 C20.77 29.089 23.14 29.059 25.511 29.031 C26.242 29.01 26.974 28.988 27.727 28.965 C32.784 28.916 32.784 28.916 34.941 30.483 C36.624 32.761 36.63 34.08 36.641 36.898 C36.652 37.851 36.663 38.805 36.675 39.787 C36.672 40.832 36.669 41.876 36.666 42.952 C36.67 43.502 36.67 43.502 36.692 46.288 C36.717 49.936 36.721 53.583 36.726 57.231 C36.74 59.757 36.756 62.284 36.773 64.811 C36.811 70.788 36.836 76.765 36.854 82.742 C36.89 94.088 36.953 105.434 37.019 116.779 C37.038 120.516 37.05 124.252 37.06 127.989 C37.071 130.264 37.081 132.54 37.092 134.815 C37.093 135.863 37.094 136.912 37.095 137.992 C37.1 138.94 37.106 139.887 37.111 140.864 C37.114 141.692 37.116 142.521 37.119 143.375 C37.249 145.254 37.249 145.254 38.249 146.254 C40.164 146.354 42.082 146.385 43.999 146.387 C44.582 146.387 44.582 146.387 47.531 146.391 C48.758 146.387 49.985 146.383 51.249 146.379 C52.476 146.383 53.704 146.387 54.968 146.391 C56.133 146.389 57.299 146.388 58.499 146.387 C59.577 146.386 60.655 146.385 61.765 146.383 C64.249 146.254 64.249 146.254 65.249 145.254 C65.357 143.762 65.396 142.264 65.407 140.768 C65.417 139.799 65.427 138.83 65.437 137.831 C65.443 136.76 65.449 135.688 65.455 134.584 C65.464 133.462 65.474 132.34 65.485 131.184 C65.516 127.456 65.541 123.728 65.566 120 C65.586 117.423 65.607 114.846 65.629 112.269 C65.678 106.167 65.724 100.065 65.767 93.963 C65.816 87.017 65.871 80.072 65.926 73.127 C66.04 58.836 66.147 44.545 66.249 30.254 C70.184 28.943 73.907 29.17 78.003 29.227 C79.762 29.239 81.52 29.252 83.279 29.264 C86.053 29.289 88.827 29.317 91.601 29.35 C94.276 29.38 96.952 29.398 99.628 29.414 C100.462 29.428 101.295 29.441 102.153 29.455 C104.186 29.464 106.219 29.368 108.249 29.254 C110.249 27.254 110.249 27.254 110.492 24.84 C110.488 23.851 110.484 22.862 110.48 21.844 C110.478 20.772 110.476 19.7 110.474 18.596 C110.462 17.472 110.449 16.349 110.437 15.191 C110.436 14.064 110.435 12.937 110.435 11.775 C110.389 3.394 110.389 3.394 109.249 2.254 C107.804 2.144 106.353 2.103 104.904 2.089 C104.435 2.083 104.435 2.083 102.062 2.055 C101.024 2.048 99.987 2.04 98.918 2.033 C97.832 2.021 96.746 2.01 95.627 1.998 C92.015 1.961 88.404 1.932 84.792 1.902 C82.292 1.879 79.792 1.856 77.292 1.832 C72.042 1.784 66.792 1.739 61.542 1.696 C55.474 1.647 49.405 1.591 43.337 1.531 C37.503 1.473 31.669 1.422 25.834 1.372 C23.351 1.351 20.867 1.328 18.384 1.303 C14.912 1.269 11.44 1.242 7.969 1.216 C6.937 1.205 5.906 1.194 4.843 1.182 C3.897 1.176 2.951 1.171 1.975 1.165 C1.155 1.158 0.334 1.151 -0.512 1.144 C-2.755 1.254 -4.631 1.511 -6.751 2.254 Z " fill="#999999" transform="translate(1956.750747680664,241.74603271484375)"></path>
<path d="M0 0 C1.15 -0.004 2.3 -0.008 3.484 -0.012 C4.686 -0 5.887 0.011 7.125 0.023 C8.326 0.012 9.528 0 10.766 -0.012 C11.341 -0.01 11.341 -0.01 14.25 0 C15.304 0.003 16.359 0.007 17.445 0.01 C20.125 0.398 20.125 0.398 21.769 1.567 C23.667 4.131 23.5 5.918 23.499 9.092 C23.506 10.278 23.513 11.464 23.52 12.686 C23.513 13.989 23.505 15.292 23.497 16.635 C23.5 18.019 23.503 19.404 23.508 20.789 C23.518 24.551 23.508 28.313 23.495 32.076 C23.484 36.01 23.488 39.945 23.49 43.879 C23.491 50.487 23.48 57.094 23.461 63.702 C23.44 71.345 23.437 78.987 23.443 86.63 C23.448 93.978 23.443 101.325 23.432 108.673 C23.427 111.802 23.426 114.931 23.428 118.06 C23.43 121.744 23.422 125.428 23.406 129.111 C23.4 131.111 23.403 133.111 23.407 135.11 C23.4 136.297 23.393 137.483 23.386 138.705 C23.385 139.222 23.385 139.222 23.379 141.836 C23.125 144.398 23.125 144.398 21.125 147.398 C18.818 147.863 18.818 147.863 15.969 147.98 C14.947 148.025 13.924 148.069 12.871 148.115 C12.335 148.131 12.335 148.131 9.625 148.211 C8.554 148.262 7.483 148.313 6.379 148.365 C0.476 148.585 0.476 148.585 -1.875 148.398 C-2.205 148.068 -2.205 148.068 -3.875 146.398 C3.715 146.068 11.305 145.738 19.125 145.398 C20.014 141.843 20.249 139.258 20.245 135.64 C20.247 134.465 20.248 133.29 20.249 132.08 C20.246 130.794 20.242 129.509 20.239 128.185 C20.238 126.815 20.238 125.445 20.239 124.074 C20.239 120.358 20.233 116.641 20.226 112.925 C20.22 109.04 20.22 105.155 20.218 101.269 C20.215 93.914 20.207 86.558 20.197 79.202 C20.186 70.827 20.18 62.453 20.175 54.078 C20.165 36.851 20.147 19.625 20.125 2.398 C11.215 2.398 2.305 2.398 -6.875 2.398 C-6.875 31.108 -6.875 59.818 -6.875 89.398 C-7.7 89.563 -7.7 89.563 -11.875 90.398 C-18.273 83.185 -24.069 75.871 -29.316 67.777 C-32.213 63.328 -35.333 59.191 -38.715 55.094 C-43.312 49.358 -47.56 43.348 -51.875 37.398 C-51.545 36.738 -51.215 36.078 -50.875 35.398 C-43.549 44.446 -36.417 53.556 -29.696 63.066 C-28.424 64.866 -27.15 66.664 -25.875 68.461 C-25.666 68.756 -25.666 68.756 -24.607 70.251 C-21.345 74.825 -17.882 79.2 -14.273 83.508 C-12.875 85.398 -12.875 85.398 -12.875 87.398 C-11.555 87.398 -10.235 87.398 -8.875 87.398 C-8.882 86.353 -8.888 85.307 -8.895 84.23 C-8.956 74.386 -9.001 64.541 -9.03 54.697 C-9.046 49.636 -9.067 44.575 -9.101 39.513 C-9.134 34.631 -9.152 29.749 -9.16 24.866 C-9.165 23.002 -9.176 21.137 -9.192 19.272 C-9.214 16.665 -9.217 14.058 -9.216 11.45 C-9.226 10.675 -9.237 9.901 -9.248 9.102 C-9.218 3.9 -9.218 3.9 -7.521 1.419 C-5.023 -0.13 -2.917 0.009 0 0 Z " fill="#999999" transform="translate(1896.875,241.6015625)"></path>
<path d="M0 0 C4.093 -0.049 8.187 -0.086 12.28 -0.11 C13.673 -0.12 15.066 -0.134 16.459 -0.151 C18.46 -0.175 20.46 -0.185 22.461 -0.195 C23.063 -0.201 23.063 -0.201 26.111 -0.227 C29 0 29 0 31 2 C31.252 4.458 31.252 4.458 31.254 7.618 C31.26 8.813 31.265 10.007 31.271 11.238 C31.267 12.556 31.263 13.873 31.259 15.23 C31.261 16.627 31.265 18.023 31.269 19.419 C31.279 23.216 31.275 27.013 31.269 30.811 C31.264 34.779 31.268 38.747 31.271 42.716 C31.275 49.38 31.27 56.045 31.261 62.71 C31.25 70.423 31.253 78.136 31.264 85.848 C31.273 92.462 31.275 99.076 31.27 105.69 C31.266 109.644 31.266 113.598 31.273 117.552 C31.278 121.268 31.274 124.985 31.263 128.701 C31.259 130.722 31.265 132.742 31.271 134.762 C31.268 135.359 31.268 135.359 31.254 138.382 C31.253 139.425 31.252 140.468 31.252 141.542 C31 144 31 144 29 146 C26.234 146.259 26.234 146.259 22.75 146.266 C22.126 146.267 22.126 146.267 18.969 146.273 C17.659 146.266 16.349 146.258 15 146.25 C13.69 146.258 12.381 146.265 11.031 146.273 C9.783 146.271 8.536 146.268 7.25 146.266 C6.675 146.264 6.675 146.264 3.766 146.259 C1 146 1 146 -1 144 C-1.267 141.615 -1.267 141.615 -1.292 138.561 C-1.306 137.406 -1.32 136.25 -1.335 135.06 C-1.34 133.786 -1.345 132.513 -1.351 131.2 C-1.363 129.85 -1.377 128.5 -1.391 127.15 C-1.427 123.476 -1.45 119.802 -1.471 116.129 C-1.494 112.285 -1.526 108.441 -1.557 104.598 C-1.608 98.138 -1.65 91.679 -1.688 85.219 C-1.732 77.756 -1.79 70.293 -1.855 62.83 C-1.911 56.424 -1.959 50.017 -2 43.61 C-2.025 39.783 -2.053 35.957 -2.087 32.13 C-2.12 28.529 -2.142 24.927 -2.156 21.325 C-2.167 19.378 -2.187 17.43 -2.208 15.482 C-2.21 14.315 -2.213 13.149 -2.216 11.947 C-2.223 10.938 -2.229 9.928 -2.236 8.888 C-1.973 5.674 -1.13 3.01 0 0 Z M2 1 C-0.501 4.802 -0.275 8.662 -0.243 13.046 C-0.245 13.858 -0.247 14.67 -0.249 15.506 C-0.252 18.207 -0.242 20.908 -0.23 23.609 C-0.23 25.515 -0.23 27.422 -0.23 29.328 C-0.229 34.419 -0.215 39.51 -0.197 44.602 C-0.188 47.739 -0.182 50.877 -0.177 54.014 C-0.135 84.017 0.071 114.009 1 144 C4.757 144.69 8.326 145.128 12.145 145.133 C13.068 145.134 13.992 145.135 14.943 145.137 C15.89 145.133 16.837 145.129 17.812 145.125 C18.779 145.129 19.745 145.133 20.74 145.137 C21.199 145.136 21.199 145.136 23.52 145.133 C24.356 145.132 25.192 145.131 26.054 145.129 C28 145 28 145 29 144 C29.099 142.167 29.126 140.331 29.127 138.496 C29.128 137.898 29.128 137.898 29.136 134.875 C29.134 133.539 29.132 132.203 29.129 130.867 C29.131 129.47 29.133 128.072 29.135 126.675 C29.139 122.869 29.137 119.063 29.134 115.258 C29.132 111.284 29.134 107.31 29.136 103.335 C29.138 96.66 29.135 89.986 29.13 83.311 C29.125 75.582 29.127 67.854 29.132 60.126 C29.137 53.503 29.137 46.879 29.135 40.256 C29.133 36.295 29.133 32.334 29.136 28.373 C29.139 24.65 29.137 20.927 29.131 17.204 C29.13 15.834 29.13 14.463 29.133 13.093 C29.135 11.23 29.131 9.367 29.127 7.504 C29.127 6.459 29.126 5.415 29.126 4.338 C29 2 29 2 28 1 C26.073 0.913 24.143 0.893 22.215 0.902 C21.045 0.906 19.875 0.909 18.67 0.912 C18.054 0.916 18.054 0.916 14.938 0.938 C13.702 0.942 12.466 0.947 11.193 0.951 C8.129 0.963 5.064 0.979 2 1 Z " fill="#999999" transform="translate(1719,243)"></path>
<path d="M0 0 C1.169 -0.071 2.337 -0.142 3.541 -0.215 C12.092 -0.398 12.092 -0.398 15.961 2.543 C17.99 4.814 19.734 7.104 21.438 9.625 C22.39 10.858 23.348 12.088 24.312 13.312 C25.36 14.745 26.401 16.184 27.438 17.625 C27.833 18.169 28.228 18.713 28.636 19.274 C29.99 21.138 31.34 23.006 32.688 24.875 C33.124 25.478 33.561 26.081 34.011 26.702 C36.073 29.58 37.994 32.384 39.438 35.625 C34.976 32.651 32.485 28.985 29.539 24.625 C26.186 19.839 22.523 15.302 18.891 10.727 C17.039 8.386 15.228 6.013 13.438 3.625 C4.858 3.625 -3.723 3.625 -12.562 3.625 C-12.562 50.485 -12.562 97.345 -12.562 145.625 C-3.983 145.625 4.598 145.625 13.438 145.625 C13.452 142.975 13.467 140.325 13.482 137.594 C13.532 128.849 13.599 120.104 13.673 111.359 C13.718 106.056 13.757 100.752 13.784 95.449 C13.81 90.333 13.85 85.217 13.901 80.102 C13.917 78.148 13.929 76.194 13.935 74.239 C13.945 71.507 13.973 68.776 14.005 66.044 C14.004 65.232 14.002 64.42 14.001 63.583 C14.093 58.082 14.093 58.082 15.965 55.599 C16.451 55.277 16.937 54.956 17.438 54.625 C21.979 58.891 25.685 63.661 29.438 68.625 C29.108 69.285 28.777 69.945 28.438 70.625 C27.739 69.759 27.04 68.892 26.32 68 C25.401 66.875 24.482 65.75 23.562 64.625 C23.102 64.053 22.642 63.48 22.168 62.891 C20.969 61.431 19.707 60.024 18.438 58.625 C17.777 58.625 17.118 58.625 16.438 58.625 C16.442 59.696 16.446 60.767 16.451 61.87 C16.491 71.949 16.521 82.029 16.541 92.109 C16.552 97.291 16.566 102.473 16.588 107.656 C16.61 112.655 16.622 117.654 16.627 122.653 C16.631 124.562 16.638 126.472 16.649 128.381 C16.663 131.051 16.665 133.72 16.665 136.39 C16.672 137.183 16.679 137.977 16.686 138.794 C16.672 142.612 16.608 144.369 14.438 147.625 C11.64 147.966 11.64 147.966 8.117 147.918 C6.86 147.908 5.604 147.899 4.309 147.889 C2.99 147.864 1.671 147.838 0.312 147.812 C-1.027 147.797 -2.367 147.784 -3.707 147.771 C-6.993 147.736 -10.277 147.687 -13.562 147.625 C-15.276 143.896 -15.813 140.987 -15.816 136.894 C-15.822 135.75 -15.828 134.606 -15.834 133.428 C-15.83 132.182 -15.825 130.936 -15.821 129.652 C-15.825 128.333 -15.828 127.014 -15.832 125.655 C-15.841 122.043 -15.837 118.432 -15.831 114.82 C-15.826 111.038 -15.831 107.255 -15.834 103.472 C-15.838 97.121 -15.833 90.769 -15.823 84.417 C-15.812 77.077 -15.816 69.738 -15.827 62.398 C-15.836 56.092 -15.837 49.786 -15.832 43.481 C-15.829 39.716 -15.828 35.952 -15.835 32.187 C-15.842 27.991 -15.832 23.794 -15.821 19.598 C-15.825 18.352 -15.829 17.106 -15.834 15.822 C-15.828 14.678 -15.822 13.534 -15.816 12.356 C-15.816 11.86 -15.816 11.86 -15.814 9.35 C-14.838 -1.216 -8.993 0.242 0 0 Z " fill="#999999" transform="translate(1805.5625,241.375)"></path>
<path d="M0 0 C13.1 -0.046 26.199 -0.082 39.299 -0.104 C45.382 -0.114 51.464 -0.128 57.546 -0.151 C63.414 -0.173 69.282 -0.185 75.15 -0.19 C77.391 -0.193 79.632 -0.201 81.872 -0.211 C85.006 -0.226 88.14 -0.228 91.274 -0.227 C92.204 -0.234 93.135 -0.241 94.093 -0.249 C94.948 -0.246 95.803 -0.243 96.685 -0.241 C97.426 -0.242 98.167 -0.244 98.93 -0.246 C101.353 0.042 102.944 0.694 105 2 C106.113 5.391 106.074 8.545 105.879 12.082 C105.831 13.013 105.782 13.945 105.732 14.904 C105.676 15.864 105.62 16.824 105.562 17.812 C105.51 18.792 105.458 19.771 105.404 20.779 C105.275 23.187 105.14 25.593 105 28 C100.796 30.026 97.372 30.243 92.731 30.227 C92.018 30.227 91.306 30.228 90.571 30.228 C88.228 30.227 85.886 30.211 83.543 30.195 C81.913 30.192 80.284 30.189 78.654 30.187 C74.375 30.179 70.096 30.159 65.817 30.137 C61.446 30.117 57.076 30.108 52.705 30.098 C44.137 30.076 35.568 30.041 27 30 C27.33 38.91 27.66 47.82 28 57 C30.7 58.35 32.772 58.105 35.795 58.082 C37.01 58.075 38.224 58.069 39.476 58.062 C40.793 58.051 42.111 58.039 43.469 58.027 C44.829 58.02 46.189 58.014 47.549 58.009 C53.332 57.984 59.114 57.949 64.897 57.904 C68.433 57.877 71.969 57.86 75.505 57.849 C77.511 57.84 79.518 57.82 81.524 57.799 C82.132 57.797 82.132 57.797 85.205 57.789 C86.278 57.781 87.351 57.774 88.457 57.766 C91 58 91 58 93 60 C84.577 60.069 76.154 60.123 67.731 60.155 C63.819 60.171 59.908 60.192 55.997 60.226 C52.224 60.259 48.45 60.277 44.676 60.285 C43.236 60.29 41.795 60.301 40.355 60.317 C38.339 60.339 36.323 60.34 34.307 60.341 C33.159 60.347 32.011 60.354 30.828 60.361 C28 60 28 60 26.129 58.646 C24.426 56.163 24.628 54.107 24.637 51.125 C24.637 49.975 24.638 48.825 24.639 47.641 C24.655 46.439 24.671 45.238 24.688 44 C24.684 42.799 24.681 41.597 24.678 40.359 C24.733 31.401 24.733 31.401 27 28 C29.451 27.684 31.656 27.563 34.112 27.568 C34.844 27.557 35.575 27.547 36.329 27.537 C38.754 27.506 41.177 27.497 43.602 27.488 C45.28 27.471 46.959 27.453 48.638 27.434 C53.06 27.386 57.482 27.357 61.904 27.33 C66.416 27.301 70.927 27.254 75.438 27.209 C84.292 27.123 93.146 27.056 102 27 C103.279 24.443 103.113 22.633 103.098 19.773 C103.094 18.742 103.091 17.711 103.088 16.648 C103.08 15.568 103.071 14.488 103.062 13.375 C103.058 12.287 103.053 11.199 103.049 10.078 C103.037 7.385 103.021 4.693 103 2 C102.37 2.002 102.37 2.002 99.179 2.013 C87.319 2.054 75.458 2.084 63.597 2.104 C57.499 2.114 51.401 2.128 45.303 2.151 C39.422 2.173 33.541 2.185 27.66 2.19 C25.412 2.193 23.164 2.201 20.916 2.211 C17.777 2.226 14.638 2.228 11.499 2.227 C11.03 2.231 11.03 2.231 8.658 2.249 C7.806 2.246 6.953 2.243 6.075 2.241 C5.332 2.242 4.589 2.244 3.823 2.246 C2 2 2 2 0 0 Z " fill="#999999" transform="translate(890,242)"></path>
<path d="M0 0 C0.33 0.165 0.33 0.165 2 1 C2.116 4.75 2.187 8.499 2.25 12.25 C2.284 13.313 2.317 14.377 2.352 15.473 C2.358 15.985 2.358 15.985 2.391 18.578 C2.401 19.049 2.401 19.049 2.454 21.435 C1.851 24.844 0.683 25.854 -2 28 C-4.694 28.474 -4.694 28.474 -7.807 28.438 C-8.975 28.435 -10.143 28.431 -11.346 28.428 C-12.603 28.404 -13.861 28.38 -15.156 28.355 C-17.134 28.343 -19.111 28.331 -21.089 28.319 C-23.857 28.297 -26.624 28.256 -29.392 28.216 C-34.235 28.15 -39.078 28.113 -43.921 28.076 C-46.499 28.054 -49.076 28.026 -51.654 27.989 C-52.238 27.983 -52.238 27.983 -55.193 27.95 C-56.221 27.936 -57.248 27.921 -58.306 27.907 C-60.716 27.99 -62.702 28.303 -65 29 C-65.196 33.312 -65.38 37.625 -65.562 41.938 C-65.619 43.169 -65.675 44.401 -65.732 45.67 C-65.781 46.84 -65.829 48.01 -65.879 49.215 C-65.926 50.299 -65.973 51.383 -66.022 52.5 C-66 55 -66 55 -65 56 C-62.628 56.125 -60.284 56.186 -57.91 56.205 C-57.168 56.215 -56.427 56.225 -55.663 56.235 C-53.201 56.267 -50.739 56.292 -48.277 56.316 C-46.575 56.337 -44.872 56.358 -43.17 56.379 C-38.68 56.435 -34.19 56.484 -29.701 56.532 C-25.123 56.582 -20.545 56.638 -15.967 56.693 C-6.978 56.801 2.011 56.902 11 57 C11 57.33 11 57.66 11 58 C0.995 58.046 -9.01 58.082 -19.015 58.104 C-23.66 58.114 -28.306 58.128 -32.951 58.151 C-37.432 58.173 -41.912 58.185 -46.392 58.19 C-48.104 58.193 -49.816 58.201 -51.528 58.211 C-53.921 58.226 -56.312 58.228 -58.705 58.227 C-59.417 58.234 -60.13 58.241 -60.865 58.249 C-65.772 58.228 -65.772 58.228 -68 56 C-68.259 53.342 -68.259 53.342 -68.266 50.004 C-68.268 48.806 -68.271 47.608 -68.273 46.373 C-68.266 45.116 -68.258 43.858 -68.25 42.562 C-68.258 41.309 -68.265 40.055 -68.273 38.764 C-68.271 37.564 -68.268 36.365 -68.266 35.129 C-68.263 34.026 -68.261 32.923 -68.259 31.787 C-68 29 -68 29 -66 26 C-63.292 25.601 -63.292 25.601 -59.806 25.568 C-59.156 25.558 -59.156 25.558 -55.863 25.508 C-54.437 25.501 -53.012 25.494 -51.586 25.488 C-50.131 25.471 -48.677 25.453 -47.223 25.434 C-43.392 25.386 -39.562 25.357 -35.731 25.33 C-31.823 25.301 -27.916 25.254 -24.008 25.209 C-16.339 25.123 -8.669 25.056 -1 25 C0.129 16.5 0.129 16.5 0.098 12.5 C0.094 11.759 0.091 11.018 0.088 10.254 C0.08 9.51 0.071 8.766 0.062 8 C0.058 7.225 0.053 6.451 0.049 5.652 C0.037 3.768 0.019 1.884 0 0 Z " fill="#999999" transform="translate(983,302)"></path>
<path d="M0 0 C0.666 -0.002 1.333 -0.004 2.019 -0.006 C3.433 -0.007 4.847 -0.003 6.261 0.005 C8.401 0.015 10.54 0.005 12.68 -0.008 C29.608 -0.027 29.608 -0.027 34.805 4.391 C35.3 5.009 35.795 5.628 36.305 6.266 C35.686 5.977 35.067 5.688 34.43 5.391 C26.226 2.437 18.146 1.971 9.492 2.078 C8.987 2.078 8.987 2.078 6.432 2.08 C1.899 2.107 -2.258 2.268 -6.695 3.266 C-6.72 8.765 -6.738 14.264 -6.75 19.763 C-6.755 21.635 -6.762 23.506 -6.771 25.377 C-6.783 28.065 -6.789 30.753 -6.793 33.441 C-6.798 34.279 -6.803 35.117 -6.809 35.98 C-6.809 39.329 -6.762 42.065 -5.695 45.266 C4.44 49.096 19.863 47.129 29.766 43.457 C35.435 40.797 39.012 37.331 41.613 31.574 C43.796 24.286 42.621 17.899 39.305 11.266 C39.305 10.276 39.305 9.286 39.305 8.266 C44.151 13.596 45.573 18.52 45.305 25.641 C44.456 32.912 40.756 38.2 35.492 43.141 C27.434 48.513 19.435 48.72 9.918 48.602 C7.847 48.578 5.777 48.581 3.705 48.588 C-6.428 48.533 -6.428 48.533 -8.695 46.266 C-8.949 44.368 -8.949 44.368 -8.954 42.031 C-8.96 41.157 -8.967 40.283 -8.973 39.382 C-8.969 38.436 -8.965 37.49 -8.961 36.516 C-8.963 35.547 -8.965 34.578 -8.967 33.579 C-8.968 31.528 -8.964 29.477 -8.956 27.426 C-8.945 24.278 -8.956 21.132 -8.969 17.984 C-8.967 15.995 -8.965 14.005 -8.961 12.016 C-8.965 11.07 -8.969 10.124 -8.973 9.149 C-8.967 8.275 -8.961 7.401 -8.954 6.5 C-8.953 5.729 -8.951 4.958 -8.949 4.163 C-8.276 -0.867 -4.052 0.007 0 0 Z " fill="#999999" transform="translate(1435.6953125,269.734375)"></path>
<path d="M0 0 C-14.171 7.177 -31.105 7.44 -46.671 7.842 C-49.797 8.054 -52.898 8.557 -56 9 C-56.33 21.87 -56.66 34.74 -57 48 C-57.33 48.165 -57.33 48.165 -59 49 C-59.049 43.358 -59.086 37.717 -59.11 32.075 C-59.12 30.155 -59.134 28.236 -59.151 26.316 C-59.175 23.558 -59.186 20.801 -59.195 18.043 C-59.206 17.184 -59.216 16.324 -59.227 15.439 C-59.227 14.638 -59.227 13.837 -59.227 13.012 C-59.231 12.309 -59.236 11.605 -59.241 10.879 C-59 9 -59 9 -57 6 C-54.887 5.615 -54.887 5.615 -52.258 5.594 C-51.283 5.574 -50.309 5.554 -49.305 5.534 C-48.256 5.523 -47.206 5.511 -46.125 5.5 C-32.249 5.14 -17.924 4.303 -4.777 -0.547 C-3 -1 -3 -1 0 0 Z " fill="#999999" transform="translate(1484,339)"></path>
<path d="M0 0 C8.815 8.264 15.742 18.502 22.812 28.25 C27.142 34.217 31.566 40.111 36 46 C38.085 48.77 40.168 51.541 42.25 54.312 C42.745 54.97 43.241 55.628 43.751 56.305 C46.898 60.494 49.97 64.726 53 69 C52.67 69.66 52.34 70.32 52 71 C38.973 54.539 26.555 37.647 14.129 20.73 C13.5 19.875 12.871 19.02 12.223 18.139 C11.021 16.503 9.819 14.867 8.618 13.23 C6.335 10.125 4.052 7.063 1.602 4.086 C0 2 0 2 0 0 Z " fill="#999999" transform="translate(1835,312)"></path>
<path d="M0 0 C1.69 2.951 2.244 5.036 2.211 8.426 C2.208 9.295 2.204 10.163 2.201 11.058 C2.187 11.99 2.174 12.922 2.16 13.883 C2.155 14.852 2.15 15.822 2.144 16.821 C2.127 19.922 2.095 23.023 2.062 26.125 C2.035 29.205 2.01 32.285 1.991 35.365 C1.979 37.28 1.962 39.194 1.938 41.109 C1.894 47.136 2.281 53.016 3 59 C5.494 57.796 7.681 56.546 10 55 C8.725 57.844 7.549 60.138 5 62 C2.875 61.875 2.875 61.875 1 61 C-0.051 57.847 -0.121 55.645 -0.114 52.335 C-0.113 51.174 -0.113 50.013 -0.113 48.817 C-0.108 47.564 -0.103 46.311 -0.098 45.02 C-0.096 43.736 -0.095 42.453 -0.093 41.131 C-0.09 37.723 -0.08 34.315 -0.069 30.907 C-0.058 27.429 -0.054 23.95 -0.049 20.471 C-0.038 13.647 -0.021 6.824 0 0 Z " fill="#999999" transform="translate(1208,244)"></path>
<path d="M0 0 C1.147 0.005 2.295 0.009 3.477 0.014 C6.276 0.025 9.076 0.042 11.875 0.062 C12.533 1.874 12.533 1.874 12.875 4.062 C10.956 6.353 9.112 8.295 6.938 10.312 C6.361 10.867 5.784 11.421 5.189 11.992 C3.762 13.36 2.32 14.713 0.875 16.062 C0.875 13.062 0.875 13.062 2.844 10.871 C3.679 10.089 4.514 9.306 5.375 8.5 C6.91 7.057 8.419 5.585 9.875 4.062 C9.875 3.403 9.875 2.743 9.875 2.062 C5.391 2.156 0.907 2.262 -3.577 2.38 C-5.102 2.418 -6.627 2.453 -8.151 2.484 C-10.346 2.53 -12.54 2.588 -14.734 2.648 C-15.074 2.654 -15.074 2.654 -16.793 2.683 C-20.383 2.795 -23.061 3.122 -26.125 5.062 C-23.726 1.243 -23.726 1.243 -21.106 0.455 C-20.331 0.409 -19.556 0.364 -18.758 0.316 C-17.871 0.261 -16.985 0.206 -16.071 0.149 C-10.712 -0.008 -5.361 -0.041 0 0 Z " fill="#999999" transform="translate(1292.125,241.9375)"></path>
</svg>