<?xml version="1.0" encoding="UTF-8"?>

<svg version="1.1" xmlns="http://www.w3.org/2000/svg" width="996" height="517">
<path d="M0 0 C-1.848 4.012 -4.496 6.757 -7.625 9.812 C-7.873 10.06 -7.873 10.06 -9.129 11.314 C-11.895 14.049 -14.735 16.651 -17.691 19.178 C-22.101 23.025 -26.192 27.134 -30.277 31.32 C-31.86 32.925 -33.442 34.529 -35.025 36.133 C-37.471 38.616 -39.914 41.101 -42.349 43.596 C-64.427 66.189 -86.521 83.012 -118 89 C-118.86 89.168 -119.719 89.337 -120.605 89.51 C-130.485 91.249 -140.185 91.308 -150.18 91.319 C-152.088 91.328 -153.996 91.338 -155.904 91.349 C-161.074 91.377 -166.243 91.392 -171.413 91.405 C-176.913 91.421 -182.414 91.447 -187.914 91.473 C-197.215 91.514 -206.517 91.549 -215.819 91.578 C-228.645 91.619 -241.471 91.672 -254.298 91.727 C-307.198 91.955 -360.099 92.062 -413 92 C-409.615 87.99 -406.197 84.071 -402.502 80.341 C-401.667 79.496 -400.831 78.651 -399.971 77.781 C-399.083 76.889 -398.196 75.997 -397.281 75.078 C-396.819 74.613 -396.356 74.148 -395.88 73.668 C-393.428 71.202 -390.974 68.738 -388.518 66.277 C-386.515 64.271 -384.518 62.26 -382.525 60.244 C-371.88 49.48 -361.349 38.834 -349 30 C-348.192 29.406 -347.384 28.811 -346.551 28.199 C-320.303 9.22 -291.662 0.605 -259.453 0.488 C-257.596 0.471 -255.739 0.453 -253.883 0.434 C-248.756 0.385 -243.628 0.356 -238.501 0.33 C-235.231 0.312 -231.96 0.289 -228.69 0.263 C-152.463 -0.329 -76.228 -0.088 0 0 Z " fill="#282F37" transform="translate(877,27)"></path>
<path d="M0 0 C0 0.66 0 1.32 0 2 C-1.367 3.345 -1.367 3.345 -3.319 4.946 C-8.275 9.163 -12.827 13.728 -17.399 18.354 C-18.933 19.906 -20.471 21.454 -22.01 23.001 C-26.379 27.395 -30.743 31.794 -35.102 36.198 C-37.785 38.908 -40.472 41.612 -43.163 44.314 C-44.175 45.332 -45.184 46.351 -46.192 47.373 C-52.778 54.05 -59.624 60.199 -67 66 C-67.618 66.495 -68.237 66.989 -68.874 67.499 C-84.121 79.532 -101.057 85.457 -120 89 C-120.867 89.173 -121.734 89.346 -122.627 89.525 C-135.388 91.725 -148.294 91.309 -161.201 91.319 C-163.951 91.327 -166.702 91.338 -169.453 91.349 C-175.352 91.371 -181.251 91.387 -187.15 91.397 C-195.679 91.411 -204.207 91.437 -212.736 91.465 C-226.576 91.51 -240.417 91.547 -254.258 91.578 C-267.694 91.608 -281.131 91.643 -294.567 91.683 C-295.397 91.685 -296.227 91.688 -297.082 91.69 C-301.244 91.702 -305.407 91.715 -309.57 91.727 C-344.047 91.831 -378.523 91.92 -413 92 C-413 91.34 -413 90.68 -413 90 C-411.595 88.62 -411.595 88.62 -409.613 86.991 C-404.515 82.652 -399.874 77.927 -395.191 73.148 C-393.777 71.717 -392.362 70.286 -390.947 68.855 C-387.505 65.376 -384.067 61.892 -380.642 58.395 C-349.938 27.07 -314.704 1.276 -269.05 0.531 C-266.626 0.507 -264.202 0.497 -261.777 0.488 C-259.951 0.471 -258.125 0.453 -256.299 0.434 C-251.248 0.385 -246.196 0.356 -241.145 0.33 C-237.918 0.312 -234.691 0.289 -231.464 0.263 C-154.313 -0.343 -77.153 -0.088 0 0 Z " fill="#282F37" transform="translate(535,133)"></path>
<path d="M0 0 C9.714 -0.062 19.429 -0.124 29.438 -0.188 C30.963 -0.201 30.963 -0.201 38.681 -0.27 C41.12 -0.279 43.558 -0.287 45.996 -0.293 C46.621 -0.301 46.621 -0.301 49.782 -0.339 C60.116 -0.343 67.723 0.93 75.34 8.184 C79.778 13.04 81.176 18.545 81 25 C79.925 30.968 78.249 35.567 74 40 C71.678 41.491 69.254 42.66 66.75 43.812 C66.425 43.968 66.425 43.968 64.781 44.756 C63.193 45.515 61.597 46.259 60 47 C65.632 54.131 71.536 60.857 77.833 67.403 C82 71.789 82 71.789 82 74 C69.352 75.669 69.352 75.669 64.094 71.938 C61.523 69.074 59.253 66.119 57 63 C55.363 61.013 53.718 59.034 52.062 57.062 C48.095 52.173 48.095 52.173 46.836 49.874 C45 48 45 48 41.722 47.546 C40.383 47.547 39.045 47.569 37.707 47.609 C37.001 47.615 36.295 47.621 35.568 47.627 C33.315 47.649 31.064 47.699 28.812 47.75 C27.285 47.77 25.757 47.788 24.229 47.805 C20.485 47.849 16.743 47.918 13 48 C13.005 48.752 13.01 49.504 13.016 50.279 C13.037 53.665 13.05 57.051 13.062 60.438 C13.071 61.622 13.079 62.806 13.088 64.025 C13.091 65.15 13.094 66.275 13.098 67.434 C13.103 68.476 13.108 69.518 13.114 70.592 C13 73 13 73 12 74 C8.04 74 4.08 74 0 74 C0 49.58 0 25.16 0 0 Z " fill="#282F37" transform="translate(757,305)"></path>
<path d="M0 0 C6.922 5.678 9.889 11.577 10.941 20.371 C11.362 27.976 9.117 35.322 4.25 41.188 C3.404 41.868 2.559 42.549 1.688 43.25 C0.945 43.951 0.202 44.653 -0.562 45.375 C-10.356 52.053 -22.914 52.076 -34.199 50.035 C-42.322 47.987 -48.765 44.41 -53.312 37.25 C-57.47 30.089 -57.503 21.351 -55.656 13.438 C-53.239 6.601 -49.394 1.546 -43.035 -2.031 C-30.055 -8.079 -12.02 -8.325 0 0 Z " fill="#FFFFFF" transform="translate(714.3125,427.75)"></path>
<path d="M0 0 C4.95 0 9.9 0 15 0 C21.901 12.308 28.638 24.699 35.309 37.133 C37.52 41.253 39.74 45.368 41.977 49.475 C42.959 51.28 43.94 53.086 44.921 54.893 C46.159 57.172 47.4 59.449 48.646 61.725 C49.202 62.751 49.759 63.778 50.332 64.836 C50.824 65.739 51.316 66.642 51.823 67.572 C53 70 53 70 54 74 C49.71 74 45.42 74 41 74 C39.495 71.378 37.996 68.753 36.5 66.125 C36.285 65.752 36.285 65.752 35.199 63.863 C34.793 63.148 34.387 62.432 33.969 61.695 C33.592 61.035 33.215 60.376 32.826 59.696 C32 58 32 58 32 56 C15.83 56 -0.34 56 -17 56 C-17.66 57.98 -18.32 59.96 -19 62 C-20.79 66.528 -22.614 70.456 -26 74 C-30.493 75.037 -34.474 74.735 -39 74 C-37.737 69.929 -36.227 66.282 -34.199 62.535 C-33.641 61.499 -33.082 60.464 -32.507 59.397 C-31.906 58.296 -31.306 57.196 -30.688 56.062 C-30.065 54.914 -29.443 53.765 -28.802 52.582 C-24.185 44.079 -19.436 35.652 -14.645 27.246 C-9.547 18.276 -4.737 9.165 0 0 Z " fill="#282F37" transform="translate(476,305)"></path>
<path d="M0 0 C0.644 0.006 0.644 0.006 3.902 0.035 C5.193 0.044 6.483 0.053 7.812 0.062 C8.812 0.074 9.811 0.086 10.84 0.098 C12.262 2.739 13.684 5.38 15.106 8.021 C16.361 10.352 17.617 12.683 18.872 15.014 C22.084 20.978 25.295 26.943 28.5 32.91 C29.676 35.098 30.851 37.285 32.027 39.473 C32.601 40.541 33.175 41.61 33.767 42.71 C36.537 47.858 39.327 52.994 42.164 58.105 C42.68 59.036 43.196 59.966 43.728 60.924 C44.695 62.663 45.666 64.4 46.641 66.134 C47.065 66.896 47.489 67.657 47.926 68.441 C48.298 69.103 48.669 69.765 49.052 70.447 C49.84 72.098 49.84 72.098 49.84 74.098 C45.37 74.695 41.286 74.961 36.84 74.098 C33.828 71.2 32.485 67.889 30.84 64.098 C30.161 62.864 29.468 61.637 28.762 60.418 C28.128 59.322 27.493 58.227 26.84 57.098 C20.332 56.664 13.828 56.368 7.309 56.164 C5.096 56.079 2.884 55.963 0.675 55.815 C-14.198 54.846 -14.198 54.846 -20.16 57.098 C-24.229 60.735 -26.141 65.335 -28.125 70.312 C-29.037 72.432 -29.037 72.432 -30.16 74.098 C-34.808 75.508 -38.471 75.222 -43.16 74.098 C-41.578 69.87 -39.568 65.922 -37.449 61.945 C-37.085 61.257 -36.72 60.568 -36.345 59.859 C-35.161 57.625 -33.973 55.392 -32.785 53.16 C-31.966 51.618 -31.148 50.077 -30.329 48.535 C-4.607 0.142 -4.607 0.142 0 0 Z " fill="#282F37" transform="translate(183.16015625,412.90234375)"></path>
<path d="M0 0 C4.95 0 9.9 0 15 0 C16.422 2.641 17.844 5.282 19.266 7.923 C20.522 10.254 21.777 12.586 23.032 14.917 C26.244 20.88 29.455 26.845 32.66 32.812 C33.836 35 35.012 37.188 36.188 39.375 C36.761 40.443 37.335 41.512 37.927 42.613 C40.697 47.761 43.487 52.896 46.324 58.008 C46.84 58.938 47.356 59.868 47.888 60.827 C48.855 62.566 49.826 64.302 50.802 66.037 C51.225 66.798 51.649 67.559 52.086 68.344 C52.458 69.006 52.829 69.668 53.212 70.35 C54 72 54 72 54 74 C49.71 74 45.42 74 41 74 C40.446 73.024 39.891 72.048 39.32 71.043 C38.589 69.758 37.857 68.473 37.125 67.188 C36.76 66.545 36.395 65.902 36.02 65.24 C34.419 62.432 32.794 59.69 31 57 C28.975 56.639 28.975 56.639 26.458 56.659 C25.518 56.66 24.577 56.66 23.608 56.66 C23.099 56.668 23.099 56.668 20.523 56.707 C19.483 56.711 18.443 56.716 17.371 56.72 C14.039 56.737 10.707 56.774 7.375 56.812 C5.12 56.828 2.865 56.841 0.609 56.854 C-4.927 56.887 -10.464 56.937 -16 57 C-16.638 58.143 -17.276 59.287 -17.934 60.465 C-18.768 61.956 -19.603 63.447 -20.438 64.938 C-20.858 65.692 -21.279 66.447 -21.713 67.225 C-22.116 67.943 -22.519 68.662 -22.934 69.402 C-23.305 70.067 -23.677 70.732 -24.06 71.418 C-25 73 -25 73 -26 74 C-28.186 74.073 -30.375 74.084 -32.562 74.062 C-33.76 74.053 -34.958 74.044 -36.191 74.035 C-36.655 74.029 -36.655 74.029 -39 74 C-37.687 70.592 -36.218 67.352 -34.531 64.113 C-34.048 63.185 -33.565 62.257 -33.067 61.3 C-32.55 60.314 -32.033 59.328 -31.5 58.312 C-30.96 57.281 -30.421 56.249 -29.865 55.186 C-26.344 48.484 -22.733 41.842 -19.024 35.242 C-14.877 27.839 -10.876 20.358 -6.875 12.875 C-6.533 12.235 -6.191 11.595 -5.838 10.936 C-3.89 7.292 -1.945 3.646 0 0 Z " fill="#282F37" transform="translate(435,413)"></path>
<path d="M0 0 C0.371 0.257 0.371 0.257 2.246 1.559 C2.825 2.034 3.404 2.51 4 3 C4 3.66 4 4.32 4 5 C2.031 6.508 2.031 6.508 -0.5 8.125 C-1.335 8.664 -2.171 9.203 -3.031 9.758 C-3.681 10.168 -4.331 10.578 -5 11 C-8.049 9.552 -10.8 7.841 -13.625 6 C-23.59 0.018 -35.012 -0.287 -46.188 2.188 C-53.569 4.227 -59.829 7.357 -64 14 C-67.8 21.599 -68.21 29.52 -66.379 37.812 C-63.819 45.277 -59.409 49.697 -52.48 53.316 C-41.635 57.67 -26.967 57.992 -15.945 53.922 C-11.586 51.856 -8.397 49.397 -5 46 C-5 43.03 -5 40.06 -5 37 C-9.95 36.835 -9.95 36.835 -35 36 C-35 32.7 -35 29.4 -35 26 C-20.81 26 -6.62 26 8 26 C8.072 27.897 8.072 27.897 8.438 37.5 C8.501 38.68 8.565 39.86 8.631 41.076 C8.733 46.655 8.457 50.24 4.754 54.578 C-6.731 65.716 -21.271 68.601 -36.784 68.405 C-49.651 67.977 -62.751 64.459 -72 55 C-78.986 45.543 -82.412 34.759 -81 23 C-78.601 11.546 -73.748 2.685 -64 -4 C-58.623 -6.951 -53.017 -8.872 -47 -10 C-46.68 -10.062 -46.68 -10.062 -45.062 -10.375 C-29.229 -12.774 -12.766 -9.83 0 0 Z " fill="#282F37" transform="translate(290,313)"></path>
<path d="M0 0 C0.925 0.005 1.849 0.01 2.802 0.015 C15.566 0.234 28.459 3.938 37.625 13.312 C45.094 24.013 47.988 35.096 45.938 48.125 C43.737 58.062 38.503 66.394 29.93 72.109 C15.248 80.018 -0.894 81.177 -16.945 77.352 C-27.925 74.025 -36.244 68.814 -42.188 58.938 C-47.677 48.248 -47.58 36.595 -44.414 25.172 C-40.878 15.442 -34.188 8.971 -25 4.562 C-16.879 0.882 -8.835 -0.056 0 0 Z M-27.562 21.562 C-32.948 28.263 -33.944 34.594 -33.727 43.125 C-32.93 50.346 -29.609 56.306 -24.375 61.312 C-15.07 67.804 -3.556 69.123 7.5 67.688 C17.392 65.78 23.652 62.535 29.812 54.438 C34.318 46.67 34.689 38.81 32.562 30.25 C30.038 22.724 25.482 18.017 18.5 14.375 C4.001 7.542 -16.498 9.659 -27.562 21.562 Z " fill="#282F37" transform="translate(691.375,410.6875)"></path>
<path d="M0 0 C24.09 0 48.18 0 73 0 C73 3.3 73 6.6 73 10 C72 11 72 11 69.678 11.12 C68.65 11.118 67.622 11.116 66.562 11.114 C65.401 11.113 64.24 11.113 63.044 11.113 C62.412 11.111 62.412 11.111 59.215 11.098 C57.929 11.096 56.643 11.095 55.318 11.093 C51.894 11.09 48.469 11.08 45.045 11.069 C41.553 11.058 38.06 11.054 34.568 11.049 C27.712 11.038 20.856 11.02 14 11 C13.67 17.6 13.34 24.2 13 31 C29.83 31 46.66 31 64 31 C64 34.3 64 37.6 64 41 C63 42 63 42 60.982 42.12 C60.096 42.118 59.21 42.116 58.297 42.114 C57.296 42.113 56.295 42.113 55.263 42.113 C54.175 42.108 53.086 42.103 51.965 42.098 C50.856 42.096 49.748 42.095 48.606 42.093 C45.05 42.088 41.494 42.075 37.938 42.062 C35.533 42.057 33.129 42.053 30.725 42.049 C24.816 42.038 18.908 42.02 13 42 C13 48.93 13 55.86 13 63 C33.13 63 53.26 63 74 63 C74 66.63 74 70.26 74 74 C49.58 74 25.16 74 0 74 C0 49.58 0 25.16 0 0 Z " fill="#282F37" transform="translate(869,305)"></path>
<path d="M0 0 C0.99 0.99 1.98 1.98 3 3 C1.845 4.32 1.845 4.32 -4 11 C-7.377 9.709 -10.511 8.222 -13.688 6.5 C-25.523 0.591 -40.395 0.053 -53 4 C-55.844 5.083 -57.521 6.101 -60 8 C-61.25 10.938 -61.25 10.938 -61 14 C-57.556 18.888 -53.626 19.992 -48 21 C-43.488 21.555 -38.964 21.959 -34.438 22.375 C-4.887 25.361 -4.887 25.361 3 34 C6.918 39.434 6.766 44.516 6 51 C4.05 57.094 -0.597 61.151 -6.07 64.125 C-21.417 71.397 -40.277 70.973 -56.363 66.344 C-63.808 63.593 -70.738 59.905 -77 55 C-75.445 51.183 -72.964 48.808 -70 46 C-66.829 47.09 -64.287 48.471 -61.562 50.375 C-48.717 58.377 -31.828 59.109 -17.25 56.27 C-13.147 54.933 -10.799 54.103 -8.227 50.551 C-6.616 47.202 -6.858 45.502 -8 42 C-15.35 35.155 -29.124 35.605 -38.625 34.562 C-51.462 33.129 -61.938 31.295 -71.875 22.438 C-74.712 18.82 -74.646 15.138 -74.41 10.68 C-73.53 4.928 -70.94 1.533 -66.562 -2.188 C-48.09 -15.077 -17.987 -11.848 0 0 Z " fill="#282F37" transform="translate(130,312)"></path>
<path d="M0 0 C15.597 0 15.597 0 19.147 3.416 C19.598 3.919 20.05 4.423 20.515 4.941 C21.04 5.466 21.566 5.991 22.107 6.532 C23.81 8.25 25.458 10.011 27.109 11.777 C28.292 12.989 29.478 14.197 30.667 15.402 C33.769 18.563 36.827 21.763 39.877 24.974 C42.998 28.245 46.156 31.48 49.312 34.717 C52.854 38.35 56.392 41.987 59.899 45.654 C60.431 46.208 60.962 46.762 61.509 47.333 C62.502 48.369 63.492 49.408 64.48 50.449 C67.778 53.889 67.778 53.889 70 55 C69.67 36.85 69.34 18.7 69 0 C73.29 0 77.58 0 82 0 C82.023 9.501 82.041 19.001 82.052 28.502 C82.057 32.913 82.064 37.324 82.075 41.736 C82.086 45.989 82.092 50.242 82.095 54.496 C82.097 56.122 82.1 57.749 82.106 59.375 C82.113 61.645 82.114 63.915 82.114 66.185 C82.116 67.48 82.118 68.775 82.12 70.108 C82 73 82 73 81 74 C75.957 75.05 71.702 75.087 67.283 72.265 C64.417 69.705 61.745 67.01 59.109 64.219 C58.113 63.204 57.114 62.192 56.113 61.182 C53.493 58.526 50.908 55.838 48.329 53.142 C45.717 50.426 43.072 47.742 40.43 45.055 C24.624 28.927 24.624 28.927 18.655 21.759 C16.645 19.623 14.291 17.833 12 16 C12 35.14 12 54.28 12 74 C8.04 74 4.08 74 0 74 C0 49.58 0 25.16 0 0 Z " fill="#282F37" transform="translate(329,305)"></path>
<path d="M0 0 C7.365 0.072 7.365 0.072 10.75 2.938 C12.324 4.66 13.855 6.414 15.372 8.187 C20.17 13.783 25.301 18.993 30.527 24.188 C31.427 25.086 32.328 25.985 33.255 26.911 C35.622 29.273 37.991 31.634 40.362 33.993 C42.791 36.411 45.216 38.833 47.643 41.254 C52.384 45.985 57.129 50.711 61.875 55.438 C62.205 37.288 62.535 19.137 62.875 0.438 C66.835 0.438 70.795 0.438 74.875 0.438 C74.875 24.858 74.875 49.278 74.875 74.438 C62.875 74.438 62.875 74.438 58.449 71.219 C57.122 69.821 55.826 68.393 54.562 66.938 C54.237 66.589 54.237 66.589 52.592 64.828 C50.12 62.161 47.727 59.431 45.36 56.67 C41.088 51.72 36.613 47.042 31.973 42.438 C31.331 41.797 30.689 41.156 30.028 40.496 C27.667 38.14 25.302 35.789 22.938 33.438 C17.637 28.158 12.336 22.877 6.875 17.438 C6.545 36.248 6.215 55.058 5.875 74.438 C1.585 74.438 -2.705 74.438 -7.125 74.438 C-7.148 64.937 -7.166 55.436 -7.177 45.935 C-7.182 41.524 -7.189 37.113 -7.2 32.702 C-7.211 28.448 -7.217 24.195 -7.22 19.942 C-7.222 18.315 -7.225 16.689 -7.231 15.063 C-7.238 12.792 -7.239 10.522 -7.239 8.252 C-7.241 6.958 -7.243 5.663 -7.245 4.329 C-7.033 -0.766 -4.593 0.173 0 0 Z " fill="#282F37" transform="translate(775.125,412.5625)"></path>
<path d="M0 0 C4.29 0 8.58 0 13 0 C13.005 0.655 13.005 0.655 13.028 3.972 C13.068 8.874 13.134 13.775 13.208 18.677 C13.236 20.791 13.257 22.905 13.271 25.02 C13.293 28.073 13.339 31.126 13.391 34.18 C13.392 35.112 13.393 36.045 13.394 37.006 C13.57 45.016 15.251 52.701 21.188 58.438 C29.172 64.383 38.293 65.133 48 64 C54.913 62.085 59.833 59.988 64 54 C67.554 46.63 68.166 40.359 68.316 32.324 C68.327 31.862 68.327 31.862 68.379 29.521 C68.445 26.576 68.504 23.632 68.562 20.688 C68.606 18.687 68.649 16.686 68.693 14.686 C68.8 9.79 68.902 4.895 69 0 C72.96 0 76.92 0 81 0 C81.1 6.474 81.172 12.947 81.22 19.421 C81.24 21.619 81.267 23.817 81.302 26.014 C81.749 54.99 81.749 54.99 72.875 64.438 C64.892 72.604 54.759 76.181 43.455 76.33 C30.585 76.231 20.27 74.468 10 66 C1.276 56.104 -0.172 44.816 -0.098 32.129 C-0.096 31.207 -0.095 30.284 -0.093 29.334 C-0.088 26.41 -0.075 23.486 -0.062 20.562 C-0.057 18.571 -0.053 16.579 -0.049 14.588 C-0.038 9.725 -0.021 4.863 0 0 Z " fill="#282F37" transform="translate(641,305)"></path>
<path d="M0 0 C4.62 0 9.24 0 14 0 C14.822 1.656 15.645 3.313 16.492 5.02 C21.696 15.478 26.901 25.929 32.375 36.25 C35.334 41.833 38.276 47.422 41.125 53.062 C41.684 54.167 42.244 55.272 42.82 56.41 C44 59 44 59 44 61 C44.66 61 45.32 61 46 61 C46.266 60.144 46.531 59.287 46.805 58.405 C48.019 54.946 49.481 51.795 51.125 48.52 C51.428 47.913 51.732 47.306 52.044 46.682 C53.025 44.723 54.012 42.768 55 40.812 C55.679 39.462 56.358 38.111 57.036 36.76 C61.9 27.095 66.864 17.484 71.979 7.949 C73.357 5.319 74.672 2.656 76 0 C80.62 0 85.24 0 90 0 C83.107 15 75.574 29.649 67.938 44.28 C66.01 47.977 64.094 51.679 62.18 55.383 C60.995 57.672 59.81 59.961 58.625 62.25 C58.348 62.786 58.348 62.786 56.948 65.497 C56.695 65.984 56.695 65.984 55.414 68.453 C54.97 69.311 54.526 70.168 54.069 71.052 C53 73 53 73 52 74 C49.647 74.073 47.292 74.084 44.938 74.062 C44.292 74.058 44.292 74.058 41.027 74.035 C40.028 74.024 39.029 74.012 38 74 C29.023 57.96 20.633 41.639 12.3 25.258 C11.856 24.386 11.412 23.515 10.955 22.617 C10.122 20.981 9.291 19.345 8.462 17.709 C6.071 13.013 3.567 8.407 0.93 3.845 C0 2 0 2 0 0 Z " fill="#282F37" transform="translate(241,413)"></path>
<path d="M0 0 C0.744 0.004 1.489 0.007 2.256 0.011 C3.036 0.011 3.817 0.011 4.621 0.01 C7.213 0.011 9.805 0.019 12.396 0.027 C14.189 0.029 15.981 0.03 17.773 0.031 C22.499 0.035 27.226 0.045 31.952 0.056 C36.772 0.066 41.591 0.071 46.41 0.076 C55.873 0.086 65.336 0.103 74.799 0.124 C74.799 3.754 74.799 7.384 74.799 11.124 C63.579 11.124 52.359 11.124 40.799 11.124 C40.799 31.914 40.799 52.704 40.799 74.124 C36.509 74.124 32.219 74.124 27.799 74.124 C27.799 53.334 27.799 32.544 27.799 11.124 C11.361 11.187 11.361 11.187 6.168 11.215 C4.817 11.217 3.466 11.22 2.115 11.222 C1.408 11.227 0.7 11.232 -0.029 11.238 C-1.753 11.238 -3.478 11.187 -5.201 11.124 C-6.201 10.124 -6.201 10.124 -6.334 8.093 C-6.332 7.278 -6.329 6.464 -6.326 5.624 C-6.329 4.81 -6.331 3.995 -6.334 3.156 C-6.066 -0.945 -3.506 0.007 0 0 Z " fill="#282F37" transform="translate(500.2013244628906,412.8755798339844)"></path>
<path d="M0 0 C26.73 0 53.46 0 81 0 C81 3.3 81 6.6 81 10 C80 11 80 11 76.857 11.114 C75.466 11.113 74.075 11.108 72.684 11.098 C72.036 11.097 71.388 11.096 70.721 11.095 C68.293 11.089 65.865 11.075 63.438 11.062 C60.725 11.052 60.725 11.052 47 11 C47 31.79 47 52.58 47 74 C42.71 74 38.42 74 34 74 C34 53.21 34 32.42 34 11 C23.11 11 12.22 11 1 11 C0 9 0 9 0 0 Z " fill="#282F37" transform="translate(535,305)"></path>
<path d="M0 0 C0.39 0.005 0.39 0.005 2.361 0.033 C2.802 0.038 2.802 0.038 5.032 0.065 C5.992 0.082 6.953 0.1 7.942 0.118 C8.925 0.135 9.909 0.151 10.922 0.168 C13.009 0.206 15.096 0.246 17.184 0.289 C20.368 0.352 23.552 0.394 26.737 0.435 C28.764 0.474 30.791 0.514 32.817 0.556 C33.767 0.565 34.718 0.575 35.697 0.584 C41.802 0.741 46.089 1.67 51.032 5.52 C53.353 8.633 53.296 12.331 53.212 16.102 C52.281 19.39 51.448 21.222 48.634 23.226 C42.894 26.328 38.031 26.634 31.587 26.493 C30.599 26.487 29.612 26.482 28.594 26.476 C25.466 26.454 22.339 26.404 19.212 26.352 C17.08 26.332 14.949 26.314 12.817 26.298 C7.615 26.254 2.413 26.187 -2.788 26.102 C-2.817 21.957 -2.835 17.811 -2.851 13.665 C-2.859 12.481 -2.868 11.297 -2.876 10.077 C-2.879 8.952 -2.883 7.828 -2.886 6.669 C-2.891 5.627 -2.896 4.585 -2.902 3.511 C-2.744 0.157 -2.744 0.157 0 0 Z " fill="#FFFFFF" transform="translate(771.7882537841797,314.89752197265625)"></path>
<path d="M0 0 C3.96 0 7.92 0 12 0 C13 1 13 1 13.12 3.892 C13.119 4.539 13.119 4.539 13.114 7.815 C13.114 8.527 13.114 9.239 13.114 9.973 C13.113 12.337 13.105 14.702 13.098 17.066 C13.096 18.702 13.094 20.337 13.093 21.972 C13.09 26.284 13.08 30.597 13.069 34.909 C13.058 39.306 13.054 43.703 13.049 48.1 C13.038 56.733 13.021 65.367 13 74 C8.71 74 4.42 74 0 74 C0 49.58 0 25.16 0 0 Z " fill="#282F37" transform="translate(357,413)"></path>
<path d="M0 0 C3.96 0 7.92 0 12 0 C12 24.42 12 48.84 12 74 C8.04 74 4.08 74 0 74 C0 49.58 0 25.16 0 0 Z " fill="#282F37" transform="translate(602,413)"></path>
<path d="M0 0 C3.96 0 7.92 0 12 0 C12 24.42 12 48.84 12 74 C8.04 74 4.08 74 0 74 C0 49.58 0 25.16 0 0 Z " fill="#282F37" transform="translate(166,305)"></path>
<path d="M0 0 C3.387 3.062 5.358 6.149 7.453 10.191 C7.758 10.778 8.063 11.364 8.378 11.969 C9.017 13.201 9.652 14.436 10.283 15.673 C11.251 17.565 12.234 19.45 13.219 21.334 C13.839 22.536 14.459 23.738 15.078 24.941 C15.639 26.031 16.2 27.121 16.778 28.244 C18 31 18 31 18 34 C6.45 34 -5.1 34 -17 34 C-16.158 29.791 -15.351 27.374 -13.418 23.691 C-12.898 22.697 -12.378 21.702 -11.842 20.678 C-11.296 19.65 -10.75 18.622 -10.188 17.562 C-9.653 16.538 -9.119 15.514 -8.568 14.459 C-5.936 9.457 -3.269 4.614 0 0 Z " fill="#FFFFFF" transform="translate(186,425)"></path>
<path d="M0 0 C0.66 0 1.32 0 2 0 C2.272 0.548 2.543 1.097 2.823 1.661 C4.088 4.213 5.356 6.763 6.625 9.312 C7.079 10.226 7.533 11.139 8.001 12.08 C10.867 17.814 13.825 23.456 17.039 29.004 C18 31 18 31 18 34 C6.45 34 -5.1 34 -17 34 C-16.066 29.331 -14.888 26.548 -12.656 22.422 C-12.327 21.81 -11.998 21.198 -11.659 20.567 C-10.966 19.281 -10.27 17.997 -9.571 16.715 C-8.498 14.746 -7.434 12.772 -6.371 10.797 C-1.174 1.174 -1.174 1.174 0 0 Z " fill="#FFFFFF" transform="translate(442,425)"></path>
<path d="M0 0 C2.831 2.491 4.318 5.212 6.031 8.551 C6.595 9.642 7.158 10.733 7.738 11.857 C8.32 12.998 8.901 14.138 9.5 15.312 C9.791 15.877 9.791 15.877 11.262 18.732 C13.872 23.807 16.448 28.896 19 34 C7.12 34 -4.76 34 -17 34 C-15.483 29.45 -13.965 25.741 -11.777 21.543 C-11.625 21.249 -11.625 21.249 -10.851 19.76 C-10.211 18.528 -9.568 17.297 -8.923 16.067 C-7.932 14.178 -6.949 12.286 -5.967 10.393 C-1.153 1.153 -1.153 1.153 0 0 Z " fill="#FFFFFF" transform="translate(483,316)"></path>
</svg>