<?xml version="1.0" encoding="UTF-8"?>

<svg version="1.1" xmlns="http://www.w3.org/2000/svg" width="1368" height="479">
<path d="M0 0 C0.376 -0.005 0.376 -0.005 2.279 -0.03 C40.128 -0.423 78.1 7.24 107.996 32.238 C108.001 31.948 108.001 31.948 108.024 30.482 C108.078 27.837 108.162 25.194 108.246 22.551 C108.26 21.639 108.274 20.727 108.289 19.787 C108.445 15.508 108.609 12.88 110.855 9.156 C114.668 5.74 118.215 6.103 123.142 6.077 C123.504 6.075 123.504 6.075 125.336 6.062 C127.73 6.047 130.125 6.041 132.52 6.035 C134.185 6.029 135.85 6.024 137.515 6.018 C141.007 6.007 144.499 6.002 147.991 5.998 C152.462 5.993 156.933 5.969 161.405 5.94 C164.845 5.921 168.285 5.916 171.725 5.915 C173.373 5.912 175.021 5.904 176.669 5.891 C178.977 5.873 181.284 5.875 183.591 5.882 C184.247 5.88 184.247 5.88 187.568 5.871 C191.244 6.265 193.088 6.999 195.996 9.238 C198.265 12.641 198.248 13.817 198.253 17.81 C198.26 18.976 198.266 20.142 198.273 21.344 C198.271 21.988 198.271 21.988 198.264 25.245 C198.267 26.622 198.272 27.999 198.277 29.375 C198.29 33.167 198.289 36.959 198.287 40.751 C198.286 44.837 198.297 48.922 198.307 53.008 C198.324 61.017 198.329 69.025 198.33 77.034 C198.331 83.541 198.335 90.049 198.342 96.557 C198.359 114.997 198.368 133.436 198.367 151.876 C198.367 152.871 198.367 153.865 198.367 154.89 C198.367 155.886 198.367 156.882 198.366 157.908 C198.366 174.051 198.385 190.195 198.413 206.338 C198.442 222.903 198.456 239.468 198.454 256.033 C198.453 265.337 198.459 274.642 198.48 283.946 C198.498 291.867 198.503 299.789 198.489 307.71 C198.483 311.753 198.483 315.796 198.5 319.839 C198.515 323.539 198.513 327.239 198.495 330.939 C198.491 332.914 198.506 334.89 198.522 336.865 C198.513 338.037 198.503 339.208 198.494 340.415 C198.494 340.921 198.494 340.921 198.495 343.479 C197.853 347.031 196.538 348.714 193.996 351.238 C191.18 351.733 188.967 351.904 186.154 351.854 C185.368 351.859 184.582 351.865 183.773 351.87 C181.179 351.882 178.586 351.858 175.992 351.832 C174.189 351.83 172.386 351.83 170.583 351.832 C166.806 351.831 163.029 351.812 159.252 351.78 C154.407 351.741 149.563 351.736 144.719 351.744 C140.996 351.747 137.274 351.735 133.552 351.718 C131.765 351.711 129.979 351.707 128.192 351.708 C125.697 351.707 123.203 351.685 120.709 351.658 C119.968 351.661 119.228 351.664 118.465 351.667 C113.469 351.584 113.469 351.584 111.077 349.837 C109.153 346.991 108.83 345.068 108.68 341.668 C108.638 340.772 108.596 339.876 108.553 338.953 C108.513 338.016 108.474 337.079 108.434 336.113 C108.39 335.168 108.347 334.224 108.303 333.25 C108.197 330.913 108.094 328.576 107.996 326.238 C107.304 326.784 106.612 327.329 105.898 327.891 C74.515 352.08 36.29 362.983 -3.217 358.414 C-48.106 352.566 -90.034 331.692 -118.257 295.638 C-149.309 254.752 -162.349 204.239 -155.816 153.301 C-150.648 117.167 -136.698 81.366 -111.254 54.609 C-109.316 52.568 -107.534 50.478 -105.754 48.301 C-80.614 19.578 -37.952 0.409 0 0 Z " fill="#3D3D3D" transform="translate(1147.00390625,104.76171875)"></path>
<path d="M0 0 C6.295 5.714 11.76 11.818 16.925 18.583 C17.651 19.493 18.377 20.403 19.125 21.341 C38.902 46.676 50.737 77.818 54.925 109.583 C55.019 110.285 55.112 110.986 55.209 111.708 C56.07 119.018 56.111 126.33 56.111 133.68 C56.113 135.843 56.131 138.006 56.15 140.169 C56.153 141.562 56.155 142.956 56.156 144.349 C56.16 145.594 56.164 146.84 56.168 148.123 C55.839 152.815 55.026 156.31 51.925 159.896 C47.901 163.292 44.029 162.72 38.991 162.704 C38.523 162.704 38.523 162.704 36.152 162.706 C32.994 162.708 29.835 162.702 26.677 162.697 C24.42 162.696 22.164 162.697 19.907 162.697 C13.765 162.698 7.623 162.692 1.481 162.685 C-4.932 162.678 -11.345 162.678 -17.758 162.677 C-28.527 162.674 -39.296 162.668 -50.065 162.659 C-61.158 162.65 -72.252 162.642 -83.345 162.638 C-84.029 162.638 -84.712 162.638 -85.416 162.637 C-88.845 162.636 -92.274 162.635 -95.703 162.634 C-124.16 162.623 -152.617 162.606 -181.075 162.583 C-180.461 165.441 -179.842 168.298 -179.219 171.154 C-179.048 171.954 -178.876 172.755 -178.7 173.581 C-174.151 194.348 -162.892 213.504 -145.075 225.583 C-121.685 240.49 -95.316 245.623 -67.95 239.958 C-47.086 235.155 -27.518 224.486 -12.391 209.333 C-9.508 207.155 -7.681 206.658 -4.075 206.583 C1.314 208.569 4.054 213.443 7.238 217.958 C8.473 219.674 9.71 221.389 10.949 223.103 C11.594 223.998 12.24 224.894 12.905 225.816 C16.947 231.352 21.147 236.77 25.331 242.2 C28.548 246.394 31.73 250.614 34.835 254.892 C35.405 255.672 35.975 256.453 36.562 257.257 C38.04 259.779 38.651 261.68 38.925 264.583 C33.054 276.886 17.96 284.561 6.925 291.583 C5.906 292.245 4.886 292.906 3.835 293.587 C-17.664 306.882 -43.176 314.183 -68.075 317.583 C-68.715 317.677 -69.355 317.77 -70.014 317.867 C-77.322 318.826 -84.654 318.785 -92.012 318.771 C-92.703 318.769 -93.394 318.768 -94.106 318.767 C-125.85 318.656 -156.036 311.638 -184.075 296.583 C-184.377 296.425 -184.377 296.425 -185.906 295.623 C-202.589 286.842 -218.23 274.28 -230.075 259.583 C-230.844 258.64 -231.614 257.696 -232.407 256.724 C-264.108 217.153 -275.748 165.24 -270.252 115.353 C-265.92 81.756 -254.48 48.234 -233.075 21.583 C-232.854 21.307 -232.854 21.307 -231.735 19.906 C-206.341 -11.591 -173.654 -30.61 -134.075 -38.417 C-132.853 -38.663 -131.631 -38.909 -130.372 -39.163 C-82.997 -47.004 -35.471 -31.504 0 0 Z " fill="#3D3D3D" transform="translate(607.07470703125,144.416748046875)"></path>
<path d="M0 0 C0.391 -0.003 0.391 -0.003 2.371 -0.02 C4.965 -0.04 7.56 -0.051 10.155 -0.061 C11.041 -0.065 11.926 -0.069 12.839 -0.074 C17.526 -0.094 22.213 -0.109 26.9 -0.118 C31.742 -0.129 36.584 -0.164 41.426 -0.203 C45.149 -0.229 48.871 -0.238 52.593 -0.241 C54.378 -0.246 56.163 -0.258 57.948 -0.276 C60.448 -0.301 62.946 -0.3 65.445 -0.293 C66.182 -0.306 66.918 -0.319 67.676 -0.332 C71.266 -0.295 73.285 0.094 76.352 2.019 C80.19 6.031 79.553 10.462 79.53 15.688 C79.53 16.556 79.531 17.425 79.531 18.319 C79.53 21.192 79.522 24.066 79.514 26.939 C79.513 28.93 79.511 30.921 79.51 32.912 C79.506 38.155 79.496 43.397 79.485 48.64 C79.475 53.989 79.471 59.338 79.466 64.687 C79.455 75.184 79.438 85.68 79.417 96.177 C80.636 96.168 81.854 96.159 83.11 96.15 C94.588 96.069 106.065 96.009 117.542 95.97 C123.443 95.949 129.344 95.921 135.245 95.875 C140.938 95.832 146.63 95.808 152.323 95.797 C154.497 95.79 156.671 95.776 158.845 95.754 C161.886 95.725 164.926 95.721 167.967 95.723 C168.869 95.709 169.771 95.694 170.7 95.679 C174.461 95.704 176.737 95.754 179.975 97.768 C181.932 101.038 181.925 103.371 181.934 107.177 C181.938 107.525 181.938 107.525 181.956 109.287 C181.973 111.584 181.962 113.88 181.948 116.177 C181.951 117.776 181.955 119.375 181.96 120.974 C181.965 124.323 181.957 127.672 181.938 131.021 C181.915 135.312 181.929 139.602 181.953 143.893 C181.967 147.194 181.962 150.495 181.952 153.796 C181.949 155.378 181.953 156.96 181.962 158.542 C181.972 160.754 181.957 162.965 181.934 165.177 C181.931 166.435 181.928 167.693 181.925 168.99 C181.417 172.177 181.417 172.177 179.975 174.586 C176.068 177.015 172.48 176.703 167.967 176.631 C167.01 176.632 166.054 176.632 165.068 176.633 C161.908 176.63 158.749 176.599 155.589 176.568 C153.397 176.56 151.206 176.554 149.014 176.55 C143.247 176.535 137.48 176.496 131.713 176.452 C125.828 176.411 119.943 176.392 114.057 176.372 C102.51 176.329 90.964 176.261 79.417 176.177 C79.477 194.58 79.555 212.983 79.652 231.386 C79.697 239.932 79.737 248.478 79.763 257.025 C79.786 264.479 79.82 271.934 79.865 279.388 C79.889 283.33 79.908 287.272 79.914 291.214 C79.92 294.935 79.941 298.657 79.971 302.378 C79.984 304.372 79.982 306.366 79.98 308.36 C80.137 323.693 82.865 338.698 93.792 350.115 C107.189 362.444 123.538 364.896 141.179 364.313 C149.752 363.791 157.366 361.093 164.979 357.263 C169.155 355.403 171.358 354.9 175.874 356.083 C180.55 358.327 182.585 362.323 185.104 366.677 C186.148 368.404 187.192 370.13 188.237 371.857 C188.763 372.741 189.29 373.625 189.832 374.535 C192.312 378.668 194.897 382.733 197.479 386.802 C197.968 387.582 198.458 388.361 198.962 389.165 C201.441 393.109 203.964 397.013 206.581 400.868 C207.089 401.625 207.596 402.381 208.12 403.161 C209.077 404.581 210.045 405.994 211.028 407.396 C214.152 412.055 215.185 415.55 215.417 421.177 C214.207 426.115 211.489 428.04 207.417 430.74 C171.227 452.264 121.857 453.145 81.867 443.177 C49.903 434.698 21.703 417.329 4.627 388.304 C-13.666 355.37 -13.935 317.151 -13.786 280.482 C-13.773 276.796 -13.772 273.11 -13.77 269.424 C-13.764 262.49 -13.748 255.557 -13.727 248.623 C-13.705 240.71 -13.694 232.796 -13.684 224.883 C-13.663 208.648 -13.628 192.412 -13.583 176.177 C-14.286 176.188 -14.989 176.199 -15.714 176.211 C-22.349 176.311 -28.984 176.387 -35.62 176.436 C-39.031 176.462 -42.442 176.497 -45.853 176.554 C-49.777 176.619 -53.701 176.643 -57.626 176.665 C-58.847 176.691 -60.068 176.717 -61.326 176.743 C-69.696 176.746 -69.696 176.746 -73.853 174.079 C-75.963 170.54 -76.217 168.376 -76.23 164.263 C-76.239 163.587 -76.248 162.912 -76.257 162.216 C-76.279 159.994 -76.264 157.774 -76.247 155.552 C-76.251 154.002 -76.256 152.451 -76.262 150.901 C-76.269 147.656 -76.259 144.412 -76.235 141.167 C-76.207 137.014 -76.223 132.862 -76.253 128.709 C-76.271 125.509 -76.265 122.309 -76.252 119.109 C-76.249 117.578 -76.253 116.047 -76.265 114.517 C-76.277 112.374 -76.258 110.234 -76.23 108.091 C-76.226 106.874 -76.222 105.656 -76.218 104.402 C-75.39 100.196 -73.994 98.719 -70.583 96.177 C-67.818 95.576 -67.818 95.576 -64.783 95.609 C-63.642 95.61 -62.502 95.61 -61.326 95.611 C-60.716 95.623 -60.716 95.623 -57.626 95.689 C-56.368 95.696 -55.11 95.703 -53.814 95.71 C-50.481 95.733 -47.149 95.778 -43.817 95.834 C-40.412 95.885 -37.006 95.908 -33.601 95.933 C-26.928 95.988 -20.256 96.072 -13.583 96.177 C-13.592 95.061 -13.601 93.944 -13.61 92.794 C-13.691 82.273 -13.751 71.753 -13.791 61.232 C-13.811 55.824 -13.84 50.415 -13.885 45.006 C-13.928 39.787 -13.952 34.567 -13.963 29.348 C-13.97 27.356 -13.985 25.365 -14.006 23.373 C-14.035 20.584 -14.039 17.796 -14.037 15.006 C-14.052 14.183 -14.066 13.359 -14.081 12.511 C-14.052 8.53 -13.872 6.631 -11.68 3.188 C-8.01 -0.332 -4.845 0.018 0 0 Z " fill="#3D3D3D" transform="translate(140.583251953125,14.822998046875)"></path>
<path d="M0 0 C2.726 3.251 2.753 5.248 2.765 9.428 C2.771 10.595 2.777 11.762 2.783 12.965 C2.783 13.608 2.783 13.608 2.786 16.866 C2.791 18.232 2.796 19.597 2.801 20.962 C2.814 24.682 2.821 28.402 2.825 32.123 C2.828 34.455 2.832 36.787 2.837 39.119 C2.85 46.438 2.86 53.757 2.864 61.075 C2.868 69.48 2.886 77.884 2.915 86.288 C2.937 92.805 2.947 99.323 2.948 105.84 C2.949 109.72 2.955 113.6 2.973 117.48 C3.067 138.861 2.095 159.415 -3.438 180.188 C-3.733 181.308 -4.028 182.429 -4.332 183.583 C-11.961 211.354 -24.745 237.204 -42.375 259.938 C-43.189 260.998 -44.003 262.059 -44.816 263.121 C-46.913 265.856 -49.016 268.586 -51.122 271.314 C-57.059 279.007 -62.974 286.717 -68.875 294.438 C-73.571 300.583 -78.277 306.72 -82.996 312.848 C-84.573 314.896 -86.149 316.945 -87.723 318.996 C-92.711 325.493 -97.723 331.971 -102.75 338.438 C-103.345 339.203 -103.94 339.969 -104.554 340.759 C-105.668 342.191 -106.785 343.622 -107.903 345.052 C-109.156 346.658 -110.4 348.271 -111.641 349.887 C-114.432 353.187 -117.124 353.778 -121.312 354.312 C-126.33 353.698 -129.17 351.248 -132.524 347.6 C-135.686 342.638 -134.913 336.632 -134.861 330.966 C-134.865 329.658 -134.868 328.349 -134.872 327.002 C-134.882 323.42 -134.867 319.839 -134.846 316.258 C-134.829 312.49 -134.832 308.723 -134.833 304.956 C-134.831 298.618 -134.814 292.279 -134.787 285.941 C-134.755 278.658 -134.745 271.375 -134.746 264.091 C-134.747 256.293 -134.733 248.495 -134.715 240.697 C-134.711 238.474 -134.71 236.252 -134.709 234.029 C-134.696 215.129 -134.435 196.536 -130.312 178 C-130.105 177.059 -129.897 176.118 -129.683 175.148 C-122.827 145.624 -111.172 116.909 -92.375 92.938 C-91.963 92.409 -91.551 91.88 -91.126 91.335 C-88.815 88.372 -86.492 85.419 -84.16 82.473 C-81.553 79.173 -78.99 75.841 -76.438 72.5 C-72.858 67.82 -69.198 63.211 -65.5 58.625 C-60.805 52.796 -56.277 46.86 -51.81 40.855 C-48.078 35.849 -44.258 30.922 -40.385 26.024 C-37.286 22.104 -34.226 18.155 -31.188 14.188 C-28.121 10.195 -25.049 6.207 -21.938 2.25 C-21.32 1.462 -20.703 0.675 -20.066 -0.137 C-17.836 -2.676 -15.863 -3.918 -12.625 -4.875 C-7.465 -5.173 -3.857 -3.349 0 0 Z " fill="#494949" transform="translate(966.375,109.0625)"></path>
<path d="M0 0 C6.095 3.483 9.734 9.773 13.801 15.366 C15.722 17.984 17.705 20.553 19.688 23.125 C19.89 23.388 19.89 23.388 20.917 24.721 C25.2 30.273 29.511 35.805 33.82 41.337 C37.292 45.797 40.749 50.266 44.188 54.75 C48.053 59.786 51.966 64.784 55.895 69.771 C59.376 74.193 62.82 78.641 66.233 83.116 C68.343 85.877 70.481 88.605 72.684 91.293 C103.49 129.072 119.069 178.226 119.177 226.66 C119.184 227.969 119.19 229.277 119.197 230.626 C119.218 234.915 119.228 239.203 119.238 243.492 C119.242 244.978 119.246 246.464 119.251 247.949 C119.27 254.921 119.284 261.892 119.292 268.863 C119.302 276.885 119.328 284.908 119.369 292.931 C119.399 299.155 119.414 305.38 119.417 311.604 C119.419 315.313 119.428 319.022 119.453 322.731 C119.481 326.86 119.477 330.988 119.47 335.117 C119.476 335.728 119.476 335.728 119.509 338.82 C119.47 345.171 119.373 349.226 115 354 C111.739 356.754 109.736 357.895 105.5 358.5 C98.656 357.522 95.175 353.357 91.156 348.113 C90.589 347.354 90.022 346.595 89.438 345.812 C89.134 345.414 89.134 345.414 87.598 343.398 C86.338 341.745 85.083 340.088 83.832 338.428 C81.598 335.467 79.344 332.521 77.089 329.576 C76.026 328.188 74.965 326.799 73.905 325.409 C69.887 320.142 65.825 314.91 61.75 309.688 C57.143 303.781 52.598 297.837 48.121 291.832 C45.873 288.83 43.598 285.849 41.312 282.875 C40.906 282.346 40.5 281.817 40.081 281.272 C37.611 278.065 35.117 274.878 32.605 271.703 C1.523 232.325 -18.069 185.85 -18.177 135.124 C-18.183 133.755 -18.19 132.385 -18.197 131.016 C-18.218 126.559 -18.228 122.102 -18.238 117.645 C-18.242 116.102 -18.246 114.56 -18.251 113.018 C-18.27 105.78 -18.284 98.541 -18.292 91.303 C-18.302 82.969 -18.328 74.635 -18.369 66.301 C-18.399 59.839 -18.414 53.378 -18.417 46.917 C-18.419 43.065 -18.428 39.213 -18.453 35.362 C-18.477 31.743 -18.481 28.124 -18.471 24.505 C-18.47 22.551 -18.489 20.598 -18.509 18.644 C-18.469 11.891 -18.149 7.444 -14 2 C-9.876 -0.99 -4.875 -0.708 0 0 Z " fill="#494949" transform="translate(703,105)"></path>
<path d="M0 0 C3.456 2.884 6.765 5.871 10 9 C10.69 9.664 11.379 10.328 12.09 11.012 C29.116 28.712 36.429 54.862 36.215 78.871 C35.178 105.868 23.141 128.678 4.043 147.328 C-14.025 163.733 -37.969 169.929 -61.938 168.812 C-80.634 167.126 -97.094 160.278 -112 149 C-112.654 148.532 -113.307 148.064 -113.98 147.582 C-131.272 134.233 -140.895 110.892 -144.312 89.938 C-147.304 64.453 -142.55 36.878 -126.595 16.177 C-123.302 12.205 -119.739 8.552 -116 5 C-115.126 4.167 -114.252 3.335 -113.352 2.477 C-103.087 -6.555 -90.137 -12.459 -77 -16 C-76.602 -16.112 -76.602 -16.112 -74.59 -16.68 C-49.432 -22.501 -20.047 -16.365 0 0 Z " fill="#FFFFFF" transform="translate(1227,209)"></path>
<path d="M0 0 C12.939 10.693 21.322 22.301 25.312 38.688 C25.312 40.667 25.312 42.648 25.312 44.688 C-20.227 44.688 -65.767 44.688 -112.688 44.688 C-109.222 30.824 -105.111 21.28 -95.688 10.688 C-95.095 10 -94.502 9.313 -93.891 8.605 C-84.96 -1.07 -73.15 -7.44 -60.688 -11.312 C-59.906 -11.557 -59.125 -11.802 -58.32 -12.055 C-38.331 -17.104 -16.37 -12.214 0 0 Z " fill="#FFFFFF" transform="translate(542.6875,193.3125)"></path>
</svg>