<?xml version="1.0" encoding="UTF-8"?>

<svg version="1.1" xmlns="http://www.w3.org/2000/svg" width="1200" height="315">
<path d="M0 0 C16.5 0 33 0 50 0 C50.482 4.048 50.964 8.095 51.461 12.266 C51.851 15.525 52.241 18.785 52.632 22.045 C53.042 25.468 53.452 28.891 53.858 32.314 C54.327 36.257 54.8 40.199 55.273 44.141 C55.416 45.347 55.559 46.554 55.706 47.797 C56.604 55.238 57.699 62.619 59 70 C59.228 69.388 59.456 68.776 59.692 68.145 C64.38 55.572 69.117 43.018 73.899 30.481 C74.46 29.011 75.02 27.541 75.579 26.07 C76.379 23.968 77.181 21.867 77.984 19.766 C78.446 18.557 78.907 17.348 79.382 16.103 C81.511 10.704 83.768 5.357 86 0 C102.83 0 119.66 0 137 0 C137 48.18 137 96.36 137 146 C122.81 146 108.62 146 94 146 C93.67 122.24 93.34 98.48 93 74 C90.773 79.961 88.545 85.921 86.25 92.062 C81.516 104.699 76.764 117.327 71.905 129.916 C71.385 131.263 70.867 132.609 70.349 133.957 C69.634 135.815 68.915 137.671 68.195 139.527 C67.994 140.047 67.994 140.047 66.977 142.676 C66 145 66 145 65 146 C62.624 146.088 60.278 146.115 57.902 146.098 C57.548 146.097 57.548 146.097 55.754 146.093 C53.482 146.088 51.21 146.075 48.938 146.062 C47.4 146.057 45.863 146.053 44.326 146.049 C40.551 146.038 36.775 146.021 33 146 C31.949 137.959 30.906 129.918 29.871 121.876 C29.39 118.14 28.907 114.405 28.418 110.671 C27.946 107.06 27.479 103.448 27.017 99.836 C26.841 98.465 26.662 97.095 26.482 95.725 C25.478 88.11 24.717 80.685 25 73 C24.34 73 23.68 73 23 73 C22.954 73.516 22.954 73.516 22.723 76.126 C21.914 82.548 20.103 88.743 18.438 94.984 C18.082 96.331 17.727 97.677 17.373 99.024 C16.444 102.549 15.509 106.071 14.573 109.593 C13.62 113.18 12.674 116.768 11.727 120.355 C10.662 124.388 9.597 128.42 8.527 132.452 C8.21 133.647 7.893 134.842 7.566 136.073 C7.287 137.124 7.008 138.175 6.721 139.257 C6.131 141.501 5.563 143.75 5 146 C-10.18 146 -25.36 146 -41 146 C-39.784 139.314 -38.626 133.123 -36.645 126.711 C-36.42 125.965 -36.195 125.218 -35.964 124.449 C-35.252 122.089 -34.533 119.732 -33.812 117.375 C-32.878 114.301 -31.947 111.225 -31.02 108.148 C-30.779 107.353 -30.539 106.557 -30.292 105.737 C-28.003 98.102 -25.861 90.428 -23.724 82.749 C-20.376 70.726 -16.907 58.738 -13.438 46.75 C-12.476 43.425 -11.515 40.1 -10.554 36.775 C-9.965 34.738 -9.377 32.702 -8.787 30.666 C-5.833 20.451 -2.921 10.225 0 0 Z " fill="#3D3D3D" transform="translate(945,28)"></path>
<path d="M0 0 C15.51 0 31.02 0 47 0 C48.671 4.311 50.341 8.621 52.062 13.062 C52.347 13.797 52.347 13.797 53.789 17.515 C56.901 25.548 59.993 33.589 63.066 41.637 C64.085 44.3 65.104 46.963 66.123 49.626 C66.79 51.374 67.457 53.122 68.122 54.871 C69.06 57.337 70.002 59.802 70.945 62.266 C71.225 63.005 71.505 63.744 71.793 64.506 C72.981 67.598 74.154 70.231 76 73 C76.062 72.58 76.062 72.58 76.373 70.452 C77.534 62.521 78.696 54.591 79.86 46.661 C80.458 42.584 81.056 38.507 81.652 34.43 C82.228 30.494 82.805 26.558 83.383 22.623 C83.603 21.123 83.823 19.622 84.042 18.122 C84.35 16.018 84.659 13.914 84.969 11.81 C85.056 11.211 85.056 11.211 85.5 8.183 C85.93 5.443 86.456 2.719 87 0 C101.85 0 116.7 0 132 0 C132 5.393 131.872 9.868 131.101 15.091 C131.053 15.423 131.053 15.423 130.81 17.101 C130.492 19.284 130.166 21.466 129.84 23.648 C129.612 25.206 129.384 26.763 129.157 28.32 C128.674 31.626 128.187 34.931 127.698 38.235 C126.934 43.396 126.177 48.557 125.422 53.719 C125.297 54.575 125.172 55.431 125.043 56.313 C124.79 58.041 124.537 59.769 124.285 61.497 C123.906 64.087 123.527 66.676 123.147 69.265 C120.72 85.839 118.395 102.427 116.107 119.021 C116.042 119.492 116.042 119.492 115.712 121.875 C115.477 123.569 115.244 125.263 115.013 126.958 C114.13 133.333 113.06 139.643 112 146 C96.82 146 81.64 146 66 146 C62.215 137.169 58.475 128.342 54.875 119.438 C51.827 111.912 48.759 104.398 45.621 96.91 C45.063 95.576 44.505 94.241 43.948 92.906 C43.135 90.962 42.321 89.019 41.5 87.078 C40.742 85.283 39.99 83.485 39.238 81.688 C38.806 80.66 38.373 79.633 37.927 78.574 C37 76 37 76 37 73 C36.34 73 35.68 73 35 73 C34.949 73.851 34.898 74.702 34.845 75.579 C34.295 84.037 33.385 92.376 32.188 100.766 C32.014 102.006 31.84 103.247 31.661 104.525 C31.297 107.117 30.93 109.708 30.562 112.299 C30.089 115.621 29.623 118.943 29.16 122.265 C28.714 125.454 28.263 128.641 27.812 131.828 C27.646 133.021 27.479 134.213 27.307 135.442 C27.151 136.538 26.994 137.634 26.832 138.763 C26.695 139.729 26.558 140.695 26.417 141.69 C26 144 26 144 25 146 C10.15 146 -4.7 146 -20 146 C-19.397 139.364 -18.775 132.823 -17.836 126.242 C-17.723 125.437 -17.611 124.632 -17.495 123.803 C-17.124 121.16 -16.75 118.518 -16.375 115.875 C-16.109 113.981 -15.842 112.087 -15.576 110.193 C-13.285 93.917 -10.954 77.646 -8.622 61.375 C-5.694 40.924 -2.844 20.463 0 0 Z " fill="#3D3D3D" transform="translate(273,28)"></path>
<path d="M0 0 C2.69 2.366 3.936 4.678 5.348 7.953 C5.565 8.453 5.565 8.453 6.666 10.981 C6.896 11.521 6.896 11.521 8.062 14.25 C8.306 14.812 8.306 14.812 9.538 17.654 C10.545 19.98 11.55 22.308 12.552 24.637 C14.25 28.581 15.966 32.518 17.683 36.453 C19.337 40.246 20.982 44.043 22.628 47.839 C23.857 50.671 25.088 53.502 26.319 56.333 C65.364 146.118 65.364 146.118 54.781 174.238 C48.107 188.533 36.7 200.913 22 207 C5.661 211.74 -10.736 211.169 -26.375 204.312 C-40.479 196.373 -50.713 182.349 -55.203 167.148 C-61.823 140.993 -50.695 116.377 -40.279 92.9 C-38.335 88.492 -36.449 84.058 -34.562 79.625 C-30.804 70.821 -26.954 62.059 -23.088 53.302 C-19.799 45.841 -16.564 38.358 -13.364 30.859 C-8.961 20.55 -4.48 10.275 0 0 Z " fill="#3D3D3D" transform="translate(102,93)"></path>
<path d="M0 0 C0.939 0.02 1.879 0.04 2.846 0.061 C3.907 0.081 4.968 0.101 6.062 0.121 C7.216 0.148 8.37 0.176 9.559 0.203 C10.734 0.227 11.909 0.251 13.12 0.275 C16.89 0.352 20.66 0.436 24.43 0.52 C26.979 0.573 29.528 0.626 32.077 0.678 C38.34 0.807 44.604 0.943 50.868 1.082 C55.343 33.841 59.758 66.608 64.118 99.383 C64.618 103.145 65.119 106.906 65.622 110.667 C66.22 115.142 66.815 119.618 67.409 124.094 C67.629 125.757 67.851 127.421 68.074 129.085 C68.38 131.371 68.683 133.658 68.985 135.945 C69.156 137.233 69.327 138.521 69.504 139.847 C69.868 143.082 69.868 143.082 69.868 147.082 C54.028 147.082 38.188 147.082 21.868 147.082 C20.868 141.082 20.868 141.082 20.868 129.082 C7.998 129.412 -4.872 129.742 -18.132 130.082 C-20.112 135.362 -22.092 140.642 -24.132 146.082 C-25.132 147.082 -25.132 147.082 -27.151 147.203 C-28.037 147.2 -28.923 147.198 -29.836 147.196 C-30.837 147.196 -31.838 147.196 -32.869 147.196 C-33.957 147.19 -35.046 147.185 -36.167 147.18 C-37.276 147.179 -38.384 147.177 -39.526 147.176 C-43.082 147.17 -46.639 147.157 -50.195 147.145 C-52.599 147.14 -55.003 147.135 -57.408 147.131 C-63.316 147.12 -69.224 147.103 -75.132 147.082 C-73.816 142.866 -72.216 139.001 -70.241 135.053 C-69.954 134.476 -69.667 133.9 -69.372 133.307 C-68.417 131.391 -67.456 129.478 -66.495 127.565 C-65.807 126.187 -65.118 124.808 -64.43 123.43 C-62.566 119.697 -60.697 115.967 -58.827 112.237 C-56.871 108.333 -54.92 104.428 -52.967 100.523 C-49.691 93.971 -46.411 87.42 -43.129 80.87 C-39.331 73.29 -35.537 65.707 -31.746 58.123 C-28.1 50.831 -24.452 43.54 -20.802 36.249 C-19.248 33.144 -17.694 30.038 -16.141 26.932 C-14.315 23.281 -12.487 19.631 -10.657 15.982 C-9.984 14.639 -9.312 13.297 -8.641 11.953 C-7.728 10.127 -6.812 8.302 -5.897 6.477 C-5.64 5.965 -5.64 5.965 -4.343 3.375 C-2.614 0.101 -2.614 0.101 0 0 Z " fill="#3D3D3D" transform="translate(662.1323394775391,26.917709350585938)"></path>
<path d="M0 0 C29.04 0 58.08 0 88 0 C85.701 20.694 85.701 20.694 84.375 29.625 C83.921 32.719 83.467 35.812 83 39 C69.47 39 55.94 39 42 39 C41.67 42.96 41.34 46.92 41 51 C40.67 51.99 40.34 52.98 40 54 C52.21 54 64.42 54 77 54 C76.546 57.671 76.092 61.343 75.625 65.125 C75.487 66.251 75.348 67.376 75.206 68.536 C74.231 76.375 73.118 84.176 72 92 C59.79 92.33 47.58 92.66 35 93 C34.34 97.29 33.68 101.58 33 106 C46.2 106 59.4 106 73 106 C71.593 119.363 69.9 132.698 68 146 C38.63 146 9.26 146 -21 146 C-18.707 125.36 -18.707 125.36 -17.633 118.328 C-17.513 117.526 -17.394 116.724 -17.271 115.898 C-17.02 114.213 -16.768 112.527 -16.515 110.842 C-15.835 106.322 -15.167 101.8 -14.5 97.277 C-14.368 96.381 -14.235 95.485 -14.099 94.561 C-13.036 87.321 -12.062 80.07 -11.125 72.812 C-9.194 57.954 -7 43.135 -4.812 28.312 C-4.632 27.083 -4.451 25.854 -4.265 24.587 C-3.749 21.075 -3.229 17.563 -2.707 14.051 C-2.55 12.98 -2.393 11.91 -2.231 10.807 C-2.084 9.822 -1.936 8.837 -1.784 7.822 C-1.657 6.959 -1.529 6.097 -1.397 5.209 C-1 3 -1 3 0 0 Z " fill="#3D3D3D" transform="translate(421,28)"></path>
<path d="M0 0 C29.37 0 58.74 0 89 0 C88.01 6.435 88.01 6.435 83 39 C69.47 39 55.94 39 42 39 C41.67 42.63 41.34 46.26 41 50 C40.67 51.32 40.34 52.64 40 54 C52.21 54 64.42 54 77 54 C75.875 68.625 75.875 68.625 75.027 73.738 C74.867 74.721 74.707 75.704 74.543 76.716 C74.343 77.903 74.143 79.09 73.938 80.312 C73.618 82.241 73.618 82.241 72 92 C59.79 92 47.58 92 35 92 C34.506 95.563 34.013 99.126 33.504 102.797 C33.025 106.246 32.544 109.694 32.064 113.143 C31.731 115.54 31.398 117.938 31.066 120.336 C30.589 123.782 30.109 127.227 29.629 130.672 C29.481 131.745 29.333 132.818 29.181 133.924 C29.04 134.924 28.9 135.925 28.756 136.956 C28.634 137.835 28.512 138.715 28.386 139.621 C28.038 141.769 27.528 143.889 27 146 C11.16 146 -4.68 146 -21 146 C-20.406 139.467 -19.805 133.056 -18.833 126.589 C-18.72 125.824 -18.608 125.06 -18.492 124.272 C-18.125 121.78 -17.754 119.289 -17.383 116.797 C-17.122 115.029 -16.862 113.262 -16.602 111.494 C-15.918 106.853 -15.231 102.213 -14.543 97.573 C-13.319 89.315 -12.099 81.056 -10.883 72.797 C-10.753 71.915 -10.623 71.032 -10.489 70.124 C-8.632 57.507 -6.89 44.881 -5.288 32.229 C-4.555 26.559 -3.717 20.905 -2.875 15.25 C-2.706 14.091 -2.537 12.932 -2.363 11.738 C-2.2 10.634 -2.036 9.529 -1.867 8.391 C-1.724 7.422 -1.581 6.453 -1.433 5.454 C-1 3 -1 3 0 0 Z " fill="#3D3D3D" transform="translate(764,28)"></path>
<path d="M0 0 C33.33 0 66.66 0 101 0 C100.01 6.6 100.01 6.6 95 40 C76.429 40 76.429 40 69 39 C68.83 40.216 68.66 41.432 68.484 42.685 C63.666 77.125 58.835 111.563 54 146 C38.16 146 22.32 146 6 146 C8.316 126.316 8.316 126.316 9.262 119.332 C9.373 118.503 9.485 117.674 9.6 116.821 C9.96 114.151 10.323 111.482 10.688 108.812 C10.813 107.887 10.939 106.962 11.069 106.009 C14.118 83.633 17.534 61.314 21 39 C20.702 39.036 20.702 39.036 19.193 39.215 C11.308 40.128 11.308 40.128 7.402 40.098 C7.033 40.096 7.033 40.096 5.166 40.088 C4.798 40.084 4.798 40.084 2.938 40.062 C2.167 40.058 1.397 40.053 0.604 40.049 C-1.264 40.037 -3.132 40.019 -5 40 C-4.514 31.414 -3.557 22.907 -2.5 14.375 C-2.369 13.308 -2.239 12.24 -2.104 11.141 C-1.977 10.133 -1.85 9.125 -1.719 8.086 C-1.662 7.632 -1.662 7.632 -1.373 5.337 C-1 3 -1 3 0 0 Z " fill="#3D3D3D" transform="translate(522,28)"></path>
<path d="M0 0 C0.833 0.002 1.665 0.004 2.523 0.007 C3.464 0.007 4.405 0.007 5.375 0.007 C6.398 0.012 7.42 0.017 8.474 0.023 C9.516 0.024 10.558 0.025 11.631 0.027 C14.974 0.033 18.316 0.045 21.658 0.058 C23.918 0.063 26.177 0.067 28.437 0.071 C33.99 0.082 39.543 0.099 45.095 0.12 C44.517 9.204 43.483 18.144 42.135 27.144 C41.842 29.137 41.55 31.13 41.257 33.123 C40.851 35.887 40.44 38.65 40.03 41.413 C39.121 47.531 38.221 53.65 37.322 59.769 C37.224 60.433 37.126 61.098 37.026 61.783 C35.656 71.099 34.377 80.422 33.185 89.763 C31.737 101.048 30.065 112.301 28.408 123.558 C27.315 131.003 26.222 138.449 25.095 146.12 C9.255 146.12 -6.585 146.12 -22.905 146.12 C-22.252 136.99 -21.468 128.172 -20.084 119.167 C-19.905 117.968 -19.725 116.769 -19.54 115.533 C-19.058 112.311 -18.571 109.09 -18.082 105.869 C-17.258 100.423 -16.448 94.975 -15.636 89.527 C-15.429 88.142 -15.223 86.757 -15.016 85.371 C-12.638 69.45 -10.404 53.509 -8.201 37.563 C-6.92 28.298 -5.625 19.035 -4.272 9.78 C-4.21 9.351 -4.21 9.351 -3.9 7.176 C-2.864 0.181 -2.864 0.181 0 0 Z " fill="#3D3D3D" transform="translate(868.9045562744141,27.879745483398438)"></path>
<path d="M0 0 C2.801 1.4 3.024 2.995 4.215 5.871 C4.648 6.907 5.081 7.943 5.528 9.01 C5.993 10.141 6.458 11.272 6.938 12.438 C7.935 14.83 8.932 17.221 9.93 19.613 C10.445 20.855 10.96 22.097 11.476 23.338 C13.363 27.871 15.278 32.391 17.198 36.91 C19.017 41.196 20.827 45.485 22.637 49.774 C23.558 51.954 24.481 54.133 25.406 56.312 C26.775 59.539 28.138 62.769 29.5 66 C29.909 66.961 30.319 67.921 30.74 68.911 C34.397 77.621 37.58 85.887 37.438 95.438 C37.429 96.169 37.421 96.901 37.412 97.654 C37.031 109.993 31.537 118.964 22.688 127.312 C15.638 132.965 6.952 135.306 -2 135 C-9.817 133.868 -16.367 131.237 -23 127 C-23 126.34 -23 125.68 -23 125 C-23.298 124.878 -23.298 124.878 -24.809 124.258 C-30.129 121.204 -33.579 113.987 -35.465 108.273 C-41.298 83.492 -26.018 58.858 -16.406 36.832 C-14.091 31.527 -11.801 26.212 -9.531 20.887 C-9.253 20.235 -8.975 19.583 -8.689 18.911 C-7.354 15.782 -6.023 12.651 -4.694 9.52 C-4.459 8.967 -4.459 8.967 -3.266 6.168 C-2.851 5.191 -2.436 4.214 -2.009 3.208 C-1 1 -1 1 0 0 Z " fill="#3D3D3D" transform="translate(179,13)"></path>
<path d="M0 0 C1.525 0.089 3.047 0.245 4.562 0.438 C4.976 0.488 4.976 0.488 7.066 0.746 C7.704 0.83 8.343 0.914 9 1 C9.84 2.935 10.672 4.873 11.5 6.812 C11.964 7.891 12.428 8.97 12.906 10.082 C14 13 14 13 14 16 C14.66 16 15.32 16 16 16 C16.182 15.348 16.364 14.695 16.551 14.023 C17.975 9.073 19.494 4.535 22 0 C24.97 0 27.94 0 31 0 C31 9.24 31 18.48 31 28 C29.02 28 27.04 28 25 28 C24.971 24.875 24.953 21.75 24.938 18.625 C24.929 17.736 24.921 16.846 24.912 15.93 C24.909 15.079 24.906 14.228 24.902 13.352 C24.9 12.959 24.9 12.959 24.886 10.971 C25 9 25 9 26 7 C25.34 7 24.68 7 24 7 C23.898 7.828 23.796 8.655 23.691 9.508 C22.891 13.553 21.521 17.084 19.938 20.875 C19.656 21.563 19.374 22.252 19.084 22.961 C18.395 24.643 17.698 26.322 17 28 C15.12 27.766 15.12 27.766 13 27 C11.903 25.142 11.903 25.142 11.078 22.746 C10.804 21.977 10.53 21.208 10.247 20.416 C9.918 19.433 9.589 18.45 9.25 17.438 C8.178 14.323 7.105 11.209 6 8 C5.67 14.6 5.34 21.2 5 28 C3.02 28 1.04 28 -1 28 C-1.029 23.521 -1.047 19.042 -1.062 14.562 C-1.071 13.283 -1.079 12.004 -1.088 10.686 C-1.091 9.471 -1.094 8.256 -1.098 7.004 C-1.103 5.878 -1.108 4.752 -1.114 3.592 C-1 1 -1 1 0 0 Z " fill="#3D3D3D" transform="translate(1124,27)"></path>
<path d="M0 0 C0.66 0 1.32 0 2 0 C2.927 4.9 3.313 9.718 3.562 14.688 C3.605 15.504 3.647 16.32 3.691 17.161 C4.116 26.112 4.067 35.04 4 44 C-2.93 44 -9.86 44 -17 44 C-16.113 39.563 -14.825 35.673 -13.164 31.504 C-12.884 30.793 -12.604 30.082 -12.316 29.349 C-11.724 27.85 -11.131 26.351 -10.535 24.853 C-9.63 22.575 -8.733 20.295 -7.836 18.014 C-7.258 16.552 -6.68 15.09 -6.102 13.629 C-5.836 12.954 -5.57 12.279 -5.296 11.583 C-3.715 7.616 -1.963 3.792 0 0 Z " fill="#FFFFFF" transform="translate(677,74)"></path>
<path d="M0 0 C7.59 0 15.18 0 23 0 C23 1.65 23 3.3 23 5 C20.36 5 17.72 5 15 5 C15 12.26 15 19.52 15 27 C12.69 27 10.38 27 8 27 C8 19.74 8 12.48 8 5 C5.36 5 2.72 5 0 5 C0 3.35 0 1.7 0 0 Z " fill="#3D3D3D" transform="translate(1097,28)"></path>
</svg>