<?xml version='1.0' encoding='utf-8'?>
<svg xmlns="http://www.w3.org/2000/svg" viewBox="160.934 270.254 95.848 88.922" width="95.848pt" height="88.922pt"><g><path style=" stroke:none;fill-rule:nonzero;fill:rgb(11.372375%,11.372375%,10.588074%);fill-opacity:1;" d="M 187.332031 347.714844 C 186.882812 347.714844 186.519531 347.347656 186.519531 346.902344 L 186.519531 333.996094 L 168.496094 319.128906 C 167.5 318.285156 166.933594 317.058594 166.933594 315.753906 C 166.933594 314.769531 167.265625 313.800781 167.875 313.027344 C 168.59375 312.121094 169.609375 311.5625 170.746094 311.441406 C 171.878906 311.328125 172.988281 311.664062 173.863281 312.398438 L 189.441406 324.761719 L 205.890625 324.753906 C 207.796875 324.753906 209.59375 325.359375 211.089844 326.515625 C 211.148438 326.5625 211.203125 326.617188 211.246094 326.675781 C 211.496094 326.996094 211.476562 327.457031 211.183594 327.753906 C 210.863281 328.070312 210.351562 328.070312 210.035156 327.753906 C 208.839844 326.851562 207.410156 326.375 205.894531 326.375 L 189.15625 326.386719 C 188.972656 326.386719 188.796875 326.324219 188.652344 326.210938 L 172.839844 313.65625 C 172.285156 313.195312 171.605469 312.984375 170.914062 313.058594 C 170.21875 313.132812 169.589844 313.476562 169.152344 314.03125 C 168.769531 314.519531 168.558594 315.132812 168.558594 315.753906 C 168.558594 316.578125 168.914062 317.355469 169.539062 317.886719 L 187.847656 332.988281 C 188.039062 333.144531 188.144531 333.371094 188.144531 333.613281 L 188.144531 346.902344 C 188.144531 347.347656 187.78125 347.714844 187.332031 347.714844 "></path>
<path style=" stroke:none;fill-rule:nonzero;fill:rgb(11.372375%,11.372375%,10.588074%);fill-opacity:1;" d="M 196.738281 303.21875 C 192.757812 303.21875 189.519531 306.503906 189.519531 310.546875 C 189.519531 314.585938 192.757812 317.871094 196.738281 317.871094 C 200.71875 317.871094 203.957031 314.585938 203.957031 310.546875 C 203.957031 306.503906 200.71875 303.21875 196.738281 303.21875 M 196.738281 319.496094 C 191.863281 319.496094 187.898438 315.480469 187.898438 310.546875 C 187.898438 305.609375 191.863281 301.59375 196.738281 301.59375 C 201.613281 301.59375 205.582031 305.609375 205.582031 310.546875 C 205.582031 315.480469 201.613281 319.496094 196.738281 319.496094 "></path>
<path style=" stroke:none;fill-rule:nonzero;fill:rgb(11.372375%,11.372375%,10.588074%);fill-opacity:1;" d="M 230.386719 353.175781 C 229.9375 353.175781 229.574219 352.8125 229.574219 352.363281 L 229.574219 341.632812 C 229.574219 341.390625 229.683594 341.160156 229.871094 341.007812 L 248.1875 325.890625 C 248.800781 325.375 249.160156 324.601562 249.160156 323.773438 C 249.160156 323.152344 248.945312 322.539062 248.5625 322.042969 C 248.128906 321.492188 247.5 321.148438 246.800781 321.074219 C 246.113281 321.003906 245.433594 321.210938 244.898438 321.660156 L 229.066406 334.226562 C 228.921875 334.339844 228.746094 334.402344 228.5625 334.402344 L 211.824219 334.390625 C 207.878906 334.390625 204.90625 337.515625 204.90625 341.65625 L 204.90625 352.363281 C 204.90625 352.8125 204.542969 353.175781 204.09375 353.175781 C 203.644531 353.175781 203.28125 352.8125 203.28125 352.363281 L 203.28125 341.65625 C 203.28125 336.671875 207.035156 332.769531 211.824219 332.769531 L 228.277344 332.777344 L 243.871094 320.402344 C 244.730469 319.683594 245.839844 319.34375 246.96875 319.460938 C 248.105469 319.578125 249.125 320.136719 249.839844 321.039062 C 250.449219 321.824219 250.78125 322.792969 250.78125 323.773438 C 250.78125 325.082031 250.214844 326.308594 249.226562 327.140625 L 231.199219 342.015625 L 231.199219 352.363281 C 231.199219 352.8125 230.835938 353.175781 230.386719 353.175781 "></path>
<path style=" stroke:none;fill-rule:nonzero;fill:rgb(11.372375%,11.372375%,10.588074%);fill-opacity:1;" d="M 220.980469 311.234375 C 217 311.234375 213.761719 314.523438 213.761719 318.5625 C 213.761719 322.601562 217 325.886719 220.980469 325.886719 C 224.957031 325.886719 228.195312 322.601562 228.195312 318.5625 C 228.195312 314.523438 224.957031 311.234375 220.980469 311.234375 M 220.980469 327.511719 C 216.105469 327.511719 212.136719 323.496094 212.136719 318.5625 C 212.136719 313.625 216.105469 309.609375 220.980469 309.609375 C 225.855469 309.609375 229.820312 313.625 229.820312 318.5625 C 229.820312 323.496094 225.855469 327.511719 220.980469 327.511719 "></path>
<path style=" stroke:none;fill-rule:nonzero;fill:rgb(11.372375%,11.372375%,10.588074%);fill-opacity:1;" d="M 226.121094 306.03125 C 225.90625 306.03125 225.699219 305.949219 225.546875 305.792969 L 221.179688 301.429688 L 205.875 301.429688 C 205.425781 301.429688 205.0625 301.066406 205.0625 300.617188 C 205.0625 300.167969 205.425781 299.804688 205.875 299.804688 L 221.515625 299.804688 C 221.734375 299.804688 221.941406 299.890625 222.089844 300.042969 L 225.308594 303.257812 L 225.308594 300.617188 C 225.308594 300.167969 225.671875 299.804688 226.121094 299.804688 L 233.429688 299.804688 C 236.5625 299.804688 239.113281 297.253906 239.113281 294.121094 L 239.113281 283.5625 C 239.113281 280.429688 236.5625 277.878906 233.429688 277.878906 L 186.457031 277.878906 C 183.320312 277.878906 180.773438 280.429688 180.773438 283.5625 L 180.773438 294.121094 C 180.773438 297.253906 183.320312 299.804688 186.457031 299.804688 L 187.597656 299.804688 C 188.046875 299.804688 188.410156 300.167969 188.410156 300.617188 C 188.410156 301.066406 188.046875 301.429688 187.597656 301.429688 L 186.457031 301.429688 C 182.425781 301.429688 179.148438 298.148438 179.148438 294.121094 L 179.148438 283.5625 C 179.148438 279.53125 182.425781 276.253906 186.457031 276.253906 L 233.429688 276.253906 C 237.457031 276.253906 240.738281 279.53125 240.738281 283.5625 L 240.738281 294.121094 C 240.738281 298.148438 237.457031 301.429688 233.429688 301.429688 L 226.929688 301.429688 L 226.929688 305.21875 C 226.929688 305.546875 226.734375 305.84375 226.429688 305.96875 C 226.328125 306.011719 226.222656 306.03125 226.121094 306.03125 "></path>
</g></svg>