<?xml version='1.0' encoding='utf-8'?>
<svg xmlns="http://www.w3.org/2000/svg" viewBox="188.948 151.969 96.232 96.836" width="96.232pt" height="96.836pt"><g><path style=" stroke:none;fill-rule:nonzero;fill:rgb(29.803467%,30.195618%,30.979919%);fill-opacity:1;" d="M 216.753906 216.300781 C 216.695312 216.300781 216.632812 216.296875 216.574219 216.28125 C 215.207031 215.980469 213.960938 215.390625 212.9375 214.5625 C 212.371094 214.757812 211.785156 214.914062 211.191406 215.023438 C 208.691406 215.472656 206.195312 215.117188 204.160156 214.023438 C 202.0625 212.898438 200.699219 211.125 200.324219 209.035156 C 200.253906 208.636719 200.222656 208.222656 200.230469 207.800781 C 197.519531 206.09375 195.667969 203.398438 195.121094 200.335938 C 194.578125 197.308594 195.320312 194.238281 197.210938 191.695312 C 199.09375 189.164062 201.886719 187.457031 205.074219 186.882812 C 206.824219 186.570312 208.625 186.621094 210.324219 187.03125 C 211.84375 184.882812 214.203125 183.394531 216.890625 182.910156 C 222.292969 181.941406 227.4375 185.292969 228.351562 190.386719 C 228.367188 190.46875 228.382812 190.558594 228.390625 190.640625 C 228.429688 191.097656 228.09375 191.5 227.640625 191.539062 C 227.195312 191.582031 226.78125 191.246094 226.742188 190.792969 C 226.738281 190.753906 226.730469 190.714844 226.722656 190.683594 C 225.96875 186.484375 221.691406 183.730469 217.183594 184.539062 C 214.746094 184.976562 212.636719 186.390625 211.390625 188.417969 C 211.195312 188.738281 210.808594 188.882812 210.449219 188.777344 C 208.828125 188.300781 207.070312 188.207031 205.367188 188.511719 C 202.59375 189.011719 200.167969 190.492188 198.539062 192.679688 C 196.921875 194.855469 196.285156 197.472656 196.75 200.042969 C 197.238281 202.785156 198.96875 205.1875 201.496094 206.628906 C 201.777344 206.792969 201.941406 207.105469 201.910156 207.429688 C 201.863281 207.890625 201.878906 208.320312 201.953125 208.742188 C 202.238281 210.324219 203.300781 211.683594 204.945312 212.566406 C 206.648438 213.484375 208.765625 213.777344 210.894531 213.394531 C 211.554688 213.273438 212.179688 213.09375 212.804688 212.847656 C 213.097656 212.730469 213.4375 212.792969 213.667969 213.007812 C 214.542969 213.816406 215.671875 214.390625 216.929688 214.664062 C 217.375 214.761719 217.660156 215.207031 217.558594 215.652344 C 217.476562 216.039062 217.132812 216.300781 216.753906 216.300781 "></path>
<path style=" stroke:none;fill-rule:nonzero;fill:rgb(29.803467%,30.195618%,30.979919%);fill-opacity:1;" d="M 251.152344 207.039062 C 250.839844 207.039062 250.527344 207.027344 250.21875 207.003906 C 249.765625 206.96875 249.421875 206.570312 249.457031 206.117188 C 249.492188 205.660156 249.882812 205.316406 250.34375 205.351562 C 250.609375 205.371094 250.878906 205.382812 251.152344 205.382812 C 254.039062 205.382812 256.675781 204.320312 258.207031 202.539062 C 258.457031 202.246094 258.875 202.167969 259.21875 202.34375 C 260.171875 202.84375 261.289062 203.109375 262.449219 203.109375 C 265.296875 203.109375 267.753906 201.453125 268.042969 199.339844 C 268.097656 198.941406 268.429688 198.640625 268.828125 198.625 C 273.707031 198.421875 277.527344 194.546875 277.527344 189.808594 C 277.527344 184.941406 273.449219 180.980469 268.441406 180.980469 C 268.179688 180.980469 267.921875 180.851562 267.769531 180.640625 C 267.613281 180.425781 267.5625 180.152344 267.644531 179.898438 C 267.855469 179.242188 267.960938 178.574219 267.960938 177.90625 C 267.960938 174.273438 264.917969 171.316406 261.183594 171.316406 C 258.460938 171.316406 256.011719 172.890625 254.945312 175.324219 C 254.761719 175.738281 254.277344 175.929688 253.863281 175.753906 C 252.5625 175.203125 251.066406 174.910156 249.535156 174.910156 C 245.101562 174.910156 241.496094 177.261719 241.496094 180.152344 C 241.496094 181.488281 242.28125 182.503906 242.945312 183.121094 C 243.175781 183.339844 243.261719 183.667969 243.167969 183.972656 C 243.074219 184.277344 242.8125 184.496094 242.5 184.542969 C 240.394531 184.855469 238.59375 186.105469 237.800781 187.8125 C 237.609375 188.222656 237.117188 188.402344 236.703125 188.210938 C 236.289062 188.019531 236.105469 187.527344 236.300781 187.113281 C 237.140625 185.308594 238.820312 183.902344 240.855469 183.238281 C 240.1875 182.289062 239.839844 181.242188 239.839844 180.152344 C 239.839844 176.351562 244.191406 173.257812 249.535156 173.257812 C 251.011719 173.257812 252.460938 173.496094 253.78125 173.949219 C 255.25 171.320312 258.074219 169.660156 261.183594 169.660156 C 265.832031 169.660156 269.617188 173.359375 269.617188 177.90625 C 269.617188 178.394531 269.570312 178.886719 269.480469 179.375 C 274.921875 179.886719 279.179688 184.375 279.179688 189.808594 C 279.179688 195.226562 274.996094 199.691406 269.542969 200.234375 C 268.796875 202.859375 265.882812 204.765625 262.449219 204.765625 C 261.25 204.765625 260.078125 204.53125 259.027344 204.085938 C 257.15625 205.945312 254.261719 207.039062 251.152344 207.039062 "></path>
<path style=" stroke:none;fill-rule:nonzero;fill:rgb(29.803467%,30.195618%,30.979919%);fill-opacity:1;" d="M 242.765625 242.800781 L 220.492188 242.800781 C 217.546875 242.800781 214.878906 241.292969 213.359375 238.765625 C 211.84375 236.242188 211.765625 233.179688 213.148438 230.578125 L 218.527344 220.789062 C 220.539062 217.121094 224.382812 214.847656 228.558594 214.847656 L 238.453125 214.847656 C 238.910156 214.847656 239.28125 215.21875 239.28125 215.671875 C 239.28125 216.132812 238.910156 216.5 238.453125 216.5 L 228.558594 216.5 C 224.988281 216.5 221.699219 218.449219 219.976562 221.582031 L 214.605469 231.367188 C 213.503906 233.4375 213.566406 235.890625 214.78125 237.914062 C 215.996094 239.9375 218.132812 241.148438 220.492188 241.148438 L 242.765625 241.148438 C 243.167969 241.148438 243.5625 241.082031 243.941406 240.957031 C 244.375 240.8125 244.84375 241.046875 244.988281 241.480469 C 245.132812 241.914062 244.898438 242.382812 244.464844 242.527344 C 243.917969 242.710938 243.347656 242.800781 242.765625 242.800781 "></path>
<path style=" stroke:none;fill-rule:nonzero;fill:rgb(29.803467%,30.195618%,30.979919%);fill-opacity:1;" d="M 240.933594 233.542969 L 226.074219 233.542969 C 225.78125 233.542969 225.507812 233.386719 225.359375 233.132812 C 225.210938 232.875 225.210938 232.5625 225.355469 232.304688 L 227.023438 229.382812 C 227.25 228.988281 227.757812 228.851562 228.15625 229.078125 C 228.550781 229.304688 228.691406 229.808594 228.464844 230.203125 L 227.5 231.890625 L 240.933594 231.890625 C 241.390625 231.890625 241.761719 232.257812 241.761719 232.714844 C 241.761719 233.171875 241.390625 233.542969 240.933594 233.542969 "></path>
<path style=" stroke:none;fill-rule:nonzero;fill:rgb(29.803467%,30.195618%,30.979919%);fill-opacity:1;" d="M 247.242188 216.6875 C 246.8125 216.6875 246.382812 216.761719 245.96875 216.90625 C 243.992188 217.609375 242.953125 219.785156 243.65625 221.761719 L 249.632812 238.613281 C 249.96875 239.570312 250.664062 240.339844 251.578125 240.777344 C 252.496094 241.214844 253.527344 241.265625 254.484375 240.925781 C 256.460938 240.226562 257.5 238.050781 256.796875 236.074219 L 250.824219 219.222656 C 250.484375 218.261719 249.792969 217.496094 248.875 217.058594 C 248.355469 216.8125 247.800781 216.6875 247.242188 216.6875 M 253.210938 242.804688 C 252.410156 242.804688 251.613281 242.625 250.867188 242.269531 C 249.550781 241.644531 248.558594 240.539062 248.070312 239.167969 L 242.09375 222.316406 C 241.089844 219.480469 242.578125 216.351562 245.414062 215.347656 C 246.789062 214.859375 248.269531 214.9375 249.585938 215.5625 C 250.902344 216.191406 251.894531 217.292969 252.382812 218.667969 L 258.359375 235.519531 C 259.363281 238.355469 257.875 241.480469 255.039062 242.488281 C 254.441406 242.699219 253.824219 242.804688 253.210938 242.804688 "></path>
<path style=" stroke:none;fill-rule:nonzero;fill:rgb(29.803467%,30.195618%,30.979919%);fill-opacity:1;" d="M 236.664062 193.675781 C 232.203125 193.675781 228.570312 197.304688 228.570312 201.769531 C 228.570312 206.230469 232.203125 209.859375 236.664062 209.859375 C 241.125 209.859375 244.753906 206.230469 244.753906 201.769531 C 244.753906 197.304688 241.125 193.675781 236.664062 193.675781 M 236.664062 211.515625 C 231.289062 211.515625 226.917969 207.140625 226.917969 201.769531 C 226.917969 196.394531 231.289062 192.023438 236.664062 192.023438 C 242.039062 192.023438 246.410156 196.394531 246.410156 201.769531 C 246.410156 207.140625 242.039062 211.515625 236.664062 211.515625 "></path>
<path style=" stroke:none;fill-rule:nonzero;fill:rgb(29.803467%,30.195618%,30.979919%);fill-opacity:1;" d="M 210.035156 181.777344 C 209.679688 181.777344 209.351562 181.546875 209.242188 181.1875 C 208.988281 180.332031 208.859375 179.425781 208.859375 178.5 C 208.859375 173.257812 213.082031 168.984375 218.304688 168.902344 C 218.214844 168.410156 218.171875 167.917969 218.171875 167.433594 C 218.171875 162.214844 223.058594 157.96875 229.070312 157.96875 C 232.957031 157.96875 236.476562 159.722656 238.4375 162.59375 C 239.378906 162.277344 240.371094 162.121094 241.402344 162.121094 C 245.773438 162.121094 249.335938 164.996094 249.515625 168.667969 C 249.539062 169.125 249.1875 169.511719 248.730469 169.535156 C 248.273438 169.554688 247.886719 169.203125 247.863281 168.746094 C 247.726562 165.960938 244.886719 163.773438 241.402344 163.773438 C 240.351562 163.773438 239.347656 163.972656 238.421875 164.367188 C 238.035156 164.53125 237.589844 164.382812 237.382812 164.019531 C 235.8125 161.308594 232.632812 159.625 229.070312 159.625 C 223.972656 159.625 219.824219 163.125 219.824219 167.433594 C 219.824219 168.121094 219.941406 168.824219 220.167969 169.519531 C 220.253906 169.785156 220.199219 170.082031 220.023438 170.296875 C 219.847656 170.515625 219.574219 170.632812 219.292969 170.597656 C 219.023438 170.570312 218.742188 170.554688 218.457031 170.554688 C 214.078125 170.554688 210.515625 174.121094 210.515625 178.5 C 210.515625 179.265625 210.621094 180.011719 210.828125 180.714844 C 210.960938 181.152344 210.710938 181.613281 210.273438 181.742188 C 210.195312 181.769531 210.113281 181.777344 210.035156 181.777344 "></path>
</g></svg>