<?xml version='1.0' encoding='utf-8'?>
<svg xmlns="http://www.w3.org/2000/svg" viewBox="275.859 279.812 77.515 77.501" width="77.515pt" height="77.501pt"><g><path style=" stroke:none;fill-rule:nonzero;fill:rgb(11.372375%,11.372375%,10.588074%);fill-opacity:1;" d="M 311.46875 287.230469 C 304.25 287.230469 297.03125 289.976562 291.535156 295.472656 C 286.210938 300.796875 283.277344 307.875 283.277344 315.40625 C 283.277344 322.9375 286.210938 330.015625 291.535156 335.339844 C 302.527344 346.332031 320.410156 346.332031 331.402344 335.339844 C 342.394531 324.347656 342.394531 306.464844 331.402344 295.472656 C 325.90625 289.976562 318.6875 287.230469 311.46875 287.230469 M 311.46875 345 C 303.886719 345 296.304688 342.113281 290.53125 336.34375 C 284.941406 330.75 281.859375 323.316406 281.859375 315.40625 C 281.859375 307.496094 284.941406 300.0625 290.53125 294.46875 C 302.078125 282.925781 320.859375 282.925781 332.40625 294.46875 C 343.949219 306.015625 343.949219 324.796875 332.40625 336.34375 C 326.632812 342.113281 319.050781 345 311.46875 345 "></path>
<path style=" stroke:none;fill-rule:nonzero;fill:rgb(11.372375%,11.372375%,10.588074%);fill-opacity:1;" d="M 297.933594 335.578125 C 297.792969 335.578125 297.652344 335.535156 297.527344 335.449219 C 296.351562 334.628906 295.234375 333.691406 294.210938 332.664062 C 290.910156 329.367188 288.636719 325.214844 287.640625 320.667969 C 287.558594 320.285156 287.800781 319.90625 288.183594 319.824219 C 288.566406 319.738281 288.941406 319.980469 289.027344 320.363281 C 289.964844 324.648438 292.105469 328.554688 295.210938 331.664062 C 296.179688 332.628906 297.230469 333.511719 298.339844 334.285156 C 298.660156 334.511719 298.738281 334.953125 298.515625 335.273438 C 298.378906 335.472656 298.15625 335.578125 297.933594 335.578125 "></path>
<path style=" stroke:none;fill-rule:nonzero;fill:rgb(11.372375%,11.372375%,10.588074%);fill-opacity:1;" d="M 311.46875 339.816406 C 308.980469 339.816406 306.53125 339.445312 304.191406 338.714844 C 303.816406 338.601562 303.605469 338.203125 303.722656 337.828125 C 303.839844 337.457031 304.238281 337.246094 304.613281 337.363281 C 306.816406 338.046875 309.125 338.394531 311.46875 338.394531 C 311.859375 338.394531 312.179688 338.714844 312.179688 339.105469 C 312.179688 339.496094 311.859375 339.816406 311.46875 339.816406 "></path>
<path style=" stroke:none;fill-rule:nonzero;fill:rgb(11.372375%,11.372375%,10.588074%);fill-opacity:1;" d="M 338.292969 338.246094 C 337.496094 338.246094 336.695312 338.550781 336.089844 339.15625 L 335.222656 340.023438 C 334.003906 341.242188 334.003906 343.222656 335.222656 344.4375 L 339.765625 348.980469 C 340.984375 350.199219 342.960938 350.199219 344.175781 348.980469 L 345.042969 348.113281 C 346.261719 346.898438 346.261719 344.917969 345.042969 343.703125 L 340.5 339.15625 C 339.890625 338.550781 339.09375 338.246094 338.292969 338.246094 M 341.972656 351.3125 C 340.808594 351.3125 339.648438 350.867188 338.761719 349.984375 L 334.21875 345.4375 C 332.449219 343.671875 332.449219 340.792969 334.21875 339.023438 L 335.085938 338.15625 C 336.851562 336.386719 339.734375 336.386719 341.503906 338.15625 L 346.046875 342.699219 C 347.816406 344.46875 347.816406 347.347656 346.046875 349.117188 L 345.179688 349.984375 C 344.296875 350.867188 343.132812 351.3125 341.972656 351.3125 "></path>
</g></svg>