<?xml version='1.0' encoding='utf-8'?>
<svg xmlns="http://www.w3.org/2000/svg" viewBox="67.445 265.802 88.074 100.780" width="88.074pt" height="100.780pt"><g><path style=" stroke:none;fill-rule:nonzero;fill:rgb(11.372375%,11.372375%,10.588074%);fill-opacity:1;" d="M 91.832031 346.097656 C 91.714844 346.097656 91.59375 346.078125 91.476562 346.027344 L 82.234375 342.214844 C 81.761719 342.019531 81.535156 341.476562 81.730469 341 C 81.925781 340.527344 82.46875 340.300781 82.945312 340.496094 L 92.1875 344.308594 C 92.664062 344.503906 92.890625 345.046875 92.695312 345.523438 C 92.546875 345.882812 92.199219 346.097656 91.832031 346.097656 "></path>
<path style=" stroke:none;fill-rule:nonzero;fill:rgb(11.372375%,11.372375%,10.588074%);fill-opacity:1;" d="M 111.480469 360.582031 C 110.050781 360.582031 108.617188 360.308594 107.285156 359.757812 L 76.324219 346.988281 C 74.574219 346.269531 73.445312 344.621094 73.445312 342.796875 L 73.445312 312.6875 C 73.445312 311.378906 74.03125 310.132812 75.054688 309.265625 C 76.148438 308.34375 77.597656 307.953125 79.035156 308.191406 L 108.984375 313.238281 C 110.972656 313.574219 112.410156 315.21875 112.410156 317.152344 L 112.410156 351.628906 C 112.410156 352.140625 111.996094 352.558594 111.480469 352.558594 C 110.96875 352.558594 110.550781 352.140625 110.550781 351.628906 L 110.550781 317.152344 C 110.550781 316.128906 109.761719 315.257812 108.675781 315.074219 L 78.726562 310.027344 C 77.824219 309.875 76.929688 310.117188 76.253906 310.6875 C 75.640625 311.207031 75.304688 311.917969 75.304688 312.6875 L 75.304688 342.796875 C 75.304688 343.867188 75.980469 344.835938 77.03125 345.269531 L 107.996094 358.039062 C 110.210938 358.953125 112.75 358.953125 114.96875 358.039062 L 145.929688 345.269531 C 146.980469 344.835938 147.660156 343.867188 147.660156 342.796875 L 147.660156 312.6875 C 147.660156 311.917969 147.320312 311.207031 146.707031 310.6875 C 146.03125 310.117188 145.132812 309.878906 144.238281 310.027344 L 120.054688 314.101562 C 119.550781 314.179688 119.070312 313.84375 118.984375 313.339844 C 118.898438 312.832031 119.238281 312.351562 119.746094 312.265625 L 143.929688 308.191406 C 145.363281 307.953125 146.8125 308.34375 147.90625 309.265625 C 148.933594 310.132812 149.519531 311.378906 149.519531 312.6875 L 149.519531 342.796875 C 149.519531 344.621094 148.386719 346.269531 146.636719 346.988281 L 115.679688 359.757812 C 114.34375 360.308594 112.914062 360.582031 111.480469 360.582031 "></path>
<path style=" stroke:none;fill-rule:nonzero;fill:rgb(11.372375%,11.372375%,10.588074%);fill-opacity:1;" d="M 77.28125 310.09375 C 76.851562 310.09375 76.46875 309.800781 76.371094 309.367188 C 76.261719 308.863281 76.578125 308.367188 77.078125 308.257812 L 95.835938 304.09375 C 96.335938 303.984375 96.835938 304.300781 96.945312 304.800781 C 97.054688 305.304688 96.738281 305.800781 96.238281 305.914062 L 77.484375 310.074219 C 77.414062 310.089844 77.347656 310.09375 77.28125 310.09375 "></path>
<path style=" stroke:none;fill-rule:nonzero;fill:rgb(11.372375%,11.372375%,10.588074%);fill-opacity:1;" d="M 145.683594 310.09375 C 145.613281 310.09375 145.546875 310.089844 145.480469 310.074219 L 129.105469 306.441406 C 128.601562 306.328125 128.285156 305.832031 128.398438 305.332031 C 128.507812 304.828125 129.003906 304.515625 129.507812 304.625 L 145.882812 308.257812 C 146.382812 308.367188 146.699219 308.863281 146.589844 309.367188 C 146.492188 309.800781 146.109375 310.09375 145.683594 310.09375 "></path>
<path style=" stroke:none;fill-rule:nonzero;fill:rgb(11.372375%,11.372375%,10.588074%);fill-opacity:1;" d="M 105.351562 301.476562 C 104.898438 301.476562 104.503906 301.148438 104.433594 300.6875 C 103.839844 296.835938 103.605469 292.378906 108.371094 288.1875 C 110.332031 286.308594 111.273438 283.542969 110.851562 280.820312 C 110.507812 278.59375 109.316406 276.628906 107.5 275.296875 C 105.679688 273.964844 103.449219 273.421875 101.222656 273.761719 C 98.992188 274.105469 97.03125 275.296875 95.699219 277.117188 C 94.363281 278.9375 93.820312 281.167969 94.164062 283.394531 C 94.367188 284.707031 94.855469 285.917969 95.617188 286.992188 C 95.914062 287.410156 95.816406 287.992188 95.398438 288.289062 C 94.980469 288.585938 94.398438 288.488281 94.101562 288.070312 C 93.167969 286.757812 92.570312 285.277344 92.324219 283.679688 C 91.90625 280.957031 92.570312 278.238281 94.195312 276.015625 C 95.824219 273.796875 98.21875 272.34375 100.9375 271.925781 C 103.660156 271.503906 106.378906 272.167969 108.597656 273.796875 C 110.820312 275.425781 112.273438 277.816406 112.691406 280.539062 C 113.203125 283.859375 112.058594 287.230469 109.625 289.558594 C 105.535156 293.15625 105.707031 296.742188 106.273438 300.40625 C 106.351562 300.914062 106.003906 301.386719 105.492188 301.464844 C 105.445312 301.472656 105.398438 301.476562 105.351562 301.476562 "></path>
<path style=" stroke:none;fill-rule:nonzero;fill:rgb(11.372375%,11.372375%,10.588074%);fill-opacity:1;" d="M 106.289062 307.566406 C 105.839844 307.566406 105.441406 307.238281 105.371094 306.777344 L 105.316406 306.433594 C 105.238281 305.925781 105.589844 305.449219 106.097656 305.371094 C 106.597656 305.292969 107.078125 305.640625 107.15625 306.148438 L 107.210938 306.496094 C 107.289062 307.003906 106.941406 307.476562 106.433594 307.554688 C 106.382812 307.5625 106.335938 307.566406 106.289062 307.566406 "></path>
<path style=" stroke:none;fill-rule:nonzero;fill:rgb(11.372375%,11.372375%,10.588074%);fill-opacity:1;" d="M 119.105469 306.164062 C 119.03125 306.164062 118.953125 306.152344 118.875 306.132812 C 118.378906 306.007812 118.078125 305.5 118.203125 305.003906 L 118.445312 304.058594 C 118.570312 303.558594 119.082031 303.257812 119.578125 303.386719 C 120.074219 303.515625 120.375 304.019531 120.25 304.519531 L 120.007812 305.460938 C 119.898438 305.882812 119.519531 306.164062 119.105469 306.164062 "></path>
<path style=" stroke:none;fill-rule:nonzero;fill:rgb(11.372375%,11.372375%,10.588074%);fill-opacity:1;" d="M 120.90625 299.128906 C 120.832031 299.128906 120.753906 299.121094 120.675781 299.097656 C 120.175781 298.972656 119.878906 298.464844 120.003906 297.964844 L 125.378906 276.953125 C 125.507812 276.457031 126.011719 276.15625 126.511719 276.285156 C 127.007812 276.410156 127.308594 276.917969 127.179688 277.414062 L 121.808594 298.429688 C 121.699219 298.847656 121.320312 299.128906 120.90625 299.128906 "></path>
</g></svg>