<?xml version='1.0' encoding='utf-8'?>
<svg xmlns="http://www.w3.org/2000/svg" viewBox="291.051 167.461 83.680 79.153" width="83.680pt" height="79.153pt"><g><path style=" stroke:none;fill-rule:nonzero;fill:rgb(29.803467%,30.195618%,30.979919%);fill-opacity:1;" d="M 356.574219 222.214844 C 355.058594 222.214844 353.550781 221.578125 352.488281 220.335938 L 340.242188 206.027344 C 339.96875 205.707031 340.007812 205.226562 340.324219 204.953125 C 340.648438 204.683594 341.125 204.71875 341.398438 205.039062 L 353.644531 219.347656 C 355.023438 220.960938 357.460938 221.152344 359.074219 219.773438 C 359.925781 219.039062 360.417969 217.972656 360.417969 216.84375 C 360.417969 215.914062 360.097656 215.050781 359.492188 214.34375 L 341.082031 192.839844 C 340.808594 192.519531 340.847656 192.039062 341.164062 191.765625 C 341.488281 191.492188 341.964844 191.53125 342.238281 191.851562 L 360.648438 213.355469 C 361.480469 214.328125 361.9375 215.566406 361.9375 216.84375 C 361.9375 218.414062 361.253906 219.902344 360.0625 220.925781 C 359.050781 221.789062 357.808594 222.214844 356.574219 222.214844 "></path>
<path style=" stroke:none;fill-rule:nonzero;fill:rgb(29.803467%,30.195618%,30.979919%);fill-opacity:1;" d="M 301.644531 210.585938 C 301.371094 210.585938 301.109375 210.4375 300.972656 210.183594 C 297.203125 203.105469 296.144531 196.109375 297.824219 189.390625 C 299.238281 182.769531 304.496094 175.363281 313.035156 173.800781 C 313.359375 173.726562 321.867188 171.808594 329.753906 177.960938 C 330.085938 178.21875 330.144531 178.695312 329.886719 179.027344 C 329.628906 179.359375 329.152344 179.417969 328.820312 179.160156 C 321.527344 173.46875 313.425781 175.269531 313.347656 175.289062 C 305.460938 176.734375 300.621094 183.582031 299.304688 189.730469 C 297.714844 196.101562 298.726562 202.734375 302.3125 209.464844 C 302.511719 209.835938 302.371094 210.296875 302 210.496094 C 301.886719 210.554688 301.761719 210.585938 301.644531 210.585938 "></path>
<path style=" stroke:none;fill-rule:nonzero;fill:rgb(29.803467%,30.195618%,30.979919%);fill-opacity:1;" d="M 342.554688 234.207031 C 342.132812 234.207031 341.710938 234.15625 341.308594 234.058594 C 340.902344 233.960938 340.652344 233.550781 340.75 233.140625 C 340.851562 232.734375 341.261719 232.484375 341.667969 232.582031 C 341.953125 232.652344 342.253906 232.6875 342.554688 232.6875 C 343.476562 232.6875 344.363281 232.359375 345.054688 231.761719 C 345.839844 231.09375 346.3125 230.160156 346.394531 229.132812 C 346.472656 228.109375 346.148438 227.113281 345.480469 226.332031 C 345.207031 226.015625 345.246094 225.535156 345.5625 225.261719 C 345.882812 224.988281 346.363281 225.027344 346.636719 225.34375 C 347.566406 226.433594 348.019531 227.820312 347.910156 229.25 C 347.796875 230.683594 347.136719 231.984375 346.042969 232.917969 C 345.078125 233.75 343.839844 234.207031 342.554688 234.207031 "></path>
<path style=" stroke:none;fill-rule:nonzero;fill:rgb(29.803467%,30.195618%,30.979919%);fill-opacity:1;" d="M 349.566406 228.207031 C 348.050781 228.207031 346.542969 227.570312 345.480469 226.332031 L 333.234375 212.019531 C 332.964844 211.699219 333 211.21875 333.320312 210.945312 C 333.640625 210.671875 334.121094 210.710938 334.390625 211.03125 L 346.636719 225.34375 C 348.015625 226.957031 350.453125 227.144531 352.0625 225.765625 C 353.679688 224.386719 353.867188 221.949219 352.488281 220.335938 C 352.214844 220.019531 352.253906 219.539062 352.570312 219.265625 C 352.890625 218.992188 353.371094 219.03125 353.640625 219.347656 C 355.566406 221.597656 355.304688 224.996094 353.054688 226.921875 C 352.042969 227.785156 350.800781 228.207031 349.566406 228.207031 "></path>
<path style=" stroke:none;fill-rule:nonzero;fill:rgb(29.803467%,30.195618%,30.979919%);fill-opacity:1;" d="M 363.792969 211.214844 C 363.667969 211.214844 363.542969 211.183594 363.425781 211.117188 C 363.058594 210.914062 362.925781 210.449219 363.128906 210.082031 C 366.992188 203.136719 368.117188 196.296875 366.476562 189.757812 C 365.164062 183.582031 360.328125 176.734375 352.472656 175.296875 C 352.355469 175.269531 344.253906 173.46875 336.957031 179.164062 C 335.71875 180.128906 334.546875 181.277344 333.480469 182.578125 C 333.457031 182.605469 333.429688 182.632812 333.40625 182.65625 C 332.617188 183.378906 331.527344 184.300781 330.265625 185.363281 L 329.5625 185.957031 C 326.433594 188.605469 320.609375 193.535156 319.675781 196.175781 C 319.652344 196.238281 319.75 196.53125 320.253906 196.921875 C 321.925781 198.214844 326.007812 199.046875 329.457031 196.722656 C 331.65625 195.238281 333.410156 193.769531 334.828125 192.234375 C 335.527344 191.472656 336.046875 190.808594 336.503906 190.222656 C 336.769531 189.875 337.015625 189.5625 337.253906 189.28125 C 337.527344 188.960938 338.007812 188.921875 338.324219 189.195312 C 338.644531 189.46875 338.683594 189.949219 338.410156 190.269531 C 338.183594 190.535156 337.957031 190.828125 337.703125 191.152344 C 337.226562 191.765625 336.691406 192.457031 335.945312 193.265625 C 334.449219 194.886719 332.605469 196.429688 330.308594 197.980469 C 326.1875 200.753906 321.40625 199.734375 319.324219 198.125 C 318.351562 197.371094 317.957031 196.476562 318.242188 195.671875 C 319.230469 192.875 323.890625 188.765625 328.582031 184.796875 L 329.285156 184.203125 C 330.511719 183.167969 331.574219 182.269531 332.339844 181.574219 C 333.46875 180.199219 334.710938 178.988281 336.023438 177.964844 C 343.910156 171.808594 352.425781 173.726562 352.785156 173.808594 C 361.292969 175.363281 366.542969 182.769531 367.957031 189.414062 C 369.6875 196.316406 368.511719 203.527344 364.457031 210.824219 C 364.320312 211.074219 364.058594 211.214844 363.792969 211.214844 "></path>
<path style=" stroke:none;fill-rule:nonzero;fill:rgb(29.803467%,30.195618%,30.979919%);fill-opacity:1;" d="M 306.066406 219.613281 C 307.558594 220.960938 309.871094 220.84375 311.222656 219.351562 L 314.402344 215.832031 C 315.054688 215.105469 315.386719 214.171875 315.339844 213.199219 C 315.289062 212.222656 314.863281 211.328125 314.140625 210.671875 L 313.84375 210.40625 C 313.121094 209.753906 312.179688 209.425781 311.210938 209.46875 C 310.238281 209.519531 309.339844 209.945312 308.6875 210.667969 L 305.507812 214.1875 C 304.15625 215.683594 304.277344 217.996094 305.769531 219.34375 Z M 308.507812 222.070312 C 307.273438 222.070312 306.03125 221.632812 305.046875 220.742188 C 305.042969 220.742188 305.042969 220.742188 305.042969 220.742188 L 304.75 220.472656 C 302.632812 218.5625 302.46875 215.285156 304.378906 213.167969 L 307.558594 209.648438 C 308.484375 208.625 309.753906 208.023438 311.132812 207.949219 C 312.515625 207.882812 313.839844 208.351562 314.863281 209.277344 L 315.160156 209.546875 C 316.183594 210.472656 316.785156 211.742188 316.855469 213.121094 C 316.925781 214.5 316.453125 215.824219 315.527344 216.851562 L 312.351562 220.371094 C 311.332031 221.496094 309.921875 222.070312 308.507812 222.070312 "></path>
<path style=" stroke:none;fill-rule:nonzero;fill:rgb(29.803467%,30.195618%,30.979919%);fill-opacity:1;" d="M 320.152344 213.527344 C 319.15625 213.527344 318.164062 213.933594 317.441406 214.730469 L 310.4375 222.488281 C 309.085938 223.980469 309.207031 226.292969 310.699219 227.644531 L 310.996094 227.910156 C 312.488281 229.261719 314.800781 229.144531 316.152344 227.648438 L 323.15625 219.894531 C 323.8125 219.171875 324.144531 218.234375 324.09375 217.261719 C 324.042969 216.285156 323.617188 215.390625 322.894531 214.734375 L 322.597656 214.46875 C 321.902344 213.839844 321.027344 213.527344 320.152344 213.527344 M 313.433594 230.375 C 312.152344 230.375 310.933594 229.90625 309.976562 229.039062 L 309.679688 228.773438 C 307.5625 226.859375 307.398438 223.582031 309.308594 221.46875 L 316.3125 213.710938 C 317.242188 212.6875 318.511719 212.082031 319.890625 212.015625 C 321.261719 211.9375 322.59375 212.414062 323.617188 213.339844 L 323.914062 213.609375 C 324.9375 214.535156 325.542969 215.804688 325.613281 217.183594 C 325.683594 218.5625 325.210938 219.886719 324.285156 220.914062 L 317.28125 228.667969 C 316.355469 229.691406 315.085938 230.296875 313.703125 230.367188 C 313.613281 230.371094 313.523438 230.375 313.433594 230.375 "></path>
<path style=" stroke:none;fill-rule:nonzero;fill:rgb(29.803467%,30.195618%,30.979919%);fill-opacity:1;" d="M 317.835938 234.089844 C 318.5625 234.746094 319.503906 235.078125 320.46875 235.027344 C 321.445312 234.980469 322.339844 234.554688 322.996094 233.828125 L 330 226.074219 C 330.652344 225.351562 330.988281 224.414062 330.9375 223.441406 C 330.886719 222.46875 330.460938 221.570312 329.738281 220.917969 L 329.441406 220.648438 C 327.949219 219.300781 325.632812 219.417969 324.285156 220.914062 L 317.28125 228.667969 C 316.625 229.390625 316.292969 230.328125 316.34375 231.300781 C 316.390625 232.273438 316.816406 233.171875 317.542969 233.824219 Z M 320.277344 236.554688 C 318.996094 236.554688 317.777344 236.085938 316.816406 235.21875 L 316.523438 234.953125 C 315.496094 234.027344 314.894531 232.757812 314.824219 231.378906 C 314.753906 230 315.226562 228.675781 316.152344 227.648438 L 323.15625 219.894531 C 325.066406 217.777344 328.34375 217.609375 330.460938 219.523438 L 330.753906 219.789062 C 331.78125 220.714844 332.386719 221.984375 332.453125 223.363281 C 332.523438 224.742188 332.054688 226.070312 331.128906 227.09375 L 324.121094 234.847656 C 323.195312 235.875 321.925781 236.476562 320.546875 236.546875 C 320.457031 236.550781 320.367188 236.554688 320.277344 236.554688 "></path>
<path style=" stroke:none;fill-rule:nonzero;fill:rgb(29.803467%,30.195618%,30.979919%);fill-opacity:1;" d="M 326.59375 238.15625 C 328.085938 239.503906 330.402344 239.386719 331.75 237.894531 L 334.929688 234.371094 C 336.277344 232.878906 336.160156 230.566406 334.667969 229.214844 L 334.371094 228.949219 C 332.878906 227.597656 330.5625 227.71875 329.214844 229.210938 L 326.035156 232.730469 C 325.382812 233.453125 325.050781 234.390625 325.097656 235.363281 C 325.148438 236.339844 325.574219 237.234375 326.296875 237.886719 Z M 329.039062 240.613281 C 327.800781 240.613281 326.5625 240.175781 325.574219 239.28125 L 325.277344 239.015625 C 324.253906 238.089844 323.652344 236.820312 323.578125 235.441406 C 323.511719 234.0625 323.980469 232.738281 324.90625 231.710938 L 328.085938 228.191406 C 329.996094 226.074219 333.273438 225.910156 335.390625 227.820312 L 335.6875 228.085938 C 337.800781 230 337.96875 233.277344 336.058594 235.394531 L 332.878906 238.910156 C 331.859375 240.039062 330.453125 240.613281 329.039062 240.613281 "></path>
</g></svg>