<?xml version='1.0' encoding='utf-8'?>
<svg xmlns="http://www.w3.org/2000/svg" viewBox="71.094 160.730 91.273 84.504" width="91.273pt" height="84.504pt"><g><path style=" stroke:none;fill-rule:nonzero;fill:rgb(11.372375%,11.372375%,10.588074%);fill-opacity:1;" d="M 122.039062 239.234375 C 121.953125 239.234375 121.867188 239.21875 121.78125 239.195312 C 121.328125 239.050781 121.074219 238.570312 121.214844 238.113281 C 121.472656 237.292969 121.601562 236.449219 121.601562 235.609375 C 121.601562 228.941406 113.664062 223.519531 103.910156 223.519531 C 94.152344 223.519531 86.214844 228.941406 86.214844 235.609375 C 86.214844 236.449219 86.34375 237.292969 86.601562 238.113281 C 86.742188 238.570312 86.488281 239.050781 86.035156 239.191406 C 85.582031 239.335938 85.097656 239.082031 84.957031 238.628906 C 84.648438 237.640625 84.492188 236.625 84.492188 235.609375 C 84.492188 227.992188 93.203125 221.796875 103.910156 221.796875 C 114.613281 221.796875 123.324219 227.992188 123.324219 235.609375 C 123.324219 236.625 123.167969 237.640625 122.859375 238.628906 C 122.746094 238.996094 122.40625 239.234375 122.039062 239.234375 "></path>
<path style=" stroke:none;fill-rule:nonzero;fill:rgb(11.372375%,11.372375%,10.588074%);fill-opacity:1;" d="M 103.910156 197.308594 C 99.003906 197.308594 95.007812 201.300781 95.007812 206.210938 C 95.007812 211.117188 99.003906 215.109375 103.910156 215.109375 C 108.816406 215.109375 112.808594 211.117188 112.808594 206.210938 C 112.808594 201.300781 108.816406 197.308594 103.910156 197.308594 M 103.910156 216.832031 C 98.050781 216.832031 93.285156 212.066406 93.285156 206.210938 C 93.285156 200.351562 98.050781 195.585938 103.910156 195.585938 C 109.765625 195.585938 114.53125 200.351562 114.53125 206.210938 C 114.53125 212.066406 109.765625 216.832031 103.910156 216.832031 "></path>
<path style=" stroke:none;fill-rule:nonzero;fill:rgb(11.372375%,11.372375%,10.588074%);fill-opacity:1;" d="M 155.128906 211.683594 C 155.042969 211.683594 154.957031 211.671875 154.871094 211.644531 C 154.417969 211.503906 154.164062 211.019531 154.304688 210.566406 C 154.53125 209.847656 154.644531 209.113281 154.644531 208.378906 C 154.644531 202.542969 147.671875 197.796875 139.105469 197.796875 C 130.539062 197.796875 123.570312 202.542969 123.570312 208.378906 C 123.570312 209.113281 123.683594 209.847656 123.90625 210.566406 C 124.046875 211.019531 123.792969 211.5 123.339844 211.644531 C 122.882812 211.785156 122.402344 211.53125 122.261719 211.078125 C 121.984375 210.195312 121.84375 209.289062 121.84375 208.378906 C 121.84375 201.59375 129.589844 196.070312 139.105469 196.070312 C 148.625 196.070312 156.367188 201.59375 156.367188 208.378906 C 156.367188 209.289062 156.226562 210.195312 155.953125 211.078125 C 155.835938 211.445312 155.496094 211.683594 155.128906 211.683594 "></path>
<path style=" stroke:none;fill-rule:nonzero;fill:rgb(11.372375%,11.372375%,10.588074%);fill-opacity:1;" d="M 139.105469 176.652344 C 135.375 176.652344 132.339844 179.691406 132.339844 183.421875 C 132.339844 187.152344 135.375 190.191406 139.105469 190.191406 C 142.839844 190.191406 145.875 187.152344 145.875 183.421875 C 145.875 179.691406 142.839844 176.652344 139.105469 176.652344 M 139.105469 191.914062 C 134.421875 191.914062 130.613281 188.105469 130.613281 183.421875 C 130.613281 178.742188 134.421875 174.929688 139.105469 174.929688 C 143.789062 174.929688 147.597656 178.742188 147.597656 183.421875 C 147.597656 188.105469 143.789062 191.914062 139.105469 191.914062 "></path>
<path style=" stroke:none;fill-rule:nonzero;fill:rgb(11.372375%,11.372375%,10.588074%);fill-opacity:1;" d="M 139.105469 222.226562 C 135.375 222.226562 132.339844 225.261719 132.339844 228.996094 C 132.339844 232.726562 135.375 235.765625 139.105469 235.765625 C 142.839844 235.765625 145.875 232.726562 145.875 228.996094 C 145.875 225.261719 142.839844 222.226562 139.105469 222.226562 M 139.105469 237.488281 C 134.421875 237.488281 130.613281 233.679688 130.613281 228.996094 C 130.613281 224.3125 134.421875 220.503906 139.105469 220.503906 C 143.789062 220.503906 147.597656 224.3125 147.597656 228.996094 C 147.597656 233.679688 143.789062 237.488281 139.105469 237.488281 "></path>
<path style=" stroke:none;fill-rule:nonzero;fill:rgb(11.372375%,11.372375%,10.588074%);fill-opacity:1;" d="M 112.34375 202.148438 C 112.078125 202.148438 111.816406 202.027344 111.648438 201.800781 C 111.367188 201.414062 111.449219 200.875 111.832031 200.59375 L 126.632812 189.707031 C 127.015625 189.421875 127.554688 189.503906 127.835938 189.886719 C 128.117188 190.273438 128.035156 190.8125 127.652344 191.09375 L 112.855469 201.980469 C 112.699219 202.09375 112.519531 202.148438 112.34375 202.148438 "></path>
<path style=" stroke:none;fill-rule:nonzero;fill:rgb(11.372375%,11.372375%,10.588074%);fill-opacity:1;" d="M 132.511719 226.011719 C 132.335938 226.011719 132.15625 225.957031 132.003906 225.84375 L 117.050781 214.867188 C 116.667969 214.585938 116.585938 214.046875 116.867188 213.660156 C 117.148438 213.277344 117.6875 213.195312 118.070312 213.476562 L 133.023438 224.457031 C 133.40625 224.738281 133.488281 225.277344 133.207031 225.660156 C 133.039062 225.890625 132.777344 226.011719 132.511719 226.011719 "></path>
<path style=" stroke:none;fill-rule:nonzero;fill:rgb(11.372375%,11.372375%,10.588074%);fill-opacity:1;" d="M 133.410156 172.40625 C 133.28125 172.40625 133.152344 172.378906 133.03125 172.316406 C 127.847656 169.753906 122.257812 168.453125 116.414062 168.453125 C 112.828125 168.453125 109.277344 168.957031 105.867188 169.953125 C 105.410156 170.085938 104.933594 169.824219 104.800781 169.367188 C 104.667969 168.910156 104.929688 168.433594 105.386719 168.300781 C 108.953125 167.257812 112.664062 166.730469 116.414062 166.730469 C 122.523438 166.730469 128.371094 168.089844 133.792969 170.773438 C 134.21875 170.984375 134.394531 171.5 134.183594 171.929688 C 134.035156 172.230469 133.730469 172.40625 133.410156 172.40625 "></path>
<path style=" stroke:none;fill-rule:nonzero;fill:rgb(11.372375%,11.372375%,10.588074%);fill-opacity:1;" d="M 83.394531 226.632812 C 83.101562 226.632812 82.816406 226.484375 82.652344 226.214844 C 79.015625 220.152344 77.09375 213.179688 77.09375 206.054688 C 77.09375 192.421875 83.996094 179.957031 95.566406 172.707031 C 95.96875 172.457031 96.5 172.578125 96.753906 172.980469 C 97.003906 173.382812 96.882812 173.914062 96.480469 174.167969 C 85.417969 181.097656 78.816406 193.019531 78.816406 206.054688 C 78.816406 212.867188 80.65625 219.53125 84.132812 225.328125 C 84.375 225.738281 84.242188 226.265625 83.835938 226.511719 C 83.695312 226.59375 83.542969 226.632812 83.394531 226.632812 "></path>
<path style=" stroke:none;fill-rule:nonzero;fill:rgb(11.372375%,11.372375%,10.588074%);fill-opacity:1;" d="M 106.851562 177.15625 C 106.488281 177.15625 106.152344 176.925781 106.035156 176.558594 C 105.886719 176.105469 106.136719 175.621094 106.589844 175.476562 C 109.753906 174.453125 113.0625 173.9375 116.414062 173.9375 C 116.890625 173.9375 117.277344 174.324219 117.277344 174.800781 C 117.277344 175.273438 116.890625 175.660156 116.414062 175.660156 C 113.242188 175.660156 110.113281 176.148438 107.117188 177.113281 C 107.03125 177.144531 106.941406 177.15625 106.851562 177.15625 "></path>
<path style=" stroke:none;fill-rule:nonzero;fill:rgb(11.372375%,11.372375%,10.588074%);fill-opacity:1;" d="M 86.070312 214.417969 C 85.683594 214.417969 85.332031 214.152344 85.234375 213.761719 C 84.613281 211.25 84.300781 208.65625 84.300781 206.054688 C 84.300781 200.023438 85.988281 194.144531 89.179688 189.046875 C 89.433594 188.644531 89.964844 188.523438 90.367188 188.773438 C 90.769531 189.027344 90.894531 189.558594 90.640625 189.964844 C 87.621094 194.785156 86.023438 200.347656 86.023438 206.054688 C 86.023438 208.519531 86.320312 210.972656 86.90625 213.347656 C 87.019531 213.8125 86.738281 214.277344 86.277344 214.390625 C 86.207031 214.410156 86.136719 214.417969 86.070312 214.417969 "></path>
</g></svg>