<?xml version="1.0" encoding="UTF-8"?>
<svg xmlns="http://www.w3.org/2000/svg" xmlns:xlink="http://www.w3.org/1999/xlink" viewBox="286.586 224.609 104.320 89.711" width="104.320" height="89.711">
<path style=" stroke:none;fill-rule:nonzero;fill:rgb(11.372375%,11.372375%,10.588074%);fill-opacity:1;" d="M 381.488281 235.980469 C 381.390625 235.980469 381.296875 235.996094 381.207031 236.019531 L 367.460938 240.066406 C 366.664062 240.300781 366.03125 240.753906 365.617188 241.382812 L 344.5 273.660156 C 343.5625 275.097656 344.304688 277.25 346.152344 278.457031 L 358.058594 286.25 C 358.988281 286.855469 360.039062 287.128906 361.027344 287.023438 C 361.941406 286.921875 362.683594 286.503906 363.117188 285.839844 L 384.230469 253.5625 C 384.644531 252.933594 384.804688 252.167969 384.703125 251.34375 L 382.902344 237.128906 C 382.859375 236.796875 382.628906 236.460938 382.277344 236.234375 C 382.027344 236.066406 381.746094 235.980469 381.488281 235.980469 M 360.605469 289.097656 C 359.347656 289.097656 358.066406 288.707031 356.9375 287.96875 L 345.027344 280.175781 C 342.230469 278.347656 341.226562 274.921875 342.785156 272.539062 L 363.898438 240.261719 C 364.582031 239.21875 365.613281 238.46875 366.878906 238.097656 L 380.628906 234.050781 C 381.53125 233.785156 382.542969 233.953125 383.402344 234.515625 C 384.261719 235.078125 384.820312 235.933594 384.9375 236.871094 L 386.738281 251.089844 C 386.90625 252.398438 386.632812 253.644531 385.949219 254.6875 L 364.832031 286.964844 C 364.058594 288.148438 362.785156 288.894531 361.25 289.0625 C 361.039062 289.085938 360.820312 289.097656 360.605469 289.097656 "></path>
<path style=" stroke:none;fill-rule:nonzero;fill:rgb(11.372375%,11.372375%,10.588074%);fill-opacity:1;" d="M 366.863281 283.007812 C 366.671875 283.007812 366.476562 282.957031 366.304688 282.839844 L 345.972656 269.539062 C 345.496094 269.230469 345.363281 268.59375 345.675781 268.121094 C 345.984375 267.644531 346.621094 267.511719 347.09375 267.824219 L 367.425781 281.125 C 367.902344 281.433594 368.035156 282.070312 367.722656 282.542969 C 367.527344 282.84375 367.199219 283.007812 366.863281 283.007812 "></path>
<path style=" stroke:none;fill-rule:nonzero;fill:rgb(11.372375%,11.372375%,10.588074%);fill-opacity:1;" d="M 385.675781 253.710938 C 385.484375 253.710938 385.289062 253.65625 385.113281 253.542969 L 365.28125 240.566406 C 364.808594 240.257812 364.675781 239.621094 364.984375 239.144531 C 365.296875 238.671875 365.933594 238.539062 366.40625 238.847656 L 386.238281 251.824219 C 386.714844 252.132812 386.847656 252.769531 386.535156 253.246094 C 386.339844 253.546875 386.011719 253.710938 385.675781 253.710938 "></path>
<path style=" stroke:none;fill-rule:nonzero;fill:rgb(11.372375%,11.372375%,10.588074%);fill-opacity:1;" d="M 307.117188 263.460938 C 299.132812 263.460938 292.640625 269.957031 292.640625 277.9375 L 292.640625 295.808594 C 292.640625 302.679688 298.226562 308.265625 305.097656 308.265625 L 309.585938 308.265625 C 316.457031 308.265625 322.042969 302.679688 322.042969 295.808594 L 322.042969 277.9375 C 322.042969 269.957031 315.550781 263.460938 307.566406 263.460938 Z M 309.585938 310.320312 L 305.097656 310.320312 C 297.097656 310.320312 290.585938 303.8125 290.585938 295.808594 L 290.585938 277.9375 C 290.585938 268.824219 298.003906 261.410156 307.117188 261.410156 L 307.566406 261.410156 C 316.679688 261.410156 324.097656 268.824219 324.097656 277.9375 L 324.097656 295.808594 C 324.097656 303.8125 317.585938 310.320312 309.585938 310.320312 "></path>
<path style=" stroke:none;fill-rule:nonzero;fill:rgb(11.372375%,11.372375%,10.588074%);fill-opacity:1;" d="M 307.339844 278.632812 C 306.773438 278.632812 306.316406 278.175781 306.316406 277.605469 L 306.316406 271.558594 C 306.316406 270.992188 306.773438 270.535156 307.339844 270.535156 C 307.90625 270.535156 308.367188 270.992188 308.367188 271.558594 L 308.367188 277.605469 C 308.367188 278.175781 307.90625 278.632812 307.339844 278.632812 "></path>
<path style=" stroke:none;fill-rule:nonzero;fill:rgb(11.372375%,11.372375%,10.588074%);fill-opacity:1;" d="M 343.070312 263.019531 C 342.503906 263.019531 342.042969 262.558594 342.042969 261.992188 L 342.042969 247.5 C 342.042969 238.214844 334.492188 230.664062 325.207031 230.664062 C 315.921875 230.664062 308.367188 238.214844 308.367188 247.5 L 308.367188 255.496094 C 308.367188 256.0625 307.910156 256.519531 307.34375 256.519531 C 306.773438 256.519531 306.316406 256.0625 306.316406 255.496094 L 306.316406 247.5 C 306.316406 237.085938 314.789062 228.609375 325.207031 228.609375 C 335.625 228.609375 344.097656 237.085938 344.097656 247.5 L 344.097656 261.992188 C 344.097656 262.558594 343.636719 263.019531 343.070312 263.019531 "></path>
</svg>