<?xml version="1.0" encoding="UTF-8"?>
<svg xmlns="http://www.w3.org/2000/svg" xmlns:xlink="http://www.w3.org/1999/xlink" viewBox="453.617 228.555 90.863 97.277" width="90.863" height="97.277">
<path style=" stroke:none;fill-rule:nonzero;fill:rgb(29.803467%,30.195618%,30.979919%);fill-opacity:1;" d="M 522.863281 285.339844 C 522.859375 285.359375 522.855469 285.378906 522.847656 285.402344 C 522.855469 285.382812 522.859375 285.363281 522.863281 285.339844 M 511.773438 306.109375 C 510.015625 306.109375 508.105469 305.925781 506.046875 305.558594 C 501.675781 304.777344 497.578125 303.335938 494.910156 302.261719 C 494.421875 302.066406 494.1875 301.515625 494.382812 301.027344 C 494.578125 300.539062 495.132812 300.300781 495.621094 300.5 C 498.207031 301.539062 502.171875 302.933594 506.382812 303.6875 C 512.273438 304.738281 516.769531 304.203125 519.753906 302.101562 C 520.734375 301.039062 520.605469 298.953125 520.429688 296.078125 C 520.242188 293.0625 520.011719 289.308594 521 284.972656 C 521.183594 283.871094 522.535156 283.597656 524.105469 283.277344 C 525.0625 283.082031 526.664062 282.757812 526.941406 282.28125 C 527.039062 282.109375 527.742188 280.421875 522.183594 273.402344 C 520.363281 271.101562 519.324219 268.222656 519.175781 265.078125 C 518.992188 261.101562 518.542969 256.570312 516.527344 250.34375 C 513.289062 240.359375 500.664062 234.527344 485.109375 235.828125 C 479.90625 236.261719 462.742188 239.199219 460.15625 258.695312 C 459.53125 263.359375 459.726562 267.699219 460.75 271.957031 C 460.871094 272.46875 460.558594 272.980469 460.046875 273.105469 C 459.535156 273.226562 459.023438 272.910156 458.898438 272.402344 C 457.824219 267.910156 457.617188 263.34375 458.269531 258.445312 C 461.113281 237.003906 480.992188 234.265625 484.949219 233.933594 C 501.402344 232.554688 514.820312 238.917969 518.335938 249.757812 C 520.421875 256.199219 520.886719 260.882812 521.078125 264.988281 C 521.207031 267.734375 522.105469 270.234375 523.671875 272.222656 C 529.523438 279.609375 529.277344 282.046875 528.582031 283.238281 C 527.875 284.449219 526.074219 284.816406 524.484375 285.140625 C 523.933594 285.253906 523.128906 285.417969 522.8125 285.566406 C 521.933594 289.59375 522.152344 293.117188 522.328125 295.960938 C 522.53125 299.25 522.691406 301.847656 521.050781 303.496094 C 521.015625 303.53125 520.976562 303.566406 520.933594 303.59375 C 518.605469 305.269531 515.535156 306.109375 511.773438 306.109375 "></path>
<path style=" stroke:none;fill-rule:nonzero;fill:rgb(29.803467%,30.195618%,30.979919%);fill-opacity:1;" d="M 467.347656 258.792969 C 467.285156 258.792969 467.21875 258.785156 467.15625 258.773438 C 466.640625 258.664062 466.308594 258.160156 466.417969 257.648438 C 467.734375 251.296875 471.28125 246.722656 476.960938 244.054688 C 477.4375 243.832031 478.003906 244.035156 478.226562 244.511719 C 478.449219 244.988281 478.246094 245.554688 477.769531 245.777344 C 472.664062 248.175781 469.46875 252.300781 468.277344 258.035156 C 468.1875 258.484375 467.789062 258.792969 467.347656 258.792969 "></path>
<path style=" stroke:none;fill-rule:nonzero;fill:rgb(29.803467%,30.195618%,30.979919%);fill-opacity:1;" d="M 500.5 321.832031 C 500.464844 321.832031 500.433594 321.832031 500.398438 321.828125 C 499.875 321.769531 499.496094 321.300781 499.554688 320.78125 C 499.824219 318.308594 502.753906 308.859375 505.386719 304.15625 C 505.640625 303.699219 506.21875 303.53125 506.679688 303.792969 C 507.136719 304.046875 507.300781 304.625 507.046875 305.085938 C 504.5625 309.519531 501.695312 318.699219 501.445312 320.984375 C 501.390625 321.472656 500.980469 321.832031 500.5 321.832031 "></path>
<path style=" stroke:none;fill-rule:nonzero;fill:rgb(29.803467%,30.195618%,30.979919%);fill-opacity:1;" d="M 537.476562 293.074219 C 537.027344 293.074219 536.628906 292.753906 536.542969 292.296875 C 536.449219 291.78125 536.789062 291.285156 537.304688 291.1875 L 539.277344 290.824219 C 539.792969 290.726562 540.289062 291.070312 540.386719 291.585938 C 540.480469 292.101562 540.140625 292.597656 539.625 292.695312 L 537.652344 293.058594 C 537.59375 293.070312 537.535156 293.074219 537.476562 293.074219 "></path>
<path style=" stroke:none;fill-rule:nonzero;fill:rgb(29.803467%,30.195618%,30.979919%);fill-opacity:1;" d="M 535.390625 283.945312 C 535.136719 283.945312 534.882812 283.84375 534.695312 283.644531 C 534.335938 283.261719 534.355469 282.660156 534.738281 282.300781 L 536.429688 280.710938 C 536.8125 280.351562 537.414062 280.371094 537.773438 280.753906 C 538.132812 281.136719 538.113281 281.734375 537.730469 282.097656 L 536.042969 283.6875 C 535.855469 283.859375 535.625 283.945312 535.390625 283.945312 "></path>
<path style=" stroke:none;fill-rule:nonzero;fill:rgb(29.803467%,30.195618%,30.979919%);fill-opacity:1;" d="M 526.613281 312.546875 C 526.179688 312.546875 525.789062 312.25 525.6875 311.808594 L 525.234375 309.832031 C 525.117188 309.320312 525.4375 308.808594 525.949219 308.691406 C 526.460938 308.574219 526.972656 308.894531 527.089844 309.40625 L 527.542969 311.386719 C 527.660156 311.898438 527.339844 312.40625 526.828125 312.523438 C 526.757812 312.539062 526.683594 312.546875 526.613281 312.546875 "></path>
<path style=" stroke:none;fill-rule:nonzero;fill:rgb(29.803467%,30.195618%,30.979919%);fill-opacity:1;" d="M 535.453125 304.246094 C 535.269531 304.246094 535.085938 304.195312 534.925781 304.085938 L 533.425781 303.085938 C 532.988281 302.792969 532.871094 302.203125 533.164062 301.765625 C 533.457031 301.328125 534.046875 301.210938 534.484375 301.503906 L 535.980469 302.503906 C 536.417969 302.796875 536.535156 303.386719 536.242188 303.824219 C 536.058594 304.097656 535.757812 304.246094 535.453125 304.246094 "></path>
</svg>