<?xml version="1.0" encoding="UTF-8"?>
<svg xmlns="http://www.w3.org/2000/svg" xmlns:xlink="http://www.w3.org/1999/xlink" viewBox="136.199 223.023 102.242 92.883" width="102.242" height="92.883">
<path style=" stroke:none;fill-rule:nonzero;fill:rgb(11.372375%,11.372375%,10.588074%);fill-opacity:1;" d="M 201.144531 311.90625 L 146.277344 311.90625 C 142.925781 311.90625 140.199219 309.179688 140.199219 305.828125 L 140.199219 233.101562 C 140.199219 229.75 142.925781 227.023438 146.277344 227.023438 L 201.144531 227.023438 C 204.5 227.023438 207.226562 229.75 207.226562 233.101562 L 207.226562 293.398438 C 207.226562 293.960938 206.765625 294.421875 206.199219 294.421875 C 205.636719 294.421875 205.175781 293.960938 205.175781 293.398438 L 205.175781 233.101562 C 205.175781 230.878906 203.367188 229.070312 201.144531 229.070312 L 146.277344 229.070312 C 144.054688 229.070312 142.246094 230.878906 142.246094 233.101562 L 142.246094 305.828125 C 142.246094 308.050781 144.054688 309.859375 146.277344 309.859375 L 201.144531 309.859375 C 203.367188 309.859375 205.175781 308.050781 205.175781 305.828125 L 205.175781 301.320312 C 205.175781 300.757812 205.636719 300.296875 206.199219 300.296875 C 206.765625 300.296875 207.226562 300.757812 207.226562 301.320312 L 207.226562 305.828125 C 207.226562 309.179688 204.5 311.90625 201.144531 311.90625 "></path>
<path style=" stroke:none;fill-rule:nonzero;fill:rgb(11.372375%,11.372375%,10.588074%);fill-opacity:1;" d="M 165.644531 261.140625 L 153.59375 261.140625 C 152.136719 261.140625 150.953125 259.953125 150.953125 258.5 L 150.953125 246.449219 C 150.953125 244.992188 152.136719 243.808594 153.59375 243.808594 L 165.644531 243.808594 C 166.210938 243.808594 166.667969 244.265625 166.667969 244.832031 C 166.667969 245.398438 166.210938 245.855469 165.644531 245.855469 L 153.59375 245.855469 C 153.265625 245.855469 153 246.121094 153 246.449219 L 153 258.5 C 153 258.824219 153.265625 259.089844 153.59375 259.089844 L 165.644531 259.089844 C 165.972656 259.089844 166.234375 258.824219 166.234375 258.5 L 166.234375 252.472656 C 166.234375 251.910156 166.695312 251.449219 167.261719 251.449219 C 167.824219 251.449219 168.285156 251.910156 168.285156 252.472656 L 168.285156 258.5 C 168.285156 259.953125 167.101562 261.140625 165.644531 261.140625 "></path>
<path style=" stroke:none;fill-rule:nonzero;fill:rgb(11.372375%,11.372375%,10.588074%);fill-opacity:1;" d="M 193.828125 261.140625 L 181.777344 261.140625 C 180.324219 261.140625 179.136719 259.953125 179.136719 258.5 L 179.136719 246.449219 C 179.136719 244.992188 180.324219 243.808594 181.777344 243.808594 L 193.828125 243.808594 C 194.394531 243.808594 194.855469 244.265625 194.855469 244.832031 C 194.855469 245.398438 194.394531 245.855469 193.828125 245.855469 L 181.777344 245.855469 C 181.453125 245.855469 181.1875 246.121094 181.1875 246.449219 L 181.1875 258.5 C 181.1875 258.824219 181.453125 259.089844 181.777344 259.089844 L 193.828125 259.089844 C 194.15625 259.089844 194.421875 258.824219 194.421875 258.5 L 194.421875 252.472656 C 194.421875 251.910156 194.878906 251.449219 195.445312 251.449219 C 196.011719 251.449219 196.46875 251.910156 196.46875 252.472656 L 196.46875 258.5 C 196.46875 259.953125 195.285156 261.140625 193.828125 261.140625 "></path>
<path style=" stroke:none;fill-rule:nonzero;fill:rgb(11.372375%,11.372375%,10.588074%);fill-opacity:1;" d="M 165.644531 295.121094 L 153.59375 295.121094 C 152.136719 295.121094 150.953125 293.9375 150.953125 292.480469 L 150.953125 280.429688 C 150.953125 278.972656 152.136719 277.789062 153.59375 277.789062 L 165.644531 277.789062 C 166.210938 277.789062 166.667969 278.25 166.667969 278.8125 C 166.667969 279.378906 166.210938 279.839844 165.644531 279.839844 L 153.59375 279.839844 C 153.265625 279.839844 153 280.101562 153 280.429688 L 153 292.480469 C 153 292.808594 153.265625 293.074219 153.59375 293.074219 L 165.644531 293.074219 C 165.972656 293.074219 166.234375 292.808594 166.234375 292.480469 L 166.234375 286.457031 C 166.234375 285.890625 166.695312 285.433594 167.261719 285.433594 C 167.824219 285.433594 168.285156 285.890625 168.285156 286.457031 L 168.285156 292.480469 C 168.285156 293.9375 167.101562 295.121094 165.644531 295.121094 "></path>
<path style=" stroke:none;fill-rule:nonzero;fill:rgb(11.372375%,11.372375%,10.588074%);fill-opacity:1;" d="M 221.789062 246.632812 C 220.65625 246.632812 219.597656 247.082031 218.8125 247.898438 C 218.023438 248.710938 217.613281 249.785156 217.652344 250.917969 L 218.773438 287.894531 C 218.804688 288.816406 219.558594 289.542969 220.484375 289.542969 L 223.097656 289.542969 C 224.023438 289.542969 224.777344 288.816406 224.808594 287.890625 L 225.929688 250.921875 C 225.96875 249.785156 225.554688 248.710938 224.769531 247.898438 C 223.980469 247.082031 222.921875 246.632812 221.789062 246.632812 M 223.097656 291.589844 L 220.484375 291.589844 C 218.445312 291.589844 216.796875 289.996094 216.726562 287.964844 L 215.605469 250.984375 C 215.542969 249.296875 216.160156 247.691406 217.335938 246.472656 C 218.515625 245.253906 220.097656 244.582031 221.789062 244.582031 C 223.484375 244.582031 225.066406 245.253906 226.242188 246.472656 C 227.417969 247.691406 228.035156 249.296875 227.976562 250.988281 L 226.855469 287.957031 C 226.785156 289.996094 225.132812 291.589844 223.097656 291.589844 "></path>
<path style=" stroke:none;fill-rule:nonzero;fill:rgb(11.372375%,11.372375%,10.588074%);fill-opacity:1;" d="M 221.789062 246.632812 C 221.226562 246.632812 220.765625 246.175781 220.765625 245.609375 L 220.765625 242.207031 C 220.765625 241.644531 221.226562 241.183594 221.789062 241.183594 C 222.355469 241.183594 222.8125 241.644531 222.8125 242.207031 L 222.8125 245.609375 C 222.8125 246.175781 222.355469 246.632812 221.789062 246.632812 "></path>
<path style=" stroke:none;fill-rule:nonzero;fill:rgb(11.372375%,11.372375%,10.588074%);fill-opacity:1;" d="M 221.789062 297.746094 C 221.226562 297.746094 220.765625 297.285156 220.765625 296.71875 L 220.765625 290.566406 C 220.765625 290 221.226562 289.542969 221.789062 289.542969 C 222.355469 289.542969 222.8125 290 222.8125 290.566406 L 222.8125 296.71875 C 222.8125 297.285156 222.355469 297.746094 221.789062 297.746094 "></path>
<path style=" stroke:none;fill-rule:nonzero;fill:rgb(11.372375%,11.372375%,10.588074%);fill-opacity:1;" d="M 232.949219 265.332031 C 232.933594 265.332031 232.917969 265.332031 232.902344 265.328125 C 232.335938 265.304688 231.898438 264.828125 231.925781 264.261719 L 232.289062 255.894531 C 232.355469 254.433594 231.433594 253.074219 230.046875 252.597656 L 226.609375 251.410156 C 226.074219 251.226562 225.792969 250.644531 225.976562 250.109375 C 226.160156 249.574219 226.742188 249.292969 227.277344 249.476562 L 230.714844 250.664062 C 232.953125 251.433594 234.441406 253.621094 234.335938 255.984375 L 233.972656 264.351562 C 233.945312 264.902344 233.492188 265.332031 232.949219 265.332031 "></path>
</svg>