<?xml version="1.0" encoding="UTF-8"?>
<svg xmlns="http://www.w3.org/2000/svg" xmlns:xlink="http://www.w3.org/1999/xlink" viewBox="180.218 217.517 162.606 214.205" width="162.606" height="214.205" version="1.2">
<g id="surface1">
<path style=" stroke:none;fill-rule:nonzero;fill:rgb(95.294189%,44.313049%,21.176147%);fill-opacity:1;" d="M 294.609375 404.714844 C 294.960938 410.363281 290.667969 415.226562 285.019531 415.582031 C 279.367188 415.933594 274.503906 411.636719 274.152344 405.988281 C 273.800781 400.339844 278.09375 395.476562 283.742188 395.125 C 289.390625 394.769531 294.253906 399.066406 294.609375 404.714844 "></path>
<path style=" stroke:none;fill-rule:nonzero;fill:rgb(31.37207%,20.783997%,58.039856%);fill-opacity:1;" d="M 262.3125 305.578125 C 248.570312 305.578125 237.390625 316.757812 237.390625 330.5 C 237.390625 344.246094 248.570312 355.425781 262.3125 355.425781 C 276.058594 355.425781 287.238281 344.246094 287.238281 330.5 C 287.238281 316.757812 276.058594 305.578125 262.3125 305.578125 M 262.3125 384.554688 C 232.507812 384.554688 208.261719 360.304688 208.261719 330.5 C 208.261719 300.695312 232.507812 276.449219 262.3125 276.449219 C 292.117188 276.449219 316.367188 300.695312 316.367188 330.5 C 316.367188 360.304688 292.117188 384.554688 262.3125 384.554688 "></path>
<path style=" stroke:none;fill-rule:nonzero;fill:rgb(92.941284%,12.156677%,50.196838%);fill-opacity:1;" d="M 213.574219 272.742188 C 210.113281 275.289062 205.726562 275.355469 203.503906 272.898438 L 181.515625 248.5625 C 179.039062 245.816406 180.222656 241.046875 184.085938 238.207031 L 189.394531 234.304688 C 193.257812 231.460938 198.164062 231.753906 200.042969 234.9375 L 216.722656 263.175781 C 218.410156 266.027344 217.035156 270.195312 213.574219 272.742188 "></path>
<path style=" stroke:none;fill-rule:nonzero;fill:rgb(92.941284%,12.156677%,50.196838%);fill-opacity:1;" d="M 306.996094 388.277344 C 310.191406 386.089844 314.402344 386.535156 316.664062 389.304688 L 339.0625 416.71875 C 341.589844 419.804688 340.699219 424.535156 337.136719 426.976562 L 332.242188 430.332031 C 328.679688 432.777344 323.949219 431.902344 321.976562 428.4375 L 304.472656 397.664062 C 302.703125 394.558594 303.804688 390.46875 306.996094 388.277344 "></path>
<path style=" stroke:none;fill-rule:nonzero;fill:rgb(49.411011%,32.156372%,63.137817%);fill-opacity:1;" d="M 305.46875 268.707031 C 301.152344 266.082031 299.183594 261.230469 300.953125 257.570312 L 318.460938 221.34375 C 320.433594 217.261719 326.230469 216.277344 331.050781 219.207031 L 337.664062 223.226562 C 342.476562 226.15625 344.269531 231.761719 341.550781 235.390625 L 317.433594 267.597656 C 314.996094 270.847656 309.785156 271.332031 305.46875 268.707031 "></path>
<path style=" stroke:none;fill-rule:nonzero;fill:rgb(49.411011%,32.156372%,63.137817%);fill-opacity:1;" d="M 221.597656 386.839844 C 225.914062 389.46875 227.882812 394.316406 226.113281 397.976562 L 214.253906 423.355469 C 212.277344 427.4375 206.476562 428.421875 201.664062 425.492188 L 195.050781 421.46875 C 190.230469 418.539062 188.441406 412.9375 191.160156 409.304688 L 209.632812 387.953125 C 212.070312 384.699219 217.28125 384.214844 221.597656 386.839844 "></path>
<path style=" stroke:none;fill-rule:nonzero;fill:rgb(95.294189%,44.313049%,21.176147%);fill-opacity:1;" d="M 244.367188 252.117188 C 244.722656 257.765625 240.425781 262.632812 234.777344 262.984375 C 229.128906 263.335938 224.265625 259.042969 223.914062 253.394531 C 223.5625 247.746094 227.855469 242.878906 233.503906 242.527344 C 239.152344 242.175781 244.015625 246.46875 244.367188 252.117188 "></path>
</g>
</svg>