<?xml version="1.0" encoding="UTF-8"?>
<svg xmlns="http://www.w3.org/2000/svg" viewBox="130 10 190 155">
  <g>
    <path fill="#f37136" d="M283.4,51c4.3-1.1,8.7,1.6,9.8,5.9,1.1,4.3-1.6,8.7-5.9,9.8-4.3,1.1-8.7-1.6-9.8-5.9s1.6-8.7,5.9-9.8"></path>
    <path fill="#503594" d="M210.9,89.9c1.9,10.7,12.2,17.8,22.8,15.9s17.8-12.2,15.9-22.8c-1.9-10.7-12.2-17.8-22.8-15.9s-17.8,12.2-15.9,22.8M272.2,78.9c4.2,23.1-11.3,45.3-34.4,49.5-23.1,4.2-45.3-11.3-49.5-34.4-4.2-23.1,11.3-45.3,34.4-49.5,23.1-4.2,45.3,11.3,49.5,34.4"></path>
    <path fill="#ed1f80" d="M192.3,132.3c2.5,2.3,3.1,5.7,1.5,7.8l-15.8,20.5c-1.8,2.3-5.7,2.1-8.4-.5l-3.8-3.6c-2.7-2.6-3.2-6.5-1-8.4l19.6-16.9c2-1.7,5.4-1.2,7.9,1.1"></path>
    <path fill="#ed1f80" d="M268.9,43.7c-2.1-2.2-2.4-5.5-.6-7.6l18.1-21.2c2-2.4,5.8-2.4,8.2,0l3.3,3.3c2.4,2.4,2.4,6.2,0,8.2l-21.4,17.9c-2.2,1.8-5.5,1.5-7.6-.7"></path>
    <path fill="#7e52a1" d="M176.3,61.6c-1.4,3.7-4.9,5.9-8,5.1l-30.6-8.5c-3.4-1-5-5.3-3.4-9.5l2.2-5.7c1.6-4.1,5.7-6.3,8.9-4.7l28.4,14.2c2.9,1.4,4,5.4,2.5,9.1"></path>
    <path fill="#7e52a1" d="M279.7,110.2c1.4-3.7,4.9-5.9,8-5.1l21.4,5.7c3.4,1,5,5.3,3.4,9.5l-2.2,5.7c-1.6,4.1-5.7,6.3-8.9,4.7l-19.2-11.4c-2.9-1.4-4-5.4-2.5-9.1"></path>
    <path fill="#f37136" d="M171.9,111.3c4.3-1.1,8.7,1.6,9.8,5.9,1.1,4.3-1.6,8.7-5.9,9.8-4.3,1.1-8.7-1.6-9.8-5.9-1.1-4.3,1.6-8.7,5.9-9.8"></path>
  </g>
</svg>