<?xml version="1.0" encoding="UTF-8"?>
<svg xmlns="http://www.w3.org/2000/svg" xmlns:xlink="http://www.w3.org/1999/xlink" width="555.32pt" height="175.83pt" viewBox="19.98 332.66 555.32 175.83" version="1.2">
<g id="surface1">
<path style=" stroke:none;fill-rule:nonzero;fill:rgb(95.294189%,44.313049%,21.176147%);fill-opacity:1;" d="M 271.898438 483.683594 C 272.175781 488.136719 268.789062 491.972656 264.335938 492.25 C 259.878906 492.527344 256.042969 489.144531 255.765625 484.6875 C 255.488281 480.234375 258.875 476.398438 263.328125 476.121094 C 267.78125 475.84375 271.621094 479.226562 271.898438 483.683594 "></path>
<path style=" stroke:none;fill-rule:nonzero;fill:rgb(31.37207%,20.783997%,58.039856%);fill-opacity:1;" d="M 33.734375 382.699219 L 49.171875 382.699219 C 50.828125 382.699219 52.167969 384.039062 52.167969 385.695312 L 52.167969 424.457031 L 79.480469 384.015625 C 80.035156 383.191406 80.964844 382.699219 81.960938 382.699219 L 100.296875 382.699219 C 102.714844 382.699219 104.136719 385.417969 102.753906 387.40625 L 73.039062 430.097656 C 73.039062 430.097656 77.195312 446.464844 99.226562 447.78125 C 100.824219 447.878906 102.085938 449.171875 102.085938 450.773438 L 102.085938 464.503906 C 102.085938 466.128906 100.792969 467.457031 99.167969 467.5 C 90.375 467.730469 64.003906 466.167969 51.886719 440.53125 L 51.886719 464.523438 C 51.886719 466.175781 50.546875 467.519531 48.890625 467.519531 L 33.734375 467.519531 C 32.078125 467.519531 30.734375 466.175781 30.734375 464.523438 L 30.734375 385.695312 C 30.734375 384.039062 32.078125 382.699219 33.734375 382.699219 "></path>
<path style=" stroke:none;fill-rule:nonzero;fill:rgb(31.37207%,20.783997%,58.039856%);fill-opacity:1;" d="M 449.703125 449.351562 L 439.824219 449.351562 C 439.824219 449.351562 432.785156 447.945312 432.785156 441.183594 C 432.785156 434.410156 439.546875 433.28125 439.546875 433.28125 L 457.53125 433.28125 C 459.347656 433.28125 460.722656 434.882812 460.503906 436.683594 C 459.027344 448.84375 449.703125 449.351562 449.703125 449.351562 M 449.265625 383.082031 C 426.832031 383.082031 418.625 394.8125 415.621094 403.574219 C 415.027344 405.304688 416.144531 407.152344 417.945312 407.472656 L 433.414062 410.203125 C 434.597656 410.414062 435.816406 409.910156 436.445312 408.886719 C 438.183594 406.046875 441.714844 403.109375 448.855469 403.109375 C 459.648438 403.109375 461.234375 410.492188 461.238281 414.792969 C 461.242188 416.457031 459.90625 417.808594 458.242188 417.808594 L 435.320312 417.808594 C 423.476562 417.808594 410.78125 426.800781 410.78125 442.589844 C 410.78125 458.382812 421.777344 469.378906 439.546875 469.378906 C 457.3125 469.378906 462.109375 458.382812 462.109375 458.382812 L 462.109375 464.324219 C 462.109375 465.980469 463.449219 467.320312 465.105469 467.320312 L 479.976562 467.320312 C 481.632812 467.320312 482.972656 465.980469 482.972656 464.324219 L 482.972656 412.976562 C 482.972656 412.976562 482.042969 383.082031 449.265625 383.082031 "></path>
<path style=" stroke:none;fill-rule:nonzero;fill:rgb(31.37207%,20.783997%,58.039856%);fill-opacity:1;" d="M 531.269531 449.351562 L 521.390625 449.351562 C 521.390625 449.351562 514.351562 447.945312 514.351562 441.183594 C 514.351562 434.410156 521.113281 433.28125 521.113281 433.28125 L 539.101562 433.28125 C 540.914062 433.28125 542.289062 434.882812 542.070312 436.683594 C 540.59375 448.84375 531.269531 449.351562 531.269531 449.351562 M 530.832031 383.082031 C 508.398438 383.082031 500.191406 394.8125 497.1875 403.574219 C 496.59375 405.304688 497.710938 407.152344 499.511719 407.472656 L 514.980469 410.203125 C 516.164062 410.414062 517.386719 409.910156 518.011719 408.886719 C 519.75 406.046875 523.28125 403.109375 530.421875 403.109375 C 541.214844 403.109375 542.800781 410.492188 542.808594 414.792969 C 542.808594 416.457031 541.472656 417.808594 539.808594 417.808594 L 516.886719 417.808594 C 505.042969 417.808594 492.347656 426.800781 492.347656 442.589844 C 492.347656 458.382812 503.34375 469.378906 521.113281 469.378906 C 538.882812 469.378906 543.675781 458.382812 543.675781 458.382812 L 543.675781 464.324219 C 543.675781 465.980469 545.015625 467.320312 546.671875 467.320312 L 561.542969 467.320312 C 563.199219 467.320312 564.539062 465.980469 564.539062 464.324219 L 564.539062 412.976562 C 564.539062 412.976562 563.609375 383.082031 530.832031 383.082031 "></path>
<path style=" stroke:none;fill-rule:nonzero;fill:rgb(31.37207%,20.783997%,58.039856%);fill-opacity:1;" d="M 159.023438 386.230469 C 151.058594 386.230469 143.679688 388.722656 137.652344 392.945312 C 132.34375 386.527344 124.34375 382.5625 115.488281 382.5625 C 113.28125 382.5625 111.492188 384.351562 111.492188 386.558594 L 111.492188 401.539062 C 111.492188 403.746094 113.28125 405.535156 115.488281 405.535156 C 118.160156 405.535156 120.527344 407.382812 121.121094 409.925781 C 121.882812 413.210938 122.269531 417.316406 122.269531 422.121094 L 122.269531 463.882812 C 122.269531 465.535156 123.609375 466.878906 125.265625 466.878906 L 142.246094 466.878906 C 143.902344 466.878906 145.242188 465.535156 145.242188 463.882812 L 145.242188 422.121094 C 145.242188 415.90625 150.511719 409.199219 159.023438 409.199219 C 167.535156 409.199219 172.804688 415.90625 172.804688 422.121094 L 172.804688 463.882812 C 172.804688 465.535156 174.148438 466.878906 175.800781 466.878906 L 192.78125 466.878906 C 194.4375 466.878906 195.777344 465.535156 195.777344 463.882812 L 195.777344 422.121094 C 195.777344 402.328125 179.289062 386.230469 159.023438 386.230469 "></path>
<path style=" stroke:none;fill-rule:nonzero;fill:rgb(31.37207%,20.783997%,58.039856%);fill-opacity:1;" d="M 246.429688 405.503906 C 235.589844 405.503906 226.773438 414.320312 226.773438 425.15625 C 226.773438 435.996094 235.589844 444.8125 246.429688 444.8125 C 257.265625 444.8125 266.085938 435.996094 266.085938 425.15625 C 266.085938 414.320312 257.265625 405.503906 246.429688 405.503906 M 246.429688 467.785156 C 222.925781 467.785156 203.800781 448.660156 203.800781 425.15625 C 203.800781 401.652344 222.925781 382.53125 246.429688 382.53125 C 269.933594 382.53125 289.054688 401.652344 289.054688 425.15625 C 289.054688 448.660156 269.933594 467.785156 246.429688 467.785156 "></path>
<path style=" stroke:none;fill-rule:nonzero;fill:rgb(31.37207%,20.783997%,58.039856%);fill-opacity:1;" d="M 398.507812 383.367188 L 381.527344 385.367188 C 379.871094 385.367188 378.53125 386.707031 378.53125 388.363281 L 378.53125 433.386719 C 378.53125 438.730469 375.195312 444.484375 369.792969 444.484375 C 364.410156 444.484375 361.078125 438.757812 361.0625 433.425781 L 361.078125 433.386719 L 361.078125 390.359375 C 361.078125 388.703125 359.738281 387.363281 358.082031 387.363281 L 358.066406 387.363281 L 341.105469 389.359375 L 341.085938 389.359375 C 339.429688 389.359375 338.089844 390.703125 338.089844 392.359375 L 338.089844 433.386719 L 338.105469 433.425781 C 338.089844 438.757812 334.757812 444.484375 329.378906 444.484375 C 323.976562 444.484375 320.640625 438.730469 320.640625 433.386719 L 320.640625 386.363281 C 320.640625 384.710938 319.296875 383.367188 317.644531 383.367188 L 300.664062 385.367188 C 299.007812 385.367188 297.667969 386.707031 297.667969 388.363281 L 297.667969 433.386719 C 297.667969 452.175781 311.890625 467.457031 329.378906 467.457031 C 337.046875 467.457031 344.09375 464.511719 349.585938 459.613281 C 355.078125 464.511719 362.125 467.457031 369.792969 467.457031 C 387.28125 467.457031 401.503906 452.175781 401.503906 433.386719 L 401.503906 386.363281 C 401.503906 384.710938 400.160156 383.367188 398.507812 383.367188 "></path>
<path style=" stroke:none;fill-rule:nonzero;fill:rgb(92.941284%,12.156677%,50.196838%);fill-opacity:1;" d="M 207.992188 379.605469 C 205.261719 381.617188 201.800781 381.667969 200.050781 379.730469 L 182.710938 360.539062 C 180.757812 358.375 181.691406 354.613281 184.738281 352.371094 L 188.921875 349.292969 C 191.96875 347.054688 195.839844 347.285156 197.320312 349.792969 L 210.476562 372.0625 C 211.804688 374.3125 210.722656 377.597656 207.992188 379.605469 "></path>
<path style=" stroke:none;fill-rule:nonzero;fill:rgb(92.941284%,12.156677%,50.196838%);fill-opacity:1;" d="M 281.667969 470.722656 C 284.1875 468.992188 287.507812 469.347656 289.289062 471.53125 L 306.957031 493.148438 C 308.945312 495.585938 308.246094 499.3125 305.433594 501.242188 L 301.578125 503.886719 C 298.765625 505.816406 295.035156 505.125 293.480469 502.390625 L 279.675781 478.125 C 278.28125 475.675781 279.148438 472.449219 281.667969 470.722656 "></path>
<path style=" stroke:none;fill-rule:nonzero;fill:rgb(49.411011%,32.156372%,63.137817%);fill-opacity:1;" d="M 280.460938 376.425781 C 277.058594 374.355469 275.507812 370.53125 276.898438 367.644531 L 290.707031 339.074219 C 292.261719 335.855469 296.835938 335.078125 300.636719 337.386719 L 305.851562 340.558594 C 309.648438 342.871094 311.0625 347.289062 308.917969 350.152344 L 289.894531 375.550781 C 287.976562 378.113281 283.863281 378.496094 280.460938 376.425781 "></path>
<path style=" stroke:none;fill-rule:nonzero;fill:rgb(49.411011%,32.156372%,63.137817%);fill-opacity:1;" d="M 214.320312 469.589844 C 217.722656 471.660156 219.273438 475.484375 217.878906 478.371094 L 208.527344 498.382812 C 206.972656 501.601562 202.398438 502.378906 198.597656 500.070312 L 193.382812 496.898438 C 189.585938 494.585938 188.171875 490.167969 190.316406 487.304688 L 204.882812 470.464844 C 206.804688 467.898438 210.917969 467.515625 214.320312 469.589844 "></path>
<path style=" stroke:none;fill-rule:nonzero;fill:rgb(95.294189%,44.313049%,21.176147%);fill-opacity:1;" d="M 232.277344 363.34375 C 232.554688 367.796875 229.167969 371.632812 224.714844 371.910156 C 220.257812 372.191406 216.421875 368.804688 216.144531 364.347656 C 215.867188 359.894531 219.253906 356.058594 223.707031 355.78125 C 228.164062 355.503906 232 358.890625 232.277344 363.34375 "></path>
</g>
</svg>