<?xml version="1.0" encoding="UTF-8"?>
<svg xmlns="http://www.w3.org/2000/svg" xmlns:xlink="http://www.w3.org/1999/xlink" width="680" height="240" viewBox="50 38 170 60" version="1.2">
<g id="surface1">
<path style=" stroke:none;fill-rule:nonzero;fill:rgb(100%,100%,100%);fill-opacity:1;" d="M 52.980469 55.351562 L 57.714844 55.351562 C 58.222656 55.351562 58.632812 55.761719 58.632812 56.269531 L 58.632812 68.160156 L 67.011719 55.753906 C 67.179688 55.503906 67.464844 55.351562 67.769531 55.351562 L 73.394531 55.351562 C 74.136719 55.351562 74.574219 56.1875 74.148438 56.796875 L 65.035156 69.890625 C 65.035156 69.890625 66.308594 74.910156 73.066406 75.3125 C 73.554688 75.34375 73.941406 75.738281 73.941406 76.230469 L 73.941406 80.441406 C 73.941406 80.941406 73.546875 81.347656 73.046875 81.359375 C 70.351562 81.429688 62.265625 80.953125 58.546875 73.089844 L 58.546875 80.445312 C 58.546875 80.953125 58.136719 81.367188 57.628906 81.367188 L 52.980469 81.367188 C 52.472656 81.367188 52.058594 80.953125 52.058594 80.445312 L 52.058594 56.269531 C 52.058594 55.761719 52.472656 55.351562 52.980469 55.351562 "></path>
<path style=" stroke:none;fill-rule:nonzero;fill:rgb(100%,100%,100%);fill-opacity:1;" d="M 180.558594 75.792969 L 177.527344 75.792969 C 177.527344 75.792969 175.367188 75.363281 175.367188 73.289062 C 175.367188 71.210938 177.441406 70.867188 177.441406 70.867188 L 182.960938 70.867188 C 183.515625 70.867188 183.9375 71.355469 183.871094 71.910156 C 183.417969 75.636719 180.558594 75.792969 180.558594 75.792969 M 180.421875 55.46875 C 173.542969 55.46875 171.027344 59.066406 170.105469 61.753906 C 169.921875 62.285156 170.265625 62.851562 170.816406 62.949219 L 175.5625 63.789062 C 175.925781 63.851562 176.300781 63.699219 176.492188 63.382812 C 177.023438 62.511719 178.109375 61.613281 180.296875 61.613281 C 183.609375 61.613281 184.09375 63.875 184.097656 65.195312 C 184.097656 65.707031 183.6875 66.121094 183.175781 66.121094 L 176.144531 66.121094 C 172.515625 66.121094 168.621094 68.878906 168.621094 73.722656 C 168.621094 78.5625 171.992188 81.9375 177.441406 81.9375 C 182.890625 81.9375 184.363281 78.5625 184.363281 78.5625 L 184.363281 80.386719 C 184.363281 80.894531 184.773438 81.304688 185.28125 81.304688 L 189.84375 81.304688 C 190.351562 81.304688 190.761719 80.894531 190.761719 80.386719 L 190.761719 64.636719 C 190.761719 64.636719 190.476562 55.46875 180.421875 55.46875 "></path>
<path style=" stroke:none;fill-rule:nonzero;fill:rgb(100%,100%,100%);fill-opacity:1;" d="M 205.574219 75.792969 L 202.546875 75.792969 C 202.546875 75.792969 200.386719 75.363281 200.386719 73.289062 C 200.386719 71.210938 202.460938 70.867188 202.460938 70.867188 L 207.976562 70.867188 C 208.53125 70.867188 208.953125 71.355469 208.886719 71.910156 C 208.433594 75.636719 205.574219 75.792969 205.574219 75.792969 M 205.441406 55.46875 C 198.558594 55.46875 196.042969 59.066406 195.121094 61.753906 C 194.941406 62.285156 195.28125 62.851562 195.835938 62.949219 L 200.578125 63.789062 C 200.941406 63.851562 201.316406 63.699219 201.507812 63.382812 C 202.042969 62.511719 203.125 61.613281 205.3125 61.613281 C 208.625 61.613281 209.113281 63.875 209.113281 65.195312 C 209.113281 65.707031 208.703125 66.121094 208.195312 66.121094 L 201.164062 66.121094 C 197.53125 66.121094 193.636719 68.878906 193.636719 73.722656 C 193.636719 78.5625 197.011719 81.9375 202.460938 81.9375 C 207.910156 81.9375 209.378906 78.5625 209.378906 78.5625 L 209.378906 80.386719 C 209.378906 80.894531 209.789062 81.304688 210.296875 81.304688 L 214.859375 81.304688 C 215.367188 81.304688 215.777344 80.894531 215.777344 80.386719 L 215.777344 64.636719 C 215.777344 64.636719 215.492188 55.46875 205.441406 55.46875 "></path>
<path style=" stroke:none;fill-rule:nonzero;fill:rgb(100%,100%,100%);fill-opacity:1;" d="M 91.40625 56.433594 C 88.964844 56.433594 86.699219 57.199219 84.851562 58.496094 C 83.222656 56.527344 80.769531 55.308594 78.054688 55.308594 C 77.378906 55.308594 76.828125 55.859375 76.828125 56.535156 L 76.828125 61.128906 C 76.828125 61.808594 77.378906 62.355469 78.054688 62.355469 C 78.875 62.355469 79.597656 62.921875 79.78125 63.703125 C 80.015625 64.710938 80.132812 65.96875 80.132812 67.441406 L 80.132812 80.25 C 80.132812 80.757812 80.546875 81.167969 81.050781 81.167969 L 86.261719 81.167969 C 86.769531 81.167969 87.179688 80.757812 87.179688 80.25 L 87.179688 67.441406 C 87.179688 65.535156 88.796875 63.480469 91.40625 63.480469 C 94.015625 63.480469 95.632812 65.535156 95.632812 67.441406 L 95.632812 80.25 C 95.632812 80.757812 96.042969 81.167969 96.550781 81.167969 L 101.757812 81.167969 C 102.265625 81.167969 102.679688 80.757812 102.679688 80.25 L 102.679688 67.441406 C 102.679688 61.371094 97.621094 56.433594 91.40625 56.433594 "></path>
<path style=" stroke:none;fill-rule:nonzero;fill:rgb(100%,100%,100%);fill-opacity:1;" d="M 118.214844 62.34375 C 114.890625 62.34375 112.183594 65.050781 112.183594 68.375 C 112.183594 71.699219 114.890625 74.402344 118.214844 74.402344 C 121.539062 74.402344 124.242188 71.699219 124.242188 68.375 C 124.242188 65.050781 121.539062 62.34375 118.214844 62.34375 M 118.214844 81.449219 C 111.003906 81.449219 105.140625 75.582031 105.140625 68.375 C 105.140625 61.164062 111.003906 55.300781 118.214844 55.300781 C 125.421875 55.300781 131.289062 61.164062 131.289062 68.375 C 131.289062 75.582031 125.421875 81.449219 118.214844 81.449219 "></path>
<path style=" stroke:none;fill-rule:nonzero;fill:rgb(100%,100%,100%);fill-opacity:1;" d="M 165.773438 54.636719 L 160.566406 55.25 C 160.058594 55.25 159.648438 55.660156 159.648438 56.171875 L 159.648438 69.980469 C 159.648438 71.617188 158.625 73.382812 156.96875 73.382812 C 155.316406 73.382812 154.296875 71.625 154.289062 69.992188 L 154.296875 69.980469 L 154.296875 56.78125 C 154.296875 56.273438 153.882812 55.863281 153.378906 55.863281 L 153.371094 55.863281 L 148.167969 56.476562 L 148.164062 56.476562 C 147.65625 56.476562 147.246094 56.886719 147.246094 57.394531 L 147.246094 69.980469 L 147.25 69.992188 C 147.246094 71.625 146.222656 73.382812 144.574219 73.382812 C 142.914062 73.382812 141.894531 71.617188 141.894531 69.980469 L 141.894531 55.558594 C 141.894531 55.050781 141.480469 54.636719 140.972656 54.636719 L 135.765625 55.25 C 135.257812 55.25 134.847656 55.660156 134.847656 56.171875 L 134.847656 69.980469 C 134.847656 75.742188 139.210938 80.425781 144.574219 80.425781 C 146.925781 80.425781 149.085938 79.523438 150.769531 78.023438 C 152.457031 79.523438 154.617188 80.425781 156.96875 80.425781 C 162.332031 80.425781 166.695312 75.742188 166.695312 69.980469 L 166.695312 55.558594 C 166.695312 55.050781 166.28125 54.636719 165.773438 54.636719 "></path>
<path style=" stroke:none;fill-rule:nonzero;fill:rgb(92.941284%,12.156677%,50.196838%);fill-opacity:1;" d="M 106.425781 54.402344 C 105.585938 55.019531 104.527344 55.035156 103.988281 54.441406 L 98.671875 48.554688 C 98.070312 47.890625 98.359375 46.738281 99.292969 46.050781 L 100.574219 45.105469 C 101.511719 44.417969 102.699219 44.488281 103.152344 45.257812 L 107.1875 52.089844 C 107.59375 52.78125 107.261719 53.789062 106.425781 54.402344 "></path>
<path style=" stroke:none;fill-rule:nonzero;fill:rgb(92.941284%,12.156677%,50.196838%);fill-opacity:1;" d="M 129.019531 82.347656 C 129.792969 81.820312 130.8125 81.925781 131.359375 82.597656 L 136.777344 89.226562 C 137.386719 89.972656 137.171875 91.117188 136.3125 91.710938 L 135.128906 92.519531 C 134.265625 93.109375 133.121094 92.898438 132.644531 92.0625 L 128.410156 84.617188 C 127.984375 83.867188 128.25 82.878906 129.019531 82.347656 "></path>
<path style=" stroke:none;fill-rule:nonzero;fill:rgb(49.411011%,32.156372%,63.137817%);fill-opacity:1;" d="M 128.652344 53.429688 C 127.609375 52.792969 127.132812 51.617188 127.558594 50.734375 L 131.792969 41.972656 C 132.269531 40.984375 133.675781 40.746094 134.839844 41.453125 L 136.4375 42.425781 C 137.601562 43.136719 138.035156 44.492188 137.378906 45.371094 L 131.542969 53.160156 C 130.957031 53.945312 129.695312 54.0625 128.652344 53.429688 "></path>
<path style=" stroke:none;fill-rule:nonzero;fill:rgb(49.411011%,32.156372%,63.137817%);fill-opacity:1;" d="M 108.367188 82 C 109.410156 82.636719 109.886719 83.808594 109.457031 84.695312 L 106.589844 90.832031 C 106.113281 91.820312 104.710938 92.058594 103.542969 91.347656 L 101.945312 90.375 C 100.777344 89.667969 100.34375 88.3125 101.003906 87.433594 L 105.472656 82.269531 C 106.0625 81.480469 107.320312 81.367188 108.367188 82 "></path>
<path style=" stroke:none;fill-rule:nonzero;fill:rgb(95.294189%,44.313049%,21.176147%);fill-opacity:1;" d="M 113.875 49.414062 C 113.957031 50.78125 112.917969 51.957031 111.554688 52.042969 C 110.1875 52.128906 109.011719 51.089844 108.925781 49.722656 C 108.839844 48.359375 109.878906 47.179688 111.246094 47.097656 C 112.613281 47.011719 113.789062 48.050781 113.875 49.414062 "></path>
<path style=" stroke:none;fill-rule:nonzero;fill:rgb(95.294189%,44.313049%,21.176147%);fill-opacity:1;" d="M 126.023438 86.324219 C 126.109375 87.691406 125.070312 88.867188 123.707031 88.953125 C 122.339844 89.035156 121.164062 88 121.078125 86.632812 C 120.992188 85.265625 122.03125 84.089844 123.398438 84.003906 C 124.761719 83.917969 125.941406 84.957031 126.023438 86.324219 "></path>
</g>
</svg>