<?xml version="1.0" encoding="UTF-8"?>

<svg version="1.1" xmlns="http://www.w3.org/2000/svg" width="878" height="536">
<path d="M0 0 C94.05 0 188.1 0 285 0 C285.186 47.004 285.371 94.009 285.562 142.438 C285.624 157.307 285.685 172.177 285.748 187.498 C285.816 205.584 285.816 205.584 285.847 214.037 C285.869 219.971 285.893 225.905 285.919 231.84 C285.95 238.675 285.977 245.51 285.999 252.345 C286.011 255.845 286.024 259.346 286.042 262.846 C286.06 266.584 286.072 270.322 286.082 274.06 C286.089 275.166 286.096 276.271 286.103 277.411 C286.104 278.406 286.106 279.401 286.107 280.426 C286.111 281.291 286.114 282.157 286.118 283.048 C286 285 286 285 285 286 C283.478 286.097 281.951 286.124 280.426 286.123 C279.431 286.125 278.436 286.127 277.411 286.129 C276.305 286.126 275.199 286.123 274.06 286.12 C273.479 286.121 273.479 286.121 270.539 286.123 C267.293 286.124 264.048 286.121 260.802 286.116 C257.256 286.112 253.71 286.113 250.163 286.114 C243.271 286.114 236.379 286.11 229.487 286.103 C221.519 286.096 213.552 286.095 205.584 286.095 C184.535 286.089 163.486 286.075 142.438 286.062 C95.433 286.042 48.429 286.021 0 286 C0 191.62 0 97.24 0 0 Z " fill="#0E0E0E" transform="translate(330,6)"></path>
<path d="M0 0 C9.218 7.314 14.404 17.328 16.402 28.906 C16.695 32.515 16.736 36.099 16.715 39.719 C16.711 40.693 16.706 41.668 16.702 42.672 C16.595 49.466 16.027 55.573 13.402 61.906 C13.275 62.248 13.275 62.248 12.629 63.98 C8.465 73.702 0.053 81.778 -9.598 85.906 C-25.763 91.317 -42.121 91.823 -57.777 84.398 C-68.736 77.872 -76.202 68.568 -79.602 56.277 C-83.214 40.705 -82.222 24.259 -74.027 10.215 C-66.515 -0.11 -56.473 -5.497 -44.266 -8.707 C-28.613 -10.976 -13.209 -9.155 0 0 Z " fill="#0E0E0E" transform="translate(851.59765625,398.09375)"></path>
<path d="M0 0 C4.156 -0.041 4.156 -0.041 25.188 -0.25 C27.784 -0.286 30.38 -0.323 33.055 -0.36 C59.303 -0.577 59.303 -0.577 69.562 7.188 C74.863 12.465 77.177 18.047 77.438 25.5 C77.056 34.304 74.516 40.959 68 47 C63.742 50 63.742 50 61 50 C64.492 59.814 68.826 68.875 73.688 78.062 C74.371 79.366 75.054 80.67 75.736 81.975 C76.979 84.349 78.225 86.72 79.475 89.09 C80.675 91.38 81.844 93.687 83 96 C73.76 96 64.52 96 55 96 C54.34 93.36 53.68 90.72 53 88 C52.226 86.036 51.396 84.093 50.504 82.18 C50.028 81.15 49.551 80.12 49.061 79.059 C48.566 78.008 48.072 76.957 47.562 75.875 C47.072 74.817 46.582 73.758 46.076 72.668 C45.134 70.641 44.175 68.622 43.196 66.612 C42 64 42 64 40.965 60.32 C40.641 59.937 40.641 59.937 39 58 C34.71 57.67 30.42 57.34 26 57 C26.33 69.87 26.66 82.74 27 96 C18.09 96 9.18 96 0 96 C0 64.32 0 32.64 0 0 Z " fill="#0E0E0E" transform="translate(436,390)"></path>
<path d="M0 0 C7.08 -0.076 14.16 -0.129 21.24 -0.165 C23.646 -0.18 26.051 -0.2 28.456 -0.226 C31.927 -0.263 35.397 -0.28 38.867 -0.293 C39.931 -0.308 40.995 -0.324 42.091 -0.34 C51.297 -0.342 59.671 1.067 67 7 C74.298 14.923 75.382 22.956 75.273 33.355 C74.673 41.362 72.106 48.158 66.047 53.57 C62.306 56.183 58.338 57.662 54 59 C53.337 59.214 52.675 59.428 51.992 59.648 C43.939 61.827 35.288 61.66 27 62 C26.975 66.038 26.957 70.077 26.945 74.115 C26.94 75.488 26.933 76.86 26.925 78.233 C26.912 80.211 26.907 82.19 26.902 84.168 C26.897 85.357 26.892 86.545 26.886 87.77 C27 91 27 91 28 96 C18.76 96 9.52 96 0 96 C0.33 95.01 0.66 94.02 1 93 C1.097 90.14 1.136 87.305 1.129 84.445 C1.131 83.572 1.133 82.698 1.135 81.799 C1.139 78.907 1.136 76.016 1.133 73.125 C1.133 71.119 1.134 69.112 1.136 67.106 C1.137 62.899 1.135 58.693 1.13 54.486 C1.125 49.089 1.128 43.692 1.134 38.295 C1.138 34.151 1.136 30.008 1.134 25.864 C1.133 23.874 1.134 21.883 1.136 19.893 C1.139 17.114 1.135 14.334 1.129 11.555 C1.131 10.729 1.133 9.903 1.136 9.051 C1.123 5.776 1.043 3.13 0 0 Z " fill="#0E0E0E" transform="translate(353,390)"></path>
<path d="M0 0 C4.154 3.517 8.097 7.209 12 11 C12.953 11.913 13.905 12.825 14.887 13.766 C21.087 19.819 26.669 26.178 32 33 C32.514 33.654 33.029 34.308 33.559 34.981 C40.517 43.832 47.374 52.753 54.093 61.786 C54.55 62.399 55.006 63.013 55.477 63.645 C55.869 64.174 56.262 64.704 56.667 65.249 C58.405 67.532 60.202 69.765 62 72 C62.025 66.11 62.043 60.22 62.055 54.33 C62.06 52.327 62.067 50.324 62.075 48.322 C62.088 45.44 62.093 42.558 62.098 39.676 C62.103 38.783 62.108 37.89 62.113 36.97 C62.113 36.13 62.113 35.289 62.114 34.423 C62.116 33.688 62.118 32.953 62.12 32.196 C62 30 62 30 61 25 C66.28 25 71.56 25 77 25 C76.67 25.99 76.34 26.98 76 28 C75.901 29.37 75.854 30.745 75.842 32.119 C75.832 32.956 75.822 33.793 75.812 34.656 C75.806 35.571 75.801 36.486 75.795 37.428 C75.785 38.395 75.775 39.361 75.765 40.356 C75.733 43.554 75.708 46.751 75.684 49.949 C75.663 52.165 75.642 54.38 75.621 56.595 C75.565 62.43 75.516 68.264 75.468 74.099 C75.418 80.051 75.362 86.003 75.307 91.955 C75.199 103.637 75.098 115.318 75 127 C71.01 125.67 69.444 123.05 67 119.812 C66.008 118.523 65.016 117.234 64.023 115.945 C63.519 115.286 63.015 114.626 62.495 113.946 C60.671 111.572 58.818 109.223 56.96 106.875 C50.823 99.116 44.815 91.259 38.821 83.389 C36.85 80.803 34.874 78.22 32.898 75.637 C26.846 67.718 20.801 59.802 14.969 51.719 C-5.112 23.988 -26.151 -3.637 -61.637 -10.727 C-70.653 -12.14 -78.971 -11.948 -88 -11 C-88 -11.66 -88 -12.32 -88 -13 C-59.075 -23.606 -24.637 -18.66 0 0 Z " fill="#FFFFFF" transform="translate(446,75)"></path>
<path d="M0 0 C0.66 0 1.32 0 2 0 C3.706 1.985 5.298 3.978 6.875 6.062 C7.873 7.359 8.872 8.654 9.871 9.949 C10.388 10.621 10.905 11.293 11.437 11.986 C13.411 14.529 15.429 17.034 17.452 19.537 C23.184 26.628 28.697 33.862 34.141 41.176 C36.681 44.585 39.269 47.953 41.875 51.312 C45.918 56.544 49.844 61.853 53.75 67.188 C62.892 79.655 72.318 91.911 82.188 103.812 C83.265 105.113 84.332 106.422 85.375 107.75 C98.257 124.022 118.563 135.078 138.797 138.469 C146.958 139.381 154.886 139.18 163 138 C162.67 138.99 162.34 139.98 162 141 C145.091 147.805 122.188 147.52 105 142 C104.375 141.807 103.75 141.613 103.106 141.414 C88.185 136.704 76.198 128.948 65 118 C64.469 117.493 63.938 116.987 63.391 116.465 C55.35 108.789 48.156 100.821 41.473 91.944 C39.263 89.028 37.007 86.149 34.755 83.265 C27.438 73.895 20.125 64.516 13 55 C12.975 61.051 12.957 67.101 12.945 73.152 C12.94 75.21 12.933 77.268 12.925 79.327 C12.912 82.285 12.907 85.244 12.902 88.203 C12.897 89.123 12.892 90.043 12.887 90.991 C12.887 91.851 12.887 92.712 12.886 93.599 C12.885 93.976 12.885 93.976 12.88 95.887 C13 98 13 98 14 102 C8.72 102 3.44 102 -2 102 C-1.67 101.01 -1.34 100.02 -1 99 C-0.901 97.63 -0.854 96.255 -0.842 94.881 C-0.837 94.462 -0.837 94.462 -0.812 92.344 C-0.806 91.429 -0.801 90.514 -0.795 89.572 C-0.785 88.605 -0.775 87.639 -0.765 86.644 C-0.733 83.446 -0.708 80.249 -0.684 77.051 C-0.663 74.835 -0.642 72.62 -0.621 70.405 C-0.565 64.57 -0.516 58.736 -0.468 52.901 C-0.418 46.949 -0.362 40.997 -0.307 35.045 C-0.199 23.363 -0.098 11.682 0 0 Z " fill="#FFFFFF" transform="translate(424,95)"></path>
<path d="M0 0 C4.06 3.24 7.787 6.819 11.468 10.479 C12.944 11.945 14.44 13.388 15.941 14.828 C22.13 20.854 27.688 27.199 33 34 C33.53 34.675 34.061 35.35 34.607 36.046 C41.176 44.414 47.665 52.837 54.027 61.363 C56.003 64.004 57.992 66.634 60 69.25 C60.557 69.977 61.114 70.704 61.688 71.453 C62.121 71.964 62.554 72.474 63 73 C63.33 73 63.66 73 64 73 C63.67 57.49 63.34 41.98 63 26 C67.95 26 72.9 26 78 26 C77.67 26.99 77.34 27.98 77 29 C76.901 30.37 76.854 31.745 76.842 33.119 C76.832 33.956 76.822 34.793 76.812 35.656 C76.806 36.571 76.801 37.486 76.795 38.428 C76.785 39.395 76.775 40.361 76.765 41.356 C76.733 44.554 76.708 47.751 76.684 50.949 C76.663 53.165 76.642 55.38 76.621 57.595 C76.565 63.43 76.516 69.264 76.468 75.099 C76.418 81.051 76.362 87.003 76.307 92.955 C76.199 104.637 76.098 116.318 76 128 C70.489 122.519 70.489 122.519 68.344 119.828 C67.886 119.255 67.428 118.683 66.956 118.093 C66.475 117.484 65.995 116.876 65.5 116.25 C64.982 115.599 64.465 114.948 63.931 114.277 C59.555 108.75 55.264 103.159 50.998 97.548 C47.622 93.108 44.208 88.702 40.765 84.314 C35.532 77.64 30.43 70.901 25.5 64 C19.459 55.551 13.171 47.32 6.723 39.177 C5.588 37.743 4.456 36.306 3.328 34.866 C-10.74 16.929 -25.716 0.344 -48 -7 C-49.152 -7.391 -50.305 -7.781 -51.492 -8.184 C-63.257 -11.66 -74.817 -11.416 -87 -11 C-84.506 -13.494 -82.725 -13.745 -79.312 -14.562 C-78.298 -14.811 -77.284 -15.06 -76.238 -15.316 C-49.962 -20.863 -21.975 -15.624 0 0 Z " fill="#0E0E0E" transform="translate(97,364)"></path>
<path d="M0 0 C2.792 2.776 5.532 5.509 8.016 8.566 C8.54 9.21 9.064 9.854 9.604 10.517 C10.147 11.192 10.69 11.867 11.25 12.562 C11.824 13.273 12.399 13.983 12.99 14.715 C16.983 19.677 20.856 24.716 24.645 29.836 C27.453 33.609 30.32 37.334 33.188 41.062 C37.929 47.238 42.583 53.472 47.188 59.75 C51.93 66.215 56.729 72.626 61.645 78.961 C63.257 81.042 64.86 83.128 66.449 85.227 C86.415 111.544 105.931 132.094 139.5 138.688 C147.045 139.361 154.539 139.357 162 138 C162 138.66 162 139.32 162 140 C159.626 140.649 157.251 141.295 154.875 141.938 C154.21 142.12 153.545 142.302 152.859 142.49 C129.45 148.802 104.6 144.373 83.625 132.625 C67.748 122.771 54.347 108.742 43 94 C41.924 92.628 40.847 91.257 39.77 89.887 C33.405 81.771 27.133 73.59 20.995 65.302 C20.542 64.692 20.088 64.082 19.621 63.453 C19.234 62.929 18.846 62.404 18.447 61.864 C16.367 59.184 14.181 56.599 12 54 C11.975 60.211 11.957 66.423 11.945 72.634 C11.94 74.748 11.933 76.861 11.925 78.975 C11.912 82.011 11.907 85.046 11.902 88.082 C11.897 89.029 11.892 89.976 11.887 90.952 C11.887 91.832 11.887 92.713 11.886 93.62 C11.885 94.008 11.885 94.008 11.88 95.969 C12 98 12 98 13 101 C8.05 101 3.1 101 -2 101 C-1.67 100.01 -1.34 99.02 -1 98 C-0.901 96.642 -0.854 95.28 -0.842 93.919 C-0.832 93.09 -0.822 92.261 -0.812 91.408 C-0.809 90.955 -0.809 90.955 -0.795 88.663 C-0.785 87.707 -0.775 86.751 -0.765 85.765 C-0.733 82.6 -0.708 79.435 -0.684 76.27 C-0.663 74.077 -0.642 71.884 -0.621 69.691 C-0.565 63.916 -0.516 58.14 -0.468 52.365 C-0.418 46.473 -0.362 40.581 -0.307 34.689 C-0.199 23.126 -0.098 11.563 0 0 Z " fill="#0E0E0E" transform="translate(77,385)"></path>
<path d="M0 0 C0.81 0.003 1.621 0.005 2.456 0.008 C13.559 0.195 24.445 2.116 35.062 5.312 C35.062 9.272 35.062 13.233 35.062 17.312 C33.846 16.879 32.629 16.446 31.375 16 C19.021 11.914 7.361 8.759 -4.938 14.312 C-8.361 16.381 -9.623 17.409 -10.938 21.188 C-10.938 25.153 -10.076 26.97 -7.938 30.312 C-5.504 31.86 -3.353 33.03 -0.75 34.188 C0.693 34.871 2.135 35.555 3.578 36.238 C4.319 36.581 5.059 36.923 5.822 37.276 C33.162 49.927 33.162 49.927 38.312 61 C40.215 69.404 39.415 76.799 35.062 84.312 C27.929 93.697 18.435 97.642 7.062 99.312 C3.536 99.613 0.038 99.693 -3.5 99.688 C-4.447 99.687 -5.393 99.687 -6.368 99.687 C-15.775 99.537 -26.927 98.653 -34.938 93.312 C-35.23 90.711 -35.23 90.711 -35.125 87.688 C-35.098 86.685 -35.071 85.682 -35.043 84.648 C-35.026 84.263 -35.026 84.263 -34.938 82.312 C-34.294 82.494 -33.651 82.676 -32.988 82.863 C-4.989 90.652 -4.989 90.652 8.062 85.312 C11.966 82.873 14.01 80.84 15.062 76.312 C15.062 72.812 15.062 72.812 14.062 69.312 C9.942 65.378 5.679 62.867 0.562 60.438 C-0.132 60.097 -0.827 59.757 -1.543 59.406 C-4.32 58.048 -7.105 56.708 -9.898 55.381 C-31.36 45.183 -31.36 45.183 -36.188 34.562 C-37.86 27.315 -37.389 20.948 -33.938 14.312 C-29.344 7.135 -21.821 3.154 -13.637 1.16 C-9.068 0.23 -4.654 -0.033 0 0 Z " fill="#0E0E0E" transform="translate(640.9375,388.6875)"></path>
<path d="M0 0 C0 3.96 0 7.92 0 12 C-1.361 11.546 -2.722 11.092 -4.125 10.625 C-4.95 10.352 -5.775 10.078 -6.625 9.797 C-8.466 9.179 -10.298 8.533 -12.125 7.875 C-21.416 5.047 -31.145 4.753 -40 9 C-42.891 11.065 -44.55 12.433 -45.543 15.891 C-45.844 18.87 -45.697 21.11 -43.811 23.518 C-38.489 28.106 -32.615 30.703 -26.188 33.438 C-14.997 38.209 -2.455 43.798 3.137 55.348 C5.305 62.01 4.84 69.885 1.957 76.27 C-2.713 84.714 -11.133 90.116 -20.25 92.938 C-36.343 96.29 -55.168 95.416 -70 88 C-70 84.37 -70 80.74 -70 77 C-64.924 78.015 -60.175 79.482 -55.254 81.062 C-45.65 83.829 -36.196 84.271 -27 80 C-23.625 77.774 -21.261 75.898 -20 72 C-19.667 68 -19.833 65.386 -22 62 C-27.966 57.501 -35.046 54.475 -41.796 51.346 C-66.957 39.676 -66.957 39.676 -71 29 C-73.12 20.843 -71.558 13.503 -67.438 6.25 C-49.301 -10.491 -21.784 -6.558 0 0 Z " fill="#0E0E0E" transform="translate(758,394)"></path>
<path d="M0 0 C0 3.96 0 7.92 0 12 C-1.002 11.651 -2.003 11.301 -3.035 10.941 C-4.377 10.481 -5.72 10.022 -7.062 9.562 C-7.719 9.332 -8.376 9.102 -9.053 8.865 C-19.278 5.39 -30.036 4.201 -40 9 C-43.704 11.722 -44.83 12.945 -45.562 17.5 C-44.898 21.635 -43.852 22.983 -41 26 C-38.145 27.738 -38.145 27.738 -34.812 29.312 C-34.21 29.604 -33.607 29.895 -32.985 30.196 C-29.567 31.837 -26.115 33.4 -22.652 34.945 C-0.775 44.783 -0.775 44.783 3.383 54.941 C5.656 62.523 5.209 68.724 2 76 C-3.037 85.06 -11.319 89.985 -21 93 C-36.589 96.372 -55.667 95.167 -70 88 C-69.67 84.37 -69.34 80.74 -69 77 C-67.618 77.433 -66.236 77.866 -64.812 78.312 C-50.947 82.431 -38.508 85.993 -25 79 C-22.077 76.862 -20.383 74.636 -19.535 71.012 C-19.248 67.293 -19.709 65.35 -22.086 62.488 C-25.259 59.778 -28.5 57.995 -32.25 56.25 C-33.673 55.562 -35.095 54.871 -36.516 54.18 C-37.25 53.825 -37.984 53.47 -38.74 53.104 C-64.794 40.37 -64.794 40.37 -70 31 C-72.085 24.745 -72.217 16.717 -69.5 10.625 C-64.335 2.065 -56.177 -2.134 -46.762 -4.582 C-31.452 -6.899 -14.638 -4.879 0 0 Z " fill="#0E0E0E" transform="translate(339,394)"></path>
<path d="M0 0 C11.034 -0.021 22.069 -0.041 33.438 -0.062 C35.182 -0.067 35.182 -0.067 44.01 -0.09 C46.755 -0.093 49.501 -0.096 52.246 -0.098 C52.964 -0.1 53.682 -0.103 54.422 -0.106 C56.527 -0.113 58.631 -0.114 60.736 -0.114 C61.924 -0.116 63.112 -0.118 64.336 -0.12 C67 0 67 0 68 1 C68.098 2.497 68.13 3.999 68.125 5.5 C68.126 5.907 68.126 5.907 68.133 7.969 C68 10 68 10 67 11 C64.474 11.017 61.979 10.971 59.457 10.879 C58.696 10.855 57.935 10.832 57.15 10.807 C54.704 10.731 52.258 10.647 49.812 10.562 C47.384 10.483 44.956 10.405 42.528 10.328 C41.016 10.28 39.503 10.23 37.99 10.178 C33.988 10.045 30.008 10 26 10 C26 20.56 26 31.12 26 42 C36.89 41.67 47.78 41.34 59 41 C59 44.96 59 48.92 59 53 C48.11 52.67 37.22 52.34 26 52 C26 63.55 26 75.1 26 87 C29.96 86.835 33.92 86.67 38 86.5 C48.008 86.099 57.984 85.864 68 86 C68 89.3 68 92.6 68 96 C45.56 96 23.12 96 0 96 C0 64.32 0 32.64 0 0 Z " fill="#0E0E0E" transform="translate(529,390)"></path>
<path d="M0 0 C8.718 -0.023 17.437 -0.041 26.155 -0.052 C30.203 -0.057 34.251 -0.064 38.299 -0.075 C42.202 -0.086 46.106 -0.092 50.009 -0.095 C51.501 -0.097 52.994 -0.1 54.486 -0.106 C56.569 -0.113 58.653 -0.114 60.736 -0.114 C61.924 -0.116 63.112 -0.118 64.336 -0.12 C67 0 67 0 68 1 C68.072 2.686 68.084 4.375 68.062 6.062 C68.053 6.982 68.044 7.901 68.035 8.848 C68.024 9.558 68.012 10.268 68 11 C66.905 10.97 65.811 10.939 64.683 10.908 C60.611 10.796 56.539 10.684 52.467 10.573 C50.706 10.524 48.946 10.476 47.185 10.427 C44.651 10.357 42.116 10.288 39.582 10.219 C39.19 10.208 39.19 10.208 37.208 10.152 C33.469 10.051 29.741 10 26 10 C26 20.56 26 31.12 26 42 C36.89 41.67 47.78 41.34 59 41 C59 44.96 59 48.92 59 53 C48.11 52.67 37.22 52.34 26 52 C26 63.55 26 75.1 26 87 C29.96 86.835 33.92 86.67 38 86.5 C48.008 86.099 57.984 85.864 68 86 C68 89.3 68 92.6 68 96 C45.56 96 23.12 96 0 96 C0.33 94.35 0.66 92.7 1 91 C1.093 88.197 1.137 85.42 1.129 82.617 C1.131 81.786 1.133 80.954 1.135 80.097 C1.139 77.357 1.136 74.616 1.133 71.875 C1.133 69.966 1.134 68.057 1.136 66.148 C1.137 62.15 1.135 58.152 1.13 54.154 C1.125 49.033 1.128 43.912 1.134 38.791 C1.138 34.85 1.136 30.908 1.134 26.967 C1.133 25.079 1.134 23.191 1.136 21.303 C1.139 18.663 1.135 16.023 1.129 13.383 C1.131 12.604 1.133 11.826 1.136 11.024 C1.121 7.225 0.92 3.694 0 0 Z " fill="#0E0E0E" transform="translate(192,390)"></path>
<path d="M0 0 C7.882 7.787 9.29 18.479 9.392 29.092 C9.389 29.602 9.389 29.602 9.375 32.188 C9.372 32.719 9.372 32.719 9.358 35.406 C9.181 46.805 7.801 56.532 0.062 65.375 C-4.062 69.041 -7.853 70.218 -13.25 70.625 C-19.438 70.205 -24.613 67.813 -28.938 63.375 C-35.036 53.741 -36.318 43.709 -36.25 32.5 C-36.248 32.018 -36.248 32.018 -36.235 29.582 C-36.041 17.782 -34.064 7.667 -25.625 -1 C-17.609 -5.847 -7.559 -5.937 0 0 Z " fill="#FFFFFF" transform="translate(832.9375,404.625)"></path>
<path d="M0 0 C5.769 0.102 9.164 1.062 13.872 4.321 C18.78 9.546 18.286 15.844 18.142 22.638 C17.778 27.605 17.178 29.603 13.872 33.321 C7.468 38.787 -1.21 37.93 -9.128 37.321 C-10.889 35.561 -10.256 33.242 -10.267 30.897 C-10.265 30.14 -10.263 29.383 -10.261 28.603 C-10.262 27.829 -10.263 27.056 -10.264 26.26 C-10.264 24.622 -10.262 22.985 -10.258 21.347 C-10.253 18.832 -10.258 16.317 -10.265 13.802 C-10.264 12.215 -10.263 10.627 -10.261 9.04 C-10.263 8.283 -10.265 7.525 -10.267 6.745 C-10.231 -1.284 -7.441 0.032 0 0 Z " fill="#FFFFFF" transform="translate(389.1279296875,401.6787109375)"></path>
<path d="M0 0 C18.727 0 18.727 0 24.25 5.062 C27.131 9.899 28.467 14.877 27.625 20.508 C26.206 25.395 24.526 28.369 20 31 C14 33 14 33 0 33 C0 22.11 0 11.22 0 0 Z " fill="#FFFFFF" transform="translate(462,402)"></path>
</svg>