<?xml version="1.0" encoding="UTF-8"?>

<svg version="1.1" xmlns="http://www.w3.org/2000/svg" width="1251" height="197">
<path d="M0 0 C10.89 0 21.78 0 33 0 C33 47.52 33 95.04 33 144 C22.11 144 11.22 144 0 144 C-0.33 139.38 -0.66 134.76 -1 130 C-1.784 131.031 -2.567 132.062 -3.375 133.125 C-9.514 140.263 -17.705 144.211 -27.024 145.219 C-40.759 146.015 -52.489 143.907 -63.562 135.199 C-74.026 125.758 -79.925 112.892 -81.303 98.928 C-81.436 95.841 -81.468 92.777 -81.438 89.688 C-81.429 88.598 -81.421 87.509 -81.412 86.386 C-81.129 72.813 -78.231 62.024 -70 51 C-69.589 50.407 -69.178 49.814 -68.754 49.203 C-62.466 40.761 -51.213 35.581 -41 34 C-25.758 33.208 -14.91 35.493 -3.312 45.668 C-2 47 -2 47 -1 49 C-0.67 32.83 -0.34 16.66 0 0 Z " fill="#000000" transform="translate(760,1)"></path>
<path d="M0 0 C2.597 2.838 4.858 5.808 7 9 C7.66 8.319 8.32 7.639 9 6.938 C19.174 -3.15 29.111 -9.719 43.941 -10.102 C57.047 -9.765 67.429 -6.338 76.906 2.848 C87.909 14.573 88.299 28.611 88.195 43.848 C88.192 45.471 88.189 47.095 88.187 48.719 C88.179 52.965 88.16 57.212 88.137 61.458 C88.113 66.568 88.104 71.677 88.092 76.787 C88.073 84.525 88.035 92.262 88 100 C77.44 100 66.88 100 56 100 C55.951 95.617 55.902 91.234 55.852 86.719 C55.807 83.207 55.76 79.696 55.713 76.185 C55.663 72.488 55.616 68.79 55.578 65.093 C55.541 61.526 55.495 57.96 55.442 54.394 C55.415 52.383 55.397 50.371 55.379 48.359 C55.234 39.316 55.081 31.231 49 24 C43.394 19.266 37.797 19.338 30.609 19.559 C25.694 20.16 22.391 21.346 19 25 C15.382 30.47 13.885 35.678 13.795 42.216 C13.775 43.497 13.755 44.778 13.734 46.098 C13.717 47.496 13.7 48.895 13.684 50.293 C13.663 51.724 13.642 53.154 13.621 54.585 C13.565 58.348 13.516 62.111 13.468 65.874 C13.409 70.39 13.342 74.907 13.277 79.423 C13.18 86.282 13.091 93.141 13 100 C2.44 100 -8.12 100 -19 100 C-19.019 97.778 -19.019 97.778 -19.113 86.535 C-19.151 82.972 -19.193 79.409 -19.236 75.846 C-19.28 72.096 -19.32 68.346 -19.346 64.595 C-19.373 60.977 -19.413 57.359 -19.463 53.741 C-19.48 52.367 -19.491 50.993 -19.498 49.619 C-19.543 40.623 -19.933 32.865 -24.812 25.125 C-29.417 20.652 -34.005 19.536 -40.312 19.438 C-46.448 19.564 -50.329 20.485 -55.266 24.102 C-59.363 28.586 -60.377 32.974 -60.432 38.923 C-60.443 39.587 -60.453 40.252 -60.463 40.936 C-60.493 43.111 -60.503 45.286 -60.512 47.461 C-60.529 48.977 -60.547 50.493 -60.566 52.009 C-60.613 55.984 -60.643 59.959 -60.67 63.934 C-60.705 68.712 -60.762 73.489 -60.815 78.267 C-60.893 85.511 -60.944 92.755 -61 100 C-71.89 100 -82.78 100 -94 100 C-94 64.36 -94 28.72 -94 -8 C-83.44 -8 -72.88 -8 -62 -8 C-62 -4.04 -62 -0.08 -62 4 C-60.536 2.763 -59.071 1.525 -57.562 0.25 C-40.609 -13.246 -17.276 -13.298 0 0 Z " fill="#000000" transform="translate(335,45)"></path>
<path d="M0 0 C2.578 2.133 4.97 4.332 7 7 C7 7.66 7 8.32 7 9 C7.66 9 8.32 9 9 9 C9 4.38 9 -0.24 9 -5 C19.56 -5 30.12 -5 41 -5 C41 30.64 41 66.28 41 103 C30.44 103 19.88 103 9 103 C9 98.05 9 93.1 9 88 C8.34 88 7.68 88 7 88 C6.743 88.588 6.487 89.176 6.223 89.781 C2.483 96.567 -4.861 100.616 -12 103 C-24.509 106.246 -37.955 104.514 -49.125 98.312 C-61.968 90.119 -68.496 78.611 -72 64 C-74.996 46.756 -73.618 27.985 -64 13 C-56.929 3.407 -47.781 -3.839 -36.027 -6.57 C-22.929 -8.429 -11.294 -7.029 0 0 Z " fill="#000000" transform="translate(878,42)"></path>
<path d="M0 0 C8.17 6.646 13.441 15.403 16.656 25.34 C16.882 25.999 17.107 26.657 17.34 27.336 C21.291 41.315 19.291 58.152 13.336 71.242 C11.917 73.757 10.393 76.034 8.656 78.34 C8.07 79.118 7.483 79.897 6.879 80.699 C-1.779 91.252 -13.899 97.337 -27.344 99.34 C-45.397 100.27 -62.203 98.842 -76.605 86.754 C-88.3 75.618 -93.301 63.233 -93.695 47.258 C-93.837 29.6 -90.271 15.746 -77.82 2.629 C-56.543 -17.037 -22.836 -16.176 0 0 Z " fill="#000000" transform="translate(528.34375,46.66015625)"></path>
<path d="M0 0 C11.88 0 23.76 0 36 0 C38.492 5.606 40.796 10.983 42.75 16.75 C45.043 23.383 47.479 29.95 50 36.5 C52.573 43.204 55.097 49.921 57.5 56.688 C57.755 57.4 58.01 58.113 58.273 58.848 C60 63.756 60 63.756 60 66 C60.66 66 61.32 66 62 66 C62.169 65.414 62.337 64.828 62.511 64.224 C64.485 57.493 66.747 50.895 69.125 44.297 C69.513 43.215 69.901 42.134 70.301 41.02 C71.117 38.75 71.934 36.481 72.752 34.213 C74.001 30.748 75.243 27.28 76.484 23.812 C77.281 21.599 78.078 19.385 78.875 17.172 C79.244 16.141 79.613 15.109 79.993 14.047 C80.343 13.078 80.694 12.11 81.055 11.112 C81.359 10.268 81.663 9.423 81.976 8.552 C83.149 5.628 84.591 2.818 86 0 C97.55 0 109.1 0 121 0 C117.623 10.13 117.623 10.13 115.672 14.762 C115.214 15.851 114.757 16.94 114.286 18.063 C113.779 19.259 113.272 20.455 112.75 21.688 C112.19 23.016 111.63 24.345 111.07 25.674 C102.985 44.836 94.81 63.96 86.65 83.091 C83.221 91.132 79.798 99.175 76.378 107.22 C74.549 111.523 72.718 115.826 70.888 120.129 C69.889 122.478 68.891 124.828 67.893 127.178 C66.5 130.456 65.106 133.734 63.711 137.012 C63.307 137.965 62.902 138.918 62.486 139.899 C59.753 146.317 56.888 152.646 54 159 C42.45 159 30.9 159 19 159 C22.374 148.878 22.374 148.878 24.069 145.202 C24.446 144.378 24.823 143.554 25.211 142.705 C25.608 141.848 26.005 140.992 26.414 140.109 C27.266 138.247 28.117 136.385 28.969 134.523 C30.302 131.624 31.636 128.725 32.972 125.827 C34.269 123.007 35.561 120.183 36.852 117.359 C37.253 116.495 37.654 115.63 38.067 114.739 C38.252 114.333 38.252 114.333 39.19 112.28 C39.516 111.572 39.842 110.865 40.179 110.135 C41.995 105.413 42.215 102.584 40.191 97.93 C39.985 97.445 39.985 97.445 38.939 94.993 C38.485 93.964 38.03 92.935 37.562 91.875 C37.103 90.805 36.644 89.736 36.17 88.634 C35.232 86.451 34.289 84.27 33.341 82.091 C31.482 77.806 29.678 73.497 27.875 69.188 C27.227 67.65 26.579 66.112 25.93 64.574 C23.951 59.884 21.975 55.192 20 50.5 C19.333 48.917 18.667 47.333 18 45.75 C16.667 42.583 15.333 39.417 14 36.25 C13.669 35.465 13.339 34.68 12.998 33.871 C12.337 32.301 11.677 30.731 11.018 29.16 C9.268 24.995 7.503 20.838 5.719 16.688 C5.533 16.253 5.533 16.253 4.594 14.057 C3.879 12.387 3.161 10.719 2.438 9.053 C2.118 8.303 1.798 7.554 1.469 6.781 C1.185 6.122 0.9 5.463 0.607 4.783 C0 3 0 3 0 0 Z " fill="#000000" transform="translate(927,37)"></path>
<path d="M0 0 C9.088 8.785 12.978 19.444 13.317 32.008 C13.358 35.793 13.331 39.575 13.293 43.359 C13.287 45.001 13.283 46.643 13.28 48.285 C13.269 52.566 13.239 56.847 13.206 61.128 C13.17 66.286 13.156 71.444 13.139 76.602 C13.11 84.401 13.052 92.2 13 100 C2.44 100 -8.12 100 -19 100 C-19.019 97.778 -19.019 97.778 -19.113 86.535 C-19.151 82.972 -19.193 79.409 -19.236 75.846 C-19.28 72.096 -19.32 68.346 -19.346 64.595 C-19.373 60.977 -19.413 57.359 -19.463 53.741 C-19.48 52.367 -19.491 50.993 -19.498 49.619 C-19.537 41.836 -19.977 35.208 -23 28 C-23.309 27.031 -23.619 26.061 -23.938 25.062 C-25.277 22.462 -26.288 22.007 -29 21 C-29.737 20.66 -30.475 20.319 -31.234 19.969 C-37.302 17.843 -44.463 18.139 -50.5 20.188 C-57.124 24.99 -59.387 29.104 -61 37 C-61.44 41.917 -61.489 46.824 -61.512 51.758 C-61.529 53.156 -61.547 54.554 -61.566 55.952 C-61.613 59.599 -61.643 63.245 -61.67 66.891 C-61.7 70.625 -61.746 74.36 -61.791 78.094 C-61.878 85.396 -61.938 92.697 -62 100 C-72.56 100 -83.12 100 -94 100 C-94 64.36 -94 28.72 -94 -8 C-83.44 -8 -72.88 -8 -62 -8 C-62 -3.71 -62 0.58 -62 5 C-61.34 5 -60.68 5 -60 5 C-59.764 4.413 -59.528 3.827 -59.285 3.223 C-55.709 -2.963 -47.731 -6.632 -41.062 -8.508 C-26.379 -12.012 -11.779 -9.489 0 0 Z " fill="#000000" transform="translate(654,45)"></path>
<path d="M0 0 C5.112 4.039 7.722 8.739 8.801 15.148 C9.605 29.443 -0.023 40.008 -7.625 51.5 C-8.456 52.761 -9.286 54.021 -10.116 55.282 C-11.392 57.22 -12.668 59.158 -13.945 61.095 C-16.817 65.452 -19.675 69.818 -22.523 74.191 C-22.904 74.775 -23.284 75.359 -23.676 75.96 C-25.47 78.713 -27.263 81.468 -29.054 84.223 C-44.641 108.121 -44.641 108.121 -54.75 110.875 C-63.868 111.848 -70.508 111.058 -77.684 105.332 C-83.085 100.424 -85.767 95.19 -86.125 87.875 C-85.616 79.218 -80.792 72.359 -76.188 65.312 C-75.557 64.335 -74.926 63.358 -74.277 62.351 C-70.499 56.511 -66.68 50.7 -62.797 44.931 C-57.748 37.421 -52.831 29.824 -47.901 22.235 C-44.638 17.227 -41.355 12.234 -37.98 7.301 C-37.452 6.528 -36.924 5.755 -36.38 4.958 C-27.069 -6.944 -12.31 -7.734 0 0 Z " fill="#7E7E7E" transform="translate(85.75,34.125)"></path>
<path d="M0 0 C5.052 3.912 8.115 9.675 9.188 15.938 C9.303 23.186 7.261 28.601 3.312 34.562 C2.888 35.222 2.464 35.882 2.028 36.561 C0.448 39.008 -1.151 41.441 -2.75 43.875 C-3.802 45.486 -4.853 47.098 -5.904 48.71 C-9.514 54.243 -13.138 59.767 -16.77 65.285 C-20.041 70.257 -23.287 75.244 -26.512 80.246 C-27.646 82 -28.781 83.754 -29.916 85.508 C-30.967 87.136 -32.011 88.768 -33.055 90.4 C-44.76 108.464 -44.76 108.464 -54.75 110.875 C-61.402 111.659 -68.007 111.866 -73.902 108.336 C-79.809 103.665 -84.617 98.523 -85.75 90.875 C-86.817 81.452 -81.795 73.332 -76.562 65.875 C-75.487 64.302 -74.413 62.728 -73.34 61.152 C-72.762 60.308 -72.185 59.463 -71.589 58.593 C-68.201 53.585 -64.922 48.506 -61.625 43.438 C-60.176 41.225 -58.727 39.013 -57.277 36.801 C-54.552 32.642 -51.843 28.474 -49.152 24.293 C-47.559 21.826 -45.954 19.366 -44.347 16.908 C-43.585 15.735 -42.827 14.56 -42.074 13.38 C-36.947 5.351 -32.258 -0.999 -23.188 -4.5 C-14.634 -6.055 -7.354 -4.62 0 0 Z " fill="#7F7F7F" transform="translate(161.75,34.125)"></path>
<path d="M0 0 C3.137 1.86 5.29 3.92 7.734 6.621 C8.456 7.405 9.178 8.189 9.922 8.996 C14.776 16.027 14.493 24.357 13.734 32.621 C12.027 38.989 8.477 45.332 2.742 48.84 C-3.273 51.924 -8.476 53.53 -15.266 52.621 C-23.869 49.74 -28.925 44.99 -33.141 37.121 C-35.529 29.841 -35.529 20.401 -33.141 13.121 C-29.904 7.079 -26.132 2.139 -19.742 -0.723 C-13.334 -2.421 -6.129 -2.588 0 0 Z " fill="#FCFCFC" transform="translate(746.265625,65.37890625)"></path>
<path d="M0 0 C6.553 3.924 11.143 9.776 13.41 17.094 C13.838 20.086 13.876 23.012 13.848 26.031 C13.858 26.411 13.858 26.411 13.908 28.334 C13.902 35.089 11.92 40.17 7.516 45.301 C1.358 50.455 -4.096 53.691 -12.32 53.383 C-18.302 52.621 -23.255 50.309 -27.59 46.094 C-33.66 37.942 -35.286 29.554 -34.344 19.457 C-32.682 10.795 -27.511 5.253 -20.59 0.094 C-14.458 -1.95 -6.157 -2.155 0 0 Z " fill="#FCFCFC" transform="translate(872.58984375,64.90625)"></path>
<path d="M0 0 C6.149 4.164 9.831 9.17 11.586 16.422 C13.013 25.31 12.549 34.564 7.523 42.262 C3.089 47.739 -1.595 51.382 -8.672 52.375 C-15.926 52.696 -21.237 51.301 -26.719 46.492 C-33.796 39.033 -34.572 30.647 -34.352 20.668 C-33.716 14.042 -31.806 9.122 -27.5 4.062 C-26.675 3.382 -25.85 2.701 -25 2 C-24.361 1.443 -23.721 0.886 -23.062 0.312 C-15.508 -4.495 -7.649 -4.172 0 0 Z " fill="#FCFCFC" transform="translate(502,66)"></path>
<path d="M0 0 C5.314 3.265 9.843 8.35 11.438 14.438 C13.131 22.675 12.426 30.443 8.188 37.812 C4.44 43.263 -0.322 45.632 -6.562 47.438 C-15.174 48.476 -22.483 47.694 -29.562 42.438 C-34.904 37.02 -36.848 30.603 -36.875 23.062 C-36.758 16.196 -35.463 11.706 -32 5.75 C-23.576 -2.242 -10.848 -4.789 0 0 Z " fill="#FBFBFB" transform="translate(1151.5625,98.5625)"></path>
<path d="M0 0 C6.371 5.437 9.897 10.869 10.742 19.352 C10.897 27.157 8.136 32.941 2.785 38.523 C-4.741 44.949 -11.598 45.261 -21.215 44.523 C-27.893 42.854 -32.451 38.105 -36.215 32.523 C-39.657 26.065 -39.907 19.585 -38.215 12.523 C-35.456 5.911 -30.49 0.742 -24.152 -2.547 C-15.909 -5.815 -7.272 -5.167 0 0 Z " fill="#7E7E7E" transform="translate(189.21484375,100.4765625)"></path>
<path d="M0 0 C1.018 0.981 2.024 1.976 3 3 C3.536 2.237 4.072 1.474 4.625 0.688 C8.803 -4.04 13.493 -5.559 19.629 -6.066 C24.937 -5.918 29.354 -3.966 33.875 -1.312 C38.811 4.059 39.442 10.478 39.293 17.438 C39.289 18.203 39.284 18.969 39.28 19.757 C39.263 22.172 39.226 24.586 39.188 27 C39.172 28.65 39.159 30.299 39.146 31.949 C39.114 35.966 39.062 39.983 39 44 C36.69 44 34.38 44 32 44 C31.985 43.062 31.971 42.124 31.956 41.158 C31.895 37.657 31.82 34.158 31.738 30.658 C31.704 29.147 31.676 27.636 31.654 26.125 C31.62 23.944 31.567 21.766 31.512 19.586 C31.486 18.277 31.459 16.968 31.432 15.619 C30.975 11.79 29.852 9.345 28 6 C28 5.34 28 4.68 28 4 C23.243 1.463 18.255 1.176 13 2 C9.671 3.647 7.568 5.883 5.87 9.221 C4.798 12.647 4.675 15.681 4.586 19.27 C4.567 19.951 4.547 20.632 4.527 21.333 C4.468 23.493 4.421 25.653 4.375 27.812 C4.337 29.283 4.298 30.754 4.258 32.225 C4.162 35.816 4.078 39.408 4 43 C1.69 43 -0.62 43 -3 43 C-3.015 42.128 -3.029 41.256 -3.044 40.357 C-3.106 37.093 -3.18 33.83 -3.262 30.567 C-3.296 29.16 -3.324 27.753 -3.346 26.345 C-3.38 24.312 -3.433 22.279 -3.488 20.246 C-3.514 19.026 -3.541 17.806 -3.568 16.549 C-4.188 11.455 -5.701 7.535 -9.062 3.562 C-13.372 1.27 -17.219 1.362 -22 2 C-25.54 3.356 -26.636 4.401 -28.597 7.629 C-30.184 11.441 -30.474 14.744 -30.512 18.805 C-30.53 19.529 -30.548 20.253 -30.566 20.999 C-30.62 23.291 -30.654 25.583 -30.688 27.875 C-30.721 29.438 -30.755 31 -30.791 32.562 C-30.876 36.375 -30.943 40.187 -31 44 C-33.64 44 -36.28 44 -39 44 C-39 27.83 -39 11.66 -39 -5 C-36.36 -5 -33.72 -5 -31 -5 C-30.67 -3.35 -30.34 -1.7 -30 0 C-28.969 -0.804 -27.938 -1.609 -26.875 -2.438 C-18.092 -8.638 -8.014 -6.273 0 0 Z " fill="#030303" transform="translate(1211,102)"></path>
<path d="M0 0 C5.314 3.265 9.843 8.35 11.438 14.438 C13.131 22.675 12.426 30.443 8.188 37.812 C4.44 43.263 -0.322 45.632 -6.562 47.438 C-15.174 48.476 -22.483 47.694 -29.562 42.438 C-34.904 37.02 -36.848 30.603 -36.875 23.062 C-36.758 16.196 -35.463 11.706 -32 5.75 C-23.576 -2.242 -10.848 -4.789 0 0 Z M-25.875 11.062 C-28.746 15.103 -28.782 17.714 -28.875 22.688 C-28.912 23.992 -28.95 25.297 -28.988 26.641 C-28.395 31.933 -25.728 36.105 -21.562 39.438 C-17.494 41.585 -14.123 41.901 -9.562 41.438 C-3.235 39.245 0.422 36.065 3.688 30.188 C5.53 23.433 4.869 17.59 1.438 11.438 C-1.889 7.6 -4.81 4.828 -9.93 4.102 C-17.19 3.988 -20.958 5.482 -25.875 11.062 Z " fill="#020202" transform="translate(1151.5625,98.5625)"></path>
<path d="M0 0 C3.063 3.228 4.493 5.561 5 10 C-0.263 10.526 -0.263 10.526 -3 10 C-5.25 7.125 -5.25 7.125 -7 4 C-11.551 0.992 -16.76 1.392 -22 2 C-27.091 4.363 -28.881 6.902 -31 12 C-31.398 15.438 -31.398 15.438 -31.375 19 C-31.383 20.176 -31.39 21.351 -31.398 22.562 C-30.81 27.639 -29.224 30.895 -25.438 34.312 C-20.925 37.436 -17.391 37.49 -12 37 C-7.752 35.584 -6.408 34.694 -4.125 30.812 C-3.754 29.884 -3.382 28.956 -3 28 C-0.36 28 2.28 28 5 28 C4.61 33.459 2.795 36.119 -1 40 C-7.928 44.901 -15.747 44.934 -24 44 C-30.288 41.634 -35.005 38.116 -38 32 C-41.139 23.995 -41.117 15.096 -38.039 7.07 C-35.515 2.041 -32.498 -1.183 -27.562 -3.875 C-18.016 -6.89 -7.94 -6.778 0 0 Z " fill="#020202" transform="translate(1102,102)"></path>
<path d="M0 0 C2.438 1.625 2.438 1.625 4 4 C4.612 7.672 4.487 9.288 2.375 12.375 C-0.75 14.513 -2.282 14.683 -6 14 C-9.046 11.683 -10.732 10.222 -11.562 6.438 C-10.106 0.126 -5.942 -0.849 0 0 Z " fill="#030303" transform="translate(1045,132)"></path>
</svg>