<?xml version="1.0" encoding="UTF-8"?>
<svg xmlns="http://www.w3.org/2000/svg" viewBox="130.9453 554.7109 65.8164 65.7969" width="65.8164pt" height="65.7969pt" version="1.2">
<g>
<path style=" stroke:none;fill-rule:nonzero;fill:rgb(11.372375%,11.372375%,10.588074%);fill-opacity:1;" d="M 153.1875 620.507812 C 147.722656 620.507812 143.28125 616.066406 143.28125 610.609375 C 143.28125 610.355469 143.289062 610.101562 143.3125 609.84375 L 131.703125 609.84375 C 131.285156 609.84375 130.945312 609.503906 130.945312 609.085938 L 130.945312 596.621094 C 130.945312 596.398438 131.042969 596.1875 131.214844 596.042969 C 131.382812 595.898438 131.605469 595.835938 131.824219 595.875 C 132.335938 595.957031 132.792969 596 133.222656 596 C 137.847656 596 141.613281 592.234375 141.613281 587.609375 C 141.613281 582.984375 137.847656 579.21875 133.222656 579.21875 C 132.792969 579.21875 132.335938 579.261719 131.824219 579.34375 C 131.605469 579.382812 131.382812 579.320312 131.214844 579.175781 C 131.042969 579.03125 130.945312 578.820312 130.945312 578.597656 L 130.945312 566.132812 C 130.945312 565.714844 131.285156 565.375 131.703125 565.375 L 143.3125 565.375 C 143.289062 565.117188 143.28125 564.863281 143.28125 564.613281 C 143.28125 559.152344 147.722656 554.710938 153.1875 554.710938 C 158.644531 554.710938 163.085938 559.152344 163.085938 564.613281 C 163.085938 564.859375 163.074219 565.113281 163.050781 565.375 L 174.863281 565.375 C 175.28125 565.375 175.621094 565.714844 175.621094 566.132812 C 175.621094 566.550781 175.28125 566.886719 174.863281 566.886719 L 162.195312 566.886719 C 161.972656 566.886719 161.761719 566.789062 161.621094 566.621094 C 161.476562 566.453125 161.414062 566.226562 161.449219 566.007812 C 161.535156 565.5 161.574219 565.042969 161.574219 564.613281 C 161.574219 559.984375 157.8125 556.222656 153.1875 556.222656 C 148.558594 556.222656 144.789062 559.984375 144.789062 564.613281 C 144.789062 565.054688 144.832031 565.507812 144.917969 566 C 144.957031 566.222656 144.898438 566.445312 144.753906 566.617188 C 144.609375 566.789062 144.398438 566.886719 144.175781 566.886719 L 132.457031 566.886719 L 132.457031 577.742188 C 132.722656 577.71875 132.976562 577.710938 133.222656 577.710938 C 138.683594 577.710938 143.125 582.152344 143.125 587.609375 C 143.125 593.066406 138.683594 597.507812 133.222656 597.507812 C 132.976562 597.507812 132.71875 597.5 132.457031 597.476562 L 132.457031 608.332031 L 144.175781 608.332031 C 144.398438 608.332031 144.609375 608.429688 144.753906 608.601562 C 144.898438 608.773438 144.957031 608.996094 144.917969 609.21875 C 144.832031 609.710938 144.789062 610.164062 144.789062 610.609375 C 144.789062 615.234375 148.558594 618.996094 153.1875 618.996094 C 157.8125 618.996094 161.574219 615.234375 161.574219 610.609375 C 161.574219 610.175781 161.535156 609.71875 161.449219 609.210938 C 161.414062 608.992188 161.476562 608.765625 161.621094 608.597656 C 161.761719 608.429688 161.972656 608.332031 162.195312 608.332031 L 174.863281 608.332031 C 175.28125 608.332031 175.621094 608.667969 175.621094 609.085938 C 175.621094 609.503906 175.28125 609.84375 174.863281 609.84375 L 163.050781 609.84375 C 163.074219 610.105469 163.085938 610.359375 163.085938 610.609375 C 163.085938 616.066406 158.644531 620.507812 153.1875 620.507812 "></path>
<path style=" stroke:none;fill-rule:nonzero;fill:rgb(11.372375%,11.372375%,10.588074%);fill-opacity:1;" d="M 178.425781 600.769531 L 178.417969 600.769531 C 178.265625 600.769531 178.117188 600.722656 177.992188 600.636719 L 170.484375 595.480469 C 170.140625 595.246094 170.054688 594.773438 170.289062 594.429688 C 170.527344 594.085938 170.996094 594 171.339844 594.234375 L 178.824219 599.371094 C 179.035156 599.507812 179.179688 599.742188 179.179688 600.011719 C 179.179688 600.429688 178.84375 600.769531 178.425781 600.769531 "></path>
<path style=" stroke:none;fill-rule:nonzero;fill:rgb(11.372375%,11.372375%,10.588074%);fill-opacity:1;" d="M 170.90625 581.097656 C 170.667969 581.097656 170.429688 580.984375 170.285156 580.769531 C 170.046875 580.425781 170.136719 579.957031 170.480469 579.71875 L 177.992188 574.578125 C 178.335938 574.339844 178.808594 574.429688 179.042969 574.773438 C 179.277344 575.117188 179.191406 575.589844 178.847656 575.824219 L 171.335938 580.96875 C 171.203125 581.054688 171.054688 581.097656 170.90625 581.097656 "></path>
<path style=" stroke:none;fill-rule:nonzero;fill:rgb(11.372375%,11.372375%,10.588074%);fill-opacity:1;" d="M 160.320312 581.371094 C 156.878906 581.371094 154.082031 584.167969 154.082031 587.609375 C 154.082031 591.046875 156.878906 593.847656 160.320312 593.847656 C 163.761719 593.847656 166.558594 591.046875 166.558594 587.609375 C 166.558594 584.167969 163.761719 581.371094 160.320312 581.371094 M 160.320312 595.359375 C 156.046875 595.359375 152.570312 591.882812 152.570312 587.609375 C 152.570312 583.335938 156.046875 579.859375 160.320312 579.859375 C 164.59375 579.859375 168.070312 583.335938 168.070312 587.609375 C 168.070312 591.882812 164.59375 595.359375 160.320312 595.359375 "></path>
<path style=" stroke:none;fill-rule:nonzero;fill:rgb(11.372375%,11.372375%,10.588074%);fill-opacity:1;" d="M 189.011719 561.703125 C 185.570312 561.703125 182.773438 564.503906 182.773438 567.941406 C 182.773438 571.382812 185.570312 574.179688 189.011719 574.179688 C 192.449219 574.179688 195.25 571.382812 195.25 567.941406 C 195.25 564.503906 192.449219 561.703125 189.011719 561.703125 M 189.011719 575.691406 C 184.738281 575.691406 181.261719 572.214844 181.261719 567.941406 C 181.261719 563.667969 184.738281 560.191406 189.011719 560.191406 C 193.285156 560.191406 196.761719 563.667969 196.761719 567.941406 C 196.761719 572.214844 193.285156 575.691406 189.011719 575.691406 "></path>
<path style=" stroke:none;fill-rule:nonzero;fill:rgb(11.372375%,11.372375%,10.588074%);fill-opacity:1;" d="M 189.011719 601.039062 C 185.570312 601.039062 182.773438 603.835938 182.773438 607.277344 C 182.773438 610.714844 185.570312 613.515625 189.011719 613.515625 C 192.449219 613.515625 195.25 610.714844 195.25 607.277344 C 195.25 603.835938 192.449219 601.039062 189.011719 601.039062 M 189.011719 615.023438 C 184.738281 615.023438 181.261719 611.546875 181.261719 607.277344 C 181.261719 603 184.738281 599.527344 189.011719 599.527344 C 193.285156 599.527344 196.761719 603 196.761719 607.277344 C 196.761719 611.546875 193.285156 615.023438 189.011719 615.023438 "></path>
</g>
</svg>