<?xml version="1.0" encoding="UTF-8"?>
<svg xmlns="http://www.w3.org/2000/svg" viewBox="124.6992 437.9805 72.1836 67.8906" width="72.1836pt" height="67.8906pt" version="1.2">
<g>
<path style=" stroke:none;fill-rule:nonzero;fill:rgb(11.372375%,11.372375%,10.588074%);fill-opacity:1;" d="M 184.1875 466.117188 C 183.324219 466.117188 182.511719 465.707031 181.992188 464.988281 L 178.175781 459.707031 L 171.660156 459.859375 C 170.613281 459.878906 169.667969 459.324219 169.1875 458.398438 C 168.703125 457.472656 168.785156 456.375 169.402344 455.53125 L 173.246094 450.269531 L 171.089844 444.125 C 170.742188 443.140625 170.980469 442.0625 171.710938 441.320312 C 172.441406 440.574219 173.511719 440.3125 174.503906 440.636719 L 180.695312 442.667969 L 185.875 438.71875 C 186.707031 438.085938 187.800781 437.980469 188.734375 438.445312 C 189.667969 438.910156 190.25 439.84375 190.246094 440.886719 L 190.230469 447.402344 L 195.585938 451.109375 C 196.445312 451.703125 196.882812 452.714844 196.730469 453.746094 C 196.578125 454.777344 195.867188 455.617188 194.875 455.9375 L 188.304688 458.054688 C 187.917969 458.179688 187.503906 457.964844 187.378906 457.578125 C 187.253906 457.191406 187.464844 456.777344 187.851562 456.652344 L 194.421875 454.535156 C 194.886719 454.386719 195.203125 454.011719 195.273438 453.53125 C 195.34375 453.050781 195.148438 452.597656 194.75 452.320312 L 189.074219 448.394531 C 188.875 448.253906 188.753906 448.027344 188.757812 447.785156 L 188.773438 440.882812 C 188.777344 440.398438 188.515625 439.980469 188.082031 439.761719 C 187.644531 439.546875 187.15625 439.59375 186.769531 439.886719 L 181.28125 444.070312 C 181.085938 444.21875 180.835938 444.261719 180.605469 444.1875 L 174.042969 442.035156 C 173.582031 441.886719 173.105469 442.003906 172.765625 442.351562 C 172.421875 442.695312 172.316406 443.179688 172.476562 443.636719 L 174.761719 450.152344 C 174.839844 450.378906 174.804688 450.632812 174.660156 450.828125 L 170.589844 456.402344 C 170.304688 456.792969 170.265625 457.285156 170.492188 457.714844 C 170.714844 458.148438 171.152344 458.398438 171.628906 458.386719 L 178.527344 458.226562 C 178.769531 458.214844 179 458.335938 179.140625 458.53125 L 183.183594 464.125 C 183.46875 464.519531 183.925781 464.707031 184.402344 464.625 C 184.882812 464.546875 185.253906 464.21875 185.390625 463.753906 L 185.890625 462.085938 C 186.007812 461.699219 186.417969 461.476562 186.808594 461.59375 C 187.199219 461.710938 187.417969 462.121094 187.300781 462.507812 L 186.800781 464.175781 C 186.503906 465.175781 185.679688 465.902344 184.648438 466.078125 C 184.496094 466.101562 184.339844 466.117188 184.1875 466.117188 "></path>
<path style=" stroke:none;fill-rule:nonzero;fill:rgb(11.372375%,11.372375%,10.588074%);fill-opacity:1;" d="M 137.535156 490.949219 C 136.765625 490.949219 136.046875 490.578125 135.597656 489.933594 L 132.554688 485.582031 L 127.246094 485.625 C 126.324219 485.625 125.515625 485.128906 125.105469 484.316406 C 124.699219 483.503906 124.785156 482.546875 125.332031 481.820312 L 128.53125 477.582031 L 126.851562 472.542969 C 126.5625 471.683594 126.789062 470.746094 127.433594 470.109375 C 128.082031 469.46875 129.019531 469.253906 129.878906 469.550781 L 134.898438 471.28125 L 139.167969 468.128906 C 139.902344 467.589844 140.859375 467.515625 141.667969 467.929688 C 142.476562 468.347656 142.96875 469.171875 142.953125 470.082031 L 142.847656 475.777344 C 142.839844 476.183594 142.515625 476.511719 142.097656 476.5 C 141.691406 476.492188 141.371094 476.160156 141.378906 475.75 L 141.480469 470.058594 C 141.484375 469.707031 141.304688 469.398438 140.992188 469.238281 C 140.679688 469.078125 140.328125 469.105469 140.042969 469.316406 L 135.460938 472.695312 C 135.265625 472.839844 135.011719 472.878906 134.785156 472.800781 L 129.398438 470.941406 C 129.066406 470.828125 128.71875 470.90625 128.46875 471.152344 C 128.21875 471.402344 128.136719 471.746094 128.25 472.082031 L 130.050781 477.484375 C 130.125 477.714844 130.085938 477.964844 129.9375 478.160156 L 126.507812 482.707031 C 126.296875 482.988281 126.265625 483.339844 126.421875 483.65625 C 126.578125 483.96875 126.882812 484.140625 127.234375 484.152344 L 132.929688 484.109375 C 133.152344 484.105469 133.398438 484.222656 133.539062 484.421875 L 136.804688 489.089844 C 137.003906 489.378906 137.328125 489.519531 137.679688 489.464844 C 138.027344 489.414062 138.296875 489.179688 138.402344 488.847656 L 140.121094 483.417969 C 140.195312 483.1875 140.375 483.007812 140.609375 482.933594 L 146.058594 481.273438 C 146.390625 481.171875 146.625 480.902344 146.683594 480.558594 C 146.738281 480.210938 146.601562 479.882812 146.316406 479.675781 L 145.851562 479.34375 C 145.523438 479.109375 145.445312 478.648438 145.683594 478.316406 C 145.917969 477.988281 146.378906 477.910156 146.707031 478.148438 L 147.175781 478.480469 C 147.914062 479.011719 148.28125 479.898438 148.136719 480.792969 C 147.988281 481.691406 147.355469 482.414062 146.484375 482.679688 L 141.40625 484.230469 L 139.804688 489.292969 C 139.53125 490.160156 138.800781 490.785156 137.902344 490.921875 C 137.777344 490.941406 137.65625 490.949219 137.535156 490.949219 "></path>
<path style=" stroke:none;fill-rule:nonzero;fill:rgb(11.372375%,11.372375%,10.588074%);fill-opacity:1;" d="M 162.253906 491.910156 C 158.808594 491.910156 156.007812 494.710938 156.007812 498.15625 C 156.007812 501.597656 158.808594 504.398438 162.253906 504.398438 C 165.695312 504.398438 168.496094 501.597656 168.496094 498.15625 C 168.496094 494.710938 165.695312 491.910156 162.253906 491.910156 M 162.253906 505.871094 C 158 505.871094 154.539062 502.410156 154.539062 498.15625 C 154.539062 493.902344 158 490.441406 162.253906 490.441406 C 166.507812 490.441406 169.96875 493.902344 169.96875 498.15625 C 169.96875 502.410156 166.507812 505.871094 162.253906 505.871094 "></path>
<path style=" stroke:none;fill-rule:nonzero;fill:rgb(11.372375%,11.372375%,10.588074%);fill-opacity:1;" d="M 182.816406 487.445312 C 180.488281 487.445312 178.597656 489.339844 178.597656 491.667969 C 178.597656 493.992188 180.488281 495.886719 182.816406 495.886719 C 185.144531 495.886719 187.039062 493.992188 187.039062 491.667969 C 187.039062 489.339844 185.144531 487.445312 182.816406 487.445312 M 182.816406 497.359375 C 179.679688 497.359375 177.125 494.804688 177.125 491.667969 C 177.125 488.527344 179.679688 485.972656 182.816406 485.972656 C 185.957031 485.972656 188.507812 488.527344 188.507812 491.667969 C 188.507812 494.804688 185.957031 497.359375 182.816406 497.359375 "></path>
<path style=" stroke:none;fill-rule:nonzero;fill:rgb(11.372375%,11.372375%,10.588074%);fill-opacity:1;" d="M 147.921875 454.238281 C 144.292969 454.238281 141.339844 451.285156 141.339844 447.65625 C 141.339844 444.027344 144.292969 441.074219 147.921875 441.074219 C 151.550781 441.074219 154.503906 444.027344 154.503906 447.65625 C 154.503906 448.0625 154.175781 448.390625 153.769531 448.390625 C 153.363281 448.390625 153.03125 448.0625 153.03125 447.65625 C 153.03125 444.835938 150.738281 442.542969 147.921875 442.542969 C 145.101562 442.542969 142.8125 444.835938 142.8125 447.65625 C 142.8125 450.472656 145.101562 452.765625 147.921875 452.765625 C 148.851562 452.765625 149.761719 452.511719 150.554688 452.035156 C 150.902344 451.828125 151.355469 451.9375 151.566406 452.285156 C 151.777344 452.632812 151.664062 453.085938 151.316406 453.296875 C 150.292969 453.914062 149.121094 454.238281 147.921875 454.238281 "></path>
<path style=" stroke:none;fill-rule:nonzero;fill:rgb(11.372375%,11.372375%,10.588074%);fill-opacity:1;" d="M 157.710938 470.539062 C 157.507812 470.539062 157.304688 470.457031 157.15625 470.289062 C 152.335938 464.824219 147.152344 462.53125 143.652344 461.570312 C 139.855469 460.523438 137.160156 460.777344 137.132812 460.78125 C 136.730469 460.824219 136.367188 460.527344 136.324219 460.121094 C 136.285156 459.71875 136.578125 459.355469 136.980469 459.316406 C 137.449219 459.265625 148.507812 458.261719 158.261719 469.316406 C 158.53125 469.621094 158.5 470.085938 158.195312 470.355469 C 158.054688 470.480469 157.882812 470.539062 157.710938 470.539062 "></path>
<path style=" stroke:none;fill-rule:nonzero;fill:rgb(11.372375%,11.372375%,10.588074%);fill-opacity:1;" d="M 159.988281 460 C 159.621094 460 159.304688 459.726562 159.257812 459.355469 C 158.667969 454.714844 160.796875 450.035156 160.886719 449.839844 C 161.058594 449.46875 161.492188 449.308594 161.863281 449.480469 C 162.230469 449.648438 162.394531 450.085938 162.222656 450.457031 C 162.203125 450.5 160.183594 454.953125 160.71875 459.171875 C 160.769531 459.574219 160.484375 459.941406 160.082031 459.992188 C 160.050781 459.996094 160.019531 460 159.988281 460 "></path>
<path style=" stroke:none;fill-rule:nonzero;fill:rgb(11.372375%,11.372375%,10.588074%);fill-opacity:1;" d="M 152.511719 489.410156 C 152.476562 489.410156 152.441406 489.410156 152.40625 489.40625 C 152.003906 489.347656 151.726562 488.976562 151.78125 488.574219 C 151.832031 488.207031 153.144531 479.558594 161.011719 476.59375 C 161.390625 476.449219 161.816406 476.640625 161.960938 477.019531 C 162.101562 477.402344 161.910156 477.824219 161.53125 477.96875 C 154.46875 480.632812 153.25 488.699219 153.238281 488.777344 C 153.1875 489.144531 152.871094 489.410156 152.511719 489.410156 "></path>
<path style=" stroke:none;fill-rule:nonzero;fill:rgb(11.372375%,11.372375%,10.588074%);fill-opacity:1;" d="M 173.09375 485.992188 C 172.695312 485.992188 172.367188 485.675781 172.355469 485.273438 C 172.261719 481.328125 170.898438 478.332031 168.304688 476.371094 C 167.980469 476.128906 167.917969 475.667969 168.160156 475.34375 C 168.40625 475.015625 168.867188 474.953125 169.191406 475.199219 C 172.164062 477.441406 173.722656 480.820312 173.828125 485.238281 C 173.839844 485.644531 173.515625 485.984375 173.109375 485.992188 C 173.105469 485.992188 173.097656 485.992188 173.09375 485.992188 "></path>
<path style=" stroke:none;fill-rule:nonzero;fill:rgb(11.372375%,11.372375%,10.588074%);fill-opacity:1;" d="M 167.492188 470.292969 C 167.21875 470.292969 166.941406 470.277344 166.671875 470.246094 C 166.265625 470.203125 165.976562 469.835938 166.023438 469.433594 C 166.066406 469.03125 166.433594 468.738281 166.835938 468.785156 C 170.898438 469.242188 176.148438 465.203125 176.199219 465.164062 C 176.523438 464.914062 176.984375 464.972656 177.234375 465.292969 C 177.484375 465.613281 177.425781 466.074219 177.105469 466.324219 C 176.886719 466.496094 171.957031 470.292969 167.492188 470.292969 "></path>
</g>
</svg>