<?xml version="1.0" encoding="UTF-8"?>
<svg xmlns="http://www.w3.org/2000/svg" viewBox="119.6328 231.8398 62.1953 72.3984" width="62.1953pt" height="72.3984pt" version="1.2">
<g>
<path style=" stroke:none;fill-rule:nonzero;fill:rgb(26.66626%,32.548523%,36.862183%);fill-opacity:1;" d="M 168.382812 283.25 C 168.222656 283.25 168.0625 283.195312 167.929688 283.085938 C 167.632812 282.835938 167.59375 282.394531 167.84375 282.097656 C 168.1875 281.6875 168.421875 281.1875 168.523438 280.660156 L 169.003906 278.128906 C 169.273438 276.730469 169.449219 275.324219 169.519531 273.949219 C 170.285156 260.59375 162.183594 248.851562 150.671875 246.640625 C 145.421875 245.632812 140.082031 246.621094 135.226562 249.5 C 128.425781 253.539062 123.601562 260.683594 121.980469 269.097656 L 121.5 271.625 C 121.160156 273.390625 122.316406 275.101562 124.082031 275.441406 L 144.332031 279.328125 C 144.714844 279.402344 144.964844 279.769531 144.890625 280.152344 C 144.820312 280.53125 144.449219 280.78125 144.066406 280.707031 L 123.816406 276.820312 C 121.292969 276.335938 119.632812 273.886719 120.121094 271.359375 L 120.601562 268.832031 C 122.296875 260.023438 127.363281 252.535156 134.507812 248.292969 C 139.664062 245.234375 145.347656 244.1875 150.9375 245.261719 C 156.941406 246.414062 162.261719 249.992188 165.925781 255.339844 C 169.539062 260.609375 171.3125 267.246094 170.925781 274.027344 C 170.847656 275.464844 170.664062 276.933594 170.382812 278.390625 L 169.902344 280.917969 C 169.757812 281.683594 169.417969 282.402344 168.921875 283 C 168.78125 283.164062 168.582031 283.25 168.382812 283.25 "></path>
<path style=" stroke:none;fill-rule:nonzero;fill:rgb(26.66626%,32.548523%,36.862183%);fill-opacity:1;" d="M 161.335938 260.476562 C 161.101562 260.476562 160.871094 260.355469 160.738281 260.140625 C 158.070312 255.800781 154.125 252.9375 149.628906 252.070312 C 149.246094 252 148.996094 251.628906 149.070312 251.25 C 149.144531 250.867188 149.511719 250.617188 149.894531 250.691406 C 154.78125 251.632812 159.058594 254.726562 161.933594 259.40625 C 162.136719 259.734375 162.035156 260.167969 161.703125 260.371094 C 161.589844 260.441406 161.460938 260.476562 161.335938 260.476562 "></path>
<path style=" stroke:none;fill-rule:nonzero;fill:rgb(26.66626%,32.548523%,36.862183%);fill-opacity:1;" d="M 163.277344 278.734375 C 163.167969 278.734375 163.0625 278.722656 162.953125 278.703125 L 154.605469 277.101562 C 154.226562 277.027344 153.976562 276.65625 154.046875 276.277344 C 154.121094 275.894531 154.488281 275.644531 154.871094 275.71875 L 163.21875 277.324219 C 163.382812 277.351562 163.542969 277.246094 163.574219 277.082031 C 163.792969 275.929688 163.9375 274.769531 164 273.636719 C 164.019531 273.25 164.351562 272.957031 164.738281 272.976562 C 165.125 272.996094 165.421875 273.328125 165.402344 273.714844 C 165.335938 274.910156 165.1875 276.132812 164.953125 277.347656 C 164.796875 278.164062 164.078125 278.734375 163.277344 278.734375 "></path>
<path style=" stroke:none;fill-rule:nonzero;fill:rgb(26.66626%,32.548523%,36.862183%);fill-opacity:1;" d="M 179.613281 269.152344 L 179.617188 269.152344 Z M 170.949219 273.578125 L 176.410156 276.46875 C 177.578125 274.121094 178.425781 271.621094 178.921875 269.019531 C 180.378906 261.441406 178.796875 253.746094 174.464844 247.359375 C 170.132812 240.96875 163.574219 236.648438 155.996094 235.191406 C 146.433594 233.355469 136.746094 236.390625 129.933594 243.316406 L 134.964844 248.027344 C 139.996094 245.175781 145.507812 244.21875 150.941406 245.261719 C 156.941406 246.414062 162.265625 249.992188 165.925781 255.339844 C 169.457031 260.492188 171.234375 266.953125 170.949219 273.578125 M 176.707031 278.125 C 176.597656 278.125 176.484375 278.101562 176.378906 278.042969 L 169.894531 274.613281 C 169.652344 274.484375 169.507812 274.226562 169.523438 273.953125 C 170.285156 260.59375 162.179688 248.851562 150.675781 246.640625 C 145.421875 245.632812 140.078125 246.621094 135.226562 249.5 C 134.957031 249.660156 134.613281 249.625 134.386719 249.410156 L 128.453125 243.855469 C 128.316406 243.730469 128.234375 243.554688 128.230469 243.367188 C 128.222656 243.179688 128.292969 243 128.417969 242.863281 C 135.585938 235.222656 145.992188 231.839844 156.261719 233.8125 C 164.210938 235.339844 171.085938 239.871094 175.628906 246.570312 C 180.171875 253.269531 181.828125 261.335938 180.304688 269.285156 C 179.734375 272.253906 178.734375 275.101562 177.332031 277.753906 C 177.203125 277.988281 176.960938 278.125 176.707031 278.125 "></path>
<path style=" stroke:none;fill-rule:nonzero;fill:rgb(26.66626%,32.548523%,36.862183%);fill-opacity:1;" d="M 152.171875 246.960938 C 152.148438 246.960938 152.128906 246.960938 152.105469 246.957031 C 151.71875 246.921875 151.433594 246.582031 151.472656 246.195312 L 152.136719 239.09375 C 152.175781 238.710938 152.519531 238.421875 152.902344 238.460938 C 153.289062 238.5 153.574219 238.839844 153.539062 239.226562 L 152.871094 246.324219 C 152.835938 246.6875 152.53125 246.960938 152.171875 246.960938 "></path>
<path style=" stroke:none;fill-rule:nonzero;fill:rgb(26.66626%,32.548523%,36.862183%);fill-opacity:1;" d="M 142.476562 246.671875 C 142.210938 246.671875 141.957031 246.519531 141.835938 246.261719 L 139.691406 241.578125 C 139.527344 241.226562 139.683594 240.808594 140.035156 240.648438 C 140.390625 240.484375 140.804688 240.640625 140.964844 240.992188 L 143.113281 245.675781 C 143.277344 246.03125 143.121094 246.445312 142.769531 246.609375 C 142.675781 246.652344 142.574219 246.671875 142.476562 246.671875 "></path>
<path style=" stroke:none;fill-rule:nonzero;fill:rgb(26.66626%,32.548523%,36.862183%);fill-opacity:1;" d="M 174.957031 266.5625 C 174.933594 266.5625 174.914062 266.5625 174.890625 266.558594 L 169.441406 266.046875 C 169.054688 266.007812 168.773438 265.667969 168.808594 265.28125 C 168.84375 264.894531 169.191406 264.609375 169.574219 264.648438 L 175.019531 265.160156 C 175.40625 265.195312 175.691406 265.539062 175.65625 265.925781 C 175.621094 266.289062 175.316406 266.5625 174.957031 266.5625 "></path>
<path style=" stroke:none;fill-rule:nonzero;fill:rgb(26.66626%,32.548523%,36.862183%);fill-opacity:1;" d="M 165.878906 257.242188 C 165.613281 257.242188 165.355469 257.089844 165.238281 256.832031 C 165.078125 256.480469 165.234375 256.0625 165.585938 255.898438 L 172.539062 252.710938 C 172.890625 252.550781 173.308594 252.707031 173.46875 253.058594 C 173.632812 253.410156 173.476562 253.828125 173.121094 253.988281 L 166.171875 257.175781 C 166.078125 257.21875 165.976562 257.242188 165.878906 257.242188 "></path>
<path style=" stroke:none;fill-rule:nonzero;fill:rgb(26.66626%,32.548523%,36.862183%);fill-opacity:1;" d="M 160.074219 250.839844 C 159.933594 250.839844 159.792969 250.800781 159.667969 250.710938 C 159.351562 250.484375 159.277344 250.046875 159.503906 249.730469 L 164.164062 243.171875 C 164.386719 242.855469 164.828125 242.777344 165.144531 243.003906 C 165.460938 243.230469 165.535156 243.667969 165.308594 243.984375 L 160.648438 250.546875 C 160.511719 250.738281 160.296875 250.839844 160.074219 250.839844 "></path>
<path style=" stroke:none;fill-rule:nonzero;fill:rgb(26.66626%,32.548523%,36.862183%);fill-opacity:1;" d="M 133.613281 302.800781 C 134.070312 302.820312 134.535156 302.832031 135.003906 302.832031 C 147.761719 302.832031 159.167969 295.078125 162.820312 283.945312 C 162.554688 282.660156 162.183594 281.386719 161.714844 280.15625 C 161.546875 279.71875 161.371094 279.292969 161.183594 278.878906 C 153.144531 285.8125 139.640625 288.003906 125.484375 284.648438 C 125.457031 287.582031 125.988281 290.503906 127.070312 293.347656 C 128.480469 297.054688 130.742188 300.316406 133.613281 302.800781 M 135.003906 304.238281 C 134.429688 304.238281 133.855469 304.222656 133.300781 304.191406 C 133.144531 304.183594 133 304.125 132.882812 304.027344 C 129.746094 301.371094 127.28125 297.851562 125.757812 293.847656 C 124.5 290.546875 123.945312 287.140625 124.105469 283.726562 C 124.117188 283.515625 124.21875 283.320312 124.390625 283.195312 C 124.558594 283.070312 124.773438 283.027344 124.980469 283.078125 C 139.410156 286.71875 153.1875 284.472656 160.9375 277.210938 C 161.097656 277.058594 161.320312 276.996094 161.539062 277.035156 C 161.757812 277.074219 161.945312 277.214844 162.042969 277.410156 C 162.398438 278.113281 162.726562 278.871094 163.027344 279.65625 C 163.546875 281.019531 163.949219 282.429688 164.234375 283.847656 C 164.257812 283.964844 164.25 284.085938 164.214844 284.199219 C 160.441406 296 148.429688 304.238281 135.003906 304.238281 "></path>
</g>
</svg>