<?xml version="1.0" encoding="UTF-8"?>
<svg xmlns="http://www.w3.org/2000/svg" viewBox="112.5742 332.0820 77.7812 71.1055" width="77.7812pt" height="71.1055pt" version="1.2">
<g>
<path style=" stroke:none;fill-rule:nonzero;fill:rgb(26.66626%,32.548523%,36.862183%);fill-opacity:1;" d="M 116.390625 360.992188 C 116.351562 360.992188 116.3125 360.988281 116.273438 360.980469 C 115.839844 360.914062 115.546875 360.511719 115.609375 360.082031 L 119.019531 337.675781 C 119.085938 337.246094 119.492188 336.949219 119.917969 337.015625 C 122.65625 337.425781 125.21875 335.539062 125.636719 332.804688 C 125.703125 332.371094 126.109375 332.082031 126.535156 332.140625 L 184.796875 341.011719 C 185 341.042969 185.1875 341.15625 185.3125 341.324219 C 185.4375 341.492188 185.488281 341.703125 185.457031 341.910156 C 185.253906 343.238281 185.582031 344.5625 186.375 345.644531 C 187.171875 346.722656 188.335938 347.425781 189.664062 347.625 C 189.867188 347.65625 190.054688 347.769531 190.179688 347.9375 C 190.304688 348.105469 190.355469 348.316406 190.324219 348.523438 L 188.886719 357.96875 C 188.824219 358.398438 188.417969 358.691406 187.988281 358.628906 C 187.558594 358.5625 187.261719 358.160156 187.328125 357.730469 L 188.652344 349.023438 C 187.230469 348.632812 185.992188 347.785156 185.105469 346.582031 C 184.214844 345.375 183.773438 343.933594 183.820312 342.460938 L 127.035156 333.8125 C 126.222656 336.734375 123.507812 338.746094 120.46875 338.648438 L 117.171875 360.320312 C 117.113281 360.710938 116.777344 360.992188 116.390625 360.992188 "></path>
<path style=" stroke:none;fill-rule:nonzero;fill:rgb(26.66626%,32.548523%,36.862183%);fill-opacity:1;" d="M 122.875 397.476562 C 125.457031 397.476562 127.863281 399.003906 128.921875 401.425781 L 183.910156 384.8125 C 183.386719 381.828125 184.984375 378.84375 187.761719 377.628906 L 180.382812 353.210938 C 177.402344 353.734375 174.414062 352.136719 173.199219 349.359375 L 118.210938 365.972656 C 118.46875 367.425781 118.234375 368.910156 117.527344 370.230469 C 116.820312 371.550781 115.714844 372.566406 114.363281 373.15625 L 121.738281 397.574219 C 122.121094 397.507812 122.5 397.476562 122.875 397.476562 M 128.441406 403.1875 C 128.3125 403.1875 128.183594 403.15625 128.066406 403.09375 C 127.882812 402.992188 127.746094 402.824219 127.6875 402.625 C 126.886719 399.976562 124.082031 398.472656 121.425781 399.269531 C 121.007812 399.398438 120.570312 399.160156 120.445312 398.742188 L 112.636719 372.902344 C 112.574219 372.703125 112.597656 372.484375 112.695312 372.300781 C 112.792969 372.117188 112.960938 371.980469 113.164062 371.917969 C 114.445312 371.53125 115.503906 370.664062 116.136719 369.484375 C 116.769531 368.300781 116.90625 366.945312 116.515625 365.660156 C 116.390625 365.242188 116.628906 364.800781 117.042969 364.675781 L 173.453125 347.632812 C 173.867188 347.507812 174.3125 347.742188 174.4375 348.160156 C 174.824219 349.445312 175.691406 350.5 176.871094 351.132812 C 178.054688 351.765625 179.410156 351.902344 180.695312 351.515625 C 180.894531 351.453125 181.113281 351.476562 181.296875 351.574219 C 181.480469 351.671875 181.621094 351.839844 181.679688 352.042969 L 189.488281 377.882812 C 189.613281 378.300781 189.378906 378.742188 188.960938 378.867188 C 187.675781 379.253906 186.621094 380.121094 185.988281 381.300781 C 185.355469 382.484375 185.21875 383.839844 185.605469 385.125 C 185.667969 385.324219 185.644531 385.542969 185.546875 385.726562 C 185.449219 385.910156 185.28125 386.046875 185.078125 386.109375 L 128.667969 403.152344 C 128.59375 403.175781 128.519531 403.1875 128.441406 403.1875 "></path>
<path style=" stroke:none;fill-rule:nonzero;fill:rgb(26.66626%,32.548523%,36.862183%);fill-opacity:1;" d="M 132.292969 396.523438 C 131.953125 396.523438 131.640625 396.304688 131.539062 395.960938 L 123.414062 369.074219 C 123.285156 368.65625 123.523438 368.214844 123.941406 368.089844 C 124.355469 367.964844 124.800781 368.199219 124.925781 368.617188 L 133.050781 395.507812 C 133.175781 395.921875 132.9375 396.363281 132.523438 396.488281 C 132.445312 396.511719 132.367188 396.523438 132.292969 396.523438 "></path>
<path style=" stroke:none;fill-rule:nonzero;fill:rgb(26.66626%,32.548523%,36.862183%);fill-opacity:1;" d="M 177.953125 382.726562 C 177.613281 382.726562 177.300781 382.507812 177.199219 382.167969 L 169.074219 355.277344 C 168.949219 354.863281 169.183594 354.421875 169.601562 354.296875 C 170.019531 354.167969 170.460938 354.40625 170.585938 354.824219 L 178.710938 381.710938 C 178.835938 382.128906 178.601562 382.570312 178.183594 382.695312 C 178.105469 382.71875 178.03125 382.726562 177.953125 382.726562 "></path>
<path style=" stroke:none;fill-rule:nonzero;fill:rgb(26.66626%,32.548523%,36.862183%);fill-opacity:1;" d="M 147.765625 364.285156 C 147.746094 364.285156 147.726562 364.289062 147.707031 364.292969 C 147.65625 364.308594 147.59375 364.34375 147.578125 364.441406 L 146.398438 371.523438 C 146.355469 371.78125 146.191406 372 145.953125 372.109375 L 139.449219 375.15625 C 139.363281 375.195312 139.34375 375.265625 139.339844 375.320312 C 139.339844 375.371094 139.355469 375.445312 139.441406 375.488281 L 145.816406 378.800781 C 146.046875 378.921875 146.203125 379.144531 146.234375 379.402344 L 147.121094 386.53125 C 147.132812 386.628906 147.195312 386.667969 147.242188 386.683594 C 147.292969 386.703125 147.367188 386.710938 147.433594 386.640625 L 152.554688 381.601562 C 152.738281 381.421875 153 381.339844 153.257812 381.390625 L 160.3125 382.753906 C 160.40625 382.769531 160.460938 382.722656 160.496094 382.679688 C 160.527344 382.640625 160.554688 382.570312 160.511719 382.488281 L 157.300781 376.058594 C 157.1875 375.828125 157.191406 375.554688 157.320312 375.324219 L 160.792969 369.039062 C 160.839844 368.953125 160.8125 368.886719 160.78125 368.84375 C 160.75 368.800781 160.695312 368.75 160.601562 368.765625 L 153.496094 369.832031 C 153.242188 369.867188 152.980469 369.78125 152.804688 369.589844 L 147.898438 364.34375 C 147.855469 364.296875 147.808594 364.285156 147.765625 364.285156 M 147.308594 388.277344 C 147.113281 388.277344 146.917969 388.242188 146.722656 388.175781 C 146.085938 387.953125 145.636719 387.398438 145.554688 386.726562 L 144.71875 380.011719 L 138.714844 376.890625 C 138.113281 376.578125 137.75 375.964844 137.761719 375.289062 C 137.777344 374.609375 138.164062 374.011719 138.777344 373.726562 L 144.910156 370.855469 L 146.019531 364.179688 C 146.132812 363.511719 146.605469 362.976562 147.25 362.78125 C 147.898438 362.585938 148.589844 362.769531 149.050781 363.265625 L 153.671875 368.207031 L 160.367188 367.203125 C 161.035156 367.105469 161.691406 367.386719 162.078125 367.941406 C 162.464844 368.496094 162.5 369.210938 162.171875 369.800781 L 158.902344 375.726562 L 161.925781 381.78125 C 162.226562 382.386719 162.160156 383.097656 161.753906 383.636719 C 161.34375 384.175781 160.675781 384.429688 160.011719 384.300781 L 153.367188 383.019531 L 148.542969 387.769531 C 148.207031 388.097656 147.761719 388.277344 147.308594 388.277344 "></path>
</g>
</svg>