<?xml version="1.0" encoding="UTF-8"?>
<svg xmlns="http://www.w3.org/2000/svg" viewBox="117.6836 135.4102 70.9805 69.9570" width="70.9805pt" height="69.9570pt" version="1.2">
<g>
<path style=" stroke:none;fill-rule:nonzero;fill:rgb(11.372375%,11.372375%,10.588074%);fill-opacity:1;" d="M 153 145.570312 C 152.613281 145.570312 152.300781 145.253906 152.300781 144.871094 L 152.300781 138.039062 C 147.695312 136.871094 142.863281 136.871094 138.257812 138.039062 L 138.257812 144.871094 C 138.257812 145.253906 137.945312 145.570312 137.558594 145.570312 C 137.171875 145.570312 136.859375 145.253906 136.859375 144.871094 L 136.859375 137.5 C 136.859375 137.1875 137.070312 136.910156 137.375 136.828125 C 142.546875 135.410156 148.011719 135.410156 153.183594 136.828125 C 153.488281 136.910156 153.699219 137.1875 153.699219 137.5 L 153.699219 144.871094 C 153.699219 145.253906 153.386719 145.570312 153 145.570312 "></path>
<path style=" stroke:none;fill-rule:nonzero;fill:rgb(11.372375%,11.372375%,10.588074%);fill-opacity:1;" d="M 145.28125 198.234375 C 130.0625 198.234375 117.683594 185.855469 117.683594 170.640625 C 117.683594 158.535156 125.773438 147.664062 137.359375 144.199219 C 142.457031 142.667969 148.101562 142.664062 153.203125 144.199219 C 163.351562 147.234375 170.949219 155.957031 172.554688 166.421875 C 172.613281 166.804688 172.351562 167.160156 171.96875 167.21875 C 171.589844 167.277344 171.230469 167.015625 171.171875 166.632812 C 169.648438 156.699219 162.4375 148.421875 152.800781 145.539062 C 147.960938 144.082031 142.597656 144.082031 137.761719 145.539062 C 126.761719 148.828125 119.082031 159.148438 119.082031 170.640625 C 119.082031 185.085938 130.835938 196.832031 145.28125 196.832031 C 149.9375 196.832031 154.511719 195.59375 158.511719 193.25 C 158.84375 193.054688 159.273438 193.167969 159.46875 193.5 C 159.664062 193.835938 159.550781 194.261719 159.21875 194.457031 C 155.003906 196.925781 150.1875 198.234375 145.28125 198.234375 "></path>
<path style=" stroke:none;fill-rule:nonzero;fill:rgb(11.372375%,11.372375%,10.588074%);fill-opacity:1;" d="M 127.953125 159.28125 C 127.816406 159.28125 127.675781 159.238281 127.554688 159.15625 C 127.238281 158.933594 127.160156 158.496094 127.378906 158.179688 C 128.832031 156.101562 130.617188 154.300781 132.6875 152.835938 C 133.003906 152.613281 133.4375 152.683594 133.664062 153 C 133.886719 153.316406 133.8125 153.753906 133.496094 153.976562 C 131.558594 155.347656 129.886719 157.035156 128.527344 158.980469 C 128.390625 159.175781 128.175781 159.28125 127.953125 159.28125 "></path>
<path style=" stroke:none;fill-rule:nonzero;fill:rgb(11.372375%,11.372375%,10.588074%);fill-opacity:1;" d="M 145.277344 192.453125 C 133.25 192.453125 123.464844 182.667969 123.464844 170.640625 C 123.464844 170.253906 123.777344 169.941406 124.164062 169.941406 C 124.550781 169.941406 124.863281 170.253906 124.863281 170.640625 C 124.863281 181.894531 134.023438 191.054688 145.277344 191.054688 C 145.664062 191.054688 145.976562 191.367188 145.976562 191.753906 C 145.976562 192.140625 145.664062 192.453125 145.277344 192.453125 "></path>
<path style=" stroke:none;fill-rule:nonzero;fill:rgb(11.372375%,11.372375%,10.588074%);fill-opacity:1;" d="M 145.28125 166.871094 C 144.894531 166.871094 144.582031 166.554688 144.582031 166.171875 L 144.582031 153.039062 C 144.582031 152.652344 144.894531 152.339844 145.28125 152.339844 C 145.667969 152.339844 145.980469 152.652344 145.980469 153.039062 L 145.980469 166.171875 C 145.980469 166.554688 145.667969 166.871094 145.28125 166.871094 "></path>
<path style=" stroke:none;fill-rule:nonzero;fill:rgb(11.372375%,11.372375%,10.588074%);fill-opacity:1;" d="M 145.277344 166.871094 C 143.199219 166.871094 141.507812 168.5625 141.507812 170.640625 C 141.507812 172.71875 143.199219 174.410156 145.277344 174.410156 C 147.355469 174.410156 149.046875 172.71875 149.046875 170.640625 C 149.046875 168.5625 147.355469 166.871094 145.277344 166.871094 M 145.277344 175.808594 C 142.429688 175.808594 140.109375 173.488281 140.109375 170.640625 C 140.109375 167.789062 142.429688 165.472656 145.277344 165.472656 C 148.128906 165.472656 150.445312 167.789062 150.445312 170.640625 C 150.445312 173.488281 148.128906 175.808594 145.277344 175.808594 "></path>
<path style=" stroke:none;fill-rule:nonzero;fill:rgb(11.372375%,11.372375%,10.588074%);fill-opacity:1;" d="M 149.421875 182.546875 L 162.640625 189.5625 C 162.761719 189.628906 162.863281 189.730469 162.929688 189.851562 L 169.945312 203.074219 L 186.523438 165.96875 Z M 170 205.367188 C 169.742188 205.367188 169.503906 205.222656 169.382812 204.992188 L 161.796875 190.699219 L 147.5 183.109375 C 147.261719 182.984375 147.117188 182.734375 147.128906 182.46875 C 147.136719 182.199219 147.296875 181.964844 147.539062 181.855469 L 187.621094 163.945312 C 187.886719 163.828125 188.195312 163.886719 188.402344 164.089844 C 188.605469 164.296875 188.664062 164.605469 188.546875 164.871094 L 170.640625 204.953125 C 170.53125 205.195312 170.292969 205.355469 170.023438 205.367188 C 170.015625 205.367188 170.007812 205.367188 170 205.367188 "></path>
<path style=" stroke:none;fill-rule:nonzero;fill:rgb(11.372375%,11.372375%,10.588074%);fill-opacity:1;" d="M 162.3125 190.878906 C 162.132812 190.878906 161.953125 190.8125 161.816406 190.675781 C 161.542969 190.402344 161.542969 189.957031 161.816406 189.6875 L 173.335938 178.167969 C 173.609375 177.894531 174.050781 177.894531 174.324219 178.167969 C 174.597656 178.441406 174.597656 178.882812 174.324219 179.15625 L 162.808594 190.675781 C 162.671875 190.8125 162.492188 190.878906 162.3125 190.878906 "></path>
</g>
</svg>