<?xml version="1.0" encoding="UTF-8"?>
<svg xmlns="http://www.w3.org/2000/svg" viewBox="110.5859 330.7344 72.1914 79.1055" width="72.1914pt" height="79.1055pt" version="1.2">
<g>
<path style=" stroke:none;fill-rule:nonzero;fill:rgb(11.372375%,11.372375%,10.588074%);fill-opacity:1;" d="M 124.453125 394.136719 L 123.097656 394.136719 C 116.199219 394.136719 110.585938 388.925781 110.585938 382.519531 L 110.585938 342.347656 C 110.585938 335.945312 116.199219 330.734375 123.097656 330.734375 L 163.382812 330.734375 C 170.28125 330.734375 175.894531 335.945312 175.894531 342.347656 L 175.894531 349.34375 C 175.894531 349.796875 175.53125 350.164062 175.074219 350.164062 C 174.621094 350.164062 174.257812 349.796875 174.257812 349.34375 L 174.257812 342.347656 C 174.257812 336.847656 169.378906 332.375 163.382812 332.375 L 123.097656 332.375 C 117.105469 332.375 112.226562 336.847656 112.226562 342.347656 L 112.226562 382.519531 C 112.226562 388.019531 117.105469 392.496094 123.097656 392.496094 L 124.453125 392.496094 C 124.90625 392.496094 125.273438 392.863281 125.273438 393.316406 C 125.273438 393.769531 124.90625 394.136719 124.453125 394.136719 "></path>
<path style=" stroke:none;fill-rule:nonzero;fill:rgb(11.372375%,11.372375%,10.588074%);fill-opacity:1;" d="M 118.972656 354.742188 C 118.519531 354.742188 118.15625 354.371094 118.15625 353.921875 L 118.15625 342.347656 C 118.15625 339.796875 120.371094 337.722656 123.097656 337.722656 L 128.457031 337.722656 C 128.910156 337.722656 129.277344 338.089844 129.277344 338.542969 C 129.277344 338.996094 128.910156 339.363281 128.457031 339.363281 L 123.097656 339.363281 C 121.277344 339.363281 119.792969 340.703125 119.792969 342.347656 L 119.792969 353.921875 C 119.792969 354.371094 119.429688 354.742188 118.972656 354.742188 "></path>
<path style=" stroke:none;fill-rule:nonzero;fill:rgb(11.372375%,11.372375%,10.588074%);fill-opacity:1;" d="M 171.671875 391.027344 C 171.457031 391.027344 171.242188 390.941406 171.078125 390.773438 C 170.765625 390.449219 170.777344 389.929688 171.101562 389.613281 C 172.027344 388.722656 172.769531 387.683594 173.304688 386.523438 C 173.339844 386.453125 173.378906 386.390625 173.429688 386.332031 C 173.976562 385.125 174.253906 383.84375 174.253906 382.519531 L 174.253906 375.523438 C 174.253906 375.070312 174.621094 374.703125 175.078125 374.703125 C 175.527344 374.703125 175.894531 375.070312 175.894531 375.523438 L 175.894531 382.519531 C 175.894531 384.160156 175.53125 385.746094 174.816406 387.234375 C 174.785156 387.300781 174.742188 387.363281 174.695312 387.417969 C 174.082031 388.683594 173.257812 389.816406 172.238281 390.796875 C 172.082031 390.949219 171.875 391.027344 171.671875 391.027344 "></path>
<path style=" stroke:none;fill-rule:nonzero;fill:rgb(11.372375%,11.372375%,10.588074%);fill-opacity:1;" d="M 159.347656 356.519531 C 157.660156 356.519531 156.285156 357.890625 156.285156 359.582031 L 156.285156 365.289062 C 156.285156 366.976562 157.660156 368.351562 159.347656 368.351562 L 178.074219 368.351562 C 179.761719 368.351562 181.136719 366.976562 181.136719 365.289062 L 181.136719 359.582031 C 181.136719 357.890625 179.761719 356.519531 178.074219 356.519531 Z M 178.074219 369.992188 L 159.347656 369.992188 C 156.753906 369.992188 154.644531 367.882812 154.644531 365.289062 L 154.644531 359.582031 C 154.644531 356.988281 156.753906 354.878906 159.347656 354.878906 L 178.074219 354.878906 C 180.667969 354.878906 182.777344 356.988281 182.777344 359.582031 L 182.777344 365.289062 C 182.777344 367.882812 180.667969 369.992188 178.074219 369.992188 "></path>
<path style=" stroke:none;fill-rule:nonzero;fill:rgb(11.372375%,11.372375%,10.588074%);fill-opacity:1;" d="M 151.566406 400.503906 C 151.78125 400.503906 151.992188 400.589844 152.144531 400.746094 L 159.261719 407.859375 L 163.8125 403.308594 L 156.671875 396.164062 C 156.492188 395.984375 156.40625 395.734375 156.4375 395.484375 C 156.46875 395.234375 156.613281 395.011719 156.832031 394.882812 L 162.824219 391.289062 L 141.671875 385.609375 L 147.351562 406.765625 L 150.863281 400.902344 C 150.992188 400.6875 151.214844 400.542969 151.464844 400.511719 C 151.5 400.507812 151.53125 400.503906 151.566406 400.503906 M 159.261719 409.839844 C 159.050781 409.839844 158.839844 409.761719 158.679688 409.601562 L 151.730469 402.648438 L 147.765625 409.269531 C 147.59375 409.550781 147.277344 409.703125 146.949219 409.660156 C 146.621094 409.613281 146.355469 409.378906 146.269531 409.058594 L 139.71875 384.664062 C 139.644531 384.378906 139.722656 384.078125 139.929688 383.871094 C 140.136719 383.664062 140.441406 383.582031 140.722656 383.65625 L 165.121094 390.207031 C 165.4375 390.292969 165.675781 390.5625 165.71875 390.886719 C 165.765625 391.210938 165.613281 391.535156 165.328125 391.703125 L 158.574219 395.75 L 165.554688 402.726562 C 165.707031 402.878906 165.792969 403.089844 165.792969 403.308594 C 165.792969 403.523438 165.707031 403.734375 165.554688 403.886719 L 159.839844 409.601562 C 159.679688 409.761719 159.46875 409.839844 159.261719 409.839844 "></path>
<path style=" stroke:none;fill-rule:nonzero;fill:rgb(11.372375%,11.372375%,10.588074%);fill-opacity:1;" d="M 136.0625 380.824219 C 135.855469 380.824219 135.644531 380.742188 135.484375 380.582031 L 132.777344 377.875 C 132.457031 377.554688 132.457031 377.035156 132.777344 376.714844 C 133.097656 376.394531 133.617188 376.394531 133.9375 376.714844 L 136.644531 379.421875 C 136.964844 379.742188 136.964844 380.261719 136.644531 380.582031 C 136.484375 380.742188 136.273438 380.824219 136.0625 380.824219 "></path>
<path style=" stroke:none;fill-rule:nonzero;fill:rgb(11.372375%,11.372375%,10.588074%);fill-opacity:1;" d="M 128.253906 388.542969 C 127.835938 388.542969 127.476562 388.222656 127.4375 387.796875 C 127.394531 387.347656 127.726562 386.945312 128.175781 386.90625 L 132.402344 386.503906 C 132.851562 386.460938 133.253906 386.792969 133.296875 387.246094 C 133.339844 387.695312 133.007812 388.097656 132.558594 388.140625 L 128.332031 388.539062 C 128.304688 388.539062 128.277344 388.542969 128.253906 388.542969 "></path>
<path style=" stroke:none;fill-rule:nonzero;fill:rgb(11.372375%,11.372375%,10.588074%);fill-opacity:1;" d="M 150.152344 379.492188 C 149.941406 379.492188 149.730469 379.414062 149.570312 379.253906 C 149.25 378.933594 149.25 378.414062 149.570312 378.09375 L 152.84375 374.824219 C 153.164062 374.5 153.683594 374.5 154.003906 374.824219 C 154.324219 375.140625 154.324219 375.660156 154.003906 375.980469 L 150.730469 379.253906 C 150.570312 379.414062 150.363281 379.492188 150.152344 379.492188 "></path>
<path style=" stroke:none;fill-rule:nonzero;fill:rgb(11.372375%,11.372375%,10.588074%);fill-opacity:1;" d="M 131.460938 398.183594 C 131.253906 398.183594 131.042969 398.101562 130.882812 397.941406 C 130.5625 397.621094 130.5625 397.101562 130.882812 396.78125 L 134.15625 393.511719 C 134.472656 393.191406 134.992188 393.191406 135.3125 393.511719 C 135.632812 393.832031 135.632812 394.351562 135.3125 394.671875 L 132.042969 397.941406 C 131.882812 398.101562 131.671875 398.183594 131.460938 398.183594 "></path>
<path style=" stroke:none;fill-rule:nonzero;fill:rgb(11.372375%,11.372375%,10.588074%);fill-opacity:1;" d="M 143.382812 377.242188 C 143.359375 377.242188 143.332031 377.238281 143.304688 377.238281 C 142.855469 377.195312 142.523438 376.792969 142.566406 376.34375 L 142.964844 372.117188 C 143.007812 371.664062 143.40625 371.332031 143.859375 371.375 C 144.308594 371.417969 144.640625 371.820312 144.597656 372.269531 L 144.199219 376.496094 C 144.160156 376.921875 143.800781 377.242188 143.382812 377.242188 "></path>
</g>
</svg>