<?xml version="1.0" encoding="UTF-8"?>
<svg xmlns="http://www.w3.org/2000/svg" viewBox="107.5820 580.7500 72.3477 69.0586" width="72.3477pt" height="69.0586pt" version="1.2">
<g>
<path style=" stroke:none;fill-rule:nonzero;fill:rgb(11.372375%,11.372375%,10.588074%);fill-opacity:1;" d="M 139.238281 582.257812 C 131.933594 582.257812 125.066406 585.101562 119.898438 590.269531 C 109.234375 600.933594 109.234375 618.285156 119.898438 628.953125 C 125.066406 634.117188 131.933594 636.964844 139.238281 636.964844 C 146.546875 636.964844 153.414062 634.117188 158.582031 628.953125 C 169.246094 618.285156 169.246094 600.933594 158.582031 590.269531 C 153.414062 585.101562 146.546875 582.257812 139.238281 582.257812 M 139.238281 638.46875 C 131.53125 638.46875 124.285156 635.46875 118.832031 630.019531 C 107.582031 618.765625 107.582031 600.457031 118.832031 589.203125 C 124.285156 583.753906 131.53125 580.75 139.238281 580.75 C 146.949219 580.75 154.195312 583.753906 159.648438 589.203125 C 170.898438 600.457031 170.898438 618.765625 159.648438 630.019531 C 154.195312 635.46875 146.949219 638.46875 139.238281 638.46875 "></path>
<path style=" stroke:none;fill-rule:nonzero;fill:rgb(11.372375%,11.372375%,10.588074%);fill-opacity:1;" d="M 166.972656 632.574219 C 166.027344 632.574219 165.144531 632.941406 164.484375 633.601562 L 163.230469 634.855469 C 162.570312 635.515625 162.203125 636.398438 162.203125 637.34375 C 162.203125 638.285156 162.570312 639.167969 163.230469 639.828125 L 170.675781 647.277344 C 172.050781 648.644531 174.28125 648.644531 175.648438 647.277344 L 176.90625 646.019531 C 177.566406 645.359375 177.929688 644.476562 177.929688 643.535156 C 177.929688 642.589844 177.566406 641.707031 176.90625 641.046875 L 169.457031 633.601562 C 168.796875 632.941406 167.914062 632.574219 166.972656 632.574219 M 173.164062 649.808594 C 171.878906 649.808594 170.589844 649.320312 169.609375 648.339844 L 162.164062 640.894531 C 161.21875 639.949219 160.699219 638.6875 160.699219 637.34375 C 160.699219 635.996094 161.21875 634.734375 162.164062 633.789062 L 163.417969 632.535156 C 165.378906 630.578125 168.566406 630.578125 170.523438 632.535156 L 177.96875 639.980469 C 179.929688 641.941406 179.929688 645.128906 177.96875 647.085938 L 176.714844 648.339844 C 175.738281 649.320312 174.449219 649.808594 173.164062 649.808594 "></path>
<path style=" stroke:none;fill-rule:nonzero;fill:rgb(11.372375%,11.372375%,10.588074%);fill-opacity:1;" d="M 144.289062 620.492188 C 143.875 620.492188 143.535156 620.15625 143.535156 619.738281 C 143.535156 617.210938 144.699219 614.847656 146.648438 613.410156 C 149.835938 611.058594 151.742188 607.296875 151.742188 603.34375 C 151.742188 599.855469 150.339844 596.617188 147.796875 594.230469 C 145.257812 591.84375 141.933594 590.644531 138.4375 590.867188 C 132.191406 591.253906 127.175781 596.257812 126.765625 602.496094 C 126.488281 606.734375 128.34375 610.789062 131.734375 613.335938 C 133.773438 614.871094 134.941406 617.148438 134.941406 619.589844 C 134.941406 620.003906 134.605469 620.34375 134.191406 620.34375 C 133.773438 620.34375 133.4375 620.003906 133.4375 619.589844 C 133.4375 617.628906 132.484375 615.789062 130.828125 614.539062 C 127.03125 611.6875 124.949219 607.144531 125.261719 602.398438 C 125.722656 595.402344 131.34375 589.796875 138.34375 589.363281 C 142.265625 589.117188 145.984375 590.457031 148.832031 593.128906 C 151.636719 595.769531 153.246094 599.492188 153.246094 603.34375 C 153.246094 607.773438 151.117188 611.988281 147.542969 614.621094 C 145.976562 615.777344 145.042969 617.691406 145.042969 619.738281 C 145.042969 620.15625 144.707031 620.492188 144.289062 620.492188 "></path>
<path style=" stroke:none;fill-rule:nonzero;fill:rgb(11.372375%,11.372375%,10.588074%);fill-opacity:1;" d="M 144.289062 625.367188 L 134.191406 625.367188 C 133.773438 625.367188 133.4375 625.027344 133.4375 624.613281 C 133.4375 624.195312 133.773438 623.859375 134.191406 623.859375 L 144.289062 623.859375 C 144.707031 623.859375 145.042969 624.195312 145.042969 624.613281 C 145.042969 625.027344 144.707031 625.367188 144.289062 625.367188 "></path>
<path style=" stroke:none;fill-rule:nonzero;fill:rgb(11.372375%,11.372375%,10.588074%);fill-opacity:1;" d="M 142.449219 629.886719 L 136.03125 629.886719 C 135.617188 629.886719 135.277344 629.550781 135.277344 629.132812 C 135.277344 628.71875 135.617188 628.378906 136.03125 628.378906 L 142.449219 628.378906 C 142.863281 628.378906 143.199219 628.71875 143.199219 629.132812 C 143.199219 629.550781 142.863281 629.886719 142.449219 629.886719 "></path>
<path style=" stroke:none;fill-rule:nonzero;fill:rgb(11.372375%,11.372375%,10.588074%);fill-opacity:1;" d="M 139.238281 620.492188 C 138.824219 620.492188 138.488281 620.15625 138.488281 619.738281 L 138.488281 612.550781 C 138.488281 612.136719 138.824219 611.796875 139.238281 611.796875 C 139.65625 611.796875 139.992188 612.136719 139.992188 612.550781 L 139.992188 619.738281 C 139.992188 620.15625 139.65625 620.492188 139.238281 620.492188 "></path>
<path style=" stroke:none;fill-rule:nonzero;fill:rgb(11.372375%,11.372375%,10.588074%);fill-opacity:1;" d="M 139.238281 613.304688 C 139.046875 613.304688 138.851562 613.230469 138.703125 613.078125 L 135.496094 609.8125 C 135.203125 609.515625 135.207031 609.039062 135.503906 608.75 C 135.800781 608.457031 136.277344 608.460938 136.570312 608.757812 L 139.777344 612.023438 C 140.070312 612.320312 140.066406 612.796875 139.769531 613.089844 C 139.621094 613.234375 139.429688 613.304688 139.238281 613.304688 "></path>
<path style=" stroke:none;fill-rule:nonzero;fill:rgb(11.372375%,11.372375%,10.588074%);fill-opacity:1;" d="M 139.238281 613.304688 C 139.050781 613.304688 138.859375 613.234375 138.710938 613.089844 C 138.414062 612.796875 138.410156 612.320312 138.703125 612.023438 L 141.910156 608.757812 C 142.203125 608.460938 142.679688 608.457031 142.976562 608.75 C 143.273438 609.039062 143.277344 609.515625 142.984375 609.8125 L 139.777344 613.078125 C 139.628906 613.230469 139.433594 613.304688 139.238281 613.304688 "></path>
</g>
</svg>