<?xml version="1.0" encoding="UTF-8"?>
<svg xmlns="http://www.w3.org/2000/svg" viewBox="317.7773 441.8242 60.7812 64.5156" width="60.7812pt" height="64.5156pt" version="1.2">
<g>
<path style=" stroke:none;fill-rule:nonzero;fill:rgb(11.372375%,11.372375%,10.588074%);fill-opacity:1;" d="M 366.796875 463.46875 C 366.726562 463.46875 366.652344 463.457031 366.582031 463.433594 C 366.230469 463.3125 366.039062 462.929688 366.15625 462.578125 L 368.011719 457.046875 L 364.171875 446.214844 L 354.375 452.65625 C 354.0625 452.863281 353.644531 452.777344 353.441406 452.464844 C 353.234375 452.152344 353.324219 451.734375 353.632812 451.527344 L 364.148438 444.613281 C 364.320312 444.5 364.539062 444.472656 364.734375 444.539062 C 364.929688 444.605469 365.085938 444.757812 365.15625 444.953125 L 369.363281 456.8125 C 369.414062 456.957031 369.414062 457.113281 369.367188 457.253906 L 367.4375 463.007812 C 367.34375 463.289062 367.078125 463.46875 366.796875 463.46875 "></path>
<path style=" stroke:none;fill-rule:nonzero;fill:rgb(11.372375%,11.372375%,10.588074%);fill-opacity:1;" d="M 368.726562 457.714844 C 368.65625 457.714844 368.582031 457.703125 368.511719 457.679688 L 353.789062 452.734375 C 353.4375 452.613281 353.246094 452.234375 353.363281 451.878906 C 353.484375 451.523438 353.867188 451.332031 354.21875 451.453125 L 368.941406 456.398438 C 369.292969 456.515625 369.484375 456.898438 369.367188 457.253906 C 369.269531 457.535156 369.007812 457.714844 368.726562 457.714844 "></path>
<path style=" stroke:none;fill-rule:nonzero;fill:rgb(11.372375%,11.372375%,10.588074%);fill-opacity:1;" d="M 324.257812 463.46875 C 324.003906 463.46875 323.765625 463.328125 323.648438 463.085938 L 319.566406 454.644531 C 319.488281 454.484375 319.476562 454.300781 319.535156 454.128906 C 319.59375 453.960938 319.71875 453.824219 319.878906 453.742188 L 344.191406 441.988281 C 344.527344 441.824219 344.929688 441.964844 345.09375 442.300781 L 354.863281 462.5 C 355.027344 462.832031 354.886719 463.238281 354.550781 463.398438 C 354.214844 463.5625 353.8125 463.421875 353.648438 463.085938 L 344.171875 443.496094 L 321.074219 454.664062 L 324.863281 462.5 C 325.027344 462.832031 324.886719 463.238281 324.550781 463.398438 C 324.457031 463.445312 324.355469 463.46875 324.257812 463.46875 "></path>
<path style=" stroke:none;fill-rule:nonzero;fill:rgb(11.372375%,11.372375%,10.588074%);fill-opacity:1;" d="M 328.769531 459.535156 C 328.519531 459.535156 328.28125 459.398438 328.164062 459.15625 C 328 458.820312 328.140625 458.417969 328.476562 458.253906 L 342.390625 451.527344 C 342.726562 451.363281 343.128906 451.503906 343.289062 451.839844 C 343.453125 452.175781 343.3125 452.578125 342.976562 452.742188 L 329.066406 459.46875 C 328.96875 459.515625 328.871094 459.535156 328.769531 459.535156 "></path>
<path style=" stroke:none;fill-rule:nonzero;fill:rgb(11.372375%,11.372375%,10.588074%);fill-opacity:1;" d="M 336.320312 463.46875 C 336.070312 463.46875 335.828125 463.328125 335.710938 463.085938 C 335.546875 462.75 335.691406 462.347656 336.023438 462.183594 L 345.359375 457.667969 C 345.699219 457.507812 346.101562 457.648438 346.261719 457.984375 C 346.425781 458.320312 346.285156 458.722656 345.949219 458.886719 L 336.613281 463.398438 C 336.519531 463.445312 336.417969 463.46875 336.320312 463.46875 "></path>
<path style=" stroke:none;fill-rule:nonzero;fill:rgb(11.372375%,11.372375%,10.588074%);fill-opacity:1;" d="M 372.417969 506.339844 L 323.917969 506.339844 C 322.269531 506.339844 320.929688 505 320.929688 503.351562 L 320.929688 489.207031 C 320.929688 488.832031 321.230469 488.53125 321.605469 488.53125 C 321.976562 488.53125 322.28125 488.832031 322.28125 489.207031 L 322.28125 503.351562 C 322.28125 504.253906 323.015625 504.988281 323.917969 504.988281 L 372.417969 504.988281 C 373.324219 504.988281 374.058594 504.253906 374.058594 503.351562 L 374.058594 489.207031 C 374.058594 488.832031 374.359375 488.53125 374.734375 488.53125 C 375.105469 488.53125 375.40625 488.832031 375.40625 489.207031 L 375.40625 503.351562 C 375.40625 505 374.066406 506.339844 372.417969 506.339844 "></path>
<path style=" stroke:none;fill-rule:nonzero;fill:rgb(11.372375%,11.372375%,10.588074%);fill-opacity:1;" d="M 335.984375 501.839844 L 327.507812 501.839844 C 327.132812 501.839844 326.832031 501.535156 326.832031 501.164062 C 326.832031 500.792969 327.132812 500.488281 327.507812 500.488281 L 335.984375 500.488281 C 336.355469 500.488281 336.660156 500.792969 336.660156 501.164062 C 336.660156 501.535156 336.355469 501.839844 335.984375 501.839844 "></path>
<path style=" stroke:none;fill-rule:nonzero;fill:rgb(11.372375%,11.372375%,10.588074%);fill-opacity:1;" d="M 320.765625 467.96875 C 319.863281 467.96875 319.128906 468.703125 319.128906 469.605469 L 319.128906 482.183594 C 319.128906 483 319.714844 483.679688 320.523438 483.804688 L 348.167969 487.992188 L 375.816406 483.804688 C 376.621094 483.679688 377.207031 483 377.207031 482.183594 L 377.207031 469.605469 C 377.207031 468.703125 376.472656 467.96875 375.570312 467.96875 Z M 348.167969 489.347656 C 348.132812 489.347656 348.101562 489.347656 348.066406 489.339844 L 320.320312 485.136719 C 318.847656 484.914062 317.777344 483.671875 317.777344 482.183594 L 317.777344 469.605469 C 317.777344 467.957031 319.121094 466.617188 320.765625 466.617188 L 375.570312 466.617188 C 377.21875 466.617188 378.558594 467.957031 378.558594 469.605469 L 378.558594 482.183594 C 378.558594 483.671875 377.488281 484.914062 376.015625 485.136719 L 348.269531 489.339844 C 348.234375 489.347656 348.203125 489.347656 348.167969 489.347656 "></path>
<path style=" stroke:none;fill-rule:nonzero;fill:rgb(11.372375%,11.372375%,10.588074%);fill-opacity:1;" d="M 331.632812 476.859375 L 326.683594 476.859375 C 326.308594 476.859375 326.007812 476.554688 326.007812 476.183594 C 326.007812 475.808594 326.308594 475.507812 326.683594 475.507812 L 331.632812 475.507812 C 332.007812 475.507812 332.308594 475.808594 332.308594 476.183594 C 332.308594 476.554688 332.007812 476.859375 331.632812 476.859375 "></path>
<path style=" stroke:none;fill-rule:nonzero;fill:rgb(11.372375%,11.372375%,10.588074%);fill-opacity:1;" d="M 369.65625 476.859375 L 364.703125 476.859375 C 364.332031 476.859375 364.027344 476.554688 364.027344 476.183594 C 364.027344 475.808594 364.332031 475.507812 364.703125 475.507812 L 369.65625 475.507812 C 370.027344 475.507812 370.328125 475.808594 370.328125 476.183594 C 370.328125 476.554688 370.027344 476.859375 369.65625 476.859375 "></path>
</g>
</svg>