<?xml version="1.0" encoding="UTF-8"?>
<svg xmlns="http://www.w3.org/2000/svg" viewBox="109.2578 190.0273 66.2539 80.1523" width="66.2539pt" height="80.1523pt" version="1.2">
<g>
<path style=" stroke:none;fill-rule:nonzero;fill:rgb(26.66626%,32.548523%,36.862183%);fill-opacity:1;" d="M 114.636719 217.722656 C 113.601562 217.722656 112.613281 218.167969 111.925781 218.945312 C 111.242188 219.71875 110.921875 220.753906 111.046875 221.78125 L 116.390625 265.386719 C 116.613281 267.199219 118.15625 268.5625 119.980469 268.5625 L 164.789062 268.5625 C 166.613281 268.5625 168.15625 267.199219 168.378906 265.386719 L 173.722656 221.78125 C 173.847656 220.753906 173.527344 219.71875 172.839844 218.945312 C 172.15625 218.167969 171.167969 217.722656 170.132812 217.722656 Z M 164.789062 270.179688 L 119.980469 270.179688 C 117.339844 270.179688 115.105469 268.203125 114.785156 265.582031 L 109.441406 221.980469 C 109.257812 220.492188 109.722656 218.996094 110.714844 217.871094 C 111.710938 216.75 113.136719 216.109375 114.636719 216.109375 L 170.132812 216.109375 C 171.632812 216.109375 173.058594 216.75 174.050781 217.871094 C 175.046875 218.996094 175.511719 220.492188 175.328125 221.980469 L 169.984375 265.582031 C 169.664062 268.203125 167.429688 270.179688 164.789062 270.179688 "></path>
<path style=" stroke:none;fill-rule:nonzero;fill:rgb(26.66626%,32.548523%,36.862183%);fill-opacity:1;" d="M 114.640625 212.335938 C 114.625 212.335938 114.613281 212.335938 114.597656 212.335938 C 114.152344 212.3125 113.808594 211.929688 113.832031 211.484375 C 114.097656 206.53125 118.148438 202.636719 123.097656 202.546875 C 123.574219 197.039062 128.683594 192.710938 134.898438 192.710938 C 136.289062 192.710938 137.648438 192.925781 138.949219 193.351562 C 140.632812 191.289062 143.476562 190.027344 146.523438 190.027344 C 147.5625 190.027344 148.578125 190.167969 149.539062 190.449219 C 149.96875 190.570312 150.214844 191.019531 150.089844 191.449219 C 149.964844 191.878906 149.515625 192.128906 149.089844 192 C 148.273438 191.765625 147.410156 191.644531 146.523438 191.644531 C 143.761719 191.644531 141.222656 192.84375 139.90625 194.769531 C 139.695312 195.078125 139.296875 195.199219 138.949219 195.066406 C 137.660156 194.578125 136.300781 194.328125 134.898438 194.328125 C 129.265625 194.328125 124.679688 198.375 124.679688 203.355469 C 124.679688 203.578125 124.582031 203.8125 124.417969 203.964844 C 124.25 204.117188 124.03125 204.210938 123.804688 204.191406 C 123.617188 204.175781 123.449219 204.160156 123.273438 204.160156 C 119.105469 204.160156 115.667969 207.417969 115.445312 211.570312 C 115.421875 212.003906 115.066406 212.335938 114.640625 212.335938 "></path>
<path style=" stroke:none;fill-rule:nonzero;fill:rgb(26.66626%,32.548523%,36.862183%);fill-opacity:1;" d="M 170.949219 212.335938 C 170.5625 212.335938 170.222656 212.058594 170.152344 211.667969 C 169.457031 207.679688 166.316406 204.492188 162.160156 203.550781 C 161.867188 203.484375 161.636719 203.261719 161.558594 202.972656 C 160.746094 199.996094 158.003906 197.707031 154.566406 197.144531 C 154.039062 197.058594 153.488281 197.011719 152.929688 197.011719 C 148.691406 197.011719 145.027344 199.644531 144.21875 203.277344 C 144.132812 203.671875 143.765625 203.933594 143.363281 203.90625 C 143.027344 203.878906 142.71875 203.867188 142.421875 203.867188 C 136.96875 203.867188 132.386719 207.207031 131.761719 211.640625 C 131.699219 212.085938 131.285156 212.390625 130.847656 212.328125 C 130.40625 212.265625 130.097656 211.855469 130.160156 211.414062 C 130.898438 206.191406 136.167969 202.25 142.421875 202.25 C 142.554688 202.25 142.683594 202.25 142.820312 202.257812 C 144.066406 198.242188 148.199219 195.394531 152.929688 195.394531 C 153.578125 195.394531 154.21875 195.449219 154.832031 195.550781 C 158.710938 196.183594 161.855469 198.726562 162.976562 202.085938 C 167.542969 203.300781 170.960938 206.90625 171.746094 211.390625 C 171.820312 211.828125 171.527344 212.246094 171.085938 212.324219 C 171.039062 212.332031 170.992188 212.335938 170.949219 212.335938 "></path>
<path style=" stroke:none;fill-rule:nonzero;fill:rgb(26.66626%,32.548523%,36.862183%);fill-opacity:1;" d="M 124.464844 265.636719 C 124.050781 265.636719 123.695312 265.320312 123.660156 264.894531 L 120.261719 223.285156 C 120.226562 222.839844 120.554688 222.449219 121 222.414062 C 121.449219 222.378906 121.835938 222.707031 121.871094 223.152344 L 125.273438 264.765625 C 125.308594 265.207031 124.976562 265.597656 124.53125 265.636719 C 124.507812 265.636719 124.488281 265.636719 124.464844 265.636719 "></path>
<path style=" stroke:none;fill-rule:nonzero;fill:rgb(26.66626%,32.548523%,36.862183%);fill-opacity:1;" d="M 133.425781 265.636719 C 132.992188 265.636719 132.636719 265.296875 132.617188 264.863281 L 130.917969 223.25 C 130.898438 222.804688 131.246094 222.429688 131.691406 222.410156 C 132.136719 222.386719 132.515625 222.738281 132.53125 223.1875 L 134.234375 264.796875 C 134.25 265.242188 133.90625 265.621094 133.457031 265.636719 C 133.445312 265.636719 133.4375 265.636719 133.425781 265.636719 "></path>
<path style=" stroke:none;fill-rule:nonzero;fill:rgb(26.66626%,32.548523%,36.862183%);fill-opacity:1;" d="M 142.382812 265.636719 C 141.9375 265.636719 141.578125 265.277344 141.578125 264.832031 L 141.578125 223.21875 C 141.578125 222.773438 141.9375 222.410156 142.382812 222.410156 C 142.832031 222.410156 143.191406 222.773438 143.191406 223.21875 L 143.191406 264.832031 C 143.191406 265.277344 142.832031 265.636719 142.382812 265.636719 "></path>
<path style=" stroke:none;fill-rule:nonzero;fill:rgb(26.66626%,32.548523%,36.862183%);fill-opacity:1;" d="M 151.34375 265.636719 C 151.332031 265.636719 151.324219 265.636719 151.3125 265.636719 C 150.863281 265.621094 150.519531 265.242188 150.535156 264.796875 L 152.234375 223.1875 C 152.253906 222.738281 152.640625 222.390625 153.078125 222.410156 C 153.523438 222.429688 153.871094 222.804688 153.851562 223.25 L 152.152344 264.863281 C 152.132812 265.296875 151.777344 265.636719 151.34375 265.636719 "></path>
<path style=" stroke:none;fill-rule:nonzero;fill:rgb(26.66626%,32.548523%,36.862183%);fill-opacity:1;" d="M 160.304688 265.636719 C 160.28125 265.636719 160.257812 265.636719 160.238281 265.636719 C 159.792969 265.597656 159.460938 265.207031 159.496094 264.765625 L 162.898438 223.152344 C 162.933594 222.707031 163.324219 222.386719 163.769531 222.414062 C 164.214844 222.449219 164.542969 222.839844 164.507812 223.285156 L 161.109375 264.894531 C 161.074219 265.320312 160.71875 265.636719 160.304688 265.636719 "></path>
</g>
</svg>