<?xml version="1.0" encoding="UTF-8"?>
<svg xmlns="http://www.w3.org/2000/svg" viewBox="151.3594 353.1719 87.7695 67.7188" width="87.7695pt" height="67.7188pt" version="1.2">
<g>
<path style=" stroke:none;fill-rule:nonzero;fill:rgb(11.372375%,11.372375%,10.588074%);fill-opacity:1;" d="M 211.601562 420.890625 C 209.210938 420.890625 206.832031 419.964844 205.035156 418.167969 L 174.136719 387.269531 C 170.519531 383.652344 170.519531 377.761719 174.136719 374.144531 L 191.488281 356.792969 C 195.105469 353.171875 200.992188 353.171875 204.613281 356.792969 L 235.511719 387.691406 C 239.128906 391.308594 239.128906 397.195312 235.511719 400.8125 L 221.59375 414.734375 C 221.285156 415.042969 220.785156 415.042969 220.476562 414.734375 C 220.167969 414.425781 220.167969 413.921875 220.476562 413.613281 L 234.394531 399.695312 C 237.394531 396.695312 237.394531 391.808594 234.394531 388.808594 L 203.496094 357.910156 C 200.492188 354.90625 195.609375 354.910156 192.605469 357.910156 L 175.253906 375.261719 C 172.253906 378.265625 172.253906 383.148438 175.253906 386.152344 L 206.152344 417.050781 C 208.789062 419.6875 212.921875 420.058594 215.980469 417.9375 C 216.339844 417.6875 216.832031 417.777344 217.082031 418.132812 C 217.328125 418.492188 217.242188 418.984375 216.882812 419.234375 C 215.28125 420.347656 213.4375 420.890625 211.601562 420.890625 "></path>
<path style=" stroke:none;fill-rule:nonzero;fill:rgb(11.372375%,11.372375%,10.588074%);fill-opacity:1;" d="M 231.917969 394.402344 C 231.902344 394.402344 231.882812 394.402344 231.863281 394.398438 L 205.039062 392.488281 C 202.253906 392.289062 200.011719 390.042969 199.816406 387.265625 L 197.902344 360.441406 C 197.871094 360.003906 198.199219 359.628906 198.636719 359.597656 C 199.078125 359.558594 199.449219 359.890625 199.480469 360.328125 L 201.390625 387.152344 C 201.53125 389.152344 203.148438 390.769531 205.152344 390.914062 L 231.976562 392.824219 C 232.410156 392.855469 232.738281 393.230469 232.707031 393.667969 C 232.675781 394.082031 232.332031 394.402344 231.917969 394.402344 "></path>
<path style=" stroke:none;fill-rule:nonzero;fill:rgb(11.372375%,11.372375%,10.588074%);fill-opacity:1;" d="M 210.953125 415.367188 C 210.539062 415.367188 210.195312 415.050781 210.164062 414.632812 L 208.558594 392.058594 C 208.527344 391.621094 208.855469 391.242188 209.289062 391.214844 C 209.722656 391.175781 210.101562 391.507812 210.136719 391.945312 L 211.742188 414.523438 C 211.773438 414.957031 211.445312 415.335938 211.007812 415.367188 C 210.988281 415.367188 210.972656 415.367188 210.953125 415.367188 "></path>
<path style=" stroke:none;fill-rule:nonzero;fill:rgb(11.372375%,11.372375%,10.588074%);fill-opacity:1;" d="M 200.304688 383.746094 C 200.285156 383.746094 200.265625 383.746094 200.246094 383.746094 L 177.671875 382.140625 C 177.234375 382.109375 176.90625 381.730469 176.9375 381.292969 C 176.96875 380.859375 177.347656 380.523438 177.78125 380.5625 L 200.359375 382.167969 C 200.792969 382.199219 201.121094 382.578125 201.089844 383.011719 C 201.0625 383.429688 200.714844 383.746094 200.304688 383.746094 "></path>
<path style=" stroke:none;fill-rule:nonzero;fill:rgb(11.372375%,11.372375%,10.588074%);fill-opacity:1;" d="M 179.722656 355.65625 L 169.898438 355.65625 C 169.464844 355.65625 169.109375 355.300781 169.109375 354.863281 C 169.109375 354.429688 169.464844 354.074219 169.898438 354.074219 L 179.722656 354.074219 C 180.160156 354.074219 180.515625 354.429688 180.515625 354.863281 C 180.515625 355.300781 180.160156 355.65625 179.722656 355.65625 "></path>
<path style=" stroke:none;fill-rule:nonzero;fill:rgb(11.372375%,11.372375%,10.588074%);fill-opacity:1;" d="M 170.851562 363.414062 L 163.402344 363.414062 C 162.964844 363.414062 162.613281 363.058594 162.613281 362.621094 C 162.613281 362.1875 162.964844 361.832031 163.402344 361.832031 L 170.851562 361.832031 C 171.285156 361.832031 171.640625 362.1875 171.640625 362.621094 C 171.640625 363.058594 171.285156 363.414062 170.851562 363.414062 "></path>
<path style=" stroke:none;fill-rule:nonzero;fill:rgb(11.372375%,11.372375%,10.588074%);fill-opacity:1;" d="M 155.953125 380.84375 L 152.152344 380.84375 C 151.714844 380.84375 151.359375 380.492188 151.359375 380.054688 C 151.359375 379.617188 151.714844 379.265625 152.152344 379.265625 L 155.953125 379.265625 C 156.390625 379.265625 156.742188 379.617188 156.742188 380.054688 C 156.742188 380.492188 156.390625 380.84375 155.953125 380.84375 "></path>
<path style=" stroke:none;fill-rule:nonzero;fill:rgb(11.372375%,11.372375%,10.588074%);fill-opacity:1;" d="M 163.402344 380.84375 L 161.976562 380.84375 C 161.539062 380.84375 161.1875 380.492188 161.1875 380.054688 C 161.1875 379.617188 161.539062 379.265625 161.976562 379.265625 L 163.402344 379.265625 C 163.839844 379.265625 164.191406 379.617188 164.191406 380.054688 C 164.191406 380.492188 163.839844 380.84375 163.402344 380.84375 "></path>
<path style=" stroke:none;fill-rule:nonzero;fill:rgb(11.372375%,11.372375%,10.588074%);fill-opacity:1;" d="M 166.097656 390.589844 L 158.648438 390.589844 C 158.210938 390.589844 157.859375 390.238281 157.859375 389.800781 C 157.859375 389.363281 158.210938 389.011719 158.648438 389.011719 L 166.097656 389.011719 C 166.53125 389.011719 166.886719 389.363281 166.886719 389.800781 C 166.886719 390.238281 166.53125 390.589844 166.097656 390.589844 "></path>
<path style=" stroke:none;fill-rule:nonzero;fill:rgb(11.372375%,11.372375%,10.588074%);fill-opacity:1;" d="M 176.078125 400.335938 L 169.898438 400.335938 C 169.464844 400.335938 169.109375 399.984375 169.109375 399.546875 C 169.109375 399.109375 169.464844 398.757812 169.898438 398.757812 L 176.078125 398.757812 C 176.515625 398.757812 176.871094 399.109375 176.871094 399.546875 C 176.871094 399.984375 176.515625 400.335938 176.078125 400.335938 "></path>
<path style=" stroke:none;fill-rule:nonzero;fill:rgb(11.372375%,11.372375%,10.588074%);fill-opacity:1;" d="M 170.988281 417.292969 L 166.433594 417.292969 C 165.996094 417.292969 165.640625 416.9375 165.640625 416.503906 C 165.640625 416.066406 165.996094 415.710938 166.433594 415.710938 L 170.988281 415.710938 C 171.425781 415.710938 171.777344 416.066406 171.777344 416.503906 C 171.777344 416.9375 171.425781 417.292969 170.988281 417.292969 "></path>
<path style=" stroke:none;fill-rule:nonzero;fill:rgb(11.372375%,11.372375%,10.588074%);fill-opacity:1;" d="M 188.539062 417.292969 L 178.816406 417.292969 C 178.378906 417.292969 178.023438 416.9375 178.023438 416.503906 C 178.023438 416.066406 178.378906 415.710938 178.816406 415.710938 L 188.539062 415.710938 C 188.976562 415.710938 189.328125 416.066406 189.328125 416.503906 C 189.328125 416.9375 188.976562 417.292969 188.539062 417.292969 "></path>
</g>
</svg>