<?xml version="1.0" encoding="UTF-8"?>
<svg xmlns="http://www.w3.org/2000/svg" viewBox="168.5547 216.0078 76.9375 75.1641" width="76.9375pt" height="75.1641pt" version="1.2">
<g>
<path style=" stroke:none;fill-rule:nonzero;fill:rgb(11.372375%,11.372375%,10.588074%);fill-opacity:1;" d="M 190.824219 290.34375 L 188.710938 290.34375 C 185.652344 290.34375 183.164062 287.859375 183.164062 284.804688 L 183.164062 271.921875 C 183.164062 270.585938 183.523438 269.28125 184.199219 268.140625 L 185.933594 265.207031 L 185.933594 258.082031 C 175.976562 256.257812 168.554688 247.410156 168.554688 237.21875 C 168.554688 225.523438 178.070312 216.007812 189.765625 216.007812 C 196.128906 216.007812 202.101562 218.828125 206.148438 223.746094 C 206.425781 224.082031 206.378906 224.578125 206.042969 224.855469 C 205.703125 225.132812 205.207031 225.085938 204.929688 224.746094 C 201.183594 220.195312 195.65625 217.582031 189.765625 217.582031 C 178.9375 217.582031 170.132812 226.390625 170.132812 237.21875 C 170.132812 246.863281 177.316406 255.210938 186.84375 256.632812 C 187.253906 256.695312 187.542969 257.0625 187.515625 257.472656 C 187.511719 257.488281 187.507812 257.507812 187.507812 257.523438 L 187.507812 265.421875 C 187.507812 265.5625 187.46875 265.703125 187.398438 265.824219 L 185.554688 268.945312 C 185.023438 269.839844 184.742188 270.871094 184.742188 271.921875 L 184.742188 284.804688 C 184.742188 286.988281 186.523438 288.769531 188.710938 288.769531 L 190.824219 288.769531 C 193.011719 288.769531 194.792969 286.988281 194.792969 284.804688 L 194.792969 271.921875 C 194.792969 270.878906 194.511719 269.847656 193.980469 268.945312 L 192.136719 265.824219 C 192.0625 265.703125 192.027344 265.5625 192.027344 265.421875 L 192.027344 257.503906 C 192.023438 257.492188 192.023438 257.480469 192.023438 257.472656 C 191.992188 257.0625 192.277344 256.695312 192.6875 256.632812 C 202.214844 255.210938 209.398438 246.863281 209.398438 237.21875 C 209.398438 234.527344 208.863281 231.921875 207.8125 229.46875 C 207.640625 229.070312 207.824219 228.605469 208.222656 228.433594 C 208.625 228.261719 209.089844 228.449219 209.261719 228.847656 C 210.398438 231.496094 210.976562 234.3125 210.976562 237.21875 C 210.976562 247.410156 203.554688 256.253906 193.601562 258.078125 L 193.601562 265.207031 L 195.335938 268.144531 C 196.011719 269.292969 196.367188 270.597656 196.367188 271.921875 L 196.367188 284.804688 C 196.367188 287.859375 193.882812 290.34375 190.824219 290.34375 "></path>
<path style=" stroke:none;fill-rule:nonzero;fill:rgb(11.372375%,11.372375%,10.588074%);fill-opacity:1;" d="M 174.847656 236.839844 C 174.824219 236.839844 174.804688 236.835938 174.785156 236.835938 C 174.351562 236.804688 174.027344 236.421875 174.058594 235.988281 C 174.179688 234.417969 174.535156 232.882812 175.117188 231.421875 C 175.277344 231.015625 175.734375 230.820312 176.140625 230.976562 C 176.542969 231.136719 176.742188 231.597656 176.582031 232.003906 C 176.058594 233.316406 175.742188 234.699219 175.632812 236.113281 C 175.597656 236.523438 175.253906 236.839844 174.847656 236.839844 "></path>
<path style=" stroke:none;fill-rule:nonzero;fill:rgb(11.372375%,11.372375%,10.588074%);fill-opacity:1;" d="M 187.535156 252.804688 C 187.496094 252.804688 187.457031 252.800781 187.417969 252.796875 C 182.617188 252.078125 178.332031 249.078125 175.957031 244.761719 C 175.75 244.382812 175.886719 243.902344 176.269531 243.691406 C 176.652344 243.484375 177.128906 243.621094 177.339844 244.003906 C 179.476562 247.886719 183.332031 250.59375 187.648438 251.238281 C 188.078125 251.300781 188.375 251.703125 188.3125 252.132812 C 188.253906 252.523438 187.917969 252.804688 187.535156 252.804688 "></path>
<path style=" stroke:none;fill-rule:nonzero;fill:rgb(11.372375%,11.372375%,10.588074%);fill-opacity:1;" d="M 223.296875 290.34375 C 222.367188 290.34375 221.421875 290.15625 220.519531 289.761719 L 217.667969 288.511719 C 217.066406 288.25 216.375 288.25 215.769531 288.511719 L 212.921875 289.761719 C 209.707031 291.171875 205.949219 289.949219 204.175781 286.921875 L 202.605469 284.230469 C 202.277344 283.667969 201.71875 283.261719 201.074219 283.117188 L 198.03125 282.453125 C 196.941406 282.214844 195.921875 281.714844 195.074219 281.003906 C 194.742188 280.726562 194.695312 280.226562 194.976562 279.894531 C 195.257812 279.5625 195.753906 279.515625 196.085938 279.796875 C 196.738281 280.34375 197.527344 280.730469 198.367188 280.914062 L 201.414062 281.578125 C 202.488281 281.820312 203.417969 282.496094 203.964844 283.4375 L 205.539062 286.125 C 206.90625 288.460938 209.808594 289.40625 212.289062 288.316406 L 215.144531 287.066406 C 216.148438 286.632812 217.296875 286.632812 218.296875 287.066406 L 221.15625 288.316406 C 223.632812 289.40625 226.535156 288.464844 227.90625 286.125 L 229.476562 283.433594 C 230.027344 282.496094 230.957031 281.820312 232.027344 281.578125 L 235.074219 280.914062 C 236.75 280.550781 238.160156 279.386719 238.839844 277.804688 C 239.011719 277.402344 239.476562 277.21875 239.875 277.390625 C 240.277344 277.5625 240.460938 278.027344 240.289062 278.425781 C 239.40625 280.476562 237.582031 281.984375 235.410156 282.453125 L 232.367188 283.121094 C 231.726562 283.261719 231.167969 283.667969 230.839844 284.230469 L 229.265625 286.921875 C 227.992188 289.101562 225.6875 290.34375 223.296875 290.34375 "></path>
<path style=" stroke:none;fill-rule:nonzero;fill:rgb(11.372375%,11.372375%,10.588074%);fill-opacity:1;" d="M 239.722656 272.785156 C 239.320312 272.785156 238.980469 272.484375 238.9375 272.078125 C 238.832031 270.988281 239.1875 269.890625 239.914062 269.070312 L 241.984375 266.742188 C 243.78125 264.722656 243.78125 261.667969 241.984375 259.644531 L 239.914062 257.320312 C 239.1875 256.496094 238.832031 255.402344 238.9375 254.316406 L 239.246094 251.21875 C 239.515625 248.519531 237.722656 246.050781 235.074219 245.476562 L 232.03125 244.808594 C 230.953125 244.570312 230.027344 243.894531 229.476562 242.953125 L 227.90625 240.261719 C 226.539062 237.925781 223.636719 236.984375 221.15625 238.070312 L 218.300781 239.320312 C 217.34375 239.742188 216.28125 239.765625 215.3125 239.386719 C 214.910156 239.230469 214.707031 238.773438 214.867188 238.367188 C 215.023438 237.960938 215.480469 237.761719 215.886719 237.917969 C 216.460938 238.144531 217.09375 238.128906 217.667969 237.878906 L 220.523438 236.628906 C 223.734375 235.214844 227.492188 236.4375 229.265625 239.46875 L 230.839844 242.15625 C 231.167969 242.71875 231.726562 243.125 232.371094 243.269531 L 235.410156 243.933594 C 238.84375 244.683594 241.164062 247.878906 240.8125 251.375 L 240.507812 254.472656 C 240.441406 255.125 240.65625 255.78125 241.09375 256.273438 L 243.160156 258.597656 C 245.492188 261.21875 245.492188 265.171875 243.160156 267.792969 L 241.09375 270.117188 C 240.65625 270.609375 240.441406 271.269531 240.507812 271.921875 C 240.550781 272.351562 240.234375 272.738281 239.800781 272.78125 C 239.773438 272.785156 239.75 272.785156 239.722656 272.785156 "></path>
<path style=" stroke:none;fill-rule:nonzero;fill:rgb(11.372375%,11.372375%,10.588074%);fill-opacity:1;" d="M 228.570312 255.765625 C 228.320312 255.765625 228.078125 255.652344 227.921875 255.433594 C 225.332031 251.746094 221.101562 249.546875 216.605469 249.546875 C 216.167969 249.546875 215.816406 249.191406 215.816406 248.757812 C 215.816406 248.320312 216.167969 247.96875 216.605469 247.96875 C 221.613281 247.96875 226.328125 250.417969 229.210938 254.527344 C 229.464844 254.882812 229.378906 255.375 229.019531 255.625 C 228.882812 255.722656 228.726562 255.765625 228.570312 255.765625 "></path>
<path style=" stroke:none;fill-rule:nonzero;fill:rgb(11.372375%,11.372375%,10.588074%);fill-opacity:1;" d="M 216.605469 278.765625 C 211.371094 278.765625 206.542969 276.140625 203.683594 271.75 C 203.449219 271.382812 203.550781 270.894531 203.917969 270.65625 C 204.28125 270.421875 204.769531 270.523438 205.007812 270.890625 C 207.570312 274.832031 211.90625 277.1875 216.605469 277.1875 C 223.4375 277.1875 229.175781 272.300781 230.25 265.566406 C 230.320312 265.132812 230.722656 264.839844 231.15625 264.910156 C 231.585938 264.980469 231.878906 265.382812 231.808594 265.8125 C 230.609375 273.320312 224.214844 278.765625 216.605469 278.765625 "></path>
</g>
</svg>