<?xml version="1.0" encoding="UTF-8"?>
<svg xmlns="http://www.w3.org/2000/svg" viewBox="115.2344 456.0508 77.3594 67.4492" width="77.3594pt" height="67.4492pt" version="1.2">
<g>
<path style=" stroke:none;fill-rule:nonzero;fill:rgb(11.372375%,11.372375%,10.588074%);fill-opacity:1;" d="M 116.109375 523.5 C 115.625 523.5 115.234375 523.109375 115.234375 522.625 L 115.234375 495.359375 C 115.234375 489.90625 119.675781 485.46875 125.128906 485.46875 L 136.851562 485.46875 C 142.308594 485.46875 146.746094 489.90625 146.746094 495.359375 L 146.746094 506.097656 C 146.746094 506.582031 146.355469 506.972656 145.871094 506.972656 C 145.390625 506.972656 145 506.582031 145 506.097656 L 145 495.359375 C 145 490.871094 141.34375 487.214844 136.851562 487.214844 L 125.128906 487.214844 C 120.636719 487.214844 116.984375 490.871094 116.984375 495.359375 L 116.984375 522.625 C 116.984375 523.109375 116.589844 523.5 116.109375 523.5 "></path>
<path style=" stroke:none;fill-rule:nonzero;fill:rgb(11.372375%,11.372375%,10.588074%);fill-opacity:1;" d="M 145.871094 523.5 C 145.390625 523.5 145 523.109375 145 522.625 L 145 519.027344 C 145 518.546875 145.390625 518.152344 145.871094 518.152344 C 146.355469 518.152344 146.746094 518.546875 146.746094 519.027344 L 146.746094 522.625 C 146.746094 523.109375 146.355469 523.5 145.871094 523.5 "></path>
<path style=" stroke:none;fill-rule:nonzero;fill:rgb(11.372375%,11.372375%,10.588074%);fill-opacity:1;" d="M 130.992188 460.496094 C 125.933594 460.496094 121.820312 464.609375 121.820312 469.667969 C 121.820312 474.722656 125.933594 478.835938 130.992188 478.835938 C 136.046875 478.835938 140.160156 474.722656 140.160156 469.667969 C 140.160156 464.609375 136.046875 460.496094 130.992188 460.496094 M 130.992188 480.585938 C 124.972656 480.585938 120.074219 475.6875 120.074219 469.667969 C 120.074219 463.644531 124.972656 458.746094 130.992188 458.746094 C 137.011719 458.746094 141.910156 463.644531 141.910156 469.667969 C 141.910156 475.6875 137.011719 480.585938 130.992188 480.585938 "></path>
<path style=" stroke:none;fill-rule:nonzero;fill:rgb(11.372375%,11.372375%,10.588074%);fill-opacity:1;" d="M 160.664062 519.902344 L 140.453125 519.902344 C 135.832031 519.902344 132.074219 516.140625 132.074219 511.519531 L 132.074219 498.957031 C 132.074219 498.472656 132.464844 498.082031 132.945312 498.082031 C 133.429688 498.082031 133.820312 498.472656 133.820312 498.957031 L 133.820312 511.519531 C 133.820312 515.179688 136.796875 518.152344 140.453125 518.152344 L 160.664062 518.152344 C 162.21875 518.152344 163.753906 517.507812 164.871094 516.378906 C 165.929688 515.3125 166.503906 513.9375 166.492188 512.511719 C 166.476562 511.042969 165.894531 509.660156 164.847656 508.617188 C 163.789062 507.554688 162.386719 506.972656 160.898438 506.972656 L 145.875 506.972656 C 145.394531 506.972656 145 506.582031 145 506.097656 C 145 505.617188 145.394531 505.226562 145.875 505.226562 L 160.898438 505.226562 C 162.855469 505.226562 164.695312 505.992188 166.082031 507.378906 C 167.453125 508.75 168.21875 510.566406 168.238281 512.496094 C 168.257812 514.390625 167.5 516.207031 166.113281 517.605469 C 164.667969 519.066406 162.683594 519.902344 160.664062 519.902344 "></path>
<path style=" stroke:none;fill-rule:nonzero;fill:rgb(11.372375%,11.372375%,10.588074%);fill-opacity:1;" d="M 172.941406 460.238281 L 155.5 472.863281 C 155.445312 472.902344 155.382812 472.9375 155.316406 472.964844 L 152.949219 473.917969 C 149.589844 475.269531 147.957031 479.101562 149.3125 482.460938 L 149.40625 482.691406 C 150.058594 484.320312 151.308594 485.59375 152.921875 486.28125 C 154.535156 486.964844 156.320312 486.984375 157.945312 486.332031 L 160.3125 485.375 C 160.378906 485.351562 160.449219 485.332031 160.519531 485.324219 L 181.839844 482.335938 Z M 155.492188 488.558594 C 154.386719 488.558594 153.285156 488.332031 152.238281 487.886719 C 150.195312 487.019531 148.613281 485.40625 147.785156 483.34375 L 147.691406 483.113281 C 146.859375 481.054688 146.882812 478.792969 147.753906 476.75 C 148.621094 474.707031 150.234375 473.125 152.296875 472.296875 L 154.5625 471.382812 L 172.824219 458.167969 C 173.042969 458.011719 173.320312 457.960938 173.578125 458.039062 C 173.835938 458.113281 174.046875 458.300781 174.148438 458.550781 L 183.878906 482.722656 C 183.980469 482.96875 183.957031 483.25 183.824219 483.484375 C 183.691406 483.714844 183.457031 483.875 183.191406 483.914062 L 160.867188 487.039062 L 158.597656 487.953125 C 157.59375 488.355469 156.542969 488.558594 155.492188 488.558594 "></path>
<path style=" stroke:none;fill-rule:nonzero;fill:rgb(11.372375%,11.372375%,10.588074%);fill-opacity:1;" d="M 164.175781 496.804688 C 163.453125 496.804688 162.75 496.582031 162.148438 496.160156 C 161.371094 495.617188 160.851562 494.804688 160.6875 493.871094 L 160.144531 490.808594 C 160.0625 490.332031 160.378906 489.878906 160.855469 489.796875 C 161.328125 489.714844 161.78125 490.027344 161.867188 490.503906 L 162.410156 493.570312 C 162.492188 494.039062 162.753906 494.453125 163.148438 494.730469 C 163.542969 495.003906 164.019531 495.109375 164.496094 495.027344 C 164.628906 495.003906 164.75 494.96875 164.859375 494.925781 C 165.644531 494.609375 166.105469 493.773438 165.957031 492.9375 L 165.574219 490.769531 C 165.488281 490.296875 165.804688 489.839844 166.28125 489.757812 C 166.753906 489.671875 167.210938 489.992188 167.292969 490.464844 L 167.675781 492.632812 C 167.96875 494.277344 167.058594 495.925781 165.511719 496.546875 C 165.292969 496.636719 165.054688 496.703125 164.804688 496.746094 C 164.59375 496.785156 164.382812 496.804688 164.175781 496.804688 "></path>
<path style=" stroke:none;fill-rule:nonzero;fill:rgb(11.372375%,11.372375%,10.588074%);fill-opacity:1;" d="M 186.605469 468.453125 C 186.257812 468.453125 185.929688 468.246094 185.792969 467.90625 C 185.613281 467.457031 185.828125 466.949219 186.277344 466.765625 L 190.8125 464.941406 C 191.261719 464.761719 191.769531 464.976562 191.949219 465.425781 C 192.128906 465.875 191.914062 466.382812 191.464844 466.5625 L 186.929688 468.386719 C 186.824219 468.429688 186.710938 468.453125 186.605469 468.453125 "></path>
<path style=" stroke:none;fill-rule:nonzero;fill:rgb(11.372375%,11.372375%,10.588074%);fill-opacity:1;" d="M 181.679688 462.914062 C 181.585938 462.914062 181.488281 462.898438 181.394531 462.863281 C 180.9375 462.710938 180.695312 462.214844 180.851562 461.753906 L 182.566406 456.75 C 182.722656 456.296875 183.21875 456.050781 183.675781 456.207031 C 184.132812 456.363281 184.375 456.863281 184.21875 457.316406 L 182.503906 462.324219 C 182.378906 462.683594 182.042969 462.914062 181.679688 462.914062 "></path>
<path style=" stroke:none;fill-rule:nonzero;fill:rgb(11.372375%,11.372375%,10.588074%);fill-opacity:1;" d="M 191.59375 478.277344 C 191.457031 478.277344 191.324219 478.25 191.195312 478.183594 L 186.492188 475.761719 C 186.0625 475.542969 185.894531 475.015625 186.113281 474.585938 C 186.335938 474.15625 186.863281 473.988281 187.289062 474.207031 L 191.992188 476.628906 C 192.421875 476.847656 192.59375 477.375 192.371094 477.804688 C 192.214844 478.105469 191.910156 478.277344 191.59375 478.277344 "></path>
</g>
</svg>