<?xml version="1.0" encoding="UTF-8"?>
<svg xmlns="http://www.w3.org/2000/svg" viewBox="123.3906 660.1562 78.8555 74.7344" width="78.8555pt" height="74.7344pt" version="1.2">
<g>
<path style=" stroke:none;fill-rule:nonzero;fill:rgb(11.372375%,11.372375%,10.588074%);fill-opacity:1;" d="M 155.277344 734.855469 C 154.902344 734.855469 154.53125 734.753906 154.1875 734.550781 L 153.589844 734.199219 C 150.878906 732.617188 146.457031 730.035156 144.359375 726.898438 C 142.222656 727.582031 135.621094 729.625 131.472656 730.019531 C 130.746094 730.089844 130.054688 729.789062 129.570312 729.199219 C 129.003906 728.507812 128.820312 727.523438 129.089844 726.628906 C 130.816406 720.910156 138.703125 707.050781 143.582031 699.128906 C 143.839844 698.707031 144.394531 698.578125 144.816406 698.835938 C 145.238281 699.097656 145.371094 699.652344 145.109375 700.074219 C 139.140625 709.765625 132.308594 722.179688 130.808594 727.148438 C 130.691406 727.539062 130.816406 727.886719 130.960938 728.0625 C 131.0625 728.1875 131.175781 728.246094 131.304688 728.234375 C 135.996094 727.785156 144.390625 725 144.472656 724.972656 C 144.882812 724.835938 145.335938 725.011719 145.542969 725.390625 C 147.191406 728.382812 151.765625 731.054688 154.496094 732.648438 L 155.105469 733.003906 C 155.1875 733.054688 155.296875 733.097656 155.449219 733.007812 C 155.632812 732.894531 155.808594 732.605469 155.785156 732.21875 C 154.851562 716.996094 159.257812 700.363281 163.824219 695.660156 C 164.167969 695.304688 164.738281 695.296875 165.09375 695.640625 C 165.449219 695.984375 165.457031 696.554688 165.113281 696.910156 C 161.394531 700.738281 156.613281 716.355469 157.578125 732.109375 C 157.640625 733.128906 157.179688 734.058594 156.378906 734.542969 C 156.035156 734.75 155.65625 734.855469 155.277344 734.855469 "></path>
<path style=" stroke:none;fill-rule:nonzero;fill:rgb(11.372375%,11.372375%,10.588074%);fill-opacity:1;" d="M 170.359375 734.890625 C 169.972656 734.890625 169.585938 734.785156 169.234375 734.566406 C 168.445312 734.078125 167.996094 733.148438 168.058594 732.144531 C 168.710938 721.589844 166.257812 714.03125 164.046875 708.625 C 163.855469 708.167969 164.078125 707.640625 164.535156 707.453125 C 164.996094 707.265625 165.519531 707.488281 165.707031 707.945312 C 167.992188 713.53125 170.527344 721.339844 169.851562 732.253906 C 169.824219 732.667969 170.015625 732.933594 170.183594 733.039062 C 170.335938 733.132812 170.449219 733.09375 170.53125 733.046875 L 171.078125 732.730469 C 173.835938 731.144531 178.449219 728.492188 180.085938 725.402344 C 180.292969 725.011719 180.746094 724.832031 181.164062 724.96875 C 181.25 725 189.644531 727.785156 194.335938 728.234375 C 194.457031 728.242188 194.574219 728.1875 194.675781 728.058594 C 194.820312 727.882812 194.945312 727.539062 194.828125 727.148438 C 193.328125 722.179688 186.496094 709.765625 180.527344 700.074219 C 180.265625 699.652344 180.398438 699.097656 180.820312 698.835938 C 181.242188 698.578125 181.796875 698.707031 182.054688 699.128906 C 186.9375 707.050781 194.820312 720.914062 196.546875 726.628906 C 196.816406 727.523438 196.632812 728.507812 196.066406 729.199219 C 195.582031 729.789062 194.886719 730.085938 194.167969 730.019531 C 190.027344 729.625 183.4375 727.589844 181.289062 726.898438 C 179.191406 730.136719 174.714844 732.710938 171.972656 734.289062 L 171.429688 734.601562 C 171.089844 734.796875 170.722656 734.890625 170.359375 734.890625 "></path>
<path style=" stroke:none;fill-rule:nonzero;fill:rgb(11.372375%,11.372375%,10.588074%);fill-opacity:1;" d="M 162.820312 697.226562 C 161.28125 697.226562 159.746094 697.117188 158.21875 696.898438 C 155.375 696.488281 153.207031 694.4375 152.941406 691.910156 C 152.351562 686.242188 152.351562 680.492188 152.941406 674.820312 C 153.207031 672.292969 155.375 670.242188 158.21875 669.835938 C 161.273438 669.394531 164.367188 669.394531 167.417969 669.835938 C 170.261719 670.242188 172.429688 672.292969 172.695312 674.820312 C 173.105469 678.753906 173.230469 682.738281 173.074219 686.667969 C 173.054688 687.164062 172.636719 687.542969 172.140625 687.53125 C 171.644531 687.511719 171.257812 687.089844 171.277344 686.597656 C 171.433594 682.753906 171.308594 678.851562 170.90625 675.007812 C 170.730469 673.300781 169.191406 671.902344 167.164062 671.613281 C 164.28125 671.199219 161.355469 671.199219 158.472656 671.613281 C 156.449219 671.902344 154.90625 673.300781 154.730469 675.007812 C 154.152344 680.554688 154.152344 686.179688 154.730469 691.726562 C 154.910156 693.433594 156.449219 694.828125 158.472656 695.117188 C 161.355469 695.53125 164.28125 695.53125 167.164062 695.117188 C 168.867188 694.875 170.277344 693.816406 170.753906 692.421875 C 170.914062 691.953125 171.425781 691.703125 171.894531 691.863281 C 172.363281 692.023438 172.613281 692.535156 172.453125 693.003906 C 171.761719 695.027344 169.785156 696.558594 167.417969 696.898438 C 165.894531 697.117188 164.355469 697.226562 162.820312 697.226562 "></path>
<path style=" stroke:none;fill-rule:nonzero;fill:rgb(11.372375%,11.372375%,10.588074%);fill-opacity:1;" d="M 131.054688 696.140625 C 131.046875 696.140625 131.039062 696.140625 131.03125 696.140625 C 130.53125 696.128906 130.140625 695.714844 130.15625 695.21875 C 130.214844 693.039062 130.476562 691.019531 130.90625 689.378906 C 131.175781 688.363281 131.375 687.304688 131.503906 686.234375 C 131.5625 685.742188 132.011719 685.390625 132.5 685.449219 C 132.992188 685.507812 133.34375 685.953125 133.285156 686.445312 C 133.148438 687.597656 132.933594 688.738281 132.644531 689.835938 C 132.246094 691.347656 132.007812 693.226562 131.953125 695.269531 C 131.9375 695.757812 131.539062 696.140625 131.054688 696.140625 "></path>
<path style=" stroke:none;fill-rule:nonzero;fill:rgb(11.372375%,11.372375%,10.588074%);fill-opacity:1;" d="M 128.050781 706.1875 C 127.722656 706.1875 127.414062 706.167969 127.132812 706.125 C 126.175781 705.976562 125.527344 705.574219 125.207031 704.925781 C 123.804688 702.054688 123.390625 693.589844 124.910156 687.796875 C 125.652344 684.980469 125.652344 681.75 124.910156 678.933594 C 123.390625 673.140625 123.804688 664.675781 125.207031 661.804688 C 125.527344 661.15625 126.175781 660.753906 127.132812 660.605469 C 130.078125 660.15625 135.957031 662.179688 140.476562 664.21875 C 146.597656 666.984375 151.777344 670.328125 154.691406 673.402344 C 155.03125 673.761719 155.015625 674.328125 154.65625 674.671875 C 154.296875 675.011719 153.726562 674.996094 153.386719 674.636719 C 147.207031 668.117188 131.660156 661.730469 127.402344 662.382812 C 126.976562 662.445312 126.835938 662.566406 126.820312 662.597656 C 125.710938 664.867188 125.132812 672.710938 126.644531 678.476562 C 127.464844 681.582031 127.464844 685.148438 126.644531 688.253906 C 125.132812 694.019531 125.710938 701.863281 126.820312 704.136719 C 126.835938 704.164062 126.976562 704.28125 127.402344 704.347656 C 131.65625 704.992188 147.207031 698.613281 153.386719 692.09375 C 153.726562 691.734375 154.296875 691.71875 154.65625 692.058594 C 155.015625 692.402344 155.03125 692.96875 154.691406 693.328125 C 151.777344 696.398438 146.597656 699.746094 140.480469 702.511719 C 136.390625 704.355469 131.1875 706.1875 128.050781 706.1875 "></path>
<path style=" stroke:none;fill-rule:nonzero;fill:rgb(11.372375%,11.372375%,10.588074%);fill-opacity:1;" d="M 197.585938 706.1875 C 194.449219 706.1875 189.25 704.355469 185.15625 702.511719 C 179.039062 699.746094 173.859375 696.398438 170.945312 693.328125 C 170.605469 692.96875 170.621094 692.402344 170.980469 692.058594 C 171.339844 691.71875 171.910156 691.734375 172.25 692.09375 C 178.429688 698.613281 193.976562 705 198.234375 704.347656 C 198.664062 704.28125 198.804688 704.164062 198.816406 704.132812 C 199.929688 701.863281 200.503906 694.019531 198.992188 688.253906 C 198.171875 685.148438 198.171875 681.582031 198.992188 678.476562 C 200.503906 672.710938 199.929688 664.867188 198.816406 662.59375 C 198.804688 662.566406 198.664062 662.445312 198.234375 662.382812 C 193.976562 661.738281 178.429688 668.117188 172.25 674.636719 C 171.910156 674.996094 171.339844 675.011719 170.980469 674.671875 C 170.621094 674.328125 170.605469 673.761719 170.945312 673.402344 C 173.859375 670.328125 179.039062 666.984375 185.160156 664.21875 C 189.679688 662.179688 195.554688 660.15625 198.503906 660.605469 C 199.464844 660.753906 200.109375 661.15625 200.429688 661.804688 C 201.832031 664.675781 202.246094 673.140625 200.730469 678.933594 C 199.984375 681.75 199.984375 684.980469 200.726562 687.796875 C 202.246094 693.589844 201.832031 702.054688 200.429688 704.925781 C 200.109375 705.574219 199.460938 705.976562 198.503906 706.125 C 198.222656 706.167969 197.917969 706.1875 197.585938 706.1875 "></path>
</g>
</svg>